<?xml version="1.0" encoding="UTF-8" standalone="no"?>
<!DOCTYPE svg PUBLIC "-//W3C//DTD SVG 1.1//EN"
 "http://www.w3.org/Graphics/SVG/1.1/DTD/svg11.dtd">
<!-- Generated by graphviz version 2.43.0 (0)
 -->
<!-- Title: inc/app_state.h Pages: 1 -->
<svg width="923pt" height="137pt"
 viewBox="0.00 0.00 923.00 137.00" xmlns="http://www.w3.org/2000/svg" xmlns:xlink="http://www.w3.org/1999/xlink">
<g id="graph0" class="graph" transform="scale(1 1) rotate(0) translate(4 133)">
<title>inc/app_state.h</title>
<!-- Node1 -->
<g id="Node000001" class="node">
<title>Node1</title>
<g id="a_Node000001"><a xlink:title="Global application state shared across the GUI and worker threads.">
<polygon fill="#999999" stroke="#666666" points="520.5,-129 429.5,-129 429.5,-110 520.5,-110 520.5,-129"/>
<text text-anchor="middle" x="475" y="-117" font-family="Helvetica,sans-Serif" font-size="10.00">inc/app_state.h</text>
</a>
</g>
</g>
<!-- Node2 -->
<g id="Node000002" class="node">
<title>Node2</title>
<g id="a_Node000002"><a xlink:href="main__window_8c.html" target="_top" xlink:title="Main GTK3 window: menu bar, statistics bar, toolbar, trace, TX panel.">
<polygon fill="white" stroke="#666666" points="110,-19 0,-19 0,0 110,0 110,-19"/>
<text text-anchor="middle" x="55" y="-7" font-family="Helvetica,sans-Serif" font-size="10.00">gui/main_window.c</text>
</a>
</g>
</g>
<!-- Node1&#45;&gt;Node2 -->
<g id="edge1_Node000001_Node000002" class="edge">
<title>Node1&#45;&gt;Node2</title>
<g id="a_edge1_Node000001_Node000002"><a xlink:title=" ">
<path fill="none" stroke="#63b8ff" d="M431.96,-107.43C347.96,-85.83 163.82,-38.48 88.31,-19.07"/>
<polygon fill="#63b8ff" stroke="#63b8ff" points="431.14,-110.83 441.69,-109.94 432.88,-104.05 431.14,-110.83"/>
</a>
</g>
</g>
<!-- Node3 -->
<g id="Node000003" class="node">
<title>Node3</title>
<g id="a_Node000003"><a xlink:href="message__view_8c.html" target="_top" xlink:title="CAN trace GtkTreeView, value formatting, and statistics rendering.">
<polygon fill="white" stroke="#666666" points="243.5,-19 128.5,-19 128.5,0 243.5,0 243.5,-19"/>
<text text-anchor="middle" x="186" y="-7" font-family="Helvetica,sans-Serif" font-size="10.00">gui/message_view.c</text>
</a>
</g>
</g>
<!-- Node1&#45;&gt;Node3 -->
<g id="edge2_Node000001_Node000003" class="edge">
<title>Node1&#45;&gt;Node3</title>
<g id="a_edge2_Node000001_Node000003"><a xlink:title=" ">
<path fill="none" stroke="#63b8ff" d="M442.24,-106.26C383.09,-84.15 259.88,-38.11 208.87,-19.05"/>
<polygon fill="#63b8ff" stroke="#63b8ff" points="441.25,-109.62 451.84,-109.84 443.7,-103.07 441.25,-109.62"/>
</a>
</g>
</g>
<!-- Node4 -->
<g id="Node000004" class="node">
<title>Node4</title>
<g id="a_Node000004"><a xlink:href="settings__dialog_8c.html" target="_top" xlink:title="Modal CAN connection&#45;settings dialog.">
<polygon fill="white" stroke="#666666" points="378.5,-19 261.5,-19 261.5,0 378.5,0 378.5,-19"/>
<text text-anchor="middle" x="320" y="-7" font-family="Helvetica,sans-Serif" font-size="10.00">gui/settings_dialog.c</text>
</a>
</g>
</g>
<!-- Node1&#45;&gt;Node4 -->
<g id="edge3_Node000001_Node000004" class="edge">
<title>Node1&#45;&gt;Node4</title>
<g id="a_edge3_Node000001_Node000004"><a xlink:title=" ">
<path fill="none" stroke="#63b8ff" d="M454.2,-104.01C421.5,-81.22 359.06,-37.72 332.48,-19.2"/>
<polygon fill="#63b8ff" stroke="#63b8ff" points="452.37,-107 462.58,-109.84 456.37,-101.26 452.37,-107"/>
</a>
</g>
</g>
<!-- Node5 -->
<g id="Node000005" class="node">
<title>Node5</title>
<g id="a_Node000005"><a xlink:href="signal__view_8c.html" target="_top" xlink:title="Signal Analysis tab — live DBC&#45;decoded individual&#45;signal table.">
<polygon fill="white" stroke="#666666" points="497,-19 397,-19 397,0 497,0 497,-19"/>
<text text-anchor="middle" x="447" y="-7" font-family="Helvetica,sans-Serif" font-size="10.00">gui/signal_view.c</text>
</a>
</g>
</g>
<!-- Node1&#45;&gt;Node5 -->
<g id="edge4_Node000001_Node000005" class="edge">
<title>Node1&#45;&gt;Node5</title>
<g id="a_edge4_Node000001_Node000005"><a xlink:title=" ">
<path fill="none" stroke="#63b8ff" d="M470.15,-99.8C464.03,-76.2 453.76,-36.58 449.24,-19.16"/>
<polygon fill="#63b8ff" stroke="#63b8ff" points="466.81,-100.86 472.71,-109.66 473.59,-99.1 466.81,-100.86"/>
</a>
</g>
</g>
<!-- Node6 -->
<g id="Node000006" class="node">
<title>Node6</title>
<g id="a_Node000006"><a xlink:href="threads_8c.html" target="_top" xlink:title="Background worker threads, global state, and connect/disconnect logic.">
<polygon fill="white" stroke="#666666" points="709,-19 629,-19 629,0 709,0 709,-19"/>
<text text-anchor="middle" x="669" y="-7" font-family="Helvetica,sans-Serif" font-size="10.00">gui/threads.c</text>
</a>
</g>
</g>
<!-- Node1&#45;&gt;Node6 -->
<g id="edge5_Node000001_Node000006" class="edge">
<title>Node1&#45;&gt;Node6</title>
<g id="a_edge5_Node000001_Node000006"><a xlink:title=" ">
<path fill="none" stroke="#63b8ff" d="M499.5,-104.86C540.09,-82.26 620.11,-37.71 653.65,-19.05"/>
<polygon fill="#63b8ff" stroke="#63b8ff" points="497.58,-101.92 490.55,-109.84 500.99,-108.04 497.58,-101.92"/>
</a>
</g>
</g>
<!-- Node7 -->
<g id="Node000007" class="node">
<title>Node7</title>
<g id="a_Node000007"><a xlink:href="transmit__dialog_8c.html" target="_top" xlink:title="Advanced (&quot;Transmit...&quot;) CAN/CAN FD message composer window.">
<polygon fill="white" stroke="#666666" points="846.5,-19 727.5,-19 727.5,0 846.5,0 846.5,-19"/>
<text text-anchor="middle" x="787" y="-7" font-family="Helvetica,sans-Serif" font-size="10.00">gui/transmit_dialog.c</text>
</a>
</g>
</g>
<!-- Node1&#45;&gt;Node7 -->
<g id="edge6_Node000001_Node000007" class="edge">
<title>Node1&#45;&gt;Node7</title>
<g id="a_edge6_Node000001_Node000007"><a xlink:title=" ">
<path fill="none" stroke="#63b8ff" d="M509.29,-106.63C572.69,-84.68 706.84,-38.25 762.25,-19.07"/>
<polygon fill="#63b8ff" stroke="#63b8ff" points="508.05,-103.36 499.74,-109.94 510.34,-109.97 508.05,-103.36"/>
</a>
</g>
</g>
<!-- Node8 -->
<g id="Node000008" class="node">
<title>Node8</title>
<g id="a_Node000008"><a xlink:href="gui_8h.html" target="_top" xlink:title="GTK GUI widget registry and the application&#39;s GUI/thread API.">
<polygon fill="white" stroke="#666666" points="533,-74 475,-74 475,-55 533,-55 533,-74"/>
<text text-anchor="middle" x="504" y="-62" font-family="Helvetica,sans-Serif" font-size="10.00">inc/gui.h</text>
</a>
</g>
</g>
<!-- Node1&#45;&gt;Node8 -->
<g id="edge7_Node000001_Node000008" class="edge">
<title>Node1&#45;&gt;Node8</title>
<g id="a_edge7_Node000001_Node000008"><a xlink:title=" ">
<path fill="none" stroke="#63b8ff" d="M484.68,-100.82C489.6,-91.82 495.36,-81.29 499.3,-74.09"/>
<polygon fill="#63b8ff" stroke="#63b8ff" points="481.52,-99.3 479.79,-109.75 487.66,-102.66 481.52,-99.3"/>
</a>
</g>
</g>
<!-- Node10 -->
<g id="Node000010" class="node">
<title>Node10</title>
<g id="a_Node000010"><a xlink:href="main_8c.html" target="_top" xlink:title="Entry point for PCAN&#45;View Linux — a GTK3 CAN bus monitor/analyser.">
<polygon fill="white" stroke="#666666" points="915,-19 865,-19 865,0 915,0 915,-19"/>
<text text-anchor="middle" x="890" y="-7" font-family="Helvetica,sans-Serif" font-size="10.00">main.c</text>
</a>
</g>
</g>
<!-- Node1&#45;&gt;Node10 -->
<g id="edge16_Node000001_Node000010" class="edge">
<title>Node1&#45;&gt;Node10</title>
<g id="a_edge16_Node000001_Node000010"><a xlink:title=" ">
<path fill="none" stroke="#63b8ff" d="M517.63,-107.41C603.77,-84.99 796.19,-34.91 864.97,-17.01"/>
<polygon fill="#63b8ff" stroke="#63b8ff" points="516.71,-104.03 507.91,-109.94 518.47,-110.8 516.71,-104.03"/>
</a>
</g>
</g>
<!-- Node8&#45;&gt;Node2 -->
<g id="edge8_Node000008_Node000002" class="edge">
<title>Node8&#45;&gt;Node2</title>
<g id="a_edge8_Node000008_Node000002"><a xlink:title=" ">
<path fill="none" stroke="#63b8ff" d="M464.41,-59.15C394.6,-51.42 245.07,-34.66 119,-19 116.11,-18.64 113.14,-18.27 110.15,-17.89"/>
<polygon fill="#63b8ff" stroke="#63b8ff" points="464.19,-62.65 474.52,-60.26 464.96,-55.69 464.19,-62.65"/>
</a>
</g>
</g>
<!-- Node8&#45;&gt;Node3 -->
<g id="edge9_Node000008_Node000003" class="edge">
<title>Node8&#45;&gt;Node3</title>
<g id="a_edge9_Node000008_Node000003"><a xlink:title=" ">
<path fill="none" stroke="#63b8ff" d="M464.83,-56.97C407.5,-47.42 300.69,-29.61 237.2,-19.03"/>
<polygon fill="#63b8ff" stroke="#63b8ff" points="464.5,-60.46 474.94,-58.66 465.65,-53.56 464.5,-60.46"/>
</a>
</g>
</g>
<!-- Node8&#45;&gt;Node4 -->
<g id="edge10_Node000008_Node000004" class="edge">
<title>Node8&#45;&gt;Node4</title>
<g id="a_edge10_Node000008_Node000004"><a xlink:title=" ">
<path fill="none" stroke="#63b8ff" d="M465.11,-52.3C430.62,-42.36 380.99,-28.07 349.63,-19.03"/>
<polygon fill="#63b8ff" stroke="#63b8ff" points="464.27,-55.7 474.84,-55.1 466.2,-48.97 464.27,-55.7"/>
</a>
</g>
</g>
<!-- Node8&#45;&gt;Node5 -->
<g id="edge12_Node000008_Node000005" class="edge">
<title>Node8&#45;&gt;Node5</title>
<g id="a_edge12_Node000008_Node000005"><a xlink:title=" ">
<path fill="none" stroke="#63b8ff" d="M487.38,-48.04C477.27,-38.64 464.72,-26.98 456.32,-19.17"/>
<polygon fill="#63b8ff" stroke="#63b8ff" points="485.14,-50.74 494.84,-54.98 489.9,-45.61 485.14,-50.74"/>
</a>
</g>
</g>
<!-- Node8&#45;&gt;Node6 -->
<g id="edge13_Node000008_Node000006" class="edge">
<title>Node8&#45;&gt;Node6</title>
<g id="a_edge13_Node000008_Node000006"><a xlink:title=" ">
<path fill="none" stroke="#63b8ff" d="M540.43,-51.8C571.22,-41.91 614.62,-27.97 642.28,-19.08"/>
<polygon fill="#63b8ff" stroke="#63b8ff" points="538.96,-48.59 530.51,-54.98 541.1,-55.26 538.96,-48.59"/>
</a>
</g>
</g>
<!-- Node8&#45;&gt;Node7 -->
<g id="edge14_Node000008_Node000007" class="edge">
<title>Node8&#45;&gt;Node7</title>
<g id="a_edge14_Node000008_Node000007"><a xlink:title=" ">
<path fill="none" stroke="#63b8ff" d="M543.37,-56.13C595.32,-46.4 686.58,-29.31 741.45,-19.03"/>
<polygon fill="#63b8ff" stroke="#63b8ff" points="542.4,-52.75 533.22,-58.03 543.69,-59.63 542.4,-52.75"/>
</a>
</g>
</g>
<!-- Node9 -->
<g id="Node000009" class="node">
<title>Node9</title>
<g id="a_Node000009"><a xlink:href="signal__plot_8c.html" target="_top" xlink:title="Signal Analysis Viewer — multi&#45;signal value&#45;over&#45;time graph (Cairo).">
<polygon fill="white" stroke="#666666" points="611,-19 515,-19 515,0 611,0 611,-19"/>
<text text-anchor="middle" x="563" y="-7" font-family="Helvetica,sans-Serif" font-size="10.00">gui/signal_plot.c</text>
</a>
</g>
</g>
<!-- Node8&#45;&gt;Node9 -->
<g id="edge11_Node000008_Node000009" class="edge">
<title>Node8&#45;&gt;Node9</title>
<g id="a_edge11_Node000008_Node000009"><a xlink:title=" ">
<path fill="none" stroke="#63b8ff" d="M521.2,-48.04C531.67,-38.64 544.65,-26.98 553.35,-19.17"/>
<polygon fill="#63b8ff" stroke="#63b8ff" points="518.58,-45.7 513.48,-54.98 523.26,-50.91 518.58,-45.7"/>
</a>
</g>
</g>
<!-- Node8&#45;&gt;Node10 -->
<g id="edge15_Node000008_Node000010" class="edge">
<title>Node8&#45;&gt;Node10</title>
<g id="a_edge15_Node000008_Node000010"><a xlink:title=" ">
<path fill="none" stroke="#63b8ff" d="M543.66,-60.04C609.09,-53.99 743.59,-40.08 856,-19 858.87,-18.46 861.86,-17.83 864.82,-17.15"/>
<polygon fill="#63b8ff" stroke="#63b8ff" points="543.03,-56.58 533.39,-60.98 543.67,-63.56 543.03,-56.58"/>
</a>
</g>
</g>
</g>
</svg>
