<?xml version="1.0" encoding="UTF-8" standalone="no"?>
<!DOCTYPE svg PUBLIC "-//W3C//DTD SVG 1.1//EN"
 "http://www.w3.org/Graphics/SVG/1.1/DTD/svg11.dtd">
<!-- Generated by graphviz version 2.43.0 (0)
 -->
<!-- Title: inc/can_message.h Pages: 1 -->
<svg width="836pt" height="247pt"
 viewBox="0.00 0.00 836.10 247.00" xmlns="http://www.w3.org/2000/svg" xmlns:xlink="http://www.w3.org/1999/xlink">
<g id="graph0" class="graph" transform="scale(1 1) rotate(0) translate(4 243)">
<title>inc/can_message.h</title>
<!-- Node1 -->
<g id="Node000001" class="node">
<title>Node1</title>
<g id="a_Node000001"><a xlink:title="Hardware&#45;independent CAN/CAN FD message and statistics data types.">
<polygon fill="#999999" stroke="#666666" points="473.1,-239 363.1,-239 363.1,-220 473.1,-220 473.1,-239"/>
<text text-anchor="middle" x="418.1" y="-227" font-family="Helvetica,sans-Serif" font-size="10.00">inc/can_message.h</text>
</a>
</g>
</g>
<!-- Node2 -->
<g id="Node000002" class="node">
<title>Node2</title>
<g id="a_Node000002"><a xlink:href="socketcan_8c.html" target="_top" xlink:title="SocketCAN back&#45;end for PCAN&#45;View Linux (PF_CAN / SOCK_RAW).">
<polygon fill="white" stroke="#666666" points="118.6,-74 13.6,-74 13.6,-55 118.6,-55 118.6,-74"/>
<text text-anchor="middle" x="66.1" y="-62" font-family="Helvetica,sans-Serif" font-size="10.00">driver/socketcan.c</text>
</a>
</g>
</g>
<!-- Node1&#45;&gt;Node2 -->
<g id="edge1_Node000001_Node000002" class="edge">
<title>Node1&#45;&gt;Node2</title>
<g id="a_edge1_Node000001_Node000002"><a xlink:title=" ">
<path fill="none" stroke="#63b8ff" d="M352.6,-225.19C302.16,-220.61 231.71,-209.76 175.1,-184 139.41,-167.76 132.26,-158.22 106.1,-129 90.46,-111.52 77.04,-87.23 70.45,-74.35"/>
<polygon fill="#63b8ff" stroke="#63b8ff" points="352.47,-228.69 362.73,-226.04 353.06,-221.71 352.47,-228.69"/>
</a>
</g>
</g>
<!-- Node3 -->
<g id="Node000003" class="node">
<title>Node3</title>
<g id="a_Node000003"><a xlink:href="main__window_8c.html" target="_top" xlink:title="Main GTK3 window: menu bar, statistics bar, toolbar, trace, TX panel.">
<polygon fill="white" stroke="#666666" points="828.1,-19 718.1,-19 718.1,0 828.1,0 828.1,-19"/>
<text text-anchor="middle" x="773.1" y="-7" font-family="Helvetica,sans-Serif" font-size="10.00">gui/main_window.c</text>
</a>
</g>
</g>
<!-- Node1&#45;&gt;Node3 -->
<g id="edge2_Node000001_Node000003" class="edge">
<title>Node1&#45;&gt;Node3</title>
<g id="a_edge2_Node000001_Node000003"><a xlink:title=" ">
<path fill="none" stroke="#63b8ff" d="M449.01,-216.04C468.64,-207.75 494.34,-196.17 516.1,-184 615.71,-128.28 726.59,-45.86 761.76,-19.18"/>
<polygon fill="#63b8ff" stroke="#63b8ff" points="447.52,-212.87 439.64,-219.95 450.21,-219.33 447.52,-212.87"/>
</a>
</g>
</g>
<!-- Node4 -->
<g id="Node000004" class="node">
<title>Node4</title>
<g id="a_Node000004"><a xlink:href="message__view_8c.html" target="_top" xlink:title="CAN trace GtkTreeView, value formatting, and statistics rendering.">
<polygon fill="white" stroke="#666666" points="562.6,-19 447.6,-19 447.6,0 562.6,0 562.6,-19"/>
<text text-anchor="middle" x="505.1" y="-7" font-family="Helvetica,sans-Serif" font-size="10.00">gui/message_view.c</text>
</a>
</g>
</g>
<!-- Node1&#45;&gt;Node4 -->
<g id="edge3_Node000001_Node000004" class="edge">
<title>Node1&#45;&gt;Node4</title>
<g id="a_edge3_Node000001_Node000004"><a xlink:title=" ">
<path fill="none" stroke="#63b8ff" d="M437.53,-213.43C467.96,-188.41 525.49,-134.97 546.1,-74 548.81,-66 549.17,-62.87 546.1,-55 540.3,-40.13 526.93,-27.23 517.03,-19.2"/>
<polygon fill="#63b8ff" stroke="#63b8ff" points="434.98,-210.99 429.38,-219.99 439.36,-216.45 434.98,-210.99"/>
</a>
</g>
</g>
<!-- Node5 -->
<g id="Node000005" class="node">
<title>Node5</title>
<g id="a_Node000005"><a xlink:href="threads_8c.html" target="_top" xlink:title="Background worker threads, global state, and connect/disconnect logic.">
<polygon fill="white" stroke="#666666" points="208.1,-19 128.1,-19 128.1,0 208.1,0 208.1,-19"/>
<text text-anchor="middle" x="168.1" y="-7" font-family="Helvetica,sans-Serif" font-size="10.00">gui/threads.c</text>
</a>
</g>
</g>
<!-- Node1&#45;&gt;Node5 -->
<g id="edge4_Node000001_Node000005" class="edge">
<title>Node1&#45;&gt;Node5</title>
<g id="a_edge4_Node000001_Node000005"><a xlink:title=" ">
<path fill="none" stroke="#63b8ff" d="M352.89,-229C252.28,-225.64 64.51,-201.73 4.1,-74 -19.52,-24.04 72.24,-12.98 128.04,-10.79"/>
<polygon fill="#63b8ff" stroke="#63b8ff" points="352.84,-232.5 362.94,-229.28 353.04,-225.51 352.84,-232.5"/>
</a>
</g>
</g>
<!-- Node6 -->
<g id="Node000006" class="node">
<title>Node6</title>
<g id="a_Node000006"><a xlink:href="transmit__dialog_8c.html" target="_top" xlink:title="Advanced (&quot;Transmit...&quot;) CAN/CAN FD message composer window.">
<polygon fill="white" stroke="#666666" points="699.6,-19 580.6,-19 580.6,0 699.6,0 699.6,-19"/>
<text text-anchor="middle" x="640.1" y="-7" font-family="Helvetica,sans-Serif" font-size="10.00">gui/transmit_dialog.c</text>
</a>
</g>
</g>
<!-- Node1&#45;&gt;Node6 -->
<g id="edge5_Node000001_Node000006" class="edge">
<title>Node1&#45;&gt;Node6</title>
<g id="a_edge5_Node000001_Node000006"><a xlink:title=" ">
<path fill="none" stroke="#63b8ff" d="M444.99,-215.08C459.68,-207.1 477.75,-196.16 492.1,-184 556.14,-129.74 615.61,-46.36 634.16,-19.31"/>
<polygon fill="#63b8ff" stroke="#63b8ff" points="443.11,-212.12 435.9,-219.89 446.38,-218.31 443.11,-212.12"/>
</a>
</g>
</g>
<!-- Node7 -->
<g id="Node000007" class="node">
<title>Node7</title>
<g id="a_Node000007"><a xlink:href="app__state_8h.html" target="_top" xlink:title="Global application state shared across the GUI and worker threads.">
<polygon fill="white" stroke="#666666" points="463.6,-129 372.6,-129 372.6,-110 463.6,-110 463.6,-129"/>
<text text-anchor="middle" x="418.1" y="-117" font-family="Helvetica,sans-Serif" font-size="10.00">inc/app_state.h</text>
</a>
</g>
</g>
<!-- Node1&#45;&gt;Node7 -->
<g id="edge6_Node000001_Node000007" class="edge">
<title>Node1&#45;&gt;Node7</title>
<g id="a_edge6_Node000001_Node000007"><a xlink:title=" ">
<path fill="none" stroke="#63b8ff" d="M418.1,-209.48C418.1,-185.84 418.1,-146.5 418.1,-129.16"/>
<polygon fill="#63b8ff" stroke="#63b8ff" points="414.6,-209.66 418.1,-219.66 421.6,-209.66 414.6,-209.66"/>
</a>
</g>
</g>
<!-- Node9 -->
<g id="Node000009" class="node">
<title>Node9</title>
<g id="a_Node000009"><a xlink:href="gui_8h.html" target="_top" xlink:title="GTK GUI widget registry and the application&#39;s GUI/thread API.">
<polygon fill="white" stroke="#666666" points="537.1,-74 479.1,-74 479.1,-55 537.1,-55 537.1,-74"/>
<text text-anchor="middle" x="508.1" y="-62" font-family="Helvetica,sans-Serif" font-size="10.00">inc/gui.h</text>
</a>
</g>
</g>
<!-- Node1&#45;&gt;Node9 -->
<g id="edge29_Node000001_Node000009" class="edge">
<title>Node1&#45;&gt;Node9</title>
<g id="a_edge29_Node000001_Node000009"><a xlink:title=" ">
<path fill="none" stroke="#63b8ff" d="M427.68,-211.18C438.66,-191.33 457.19,-157.83 473.1,-129 483.93,-109.38 496.62,-86.35 503.35,-74.13"/>
<polygon fill="#63b8ff" stroke="#63b8ff" points="424.59,-209.54 422.82,-219.98 430.72,-212.93 424.59,-209.54"/>
</a>
</g>
</g>
<!-- Node11 -->
<g id="Node000011" class="node">
<title>Node11</title>
<g id="a_Node000011"><a xlink:href="drv__can_8h.html" target="_top" xlink:title="Generic CAN driver abstraction (vtable) and thin wrapper API.">
<polygon fill="white" stroke="#666666" points="265.6,-184 184.6,-184 184.6,-165 265.6,-165 265.6,-184"/>
<text text-anchor="middle" x="225.1" y="-172" font-family="Helvetica,sans-Serif" font-size="10.00">inc/drv_can.h</text>
</a>
</g>
</g>
<!-- Node1&#45;&gt;Node11 -->
<g id="edge20_Node000001_Node000011" class="edge">
<title>Node1&#45;&gt;Node11</title>
<g id="a_edge20_Node000001_Node000011"><a xlink:title=" ">
<path fill="none" stroke="#63b8ff" d="M377.36,-217.31C341.24,-207.39 289.27,-193.12 256.36,-184.08"/>
<polygon fill="#63b8ff" stroke="#63b8ff" points="376.52,-220.71 387.09,-219.98 378.38,-213.96 376.52,-220.71"/>
</a>
</g>
</g>
<!-- Node13 -->
<g id="Node000013" class="node">
<title>Node13</title>
<g id="a_Node000013"><a xlink:href="socketcan_8h.html" target="_top" xlink:title="SocketCAN back&#45;end interface (Linux PF_CAN / SOCK_RAW).">
<polygon fill="white" stroke="#666666" points="343.1,-129 251.1,-129 251.1,-110 343.1,-110 343.1,-129"/>
<text text-anchor="middle" x="297.1" y="-117" font-family="Helvetica,sans-Serif" font-size="10.00">inc/socketcan.h</text>
</a>
</g>
</g>
<!-- Node1&#45;&gt;Node13 -->
<g id="edge30_Node000001_Node000013" class="edge">
<title>Node1&#45;&gt;Node13</title>
<g id="a_edge30_Node000001_Node000013"><a xlink:title=" ">
<path fill="none" stroke="#63b8ff" d="M400.63,-212.91C374.78,-189.83 327.2,-147.37 306.8,-129.16"/>
<polygon fill="#63b8ff" stroke="#63b8ff" points="398.41,-215.61 408.2,-219.66 403.07,-210.39 398.41,-215.61"/>
</a>
</g>
</g>
<!-- Node7&#45;&gt;Node3 -->
<g id="edge7_Node000007_Node000003" class="edge">
<title>Node7&#45;&gt;Node3</title>
<g id="a_edge7_Node000007_Node000003"><a xlink:title=" ">
<path fill="none" stroke="#63b8ff" d="M459.56,-107.28C491.5,-98.52 536.72,-85.89 576.1,-74 638.02,-55.31 710.26,-31.51 747.7,-19.02"/>
<polygon fill="#63b8ff" stroke="#63b8ff" points="458.4,-103.97 449.68,-109.98 460.25,-110.72 458.4,-103.97"/>
</a>
</g>
</g>
<!-- Node7&#45;&gt;Node4 -->
<g id="edge8_Node000007_Node000004" class="edge">
<title>Node7&#45;&gt;Node4</title>
<g id="a_edge8_Node000007_Node000004"><a xlink:title=" ">
<path fill="none" stroke="#63b8ff" d="M431.64,-101.69C450.43,-78.37 483.72,-37.05 498.13,-19.16"/>
<polygon fill="#63b8ff" stroke="#63b8ff" points="428.77,-99.68 425.22,-109.66 434.22,-104.07 428.77,-99.68"/>
</a>
</g>
</g>
<!-- Node7&#45;&gt;Node5 -->
<g id="edge10_Node000007_Node000005" class="edge">
<title>Node7&#45;&gt;Node5</title>
<g id="a_edge10_Node000007_Node000005"><a xlink:title=" ">
<path fill="none" stroke="#63b8ff" d="M390.65,-105.49C362.73,-92.38 318.15,-71.73 279.1,-55 248.57,-41.91 212.84,-27.8 190.34,-19.06"/>
<polygon fill="#63b8ff" stroke="#63b8ff" points="389.25,-108.7 399.79,-109.8 392.23,-102.37 389.25,-108.7"/>
</a>
</g>
</g>
<!-- Node7&#45;&gt;Node6 -->
<g id="edge11_Node000007_Node000006" class="edge">
<title>Node7&#45;&gt;Node6</title>
<g id="a_edge11_Node000007_Node000006"><a xlink:title=" ">
<path fill="none" stroke="#63b8ff" d="M459.57,-107.08C485.18,-99.3 518.34,-87.91 546.1,-74 578.33,-57.86 612.52,-32.35 629.39,-19.11"/>
<polygon fill="#63b8ff" stroke="#63b8ff" points="458.39,-103.78 449.8,-109.98 460.38,-110.49 458.39,-103.78"/>
</a>
</g>
</g>
<!-- Node8 -->
<g id="Node000008" class="node">
<title>Node8</title>
<g id="a_Node000008"><a xlink:href="settings__dialog_8c.html" target="_top" xlink:title="Modal CAN connection&#45;settings dialog.">
<polygon fill="white" stroke="#666666" points="360.6,-19 243.6,-19 243.6,0 360.6,0 360.6,-19"/>
<text text-anchor="middle" x="302.1" y="-7" font-family="Helvetica,sans-Serif" font-size="10.00">gui/settings_dialog.c</text>
</a>
</g>
</g>
<!-- Node7&#45;&gt;Node8 -->
<g id="edge9_Node000007_Node000008" class="edge">
<title>Node7&#45;&gt;Node8</title>
<g id="a_edge9_Node000007_Node000008"><a xlink:title=" ">
<path fill="none" stroke="#63b8ff" d="M401.51,-102.59C388.01,-89.68 368.42,-71.07 351.1,-55 337.62,-42.49 321.85,-28.24 311.92,-19.3"/>
<polygon fill="#63b8ff" stroke="#63b8ff" points="399.41,-105.42 409.06,-109.81 404.25,-100.37 399.41,-105.42"/>
</a>
</g>
</g>
<!-- Node7&#45;&gt;Node9 -->
<g id="edge12_Node000007_Node000009" class="edge">
<title>Node7&#45;&gt;Node9</title>
<g id="a_edge12_Node000007_Node000009"><a xlink:title=" ">
<path fill="none" stroke="#63b8ff" d="M441.54,-104.7C457.94,-95.04 479.33,-82.44 493.38,-74.17"/>
<polygon fill="#63b8ff" stroke="#63b8ff" points="439.4,-101.89 432.56,-109.98 442.96,-107.93 439.4,-101.89"/>
</a>
</g>
</g>
<!-- Node10 -->
<g id="Node000010" class="node">
<title>Node10</title>
<g id="a_Node000010"><a xlink:href="main_8c.html" target="_top" xlink:title="Entry point for PCAN&#45;View Linux — a GTK3 CAN bus monitor/analyser.">
<polygon fill="white" stroke="#666666" points="429.1,-19 379.1,-19 379.1,0 429.1,0 429.1,-19"/>
<text text-anchor="middle" x="404.1" y="-7" font-family="Helvetica,sans-Serif" font-size="10.00">main.c</text>
</a>
</g>
</g>
<!-- Node7&#45;&gt;Node10 -->
<g id="edge19_Node000007_Node000010" class="edge">
<title>Node7&#45;&gt;Node10</title>
<g id="a_edge19_Node000007_Node000010"><a xlink:title=" ">
<path fill="none" stroke="#63b8ff" d="M415.64,-99.48C412.57,-75.84 407.47,-36.5 405.23,-19.16"/>
<polygon fill="#63b8ff" stroke="#63b8ff" points="412.2,-100.19 416.96,-109.66 419.14,-99.29 412.2,-100.19"/>
</a>
</g>
</g>
<!-- Node9&#45;&gt;Node3 -->
<g id="edge13_Node000009_Node000003" class="edge">
<title>Node9&#45;&gt;Node3</title>
<g id="a_edge13_Node000009_Node000003"><a xlink:title=" ">
<path fill="none" stroke="#63b8ff" d="M547.12,-55.7C596.08,-45.9 679.77,-29.17 730.4,-19.04"/>
<polygon fill="#63b8ff" stroke="#63b8ff" points="546.34,-52.28 537.22,-57.68 547.71,-59.15 546.34,-52.28"/>
</a>
</g>
</g>
<!-- Node9&#45;&gt;Node4 -->
<g id="edge14_Node000009_Node000004" class="edge">
<title>Node9&#45;&gt;Node4</title>
<g id="a_edge14_Node000009_Node000004"><a xlink:title=" ">
<path fill="none" stroke="#63b8ff" d="M507.04,-44.66C506.54,-35.93 505.98,-25.99 505.59,-19.09"/>
<polygon fill="#63b8ff" stroke="#63b8ff" points="503.55,-44.96 507.61,-54.75 510.54,-44.57 503.55,-44.96"/>
</a>
</g>
</g>
<!-- Node9&#45;&gt;Node5 -->
<g id="edge16_Node000009_Node000005" class="edge">
<title>Node9&#45;&gt;Node5</title>
<g id="a_edge16_Node000009_Node000005"><a xlink:title=" ">
<path fill="none" stroke="#63b8ff" d="M468.55,-57.33C403.33,-47.17 273.94,-27 208.3,-16.77"/>
<polygon fill="#63b8ff" stroke="#63b8ff" points="468.4,-60.85 478.82,-58.94 469.48,-53.94 468.4,-60.85"/>
</a>
</g>
</g>
<!-- Node9&#45;&gt;Node6 -->
<g id="edge17_Node000009_Node000006" class="edge">
<title>Node9&#45;&gt;Node6</title>
<g id="a_edge17_Node000009_Node000006"><a xlink:title=" ">
<path fill="none" stroke="#63b8ff" d="M538.84,-51.16C563.27,-41.35 596.84,-27.87 618.51,-19.17"/>
<polygon fill="#63b8ff" stroke="#63b8ff" points="537.29,-48.01 529.31,-54.98 539.9,-54.51 537.29,-48.01"/>
</a>
</g>
</g>
<!-- Node9&#45;&gt;Node8 -->
<g id="edge15_Node000009_Node000008" class="edge">
<title>Node9&#45;&gt;Node8</title>
<g id="a_edge15_Node000009_Node000008"><a xlink:title=" ">
<path fill="none" stroke="#63b8ff" d="M469.18,-53.49C430.57,-43.55 372.02,-28.49 335.47,-19.08"/>
<polygon fill="#63b8ff" stroke="#63b8ff" points="468.47,-56.92 479.03,-56.02 470.21,-50.14 468.47,-56.92"/>
</a>
</g>
</g>
<!-- Node9&#45;&gt;Node10 -->
<g id="edge18_Node000009_Node000010" class="edge">
<title>Node9&#45;&gt;Node10</title>
<g id="a_edge18_Node000009_Node000010"><a xlink:title=" ">
<path fill="none" stroke="#63b8ff" d="M482.33,-50.37C463.23,-40.63 437.73,-27.64 421.12,-19.17"/>
<polygon fill="#63b8ff" stroke="#63b8ff" points="480.89,-53.56 491.39,-54.98 484.07,-47.33 480.89,-53.56"/>
</a>
</g>
</g>
<!-- Node11&#45;&gt;Node2 -->
<g id="edge22_Node000011_Node000002" class="edge">
<title>Node11&#45;&gt;Node2</title>
<g id="a_edge22_Node000011_Node000002"><a xlink:title=" ">
<path fill="none" stroke="#63b8ff" d="M193.12,-160.93C174.79,-153.03 151.79,-141.91 133.1,-129 109.11,-112.42 85.37,-87.32 73.65,-74.19"/>
<polygon fill="#63b8ff" stroke="#63b8ff" points="191.92,-164.22 202.49,-164.87 194.63,-157.77 191.92,-164.22"/>
</a>
</g>
</g>
<!-- Node11&#45;&gt;Node5 -->
<g id="edge23_Node000011_Node000005" class="edge">
<title>Node11&#45;&gt;Node5</title>
<g id="a_edge23_Node000011_Node000005"><a xlink:title=" ">
<path fill="none" stroke="#63b8ff" d="M211.56,-157.09C197.04,-138.35 174.91,-106.1 166.1,-74 160.91,-55.07 163.91,-31.76 166.21,-19.32"/>
<polygon fill="#63b8ff" stroke="#63b8ff" points="208.83,-159.28 217.8,-164.93 214.31,-154.92 208.83,-159.28"/>
</a>
</g>
</g>
<!-- Node11&#45;&gt;Node7 -->
<g id="edge24_Node000011_Node000007" class="edge">
<title>Node11&#45;&gt;Node7</title>
<g id="a_edge24_Node000011_Node000007"><a xlink:title=" ">
<path fill="none" stroke="#63b8ff" d="M265.85,-162.31C301.96,-152.39 353.93,-138.12 386.85,-129.08"/>
<polygon fill="#63b8ff" stroke="#63b8ff" points="264.83,-158.96 256.11,-164.98 266.68,-165.71 264.83,-158.96"/>
</a>
</g>
</g>
<!-- Node12 -->
<g id="Node000012" class="node">
<title>Node12</title>
<g id="a_Node000012"><a xlink:href="drv__can_8c.html" target="_top" xlink:title="Generic CAN driver abstraction and the SocketCAN binding.">
<polygon fill="white" stroke="#666666" points="270.6,-74 175.6,-74 175.6,-55 270.6,-55 270.6,-74"/>
<text text-anchor="middle" x="223.1" y="-62" font-family="Helvetica,sans-Serif" font-size="10.00">driver/drv_can.c</text>
</a>
</g>
</g>
<!-- Node11&#45;&gt;Node12 -->
<g id="edge21_Node000011_Node000012" class="edge">
<title>Node11&#45;&gt;Node12</title>
<g id="a_edge21_Node000011_Node000012"><a xlink:title=" ">
<path fill="none" stroke="#63b8ff" d="M224.75,-154.48C224.31,-130.84 223.58,-91.5 223.26,-74.16"/>
<polygon fill="#63b8ff" stroke="#63b8ff" points="221.25,-154.73 224.94,-164.66 228.25,-154.6 221.25,-154.73"/>
</a>
</g>
</g>
<!-- Node11&#45;&gt;Node13 -->
<g id="edge25_Node000011_Node000013" class="edge">
<title>Node11&#45;&gt;Node13</title>
<g id="a_edge25_Node000011_Node000013"><a xlink:title=" ">
<path fill="none" stroke="#63b8ff" d="M244.97,-158.88C257.93,-149.34 274.4,-137.21 285.32,-129.17"/>
<polygon fill="#63b8ff" stroke="#63b8ff" points="242.65,-156.24 236.67,-164.98 246.8,-161.88 242.65,-156.24"/>
</a>
</g>
</g>
<!-- Node13&#45;&gt;Node2 -->
<g id="edge27_Node000013_Node000002" class="edge">
<title>Node13&#45;&gt;Node2</title>
<g id="a_edge27_Node000013_Node000002"><a xlink:title=" ">
<path fill="none" stroke="#63b8ff" d="M249.99,-107.69C206.71,-97.76 143.41,-83.24 103.51,-74.08"/>
<polygon fill="#63b8ff" stroke="#63b8ff" points="249.46,-111.16 259.99,-109.98 251.03,-104.34 249.46,-111.16"/>
</a>
</g>
</g>
<!-- Node13&#45;&gt;Node8 -->
<g id="edge28_Node000013_Node000008" class="edge">
<title>Node13&#45;&gt;Node8</title>
<g id="a_edge28_Node000013_Node000008"><a xlink:title=" ">
<path fill="none" stroke="#63b8ff" d="M297.98,-99.48C299.08,-75.84 300.9,-36.5 301.7,-19.16"/>
<polygon fill="#63b8ff" stroke="#63b8ff" points="294.48,-99.51 297.51,-109.66 301.47,-99.83 294.48,-99.51"/>
</a>
</g>
</g>
<!-- Node13&#45;&gt;Node12 -->
<g id="edge26_Node000013_Node000012" class="edge">
<title>Node13&#45;&gt;Node12</title>
<g id="a_edge26_Node000013_Node000012"><a xlink:title=" ">
<path fill="none" stroke="#63b8ff" d="M277.07,-104.15C263.69,-94.57 246.54,-82.29 235.21,-74.17"/>
<polygon fill="#63b8ff" stroke="#63b8ff" points="275.05,-107.01 285.21,-109.98 279.12,-101.32 275.05,-107.01"/>
</a>
</g>
</g>
</g>
</svg>
