<?xml version="1.0" encoding="UTF-8" standalone="no"?>
<!DOCTYPE svg PUBLIC "-//W3C//DTD SVG 1.1//EN"
 "http://www.w3.org/Graphics/SVG/1.1/DTD/svg11.dtd">
<!-- Generated by graphviz version 2.43.0 (0)
 -->
<!-- Title: inc/can_message.h Pages: 1 -->
<!--zoomable 247 -->

<svg id="main" version="1.1" xmlns="http://www.w3.org/2000/svg" xmlns:xlink="http://www.w3.org/1999/xlink" xml:space="preserve" onload="init(evt)">
<style type="text/css"><![CDATA[
.node, .edge {opacity: 0.7;}
.node.selected, .edge.selected {opacity: 1;}
.edge:hover path { stroke: red; }
.edge:hover polygon { stroke: red; fill: red; }
]]></style>

<defs>
  <circle id="rim" cx="0" cy="0" r="7"/>
  <circle id="rim2" cx="0" cy="0" r="3.5"/>
  <g id="zoomPlus">
    <use xlink:href="#rim" fill="#404040"><set attributeName="fill" to="#808080" begin="zoomplus.mouseover" end="zoomplus.mouseout"/></use>
    <path d="M-4,0h8M0,-4v8" fill="none" stroke="white" stroke-width="1.5" pointer-events="none"/>
  </g>
  <g id="zoomMin">
    <use xlink:href="#rim" fill="#404040"><set attributeName="fill" to="#808080" begin="zoomminus.mouseover" end="zoomminus.mouseout"/></use>
    <path d="M-4,0h8" fill="none" stroke="white" stroke-width="1.5" pointer-events="none"/>
  </g>
  <g id="arrowUp" transform="translate(30 24)">
    <use xlink:href="#rim"/>
    <path pointer-events="none" fill="none" stroke="white" stroke-width="1.5" d="M0,-3.0v7 M-2.5,-0.5L0,-3.0L2.5,-0.5"/>
  </g>
  <g id="arrowRight" transform="rotate(90) translate(36 -43)">
    <use xlink:href="#rim"/>
    <path pointer-events="none" fill="none" stroke="white" stroke-width="1.5" d="M0,-3.0v7 M-2.5,-0.5L0,-3.0L2.5,-0.5"/>
  </g>
  <g id="arrowDown" transform="rotate(180) translate(-30 -48)">
    <use xlink:href="#rim"/>
    <path pointer-events="none" fill="none" stroke="white" stroke-width="1.5" d="M0,-3.0v7 M-2.5,-0.5L0,-3.0L2.5,-0.5"/>
  </g>
  <g id="arrowLeft" transform="rotate(270) translate(-36 17)">
    <use xlink:href="#rim"/>
    <path pointer-events="none" fill="none" stroke="white" stroke-width="1.5" d="M0,-3.0v7 M-2.5,-0.5L0,-3.0L2.5,-0.5"/>
  </g>
  <g id="resetDef">
    <use xlink:href="#rim2" fill="#404040"><set attributeName="fill" to="#808080" begin="reset.mouseover" end="reset.mouseout"/></use>
  </g>
</defs>
<script type="application/ecmascript">
var viewWidth = 1037;
var viewHeight = 247;
var sectionId = 'dynsection-1';
</script>
<script type="application/ecmascript" xlink:href="svg.min.js"/>
<svg id="graph" class="graph">
<g id="viewport">
<title>inc/can_message.h</title>
<!-- Node1 -->
<g id="Node000001" class="node">
<title>Node1</title>
<g id="a_Node000001"><a xlink:title="Hardware&#45;independent CAN/CAN FD message and statistics data types.">
<polygon fill="#999999" stroke="#666666" points="607,-239 497,-239 497,-220 607,-220 607,-239"/>
<text text-anchor="middle" x="552" y="-227" font-family="Helvetica,sans-Serif" font-size="10.00">inc/can_message.h</text>
</a>
</g>
</g>
<!-- Node2 -->
<g id="Node000002" class="node">
<title>Node2</title>
<g id="a_Node000002"><a xlink:href="socketcan_8c.html" target="_top" xlink:title="SocketCAN back&#45;end for PCAN&#45;View Linux (PF_CAN / SOCK_RAW).">
<polygon fill="white" stroke="#666666" points="1028.5,-74 923.5,-74 923.5,-55 1028.5,-55 1028.5,-74"/>
<text text-anchor="middle" x="976" y="-62" font-family="Helvetica,sans-Serif" font-size="10.00">driver/socketcan.c</text>
</a>
</g>
</g>
<!-- Node1&#45;&gt;Node2 -->
<g id="edge1_Node000001_Node000002" class="edge">
<title>Node1&#45;&gt;Node2</title>
<g id="a_edge1_Node000001_Node000002"><a xlink:title=" ">
<path fill="none" stroke="#63b8ff" d="M617.4,-226.43C678.9,-222.71 772.67,-212.4 849,-184 891.87,-168.05 903.68,-161.37 936,-129 952.75,-112.22 965.9,-87.2 972.11,-74.14"/>
<polygon fill="#63b8ff" stroke="#63b8ff" points="616.85,-222.96 607.06,-227.02 617.25,-229.95 616.85,-222.96"/>
</a>
</g>
</g>
<!-- Node3 -->
<g id="Node000003" class="node">
<title>Node3</title>
<g id="a_Node000003"><a xlink:href="main__window_8c.html" target="_top" xlink:title="Main GTK3 window: menu bar, statistics bar, toolbar, trace, TX panel.">
<polygon fill="white" stroke="#666666" points="110,-19 0,-19 0,0 110,0 110,-19"/>
<text text-anchor="middle" x="55" y="-7" font-family="Helvetica,sans-Serif" font-size="10.00">gui/main_window.c</text>
</a>
</g>
</g>
<!-- Node1&#45;&gt;Node3 -->
<g id="edge2_Node000001_Node000003" class="edge">
<title>Node1&#45;&gt;Node3</title>
<g id="a_edge2_Node000001_Node000003"><a xlink:title=" ">
<path fill="none" stroke="#63b8ff" d="M516.92,-216.58C492.38,-208.03 458.94,-195.95 430,-184 289.76,-126.1 125.29,-45.45 72.34,-19.16"/>
<polygon fill="#63b8ff" stroke="#63b8ff" points="515.93,-219.94 526.53,-219.91 518.22,-213.33 515.93,-219.94"/>
</a>
</g>
</g>
<!-- Node4 -->
<g id="Node000004" class="node">
<title>Node4</title>
<g id="a_Node000004"><a xlink:href="message__view_8c.html" target="_top" xlink:title="CAN trace GtkTreeView, value formatting, and statistics rendering.">
<polygon fill="white" stroke="#666666" points="243.5,-19 128.5,-19 128.5,0 243.5,0 243.5,-19"/>
<text text-anchor="middle" x="186" y="-7" font-family="Helvetica,sans-Serif" font-size="10.00">gui/message_view.c</text>
</a>
</g>
</g>
<!-- Node1&#45;&gt;Node4 -->
<g id="edge3_Node000001_Node000004" class="edge">
<title>Node1&#45;&gt;Node4</title>
<g id="a_edge3_Node000001_Node000004"><a xlink:title=" ">
<path fill="none" stroke="#63b8ff" d="M524.44,-215.56C506.68,-207.02 483.21,-195.35 463,-184 358.35,-125.24 237.55,-45.15 198.71,-19.08"/>
<polygon fill="#63b8ff" stroke="#63b8ff" points="523.13,-218.82 533.67,-219.97 526.15,-212.5 523.13,-218.82"/>
</a>
</g>
</g>
<!-- Node5 -->
<g id="Node000005" class="node">
<title>Node5</title>
<g id="a_Node000005"><a xlink:href="signal__view_8c.html" target="_top" xlink:title="Signal Analysis tab — live DBC&#45;decoded individual&#45;signal table.">
<polygon fill="white" stroke="#666666" points="362,-19 262,-19 262,0 362,0 362,-19"/>
<text text-anchor="middle" x="312" y="-7" font-family="Helvetica,sans-Serif" font-size="10.00">gui/signal_view.c</text>
</a>
</g>
</g>
<!-- Node1&#45;&gt;Node5 -->
<g id="edge4_Node000001_Node000005" class="edge">
<title>Node1&#45;&gt;Node5</title>
<g id="a_edge4_Node000001_Node000005"><a xlink:title=" ">
<path fill="none" stroke="#63b8ff" d="M528.73,-214.35C515.73,-206.08 499.48,-195.09 486,-184 416.17,-126.53 342.67,-45.26 319.46,-19.02"/>
<polygon fill="#63b8ff" stroke="#63b8ff" points="527.21,-217.53 537.54,-219.87 530.92,-211.6 527.21,-217.53"/>
</a>
</g>
</g>
<!-- Node6 -->
<g id="Node000006" class="node">
<title>Node6</title>
<g id="a_Node000006"><a xlink:href="threads_8c.html" target="_top" xlink:title="Background worker threads, global state, and connect/disconnect logic.">
<polygon fill="white" stroke="#666666" points="916,-19 836,-19 836,0 916,0 916,-19"/>
<text text-anchor="middle" x="876" y="-7" font-family="Helvetica,sans-Serif" font-size="10.00">gui/threads.c</text>
</a>
</g>
</g>
<!-- Node1&#45;&gt;Node6 -->
<g id="edge5_Node000001_Node000006" class="edge">
<title>Node1&#45;&gt;Node6</title>
<g id="a_edge5_Node000001_Node000006"><a xlink:title=" ">
<path fill="none" stroke="#63b8ff" d="M566.62,-212.02C597.42,-178.2 672.54,-100.33 750,-55 778.63,-38.24 814.59,-26.32 840.76,-19.06"/>
<polygon fill="#63b8ff" stroke="#63b8ff" points="563.86,-209.85 559.77,-219.62 569.06,-214.53 563.86,-209.85"/>
</a>
</g>
</g>
<!-- Node7 -->
<g id="Node000007" class="node">
<title>Node7</title>
<g id="a_Node000007"><a xlink:href="transmit__dialog_8c.html" target="_top" xlink:title="Advanced (&quot;Transmit...&quot;) CAN/CAN FD message composer window.">
<polygon fill="white" stroke="#666666" points="613.5,-19 494.5,-19 494.5,0 613.5,0 613.5,-19"/>
<text text-anchor="middle" x="554" y="-7" font-family="Helvetica,sans-Serif" font-size="10.00">gui/transmit_dialog.c</text>
</a>
</g>
</g>
<!-- Node1&#45;&gt;Node7 -->
<g id="edge6_Node000001_Node000007" class="edge">
<title>Node1&#45;&gt;Node7</title>
<g id="a_edge6_Node000001_Node000007"><a xlink:title=" ">
<path fill="none" stroke="#63b8ff" d="M546.61,-210.04C540.45,-186.79 531.63,-145.56 535,-110 538.21,-76.03 547.47,-36.41 551.76,-19.2"/>
<polygon fill="#63b8ff" stroke="#63b8ff" points="543.3,-211.21 549.35,-219.91 550.05,-209.34 543.3,-211.21"/>
</a>
</g>
</g>
<!-- Node8 -->
<g id="Node000008" class="node">
<title>Node8</title>
<g id="a_Node000008"><a xlink:href="app__state_8h.html" target="_top" xlink:title="Global application state shared across the GUI and worker threads.">
<polygon fill="white" stroke="#666666" points="634.5,-129 543.5,-129 543.5,-110 634.5,-110 634.5,-129"/>
<text text-anchor="middle" x="589" y="-117" font-family="Helvetica,sans-Serif" font-size="10.00">inc/app_state.h</text>
</a>
</g>
</g>
<!-- Node1&#45;&gt;Node8 -->
<g id="edge7_Node000001_Node000008" class="edge">
<title>Node1&#45;&gt;Node8</title>
<g id="a_edge7_Node000001_Node000008"><a xlink:title=" ">
<path fill="none" stroke="#63b8ff" d="M558.3,-210.12C566.37,-186.56 580.04,-146.66 586.03,-129.16"/>
<polygon fill="#63b8ff" stroke="#63b8ff" points="554.96,-209.07 555.03,-219.66 561.58,-211.34 554.96,-209.07"/>
</a>
</g>
</g>
<!-- Node10 -->
<g id="Node000010" class="node">
<title>Node10</title>
<g id="a_Node000010"><a xlink:href="gui_8h.html" target="_top" xlink:title="GTK GUI widget registry and the application&#39;s GUI/thread API.">
<polygon fill="white" stroke="#666666" points="487,-74 429,-74 429,-55 487,-55 487,-74"/>
<text text-anchor="middle" x="458" y="-62" font-family="Helvetica,sans-Serif" font-size="10.00">inc/gui.h</text>
</a>
</g>
</g>
<!-- Node1&#45;&gt;Node10 -->
<g id="edge33_Node000001_Node000010" class="edge">
<title>Node1&#45;&gt;Node10</title>
<g id="a_edge33_Node000001_Node000010"><a xlink:title=" ">
<path fill="none" stroke="#63b8ff" d="M530.54,-213.77C520.43,-205.92 508.89,-195.51 501,-184 476.01,-147.53 463.69,-94.83 459.6,-74.23"/>
<polygon fill="#63b8ff" stroke="#63b8ff" points="528.47,-216.59 538.59,-219.73 532.64,-210.96 528.47,-216.59"/>
</a>
</g>
</g>
<!-- Node13 -->
<g id="Node000013" class="node">
<title>Node13</title>
<g id="a_Node000013"><a xlink:href="drv__can_8h.html" target="_top" xlink:title="Generic CAN driver abstraction (vtable) and thin wrapper API.">
<polygon fill="white" stroke="#666666" points="818.5,-184 737.5,-184 737.5,-165 818.5,-165 818.5,-184"/>
<text text-anchor="middle" x="778" y="-172" font-family="Helvetica,sans-Serif" font-size="10.00">inc/drv_can.h</text>
</a>
</g>
</g>
<!-- Node1&#45;&gt;Node13 -->
<g id="edge24_Node000001_Node000013" class="edge">
<title>Node1&#45;&gt;Node13</title>
<g id="a_edge24_Node000001_Node000013"><a xlink:title=" ">
<path fill="none" stroke="#63b8ff" d="M598.09,-217.69C640.44,-207.76 702.36,-193.24 741.4,-184.08"/>
<polygon fill="#63b8ff" stroke="#63b8ff" points="597.25,-214.29 588.31,-219.98 598.85,-221.11 597.25,-214.29"/>
</a>
</g>
</g>
<!-- Node15 -->
<g id="Node000015" class="node">
<title>Node15</title>
<g id="a_Node000015"><a xlink:href="socketcan_8h.html" target="_top" xlink:title="SocketCAN back&#45;end interface (Linux PF_CAN / SOCK_RAW).">
<polygon fill="white" stroke="#666666" points="901,-129 809,-129 809,-110 901,-110 901,-129"/>
<text text-anchor="middle" x="855" y="-117" font-family="Helvetica,sans-Serif" font-size="10.00">inc/socketcan.h</text>
</a>
</g>
</g>
<!-- Node1&#45;&gt;Node15 -->
<g id="edge34_Node000001_Node000015" class="edge">
<title>Node1&#45;&gt;Node15</title>
<g id="a_edge34_Node000001_Node000015"><a xlink:title=" ">
<path fill="none" stroke="#63b8ff" d="M617.27,-225.17C688.32,-220.31 796.08,-208.99 828,-184 845.54,-170.26 851.85,-142.97 853.98,-129.07"/>
<polygon fill="#63b8ff" stroke="#63b8ff" points="616.81,-221.69 607.06,-225.84 617.27,-228.67 616.81,-221.69"/>
</a>
</g>
</g>
<!-- Node8&#45;&gt;Node3 -->
<g id="edge8_Node000008_Node000003" class="edge">
<title>Node8&#45;&gt;Node3</title>
<g id="a_edge8_Node000008_Node000003"><a xlink:title=" ">
<path fill="none" stroke="#63b8ff" d="M532.91,-110.94C476.59,-103.02 387.43,-89.57 311,-74 229.11,-57.32 133.88,-32.15 85.94,-19.07"/>
<polygon fill="#63b8ff" stroke="#63b8ff" points="532.65,-114.44 543.04,-112.36 533.62,-107.51 532.65,-114.44"/>
</a>
</g>
</g>
<!-- Node8&#45;&gt;Node4 -->
<g id="edge9_Node000008_Node000004" class="edge">
<title>Node8&#45;&gt;Node4</title>
<g id="a_edge9_Node000008_Node000004"><a xlink:title=" ">
<path fill="none" stroke="#63b8ff" d="M533.3,-108.41C490.75,-100.3 430.8,-87.97 379,-74 316.84,-57.24 245.22,-32.11 209.22,-19.05"/>
<polygon fill="#63b8ff" stroke="#63b8ff" points="532.71,-111.86 543.19,-110.28 534.01,-104.99 532.71,-111.86"/>
</a>
</g>
</g>
<!-- Node8&#45;&gt;Node5 -->
<g id="edge11_Node000008_Node000005" class="edge">
<title>Node8&#45;&gt;Node5</title>
<g id="a_edge11_Node000008_Node000005"><a xlink:title=" ">
<path fill="none" stroke="#63b8ff" d="M533.33,-107.87C499.76,-100.48 456.55,-89.22 420,-74 383.05,-58.62 343.42,-32.54 324.06,-19.09"/>
<polygon fill="#63b8ff" stroke="#63b8ff" points="532.91,-111.36 543.42,-110.04 534.38,-104.52 532.91,-111.36"/>
</a>
</g>
</g>
<!-- Node8&#45;&gt;Node6 -->
<g id="edge12_Node000008_Node000006" class="edge">
<title>Node8&#45;&gt;Node6</title>
<g id="a_edge12_Node000008_Node000006"><a xlink:title=" ">
<path fill="none" stroke="#63b8ff" d="M608.13,-103.96C627.89,-89.59 660.13,-67.92 691,-55 716.83,-44.19 789.55,-28.19 835.75,-18.61"/>
<polygon fill="#63b8ff" stroke="#63b8ff" points="605.93,-101.23 599.97,-109.99 610.09,-106.86 605.93,-101.23"/>
</a>
</g>
</g>
<!-- Node8&#45;&gt;Node7 -->
<g id="edge13_Node000008_Node000007" class="edge">
<title>Node8&#45;&gt;Node7</title>
<g id="a_edge13_Node000008_Node000007"><a xlink:title=" ">
<path fill="none" stroke="#63b8ff" d="M583.04,-100.12C575.41,-76.56 562.48,-36.66 556.81,-19.16"/>
<polygon fill="#63b8ff" stroke="#63b8ff" points="579.72,-101.23 586.14,-109.66 586.38,-99.07 579.72,-101.23"/>
</a>
</g>
</g>
<!-- Node9 -->
<g id="Node000009" class="node">
<title>Node9</title>
<g id="a_Node000009"><a xlink:href="settings__dialog_8c.html" target="_top" xlink:title="Modal CAN connection&#45;settings dialog.">
<polygon fill="white" stroke="#666666" points="817.5,-19 700.5,-19 700.5,0 817.5,0 817.5,-19"/>
<text text-anchor="middle" x="759" y="-7" font-family="Helvetica,sans-Serif" font-size="10.00">gui/settings_dialog.c</text>
</a>
</g>
</g>
<!-- Node8&#45;&gt;Node9 -->
<g id="edge10_Node000008_Node000009" class="edge">
<title>Node8&#45;&gt;Node9</title>
<g id="a_edge10_Node000008_Node000009"><a xlink:title=" ">
<path fill="none" stroke="#63b8ff" d="M602.62,-101.77C614.69,-87.8 633.39,-68.11 653,-55 677.22,-38.8 708.29,-26.6 730.52,-19.11"/>
<polygon fill="#63b8ff" stroke="#63b8ff" points="599.77,-99.71 596.02,-109.62 605.13,-104.22 599.77,-99.71"/>
</a>
</g>
</g>
<!-- Node8&#45;&gt;Node10 -->
<g id="edge14_Node000008_Node000010" class="edge">
<title>Node8&#45;&gt;Node10</title>
<g id="a_edge14_Node000008_Node000010"><a xlink:title=" ">
<path fill="none" stroke="#63b8ff" d="M558.5,-106.16C534.25,-96.35 500.93,-82.87 479.43,-74.17"/>
<polygon fill="#63b8ff" stroke="#63b8ff" points="557.37,-109.48 567.95,-109.98 560,-102.99 557.37,-109.48"/>
</a>
</g>
</g>
<!-- Node12 -->
<g id="Node000012" class="node">
<title>Node12</title>
<g id="a_Node000012"><a xlink:href="main_8c.html" target="_top" xlink:title="Entry point for PCAN&#45;View Linux — a GTK3 CAN bus monitor/analyser.">
<polygon fill="white" stroke="#666666" points="682,-19 632,-19 632,0 682,0 682,-19"/>
<text text-anchor="middle" x="657" y="-7" font-family="Helvetica,sans-Serif" font-size="10.00">main.c</text>
</a>
</g>
</g>
<!-- Node8&#45;&gt;Node12 -->
<g id="edge23_Node000008_Node000012" class="edge">
<title>Node8&#45;&gt;Node12</title>
<g id="a_edge23_Node000008_Node000012"><a xlink:title=" ">
<path fill="none" stroke="#63b8ff" d="M594.55,-100.01C598.97,-86.85 605.92,-69.08 615,-55 623.98,-41.07 637.61,-27.59 646.89,-19.19"/>
<polygon fill="#63b8ff" stroke="#63b8ff" points="591.14,-99.21 591.44,-109.8 597.81,-101.33 591.14,-99.21"/>
</a>
</g>
</g>
<!-- Node10&#45;&gt;Node3 -->
<g id="edge15_Node000010_Node000003" class="edge">
<title>Node10&#45;&gt;Node3</title>
<g id="a_edge15_Node000010_Node000003"><a xlink:title=" ">
<path fill="none" stroke="#63b8ff" d="M418.68,-58.36C355.5,-50.09 227.48,-33.32 119,-19 116.11,-18.62 113.15,-18.23 110.16,-17.83"/>
<polygon fill="#63b8ff" stroke="#63b8ff" points="418.61,-61.88 428.98,-59.71 419.51,-54.94 418.61,-61.88"/>
</a>
</g>
</g>
<!-- Node10&#45;&gt;Node4 -->
<g id="edge16_Node000010_Node000004" class="edge">
<title>Node10&#45;&gt;Node4</title>
<g id="a_edge16_Node000010_Node000004"><a xlink:title=" ">
<path fill="none" stroke="#63b8ff" d="M419.07,-55.91C368.92,-46.14 281.98,-29.2 229.64,-19"/>
<polygon fill="#63b8ff" stroke="#63b8ff" points="418.41,-59.35 428.89,-57.83 419.75,-52.48 418.41,-59.35"/>
</a>
</g>
</g>
<!-- Node10&#45;&gt;Node5 -->
<g id="edge19_Node000010_Node000005" class="edge">
<title>Node10&#45;&gt;Node5</title>
<g id="a_edge19_Node000010_Node000005"><a xlink:title=" ">
<path fill="none" stroke="#63b8ff" d="M425.08,-51.55C397.97,-41.71 360.17,-27.98 335.88,-19.17"/>
<polygon fill="#63b8ff" stroke="#63b8ff" points="423.95,-54.86 434.54,-54.98 426.34,-48.28 423.95,-54.86"/>
</a>
</g>
</g>
<!-- Node10&#45;&gt;Node6 -->
<g id="edge20_Node000010_Node000006" class="edge">
<title>Node10&#45;&gt;Node6</title>
<g id="a_edge20_Node000010_Node000006"><a xlink:title=" ">
<path fill="none" stroke="#63b8ff" d="M497.44,-59.42C565.04,-52.28 707.32,-36.59 827,-19 829.9,-18.57 832.9,-18.11 835.92,-17.63"/>
<polygon fill="#63b8ff" stroke="#63b8ff" points="496.83,-55.97 487.25,-60.49 497.56,-62.93 496.83,-55.97"/>
</a>
</g>
</g>
<!-- Node10&#45;&gt;Node7 -->
<g id="edge21_Node000010_Node000007" class="edge">
<title>Node10&#45;&gt;Node7</title>
<g id="a_edge21_Node000010_Node000007"><a xlink:title=" ">
<path fill="none" stroke="#63b8ff" d="M482.52,-49.97C500.06,-40.28 523.17,-27.52 538.3,-19.17"/>
<polygon fill="#63b8ff" stroke="#63b8ff" points="480.49,-47.09 473.42,-54.98 483.87,-53.22 480.49,-47.09"/>
</a>
</g>
</g>
<!-- Node10&#45;&gt;Node9 -->
<g id="edge17_Node000010_Node000009" class="edge">
<title>Node10&#45;&gt;Node9</title>
<g id="a_edge17_Node000010_Node000009"><a xlink:title=" ">
<path fill="none" stroke="#63b8ff" d="M497.14,-56.61C551.9,-46.97 651.3,-29.46 710.62,-19.02"/>
<polygon fill="#63b8ff" stroke="#63b8ff" points="496.38,-53.19 487.13,-58.37 497.59,-60.08 496.38,-53.19"/>
</a>
</g>
</g>
<!-- Node11 -->
<g id="Node000011" class="node">
<title>Node11</title>
<g id="a_Node000011"><a xlink:href="signal__plot_8c.html" target="_top" xlink:title="Signal Analysis Viewer — multi&#45;signal value&#45;over&#45;time graph (Cairo).">
<polygon fill="white" stroke="#666666" points="476,-19 380,-19 380,0 476,0 476,-19"/>
<text text-anchor="middle" x="428" y="-7" font-family="Helvetica,sans-Serif" font-size="10.00">gui/signal_plot.c</text>
</a>
</g>
</g>
<!-- Node10&#45;&gt;Node11 -->
<g id="edge18_Node000010_Node000011" class="edge">
<title>Node10&#45;&gt;Node11</title>
<g id="a_edge18_Node000010_Node000011"><a xlink:title=" ">
<path fill="none" stroke="#63b8ff" d="M447.99,-45.82C442.9,-36.82 436.94,-26.29 432.86,-19.09"/>
<polygon fill="#63b8ff" stroke="#63b8ff" points="445.07,-47.77 453.05,-54.75 451.17,-44.32 445.07,-47.77"/>
</a>
</g>
</g>
<!-- Node10&#45;&gt;Node12 -->
<g id="edge22_Node000010_Node000012" class="edge">
<title>Node10&#45;&gt;Node12</title>
<g id="a_edge22_Node000010_Node000012"><a xlink:title=" ">
<path fill="none" stroke="#63b8ff" d="M497.05,-53.1C537.03,-42.45 597.97,-26.22 631.93,-17.18"/>
<polygon fill="#63b8ff" stroke="#63b8ff" points="496.13,-49.72 487.36,-55.68 497.93,-56.49 496.13,-49.72"/>
</a>
</g>
</g>
<!-- Node13&#45;&gt;Node2 -->
<g id="edge26_Node000013_Node000002" class="edge">
<title>Node13&#45;&gt;Node2</title>
<g id="a_edge26_Node000013_Node000002"><a xlink:title=" ">
<path fill="none" stroke="#63b8ff" d="M827.74,-162.32C853.48,-155.18 884.72,-144.35 910,-129 935.01,-113.82 958.16,-87.66 969.21,-74.14"/>
<polygon fill="#63b8ff" stroke="#63b8ff" points="826.56,-159.01 817.8,-164.97 828.37,-165.77 826.56,-159.01"/>
</a>
</g>
</g>
<!-- Node13&#45;&gt;Node6 -->
<g id="edge27_Node000013_Node000006" class="edge">
<title>Node13&#45;&gt;Node6</title>
<g id="a_edge27_Node000013_Node000006"><a xlink:title=" ">
<path fill="none" stroke="#63b8ff" d="M768.81,-155.54C757.53,-130.69 742.27,-85.45 763,-55 772.38,-41.23 813.22,-27.51 843.12,-19.02"/>
<polygon fill="#63b8ff" stroke="#63b8ff" points="765.8,-157.35 773.29,-164.84 772.11,-154.31 765.8,-157.35"/>
</a>
</g>
</g>
<!-- Node13&#45;&gt;Node8 -->
<g id="edge28_Node000013_Node000008" class="edge">
<title>Node13&#45;&gt;Node8</title>
<g id="a_edge28_Node000013_Node000008"><a xlink:title=" ">
<path fill="none" stroke="#63b8ff" d="M737.65,-162.18C702.3,-152.27 651.7,-138.08 619.6,-129.08"/>
<polygon fill="#63b8ff" stroke="#63b8ff" points="737.06,-165.65 747.63,-164.98 738.95,-158.91 737.06,-165.65"/>
</a>
</g>
</g>
<!-- Node14 -->
<g id="Node000014" class="node">
<title>Node14</title>
<g id="a_Node000014"><a xlink:href="drv__can_8c.html" target="_top" xlink:title="Generic CAN driver abstraction and the SocketCAN binding.">
<polygon fill="white" stroke="#666666" points="866.5,-74 771.5,-74 771.5,-55 866.5,-55 866.5,-74"/>
<text text-anchor="middle" x="819" y="-62" font-family="Helvetica,sans-Serif" font-size="10.00">driver/drv_can.c</text>
</a>
</g>
</g>
<!-- Node13&#45;&gt;Node14 -->
<g id="edge25_Node000013_Node000014" class="edge">
<title>Node13&#45;&gt;Node14</title>
<g id="a_edge25_Node000013_Node000014"><a xlink:title=" ">
<path fill="none" stroke="#63b8ff" d="M784.05,-154.95C788.29,-142.22 794.21,-124.98 800,-110 804.84,-97.46 811.05,-83.21 815.03,-74.29"/>
<polygon fill="#63b8ff" stroke="#63b8ff" points="780.6,-154.21 780.8,-164.8 787.25,-156.4 780.6,-154.21"/>
</a>
</g>
</g>
<!-- Node13&#45;&gt;Node15 -->
<g id="edge29_Node000013_Node000015" class="edge">
<title>Node13&#45;&gt;Node15</title>
<g id="a_edge29_Node000013_Node000015"><a xlink:title=" ">
<path fill="none" stroke="#63b8ff" d="M798.85,-159.15C812.76,-149.57 830.61,-137.29 842.4,-129.17"/>
<polygon fill="#63b8ff" stroke="#63b8ff" points="796.62,-156.43 790.37,-164.98 800.59,-162.2 796.62,-156.43"/>
</a>
</g>
</g>
<!-- Node15&#45;&gt;Node2 -->
<g id="edge31_Node000015_Node000002" class="edge">
<title>Node15&#45;&gt;Node2</title>
<g id="a_edge31_Node000015_Node000002"><a xlink:title=" ">
<path fill="none" stroke="#63b8ff" d="M883.77,-105.9C906.12,-96.11 936.52,-82.79 956.21,-74.17"/>
<polygon fill="#63b8ff" stroke="#63b8ff" points="882.2,-102.77 874.44,-109.98 885,-109.18 882.2,-102.77"/>
</a>
</g>
</g>
<!-- Node15&#45;&gt;Node9 -->
<g id="edge32_Node000015_Node000009" class="edge">
<title>Node15&#45;&gt;Node9</title>
<g id="a_edge32_Node000015_Node000009"><a xlink:title=" ">
<path fill="none" stroke="#63b8ff" d="M868.58,-101.2C877.41,-87.71 885.64,-68.98 876,-55 862.68,-35.68 839.77,-24.74 817.74,-18.55"/>
<polygon fill="#63b8ff" stroke="#63b8ff" points="865.56,-99.41 862.59,-109.58 871.26,-103.49 865.56,-99.41"/>
</a>
</g>
</g>
<!-- Node15&#45;&gt;Node14 -->
<g id="edge30_Node000015_Node000014" class="edge">
<title>Node15&#45;&gt;Node14</title>
<g id="a_edge30_Node000015_Node000014"><a xlink:title=" ">
<path fill="none" stroke="#63b8ff" d="M843.38,-101.39C837.18,-92.27 829.83,-81.45 824.83,-74.09"/>
<polygon fill="#63b8ff" stroke="#63b8ff" points="840.54,-103.44 849.06,-109.75 846.33,-99.51 840.54,-103.44"/>
</a>
</g>
</g>
</g>
</svg>

<g id="navigator" transform="translate(0 0)" fill="#404254">
  <rect fill="#f2f5e9" fill-opacity="0.5" stroke="#606060" stroke-width=".5" x="0" y="0" width="60" height="60"/>
  <use id="zoomplus" xlink:href="#zoomPlus" x="17" y="9" onmousedown="handleZoom(evt,'in')"/>
  <use id="zoomminus" xlink:href="#zoomMin" x="42" y="9" onmousedown="handleZoom(evt,'out')"/>
  <use id="reset" xlink:href="#resetDef" x="30" y="36" onmousedown="handleReset()"/>
   <use id="arrowup" xlink:href="#arrowUp" x="0" y="0" onmousedown="handlePan(0,-1)"/>
  <use id="arrowright" xlink:href="#arrowRight" x="0" y="0" onmousedown="handlePan(1,0)"/>
  <use id="arrowdown" xlink:href="#arrowDown" x="0" y="0" onmousedown="handlePan(0,1)"/>
  <use id="arrowleft" xlink:href="#arrowLeft" x="0" y="0" onmousedown="handlePan(-1,0)"/>
</g>
<svg viewBox="0 0 15 15" width="100%" height="30px" preserveAspectRatio="xMaxYMin meet">
 <g id="arrow_out" transform="scale(0.3 0.3)">
  <a xlink:href="can__message_8h__dep__incl_org.svg" target="_base">
   <rect id="button" ry="5" rx="5" y="6" x="6" height="38" width="38"
        fill="#f2f5e9" fill-opacity="0.5" stroke="#606060" stroke-width="1.0"/>
   <path id="arrow"
     d="M 11.500037,31.436501 C 11.940474,20.09759 22.043105,11.32322 32.158766,21.979434 L 37.068811,17.246167 C 37.068811,17.246167 37.088388,32 37.088388,32 L 22.160133,31.978069 C 22.160133,31.978069 26.997745,27.140456 26.997745,27.140456 C 18.528582,18.264221 13.291696,25.230495 11.500037,31.436501 z"
     style="fill:#404040;"/>
  </a>
 </g>
</svg>

<style type='text/css'>
<![CDATA[
[data-mouse-over-selected='false'] { opacity: 0.7; }
[data-mouse-over-selected='true']  { opacity: 1.0; }
]]>
</style>
<script type="application/ecmascript"><![CDATA[
document.addEventListener('DOMContentLoaded', (event) => {
  highlightEdges();
  highlightAdjacentNodes();
});
]]></script>
</svg>
