<?xml version="1.0" encoding="UTF-8" standalone="no"?>
<!DOCTYPE svg PUBLIC "-//W3C//DTD SVG 1.1//EN"
 "http://www.w3.org/Graphics/SVG/1.1/DTD/svg11.dtd">
<!-- Generated by graphviz version 2.43.0 (0)
 -->
<!-- Title: inc/dbc.h Pages: 1 -->
<svg width="923pt" height="137pt"
 viewBox="0.00 0.00 923.00 137.00" xmlns="http://www.w3.org/2000/svg" xmlns:xlink="http://www.w3.org/1999/xlink">
<g id="graph0" class="graph" transform="scale(1 1) rotate(0) translate(4 133)">
<title>inc/dbc.h</title>
<!-- Node1 -->
<g id="Node000001" class="node">
<title>Node1</title>
<g id="a_Node000001"><a xlink:title="Minimal CAN database (DBC) model, parser, and signal decoder.">
<polygon fill="#999999" stroke="#666666" points="175,-129 115,-129 115,-110 175,-110 175,-129"/>
<text text-anchor="middle" x="145" y="-117" font-family="Helvetica,sans-Serif" font-size="10.00">inc/dbc.h</text>
</a>
</g>
</g>
<!-- Node2 -->
<g id="Node000002" class="node">
<title>Node2</title>
<g id="a_Node000002"><a xlink:href="dbc_8c.html" target="_top" xlink:title="DBC (CAN database) parser and signal&#45;bit decoder.">
<polygon fill="white" stroke="#666666" points="98,-74 24,-74 24,-55 98,-55 98,-74"/>
<text text-anchor="middle" x="61" y="-62" font-family="Helvetica,sans-Serif" font-size="10.00">driver/dbc.c</text>
</a>
</g>
</g>
<!-- Node1&#45;&gt;Node2 -->
<g id="edge1_Node000001_Node000002" class="edge">
<title>Node1&#45;&gt;Node2</title>
<g id="a_edge1_Node000001_Node000002"><a xlink:title=" ">
<path fill="none" stroke="#63b8ff" d="M122.69,-104.42C107.45,-94.81 87.73,-82.37 74.74,-74.17"/>
<polygon fill="#63b8ff" stroke="#63b8ff" points="121.18,-107.61 131.5,-109.98 124.91,-101.69 121.18,-107.61"/>
</a>
</g>
</g>
<!-- Node3 -->
<g id="Node000003" class="node">
<title>Node3</title>
<g id="a_Node000003"><a xlink:href="signal__plot_8c.html" target="_top" xlink:title="Signal Analysis Viewer — multi&#45;signal value&#45;over&#45;time graph (Cairo).">
<polygon fill="white" stroke="#666666" points="96,-19 0,-19 0,0 96,0 96,-19"/>
<text text-anchor="middle" x="48" y="-7" font-family="Helvetica,sans-Serif" font-size="10.00">gui/signal_plot.c</text>
</a>
</g>
</g>
<!-- Node1&#45;&gt;Node3 -->
<g id="edge2_Node000001_Node000003" class="edge">
<title>Node1&#45;&gt;Node3</title>
<g id="a_edge2_Node000001_Node000003"><a xlink:title=" ">
<path fill="none" stroke="#63b8ff" d="M136.56,-100.42C129.76,-86.99 119.32,-68.71 107,-55 93.8,-40.3 75.13,-27.18 62.35,-19.06"/>
<polygon fill="#63b8ff" stroke="#63b8ff" points="133.5,-102.12 141.03,-109.58 139.8,-99.06 133.5,-102.12"/>
</a>
</g>
</g>
<!-- Node4 -->
<g id="Node000004" class="node">
<title>Node4</title>
<g id="a_Node000004"><a xlink:href="signal__view_8c.html" target="_top" xlink:title="Signal Analysis tab — live DBC&#45;decoded individual&#45;signal table.">
<polygon fill="white" stroke="#666666" points="214,-19 114,-19 114,0 214,0 214,-19"/>
<text text-anchor="middle" x="164" y="-7" font-family="Helvetica,sans-Serif" font-size="10.00">gui/signal_view.c</text>
</a>
</g>
</g>
<!-- Node1&#45;&gt;Node4 -->
<g id="edge3_Node000001_Node000004" class="edge">
<title>Node1&#45;&gt;Node4</title>
<g id="a_edge3_Node000001_Node000004"><a xlink:title=" ">
<path fill="none" stroke="#63b8ff" d="M148.29,-99.8C152.44,-76.2 159.41,-36.58 162.48,-19.16"/>
<polygon fill="#63b8ff" stroke="#63b8ff" points="144.84,-99.21 146.55,-109.66 151.73,-100.42 144.84,-99.21"/>
</a>
</g>
</g>
<!-- Node5 -->
<g id="Node000005" class="node">
<title>Node5</title>
<g id="a_Node000005"><a xlink:href="gui_8h.html" target="_top" xlink:title="GTK GUI widget registry and the application&#39;s GUI/thread API.">
<polygon fill="white" stroke="#666666" points="447,-74 389,-74 389,-55 447,-55 447,-74"/>
<text text-anchor="middle" x="418" y="-62" font-family="Helvetica,sans-Serif" font-size="10.00">inc/gui.h</text>
</a>
</g>
</g>
<!-- Node1&#45;&gt;Node5 -->
<g id="edge4_Node000001_Node000005" class="edge">
<title>Node1&#45;&gt;Node5</title>
<g id="a_edge4_Node000001_Node000005"><a xlink:title=" ">
<path fill="none" stroke="#63b8ff" d="M185.11,-110.71C240.68,-99.92 339.79,-80.68 388.85,-71.16"/>
<polygon fill="#63b8ff" stroke="#63b8ff" points="184.41,-107.28 175.26,-112.63 185.74,-114.16 184.41,-107.28"/>
</a>
</g>
</g>
<!-- Node5&#45;&gt;Node3 -->
<g id="edge8_Node000005_Node000003" class="edge">
<title>Node5&#45;&gt;Node3</title>
<g id="a_edge8_Node000005_Node000003"><a xlink:title=" ">
<path fill="none" stroke="#63b8ff" d="M378.58,-57.98C319.23,-49.66 203.38,-33.33 105,-19 102.13,-18.58 99.18,-18.15 96.2,-17.71"/>
<polygon fill="#63b8ff" stroke="#63b8ff" points="378.26,-61.47 388.65,-59.39 379.23,-54.54 378.26,-61.47"/>
</a>
</g>
</g>
<!-- Node5&#45;&gt;Node4 -->
<g id="edge9_Node000005_Node000004" class="edge">
<title>Node5&#45;&gt;Node4</title>
<g id="a_edge9_Node000005_Node000004"><a xlink:title=" ">
<path fill="none" stroke="#63b8ff" d="M379.03,-55.37C331.89,-45.53 252.91,-29.05 204.92,-19.04"/>
<polygon fill="#63b8ff" stroke="#63b8ff" points="378.36,-58.8 388.86,-57.42 379.79,-51.95 378.36,-58.8"/>
</a>
</g>
</g>
<!-- Node6 -->
<g id="Node000006" class="node">
<title>Node6</title>
<g id="a_Node000006"><a xlink:href="main__window_8c.html" target="_top" xlink:title="Main GTK3 window: menu bar, statistics bar, toolbar, trace, TX panel.">
<polygon fill="white" stroke="#666666" points="342,-19 232,-19 232,0 342,0 342,-19"/>
<text text-anchor="middle" x="287" y="-7" font-family="Helvetica,sans-Serif" font-size="10.00">gui/main_window.c</text>
</a>
</g>
</g>
<!-- Node5&#45;&gt;Node6 -->
<g id="edge5_Node000005_Node000006" class="edge">
<title>Node5&#45;&gt;Node6</title>
<g id="a_edge5_Node000005_Node000006"><a xlink:title=" ">
<path fill="none" stroke="#63b8ff" d="M387.5,-51.16C363.25,-41.35 329.93,-27.87 308.43,-19.17"/>
<polygon fill="#63b8ff" stroke="#63b8ff" points="386.37,-54.48 396.95,-54.98 389,-47.99 386.37,-54.48"/>
</a>
</g>
</g>
<!-- Node7 -->
<g id="Node000007" class="node">
<title>Node7</title>
<g id="a_Node000007"><a xlink:href="message__view_8c.html" target="_top" xlink:title="CAN trace GtkTreeView, value formatting, and statistics rendering.">
<polygon fill="white" stroke="#666666" points="475.5,-19 360.5,-19 360.5,0 475.5,0 475.5,-19"/>
<text text-anchor="middle" x="418" y="-7" font-family="Helvetica,sans-Serif" font-size="10.00">gui/message_view.c</text>
</a>
</g>
</g>
<!-- Node5&#45;&gt;Node7 -->
<g id="edge6_Node000005_Node000007" class="edge">
<title>Node5&#45;&gt;Node7</title>
<g id="a_edge6_Node000005_Node000007"><a xlink:title=" ">
<path fill="none" stroke="#63b8ff" d="M418,-44.66C418,-35.93 418,-25.99 418,-19.09"/>
<polygon fill="#63b8ff" stroke="#63b8ff" points="414.5,-44.75 418,-54.75 421.5,-44.75 414.5,-44.75"/>
</a>
</g>
</g>
<!-- Node8 -->
<g id="Node000008" class="node">
<title>Node8</title>
<g id="a_Node000008"><a xlink:href="settings__dialog_8c.html" target="_top" xlink:title="Modal CAN connection&#45;settings dialog.">
<polygon fill="white" stroke="#666666" points="610.5,-19 493.5,-19 493.5,0 610.5,0 610.5,-19"/>
<text text-anchor="middle" x="552" y="-7" font-family="Helvetica,sans-Serif" font-size="10.00">gui/settings_dialog.c</text>
</a>
</g>
</g>
<!-- Node5&#45;&gt;Node8 -->
<g id="edge7_Node000005_Node000008" class="edge">
<title>Node5&#45;&gt;Node8</title>
<g id="a_edge7_Node000005_Node000008"><a xlink:title=" ">
<path fill="none" stroke="#63b8ff" d="M448.87,-51.29C473.7,-41.47 507.99,-27.91 530.08,-19.17"/>
<polygon fill="#63b8ff" stroke="#63b8ff" points="447.54,-48.05 439.53,-54.98 450.12,-54.56 447.54,-48.05"/>
</a>
</g>
</g>
<!-- Node9 -->
<g id="Node000009" class="node">
<title>Node9</title>
<g id="a_Node000009"><a xlink:href="threads_8c.html" target="_top" xlink:title="Background worker threads, global state, and connect/disconnect logic.">
<polygon fill="white" stroke="#666666" points="709,-19 629,-19 629,0 709,0 709,-19"/>
<text text-anchor="middle" x="669" y="-7" font-family="Helvetica,sans-Serif" font-size="10.00">gui/threads.c</text>
</a>
</g>
</g>
<!-- Node5&#45;&gt;Node9 -->
<g id="edge10_Node000005_Node000009" class="edge">
<title>Node5&#45;&gt;Node9</title>
<g id="a_edge10_Node000005_Node000009"><a xlink:title=" ">
<path fill="none" stroke="#63b8ff" d="M457.33,-55.19C504.06,-45.33 581.61,-28.95 628.74,-19"/>
<polygon fill="#63b8ff" stroke="#63b8ff" points="456.35,-51.83 447.28,-57.32 457.79,-58.67 456.35,-51.83"/>
</a>
</g>
</g>
<!-- Node10 -->
<g id="Node000010" class="node">
<title>Node10</title>
<g id="a_Node000010"><a xlink:href="transmit__dialog_8c.html" target="_top" xlink:title="Advanced (&quot;Transmit...&quot;) CAN/CAN FD message composer window.">
<polygon fill="white" stroke="#666666" points="846.5,-19 727.5,-19 727.5,0 846.5,0 846.5,-19"/>
<text text-anchor="middle" x="787" y="-7" font-family="Helvetica,sans-Serif" font-size="10.00">gui/transmit_dialog.c</text>
</a>
</g>
</g>
<!-- Node5&#45;&gt;Node10 -->
<g id="edge11_Node000005_Node000010" class="edge">
<title>Node5&#45;&gt;Node10</title>
<g id="a_edge11_Node000005_Node000010"><a xlink:title=" ">
<path fill="none" stroke="#63b8ff" d="M457.46,-57.83C522.25,-48.53 651.54,-29.96 727.49,-19.05"/>
<polygon fill="#63b8ff" stroke="#63b8ff" points="456.66,-54.41 447.26,-59.3 457.66,-61.34 456.66,-54.41"/>
</a>
</g>
</g>
<!-- Node11 -->
<g id="Node000011" class="node">
<title>Node11</title>
<g id="a_Node000011"><a xlink:href="main_8c.html" target="_top" xlink:title="Entry point for PCAN&#45;View Linux — a GTK3 CAN bus monitor/analyser.">
<polygon fill="white" stroke="#666666" points="915,-19 865,-19 865,0 915,0 915,-19"/>
<text text-anchor="middle" x="890" y="-7" font-family="Helvetica,sans-Serif" font-size="10.00">main.c</text>
</a>
</g>
</g>
<!-- Node5&#45;&gt;Node11 -->
<g id="edge12_Node000005_Node000011" class="edge">
<title>Node5&#45;&gt;Node11</title>
<g id="a_edge12_Node000005_Node000011"><a xlink:title=" ">
<path fill="none" stroke="#63b8ff" d="M457.35,-61.4C534.37,-56.88 710.21,-44.49 856,-19 858.88,-18.5 861.87,-17.88 864.84,-17.22"/>
<polygon fill="#63b8ff" stroke="#63b8ff" points="456.94,-57.92 447.15,-61.99 457.34,-64.91 456.94,-57.92"/>
</a>
</g>
</g>
</g>
</svg>
