<?xml version="1.0" encoding="UTF-8" standalone="no"?>
<!DOCTYPE svg PUBLIC "-//W3C//DTD SVG 1.1//EN"
 "http://www.w3.org/Graphics/SVG/1.1/DTD/svg11.dtd">
<!-- Generated by graphviz version 2.43.0 (0)
 -->
<!-- Title: driver/drv_can.c Pages: 1 -->
<svg width="354pt" height="247pt"
 viewBox="0.00 0.00 354.00 247.00" xmlns="http://www.w3.org/2000/svg" xmlns:xlink="http://www.w3.org/1999/xlink">

<svg id="main" version="1.1" xmlns="http://www.w3.org/2000/svg" xmlns:xlink="http://www.w3.org/1999/xlink" xml:space="preserve" onload="init(evt)">
<style type="text/css"><![CDATA[
.node, .edge {opacity: 0.7;}
.node.selected, .edge.selected {opacity: 1;}
.edge:hover path { stroke: red; }
.edge:hover polygon { stroke: red; fill: red; }
]]></style>
<script type="application/ecmascript" xlink:href="svg.min.js"/>
<svg id="graph" class="graph">
<g id="graph0" class="graph" transform="scale(1 1) rotate(0) translate(4 243)">
<title>driver/drv_can.c</title>
<!-- Node1 -->
<g id="Node000001" class="node">
<title>Node1</title>
<g id="a_Node000001"><a xlink:title="Generic CAN driver abstraction and the SocketCAN binding.">
<polygon fill="#999999" stroke="#666666" points="169.5,-239 74.5,-239 74.5,-220 169.5,-220 169.5,-239"/>
<text text-anchor="middle" x="122" y="-227" font-family="Helvetica,sans-Serif" font-size="10.00">driver/drv_can.c</text>
</a>
</g>
</g>
<!-- Node2 -->
<g id="Node000002" class="node">
<title>Node2</title>
<g id="a_Node000002"><a xlink:title=" ">
<polygon fill="#e0e0e0" stroke="#999999" points="50,-184 0,-184 0,-165 50,-165 50,-184"/>
<text text-anchor="middle" x="25" y="-172" font-family="Helvetica,sans-Serif" font-size="10.00">stdio.h</text>
</a>
</g>
</g>
<!-- Node1&#45;&gt;Node2 -->
<g id="edge1_Node000001_Node000002" class="edge">
<title>Node1&#45;&gt;Node2</title>
<g id="a_edge1_Node000001_Node000002"><a xlink:title=" ">
<path fill="none" stroke="#63b8ff" d="M106.42,-219.98C91.23,-211.69 67.9,-198.94 50.1,-189.22"/>
<polygon fill="#63b8ff" stroke="#63b8ff" points="51.32,-185.89 40.87,-184.17 47.97,-192.04 51.32,-185.89"/>
</a>
</g>
</g>
<!-- Node3 -->
<g id="Node000003" class="node">
<title>Node3</title>
<g id="a_Node000003"><a xlink:title=" ">
<polygon fill="#e0e0e0" stroke="#999999" points="121.5,-184 68.5,-184 68.5,-165 121.5,-165 121.5,-184"/>
<text text-anchor="middle" x="95" y="-172" font-family="Helvetica,sans-Serif" font-size="10.00">string.h</text>
</a>
</g>
</g>
<!-- Node1&#45;&gt;Node3 -->
<g id="edge2_Node000001_Node000003" class="edge">
<title>Node1&#45;&gt;Node3</title>
<g id="a_edge2_Node000001_Node000003"><a xlink:title=" ">
<path fill="none" stroke="#63b8ff" d="M117.54,-219.75C113.88,-212.57 108.59,-202.18 104.05,-193.27"/>
<polygon fill="#63b8ff" stroke="#63b8ff" points="107.03,-191.41 99.38,-184.09 100.8,-194.59 107.03,-191.41"/>
</a>
</g>
</g>
<!-- Node4 -->
<g id="Node000004" class="node">
<title>Node4</title>
<g id="a_Node000004"><a xlink:href="drv__can_8h.html" target="_top" xlink:title="Generic CAN driver abstraction (vtable) and thin wrapper API.">
<polygon fill="white" stroke="#666666" points="198,-129 108,-129 108,-110 198,-110 198,-129"/>
<text text-anchor="middle" x="153" y="-117" font-family="Helvetica,sans-Serif" font-size="10.00">../inc/drv_can.h</text>
</a>
</g>
</g>
<!-- Node1&#45;&gt;Node4 -->
<g id="edge3_Node000001_Node000004" class="edge">
<title>Node1&#45;&gt;Node4</title>
<g id="a_edge3_Node000001_Node000004"><a xlink:title=" ">
<path fill="none" stroke="#63b8ff" d="M124.54,-219.66C129.58,-202.09 140.96,-162.45 147.7,-138.95"/>
<polygon fill="#63b8ff" stroke="#63b8ff" points="151.12,-139.74 150.51,-129.16 144.39,-137.8 151.12,-139.74"/>
</a>
</g>
</g>
<!-- Node8 -->
<g id="Node000008" class="node">
<title>Node8</title>
<g id="a_Node000008"><a xlink:href="socketcan_8h.html" target="_top" xlink:title="SocketCAN back&#45;end interface (Linux PF_CAN / SOCK_RAW).">
<polygon fill="white" stroke="#666666" points="279.5,-184 178.5,-184 178.5,-165 279.5,-165 279.5,-184"/>
<text text-anchor="middle" x="229" y="-172" font-family="Helvetica,sans-Serif" font-size="10.00">../inc/socketcan.h</text>
</a>
</g>
</g>
<!-- Node1&#45;&gt;Node8 -->
<g id="edge8_Node000001_Node000008" class="edge">
<title>Node1&#45;&gt;Node8</title>
<g id="a_edge8_Node000001_Node000008"><a xlink:title=" ">
<path fill="none" stroke="#63b8ff" d="M139.19,-219.98C156.25,-211.54 182.63,-198.47 202.4,-188.68"/>
<polygon fill="#63b8ff" stroke="#63b8ff" points="204.09,-191.75 211.5,-184.17 200.98,-185.47 204.09,-191.75"/>
</a>
</g>
</g>
<!-- Node5 -->
<g id="Node000005" class="node">
<title>Node5</title>
<g id="a_Node000005"><a xlink:title=" ">
<polygon fill="#e0e0e0" stroke="#999999" points="252.5,-19 199.5,-19 199.5,0 252.5,0 252.5,-19"/>
<text text-anchor="middle" x="226" y="-7" font-family="Helvetica,sans-Serif" font-size="10.00">stdint.h</text>
</a>
</g>
</g>
<!-- Node4&#45;&gt;Node5 -->
<g id="edge4_Node000004_Node000005" class="edge">
<title>Node4&#45;&gt;Node5</title>
<g id="a_edge4_Node000004_Node000005"><a xlink:title=" ">
<path fill="none" stroke="#63b8ff" d="M158.97,-109.66C171.06,-91.77 198.62,-51 214.38,-27.69"/>
<polygon fill="#63b8ff" stroke="#63b8ff" points="217.45,-29.4 220.15,-19.16 211.65,-25.48 217.45,-29.4"/>
</a>
</g>
</g>
<!-- Node6 -->
<g id="Node000006" class="node">
<title>Node6</title>
<g id="a_Node000006"><a xlink:href="can__message_8h.html" target="_top" xlink:title="Hardware&#45;independent CAN/CAN FD message and statistics data types.">
<polygon fill="white" stroke="#666666" points="346,-74 254,-74 254,-55 346,-55 346,-74"/>
<text text-anchor="middle" x="300" y="-62" font-family="Helvetica,sans-Serif" font-size="10.00">can_message.h</text>
</a>
</g>
</g>
<!-- Node4&#45;&gt;Node6 -->
<g id="edge5_Node000004_Node000006" class="edge">
<title>Node4&#45;&gt;Node6</title>
<g id="a_edge5_Node000004_Node000006"><a xlink:title=" ">
<path fill="none" stroke="#63b8ff" d="M176.62,-109.98C200.9,-101.23 238.95,-87.51 266.37,-77.62"/>
<polygon fill="#63b8ff" stroke="#63b8ff" points="267.73,-80.85 275.95,-74.17 265.36,-74.27 267.73,-80.85"/>
</a>
</g>
</g>
<!-- Node6&#45;&gt;Node5 -->
<g id="edge6_Node000006_Node000005" class="edge">
<title>Node6&#45;&gt;Node5</title>
<g id="a_edge6_Node000006_Node000005"><a xlink:title=" ">
<path fill="none" stroke="#63b8ff" d="M288.11,-54.98C276.85,-46.92 259.71,-34.65 246.29,-25.03"/>
<polygon fill="#63b8ff" stroke="#63b8ff" points="248.27,-22.15 238.11,-19.17 244.2,-27.84 248.27,-22.15"/>
</a>
</g>
</g>
<!-- Node7 -->
<g id="Node000007" class="node">
<title>Node7</title>
<g id="a_Node000007"><a xlink:title=" ">
<polygon fill="#e0e0e0" stroke="#999999" points="324,-19 276,-19 276,0 324,0 324,-19"/>
<text text-anchor="middle" x="300" y="-7" font-family="Helvetica,sans-Serif" font-size="10.00">time.h</text>
</a>
</g>
</g>
<!-- Node6&#45;&gt;Node7 -->
<g id="edge7_Node000006_Node000007" class="edge">
<title>Node6&#45;&gt;Node7</title>
<g id="a_edge7_Node000006_Node000007"><a xlink:title=" ">
<path fill="none" stroke="#63b8ff" d="M300,-54.75C300,-47.8 300,-37.85 300,-29.13"/>
<polygon fill="#63b8ff" stroke="#63b8ff" points="303.5,-29.09 300,-19.09 296.5,-29.09 303.5,-29.09"/>
</a>
</g>
</g>
<!-- Node8&#45;&gt;Node4 -->
<g id="edge11_Node000008_Node000004" class="edge">
<title>Node8&#45;&gt;Node4</title>
<g id="a_edge11_Node000008_Node000004"><a xlink:title=" ">
<path fill="none" stroke="#63b8ff" d="M216.79,-164.98C205.22,-156.92 187.62,-144.65 173.84,-135.03"/>
<polygon fill="#63b8ff" stroke="#63b8ff" points="175.64,-132.02 165.43,-129.17 171.63,-137.76 175.64,-132.02"/>
</a>
</g>
</g>
<!-- Node8&#45;&gt;Node5 -->
<g id="edge9_Node000008_Node000005" class="edge">
<title>Node8&#45;&gt;Node5</title>
<g id="a_edge9_Node000008_Node000005"><a xlink:title=" ">
<path fill="none" stroke="#63b8ff" d="M228.84,-164.74C228.37,-139.31 227,-65.08 226.35,-29.69"/>
<polygon fill="#63b8ff" stroke="#63b8ff" points="229.85,-29.24 226.16,-19.31 222.85,-29.37 229.85,-29.24"/>
</a>
</g>
</g>
<!-- Node8&#45;&gt;Node6 -->
<g id="edge10_Node000008_Node000006" class="edge">
<title>Node8&#45;&gt;Node6</title>
<g id="a_edge10_Node000008_Node000006"><a xlink:title=" ">
<path fill="none" stroke="#63b8ff" d="M234.81,-164.66C246.57,-146.77 273.37,-106 288.7,-82.69"/>
<polygon fill="#63b8ff" stroke="#63b8ff" points="291.74,-84.44 294.31,-74.16 285.89,-80.59 291.74,-84.44"/>
</a>
</g>
</g>
</g>
</svg>
</svg>

<style type='text/css'>
<![CDATA[
[data-mouse-over-selected='false'] { opacity: 0.7; }
[data-mouse-over-selected='true']  { opacity: 1.0; }
]]>
</style>
<script type="application/ecmascript"><![CDATA[
document.addEventListener('DOMContentLoaded', (event) => {
  highlightEdges();
  highlightAdjacentNodes();
});
]]></script>
</svg>
