<?xml version="1.0" encoding="UTF-8" standalone="no"?>
<!DOCTYPE svg PUBLIC "-//W3C//DTD SVG 1.1//EN"
 "http://www.w3.org/Graphics/SVG/1.1/DTD/svg11.dtd">
<!-- Generated by graphviz version 2.43.0 (0)
 -->
<!-- Title: inc/drv_can.h Pages: 1 -->
<svg width="989pt" height="192pt"
 viewBox="0.00 0.00 988.50 192.00" xmlns="http://www.w3.org/2000/svg" xmlns:xlink="http://www.w3.org/1999/xlink">
<g id="graph0" class="graph" transform="scale(1 1) rotate(0) translate(4 188)">
<title>inc/drv_can.h</title>
<!-- Node1 -->
<g id="Node000001" class="node">
<title>Node1</title>
<g id="a_Node000001"><a xlink:title="Generic CAN driver abstraction (vtable) and thin wrapper API.">
<polygon fill="#999999" stroke="#666666" points="245,-184 164,-184 164,-165 245,-165 245,-184"/>
<text text-anchor="middle" x="204.5" y="-172" font-family="Helvetica,sans-Serif" font-size="10.00">inc/drv_can.h</text>
</a>
</g>
</g>
<!-- Node2 -->
<g id="Node000002" class="node">
<title>Node2</title>
<g id="a_Node000002"><a xlink:href="drv__can_8c.html" target="_top" xlink:title="Generic CAN driver abstraction and the SocketCAN binding.">
<polygon fill="white" stroke="#666666" points="95,-74 0,-74 0,-55 95,-55 95,-74"/>
<text text-anchor="middle" x="47.5" y="-62" font-family="Helvetica,sans-Serif" font-size="10.00">driver/drv_can.c</text>
</a>
</g>
</g>
<!-- Node1&#45;&gt;Node2 -->
<g id="edge1_Node000001_Node000002" class="edge">
<title>Node1&#45;&gt;Node2</title>
<g id="a_edge1_Node000001_Node000002"><a xlink:title=" ">
<path fill="none" stroke="#63b8ff" d="M153.9,-166.63C127.13,-160.67 95.37,-149.58 73.5,-129 57.53,-113.98 51.09,-87.75 48.72,-74.18"/>
<polygon fill="#63b8ff" stroke="#63b8ff" points="153.38,-170.1 163.88,-168.68 154.78,-163.24 153.38,-170.1"/>
</a>
</g>
</g>
<!-- Node3 -->
<g id="Node000003" class="node">
<title>Node3</title>
<g id="a_Node000003"><a xlink:href="socketcan_8c.html" target="_top" xlink:title="SocketCAN back&#45;end for PCAN&#45;View Linux (PF_CAN / SOCK_RAW).">
<polygon fill="white" stroke="#666666" points="257,-74 152,-74 152,-55 257,-55 257,-74"/>
<text text-anchor="middle" x="204.5" y="-62" font-family="Helvetica,sans-Serif" font-size="10.00">driver/socketcan.c</text>
</a>
</g>
</g>
<!-- Node1&#45;&gt;Node3 -->
<g id="edge2_Node000001_Node000003" class="edge">
<title>Node1&#45;&gt;Node3</title>
<g id="a_edge2_Node000001_Node000003"><a xlink:title=" ">
<path fill="none" stroke="#63b8ff" d="M204.5,-154.48C204.5,-130.84 204.5,-91.5 204.5,-74.16"/>
<polygon fill="#63b8ff" stroke="#63b8ff" points="201,-154.66 204.5,-164.66 208,-154.66 201,-154.66"/>
</a>
</g>
</g>
<!-- Node4 -->
<g id="Node000004" class="node">
<title>Node4</title>
<g id="a_Node000004"><a xlink:href="threads_8c.html" target="_top" xlink:title="Background worker threads, global state, and connect/disconnect logic.">
<polygon fill="white" stroke="#666666" points="280.5,-19 200.5,-19 200.5,0 280.5,0 280.5,-19"/>
<text text-anchor="middle" x="240.5" y="-7" font-family="Helvetica,sans-Serif" font-size="10.00">gui/threads.c</text>
</a>
</g>
</g>
<!-- Node1&#45;&gt;Node4 -->
<g id="edge3_Node000001_Node000004" class="edge">
<title>Node1&#45;&gt;Node4</title>
<g id="a_edge3_Node000001_Node000004"><a xlink:title=" ">
<path fill="none" stroke="#63b8ff" d="M218.5,-157.17C233.5,-138.5 256.38,-106.32 265.5,-74 271.16,-53.93 257.22,-31.44 247.96,-19.35"/>
<polygon fill="#63b8ff" stroke="#63b8ff" points="215.72,-155.04 212.05,-164.97 221.12,-159.5 215.72,-155.04"/>
</a>
</g>
</g>
<!-- Node5 -->
<g id="Node000005" class="node">
<title>Node5</title>
<g id="a_Node000005"><a xlink:href="app__state_8h.html" target="_top" xlink:title="Global application state shared across the GUI and worker threads.">
<polygon fill="white" stroke="#666666" points="537,-129 446,-129 446,-110 537,-110 537,-129"/>
<text text-anchor="middle" x="491.5" y="-117" font-family="Helvetica,sans-Serif" font-size="10.00">inc/app_state.h</text>
</a>
</g>
</g>
<!-- Node1&#45;&gt;Node5 -->
<g id="edge4_Node000001_Node000005" class="edge">
<title>Node1&#45;&gt;Node5</title>
<g id="a_edge4_Node000001_Node000005"><a xlink:title=" ">
<path fill="none" stroke="#63b8ff" d="M255.06,-164.16C309.09,-154.19 393.97,-138.51 445.99,-128.91"/>
<polygon fill="#63b8ff" stroke="#63b8ff" points="254.21,-160.76 245.01,-166.02 255.48,-167.64 254.21,-160.76"/>
</a>
</g>
</g>
<!-- Node14 -->
<g id="Node000014" class="node">
<title>Node14</title>
<g id="a_Node000014"><a xlink:href="socketcan_8h.html" target="_top" xlink:title="SocketCAN back&#45;end interface (Linux PF_CAN / SOCK_RAW).">
<polygon fill="white" stroke="#666666" points="174.5,-129 82.5,-129 82.5,-110 174.5,-110 174.5,-129"/>
<text text-anchor="middle" x="128.5" y="-117" font-family="Helvetica,sans-Serif" font-size="10.00">inc/socketcan.h</text>
</a>
</g>
</g>
<!-- Node1&#45;&gt;Node14 -->
<g id="edge21_Node000001_Node000014" class="edge">
<title>Node1&#45;&gt;Node14</title>
<g id="a_edge21_Node000001_Node000014"><a xlink:title=" ">
<path fill="none" stroke="#63b8ff" d="M183.92,-159.15C170.19,-149.57 152.57,-137.29 140.93,-129.17"/>
<polygon fill="#63b8ff" stroke="#63b8ff" points="182.08,-162.14 192.29,-164.98 186.09,-156.39 182.08,-162.14"/>
</a>
</g>
</g>
<!-- Node5&#45;&gt;Node4 -->
<g id="edge9_Node000005_Node000004" class="edge">
<title>Node5&#45;&gt;Node4</title>
<g id="a_edge9_Node000005_Node000004"><a xlink:title=" ">
<path fill="none" stroke="#63b8ff" d="M465.24,-105.3C438.43,-92 395.46,-71.19 357.5,-55 325.91,-41.53 288.75,-27.74 264.92,-19.15"/>
<polygon fill="#63b8ff" stroke="#63b8ff" points="463.84,-108.51 474.35,-109.84 466.96,-102.25 463.84,-108.51"/>
</a>
</g>
</g>
<!-- Node6 -->
<g id="Node000006" class="node">
<title>Node6</title>
<g id="a_Node000006"><a xlink:href="main__window_8c.html" target="_top" xlink:title="Main GTK3 window: menu bar, statistics bar, toolbar, trace, TX panel.">
<polygon fill="white" stroke="#666666" points="408.5,-19 298.5,-19 298.5,0 408.5,0 408.5,-19"/>
<text text-anchor="middle" x="353.5" y="-7" font-family="Helvetica,sans-Serif" font-size="10.00">gui/main_window.c</text>
</a>
</g>
</g>
<!-- Node5&#45;&gt;Node6 -->
<g id="edge5_Node000005_Node000006" class="edge">
<title>Node5&#45;&gt;Node6</title>
<g id="a_edge5_Node000005_Node000006"><a xlink:title=" ">
<path fill="none" stroke="#63b8ff" d="M471.96,-103.21C442.56,-80.2 387.93,-37.44 364.56,-19.16"/>
<polygon fill="#63b8ff" stroke="#63b8ff" points="470.17,-106.26 480.21,-109.66 474.49,-100.74 470.17,-106.26"/>
</a>
</g>
</g>
<!-- Node7 -->
<g id="Node000007" class="node">
<title>Node7</title>
<g id="a_Node000007"><a xlink:href="message__view_8c.html" target="_top" xlink:title="CAN trace GtkTreeView, value formatting, and statistics rendering.">
<polygon fill="white" stroke="#666666" points="656,-19 541,-19 541,0 656,0 656,-19"/>
<text text-anchor="middle" x="598.5" y="-7" font-family="Helvetica,sans-Serif" font-size="10.00">gui/message_view.c</text>
</a>
</g>
</g>
<!-- Node5&#45;&gt;Node7 -->
<g id="edge6_Node000005_Node000007" class="edge">
<title>Node5&#45;&gt;Node7</title>
<g id="a_edge6_Node000005_Node000007"><a xlink:title=" ">
<path fill="none" stroke="#63b8ff" d="M507.55,-102.3C530.54,-79.1 572.04,-37.21 589.92,-19.16"/>
<polygon fill="#63b8ff" stroke="#63b8ff" points="504.81,-100.09 500.26,-109.66 509.78,-105.02 504.81,-100.09"/>
</a>
</g>
</g>
<!-- Node8 -->
<g id="Node000008" class="node">
<title>Node8</title>
<g id="a_Node000008"><a xlink:href="settings__dialog_8c.html" target="_top" xlink:title="Modal CAN connection&#45;settings dialog.">
<polygon fill="white" stroke="#666666" points="182,-19 65,-19 65,0 182,0 182,-19"/>
<text text-anchor="middle" x="123.5" y="-7" font-family="Helvetica,sans-Serif" font-size="10.00">gui/settings_dialog.c</text>
</a>
</g>
</g>
<!-- Node5&#45;&gt;Node8 -->
<g id="edge7_Node000005_Node000008" class="edge">
<title>Node5&#45;&gt;Node8</title>
<g id="a_edge7_Node000005_Node000008"><a xlink:title=" ">
<path fill="none" stroke="#63b8ff" d="M452.43,-107.03C378.23,-85.26 218.45,-38.36 152.69,-19.07"/>
<polygon fill="#63b8ff" stroke="#63b8ff" points="451.74,-110.48 462.32,-109.94 453.71,-103.76 451.74,-110.48"/>
</a>
</g>
</g>
<!-- Node9 -->
<g id="Node000009" class="node">
<title>Node9</title>
<g id="a_Node000009"><a xlink:href="signal__view_8c.html" target="_top" xlink:title="Signal Analysis tab — live DBC&#45;decoded individual&#45;signal table.">
<polygon fill="white" stroke="#666666" points="774.5,-19 674.5,-19 674.5,0 774.5,0 774.5,-19"/>
<text text-anchor="middle" x="724.5" y="-7" font-family="Helvetica,sans-Serif" font-size="10.00">gui/signal_view.c</text>
</a>
</g>
</g>
<!-- Node5&#45;&gt;Node9 -->
<g id="edge8_Node000005_Node000009" class="edge">
<title>Node5&#45;&gt;Node9</title>
<g id="a_edge8_Node000005_Node000009"><a xlink:title=" ">
<path fill="none" stroke="#63b8ff" d="M519.4,-105.57C567.64,-83.21 665.36,-37.91 706.06,-19.05"/>
<polygon fill="#63b8ff" stroke="#63b8ff" points="517.77,-102.46 510.17,-109.84 520.72,-108.81 517.77,-102.46"/>
</a>
</g>
</g>
<!-- Node10 -->
<g id="Node000010" class="node">
<title>Node10</title>
<g id="a_Node000010"><a xlink:href="transmit__dialog_8c.html" target="_top" xlink:title="Advanced (&quot;Transmit...&quot;) CAN/CAN FD message composer window.">
<polygon fill="white" stroke="#666666" points="912,-19 793,-19 793,0 912,0 912,-19"/>
<text text-anchor="middle" x="852.5" y="-7" font-family="Helvetica,sans-Serif" font-size="10.00">gui/transmit_dialog.c</text>
</a>
</g>
</g>
<!-- Node5&#45;&gt;Node10 -->
<g id="edge10_Node000005_Node000010" class="edge">
<title>Node5&#45;&gt;Node10</title>
<g id="a_edge10_Node000005_Node000010"><a xlink:title=" ">
<path fill="none" stroke="#63b8ff" d="M529.82,-107.03C602.62,-85.26 759.36,-38.36 823.87,-19.07"/>
<polygon fill="#63b8ff" stroke="#63b8ff" points="528.71,-103.72 520.13,-109.94 530.71,-110.42 528.71,-103.72"/>
</a>
</g>
</g>
<!-- Node11 -->
<g id="Node000011" class="node">
<title>Node11</title>
<g id="a_Node000011"><a xlink:href="gui_8h.html" target="_top" xlink:title="GTK GUI widget registry and the application&#39;s GUI/thread API.">
<polygon fill="white" stroke="#666666" points="520.5,-74 462.5,-74 462.5,-55 520.5,-55 520.5,-74"/>
<text text-anchor="middle" x="491.5" y="-62" font-family="Helvetica,sans-Serif" font-size="10.00">inc/gui.h</text>
</a>
</g>
</g>
<!-- Node5&#45;&gt;Node11 -->
<g id="edge11_Node000005_Node000011" class="edge">
<title>Node5&#45;&gt;Node11</title>
<g id="a_edge11_Node000005_Node000011"><a xlink:title=" ">
<path fill="none" stroke="#63b8ff" d="M491.5,-99.66C491.5,-90.93 491.5,-80.99 491.5,-74.09"/>
<polygon fill="#63b8ff" stroke="#63b8ff" points="488,-99.75 491.5,-109.75 495,-99.75 488,-99.75"/>
</a>
</g>
</g>
<!-- Node13 -->
<g id="Node000013" class="node">
<title>Node13</title>
<g id="a_Node000013"><a xlink:href="main_8c.html" target="_top" xlink:title="Entry point for PCAN&#45;View Linux — a GTK3 CAN bus monitor/analyser.">
<polygon fill="white" stroke="#666666" points="980.5,-19 930.5,-19 930.5,0 980.5,0 980.5,-19"/>
<text text-anchor="middle" x="955.5" y="-7" font-family="Helvetica,sans-Serif" font-size="10.00">main.c</text>
</a>
</g>
</g>
<!-- Node5&#45;&gt;Node13 -->
<g id="edge20_Node000005_Node000013" class="edge">
<title>Node5&#45;&gt;Node13</title>
<g id="a_edge20_Node000005_Node000013"><a xlink:title=" ">
<path fill="none" stroke="#63b8ff" d="M539.73,-107.67C619.34,-89.72 783.23,-52.46 921.5,-19 924.34,-18.31 927.31,-17.58 930.26,-16.86"/>
<polygon fill="#63b8ff" stroke="#63b8ff" points="538.51,-104.36 529.52,-109.97 540.05,-111.19 538.51,-104.36"/>
</a>
</g>
</g>
<!-- Node11&#45;&gt;Node4 -->
<g id="edge17_Node000011_Node000004" class="edge">
<title>Node11&#45;&gt;Node4</title>
<g id="a_edge17_Node000011_Node000004"><a xlink:title=" ">
<path fill="none" stroke="#63b8ff" d="M452.17,-55.19C405.44,-45.33 327.89,-28.95 280.76,-19"/>
<polygon fill="#63b8ff" stroke="#63b8ff" points="451.71,-58.67 462.22,-57.32 453.15,-51.83 451.71,-58.67"/>
</a>
</g>
</g>
<!-- Node11&#45;&gt;Node6 -->
<g id="edge12_Node000011_Node000006" class="edge">
<title>Node11&#45;&gt;Node6</title>
<g id="a_edge12_Node000011_Node000006"><a xlink:title=" ">
<path fill="none" stroke="#63b8ff" d="M459.71,-51.29C434.13,-41.47 398.83,-27.91 376.08,-19.17"/>
<polygon fill="#63b8ff" stroke="#63b8ff" points="458.74,-54.67 469.33,-54.98 461.25,-48.13 458.74,-54.67"/>
</a>
</g>
</g>
<!-- Node11&#45;&gt;Node7 -->
<g id="edge13_Node000011_Node000007" class="edge">
<title>Node11&#45;&gt;Node7</title>
<g id="a_edge13_Node000011_Node000007"><a xlink:title=" ">
<path fill="none" stroke="#63b8ff" d="M517.74,-50.5C537.43,-40.75 563.82,-27.68 581,-19.17"/>
<polygon fill="#63b8ff" stroke="#63b8ff" points="516.1,-47.41 508.69,-54.98 519.21,-53.68 516.1,-47.41"/>
</a>
</g>
</g>
<!-- Node11&#45;&gt;Node8 -->
<g id="edge14_Node000011_Node000008" class="edge">
<title>Node11&#45;&gt;Node8</title>
<g id="a_edge14_Node000011_Node000008"><a xlink:title=" ">
<path fill="none" stroke="#63b8ff" d="M452.11,-57.83C387.3,-48.49 257.82,-29.84 182.18,-18.95"/>
<polygon fill="#63b8ff" stroke="#63b8ff" points="451.92,-61.34 462.32,-59.3 452.92,-54.41 451.92,-61.34"/>
</a>
</g>
</g>
<!-- Node11&#45;&gt;Node9 -->
<g id="edge16_Node000011_Node000009" class="edge">
<title>Node11&#45;&gt;Node9</title>
<g id="a_edge16_Node000011_Node000009"><a xlink:title=" ">
<path fill="none" stroke="#63b8ff" d="M530.47,-54.63C574.03,-44.73 644.04,-28.8 686.99,-19.03"/>
<polygon fill="#63b8ff" stroke="#63b8ff" points="529.51,-51.26 520.54,-56.89 531.07,-58.09 529.51,-51.26"/>
</a>
</g>
</g>
<!-- Node11&#45;&gt;Node10 -->
<g id="edge18_Node000011_Node000010" class="edge">
<title>Node11&#45;&gt;Node10</title>
<g id="a_edge18_Node000011_Node000010"><a xlink:title=" ">
<path fill="none" stroke="#63b8ff" d="M530.77,-57.73C594.44,-48.39 720.51,-29.88 794.52,-19.01"/>
<polygon fill="#63b8ff" stroke="#63b8ff" points="530.12,-54.29 520.74,-59.21 531.14,-61.22 530.12,-54.29"/>
</a>
</g>
</g>
<!-- Node12 -->
<g id="Node000012" class="node">
<title>Node12</title>
<g id="a_Node000012"><a xlink:href="signal__plot_8c.html" target="_top" xlink:title="Signal Analysis Viewer — multi&#45;signal value&#45;over&#45;time graph (Cairo).">
<polygon fill="white" stroke="#666666" points="522.5,-19 426.5,-19 426.5,0 522.5,0 522.5,-19"/>
<text text-anchor="middle" x="474.5" y="-7" font-family="Helvetica,sans-Serif" font-size="10.00">gui/signal_plot.c</text>
</a>
</g>
</g>
<!-- Node11&#45;&gt;Node12 -->
<g id="edge15_Node000011_Node000012" class="edge">
<title>Node11&#45;&gt;Node12</title>
<g id="a_edge15_Node000011_Node000012"><a xlink:title=" ">
<path fill="none" stroke="#63b8ff" d="M485.55,-44.95C482.73,-36.15 479.49,-26.06 477.25,-19.09"/>
<polygon fill="#63b8ff" stroke="#63b8ff" points="482.31,-46.29 488.69,-54.75 488.97,-44.16 482.31,-46.29"/>
</a>
</g>
</g>
<!-- Node11&#45;&gt;Node13 -->
<g id="edge19_Node000011_Node000013" class="edge">
<title>Node11&#45;&gt;Node13</title>
<g id="a_edge19_Node000011_Node000013"><a xlink:title=" ">
<path fill="none" stroke="#63b8ff" d="M530.69,-61.31C606.59,-56.66 778.72,-44.11 921.5,-19 924.38,-18.49 927.37,-17.88 930.33,-17.21"/>
<polygon fill="#63b8ff" stroke="#63b8ff" points="530.41,-57.82 520.64,-61.91 530.83,-64.81 530.41,-57.82"/>
</a>
</g>
</g>
<!-- Node14&#45;&gt;Node2 -->
<g id="edge22_Node000014_Node000002" class="edge">
<title>Node14&#45;&gt;Node2</title>
<g id="a_edge22_Node000014_Node000002"><a xlink:title=" ">
<path fill="none" stroke="#63b8ff" d="M106.99,-104.42C92.29,-94.81 73.28,-82.37 60.75,-74.17"/>
<polygon fill="#63b8ff" stroke="#63b8ff" points="105.2,-107.44 115.49,-109.98 109.03,-101.58 105.2,-107.44"/>
</a>
</g>
</g>
<!-- Node14&#45;&gt;Node3 -->
<g id="edge23_Node000014_Node000003" class="edge">
<title>Node14&#45;&gt;Node3</title>
<g id="a_edge23_Node000014_Node000003"><a xlink:title=" ">
<path fill="none" stroke="#63b8ff" d="M149.08,-104.15C162.81,-94.57 180.43,-82.29 192.07,-74.17"/>
<polygon fill="#63b8ff" stroke="#63b8ff" points="146.91,-101.39 140.71,-109.98 150.92,-107.14 146.91,-101.39"/>
</a>
</g>
</g>
<!-- Node14&#45;&gt;Node8 -->
<g id="edge24_Node000014_Node000008" class="edge">
<title>Node14&#45;&gt;Node8</title>
<g id="a_edge24_Node000014_Node000008"><a xlink:title=" ">
<path fill="none" stroke="#63b8ff" d="M127.62,-99.48C126.53,-75.84 124.7,-36.5 123.9,-19.16"/>
<polygon fill="#63b8ff" stroke="#63b8ff" points="124.13,-99.83 128.09,-109.66 131.12,-99.51 124.13,-99.83"/>
</a>
</g>
</g>
</g>
</svg>
