<?xml version="1.0" encoding="UTF-8" standalone="no"?>
<!DOCTYPE svg PUBLIC "-//W3C//DTD SVG 1.1//EN"
 "http://www.w3.org/Graphics/SVG/1.1/DTD/svg11.dtd">
<!-- Generated by graphviz version 2.43.0 (0)
 -->
<!-- Title: inc/drv_can.h Pages: 1 -->
<svg width="815pt" height="192pt"
 viewBox="0.00 0.00 815.00 192.00" xmlns="http://www.w3.org/2000/svg" xmlns:xlink="http://www.w3.org/1999/xlink">
<g id="graph0" class="graph" transform="scale(1 1) rotate(0) translate(4 188)">
<title>inc/drv_can.h</title>
<!-- Node1 -->
<g id="Node000001" class="node">
<title>Node1</title>
<g id="a_Node000001"><a xlink:title="Generic CAN driver abstraction (vtable) and thin wrapper API.">
<polygon fill="#999999" stroke="#666666" points="245,-184 164,-184 164,-165 245,-165 245,-184"/>
<text text-anchor="middle" x="204.5" y="-172" font-family="Helvetica,sans-Serif" font-size="10.00">inc/drv_can.h</text>
</a>
</g>
</g>
<!-- Node2 -->
<g id="Node000002" class="node">
<title>Node2</title>
<g id="a_Node000002"><a xlink:href="drv__can_8c.html" target="_top" xlink:title="Generic CAN driver abstraction and the SocketCAN binding.">
<polygon fill="white" stroke="#666666" points="95,-74 0,-74 0,-55 95,-55 95,-74"/>
<text text-anchor="middle" x="47.5" y="-62" font-family="Helvetica,sans-Serif" font-size="10.00">driver/drv_can.c</text>
</a>
</g>
</g>
<!-- Node1&#45;&gt;Node2 -->
<g id="edge1_Node000001_Node000002" class="edge">
<title>Node1&#45;&gt;Node2</title>
<g id="a_edge1_Node000001_Node000002"><a xlink:title=" ">
<path fill="none" stroke="#63b8ff" d="M153.9,-166.63C127.13,-160.67 95.37,-149.58 73.5,-129 57.53,-113.98 51.09,-87.75 48.72,-74.18"/>
<polygon fill="#63b8ff" stroke="#63b8ff" points="153.38,-170.1 163.88,-168.68 154.78,-163.24 153.38,-170.1"/>
</a>
</g>
</g>
<!-- Node3 -->
<g id="Node000003" class="node">
<title>Node3</title>
<g id="a_Node000003"><a xlink:href="socketcan_8c.html" target="_top" xlink:title="SocketCAN back&#45;end for PCAN&#45;View Linux (PF_CAN / SOCK_RAW).">
<polygon fill="white" stroke="#666666" points="257,-74 152,-74 152,-55 257,-55 257,-74"/>
<text text-anchor="middle" x="204.5" y="-62" font-family="Helvetica,sans-Serif" font-size="10.00">driver/socketcan.c</text>
</a>
</g>
</g>
<!-- Node1&#45;&gt;Node3 -->
<g id="edge2_Node000001_Node000003" class="edge">
<title>Node1&#45;&gt;Node3</title>
<g id="a_edge2_Node000001_Node000003"><a xlink:title=" ">
<path fill="none" stroke="#63b8ff" d="M204.5,-154.48C204.5,-130.84 204.5,-91.5 204.5,-74.16"/>
<polygon fill="#63b8ff" stroke="#63b8ff" points="201,-154.66 204.5,-164.66 208,-154.66 201,-154.66"/>
</a>
</g>
</g>
<!-- Node4 -->
<g id="Node000004" class="node">
<title>Node4</title>
<g id="a_Node000004"><a xlink:href="threads_8c.html" target="_top" xlink:title="Background worker threads, global state, and connect/disconnect logic.">
<polygon fill="white" stroke="#666666" points="340.5,-19 260.5,-19 260.5,0 340.5,0 340.5,-19"/>
<text text-anchor="middle" x="300.5" y="-7" font-family="Helvetica,sans-Serif" font-size="10.00">gui/threads.c</text>
</a>
</g>
</g>
<!-- Node1&#45;&gt;Node4 -->
<g id="edge3_Node000001_Node000004" class="edge">
<title>Node1&#45;&gt;Node4</title>
<g id="a_edge3_Node000001_Node000004"><a xlink:title=" ">
<path fill="none" stroke="#63b8ff" d="M215.39,-156.29C227.78,-136.57 248.51,-103.2 265.5,-74 276.77,-54.63 289.29,-31.5 295.87,-19.2"/>
<polygon fill="#63b8ff" stroke="#63b8ff" points="212.39,-154.47 210.02,-164.8 218.32,-158.2 212.39,-154.47"/>
</a>
</g>
</g>
<!-- Node5 -->
<g id="Node000005" class="node">
<title>Node5</title>
<g id="a_Node000005"><a xlink:href="app__state_8h.html" target="_top" xlink:title="Global application state shared across the GUI and worker threads.">
<polygon fill="white" stroke="#666666" points="473,-129 382,-129 382,-110 473,-110 473,-129"/>
<text text-anchor="middle" x="427.5" y="-117" font-family="Helvetica,sans-Serif" font-size="10.00">inc/app_state.h</text>
</a>
</g>
</g>
<!-- Node1&#45;&gt;Node5 -->
<g id="edge4_Node000001_Node000005" class="edge">
<title>Node1&#45;&gt;Node5</title>
<g id="a_edge4_Node000001_Node000005"><a xlink:title=" ">
<path fill="none" stroke="#63b8ff" d="M250.25,-162.63C292.02,-152.7 352.95,-138.22 391.39,-129.08"/>
<polygon fill="#63b8ff" stroke="#63b8ff" points="249.25,-159.27 240.33,-164.98 250.87,-166.08 249.25,-159.27"/>
</a>
</g>
</g>
<!-- Node12 -->
<g id="Node000012" class="node">
<title>Node12</title>
<g id="a_Node000012"><a xlink:href="socketcan_8h.html" target="_top" xlink:title="SocketCAN back&#45;end interface (Linux PF_CAN / SOCK_RAW).">
<polygon fill="white" stroke="#666666" points="174.5,-129 82.5,-129 82.5,-110 174.5,-110 174.5,-129"/>
<text text-anchor="middle" x="128.5" y="-117" font-family="Helvetica,sans-Serif" font-size="10.00">inc/socketcan.h</text>
</a>
</g>
</g>
<!-- Node1&#45;&gt;Node12 -->
<g id="edge18_Node000001_Node000012" class="edge">
<title>Node1&#45;&gt;Node12</title>
<g id="a_edge18_Node000001_Node000012"><a xlink:title=" ">
<path fill="none" stroke="#63b8ff" d="M183.92,-159.15C170.19,-149.57 152.57,-137.29 140.93,-129.17"/>
<polygon fill="#63b8ff" stroke="#63b8ff" points="182.08,-162.14 192.29,-164.98 186.09,-156.39 182.08,-162.14"/>
</a>
</g>
</g>
<!-- Node5&#45;&gt;Node4 -->
<g id="edge8_Node000005_Node000004" class="edge">
<title>Node5&#45;&gt;Node4</title>
<g id="a_edge8_Node000005_Node000004"><a xlink:title=" ">
<path fill="none" stroke="#63b8ff" d="M409.16,-102.91C382.03,-79.83 332.09,-37.37 310.68,-19.16"/>
<polygon fill="#63b8ff" stroke="#63b8ff" points="407.22,-105.85 417.11,-109.66 411.76,-100.52 407.22,-105.85"/>
</a>
</g>
</g>
<!-- Node6 -->
<g id="Node000006" class="node">
<title>Node6</title>
<g id="a_Node000006"><a xlink:href="main__window_8c.html" target="_top" xlink:title="Main GTK3 window: menu bar, statistics bar, toolbar, trace, TX panel.">
<polygon fill="white" stroke="#666666" points="536.5,-19 426.5,-19 426.5,0 536.5,0 536.5,-19"/>
<text text-anchor="middle" x="481.5" y="-7" font-family="Helvetica,sans-Serif" font-size="10.00">gui/main_window.c</text>
</a>
</g>
</g>
<!-- Node5&#45;&gt;Node6 -->
<g id="edge5_Node000005_Node000006" class="edge">
<title>Node5&#45;&gt;Node6</title>
<g id="a_edge5_Node000005_Node000006"><a xlink:title=" ">
<path fill="none" stroke="#63b8ff" d="M459.62,-105.52C472.93,-98.34 486.99,-88 494.5,-74 504.07,-56.15 493.76,-32.01 486.79,-19.25"/>
<polygon fill="#63b8ff" stroke="#63b8ff" points="458.02,-102.4 450.61,-109.98 461.13,-108.67 458.02,-102.4"/>
</a>
</g>
</g>
<!-- Node7 -->
<g id="Node000007" class="node">
<title>Node7</title>
<g id="a_Node000007"><a xlink:href="message__view_8c.html" target="_top" xlink:title="CAN trace GtkTreeView, value formatting, and statistics rendering.">
<polygon fill="white" stroke="#666666" points="670,-19 555,-19 555,0 670,0 670,-19"/>
<text text-anchor="middle" x="612.5" y="-7" font-family="Helvetica,sans-Serif" font-size="10.00">gui/message_view.c</text>
</a>
</g>
</g>
<!-- Node5&#45;&gt;Node7 -->
<g id="edge6_Node000005_Node000007" class="edge">
<title>Node5&#45;&gt;Node7</title>
<g id="a_edge6_Node000005_Node000007"><a xlink:title=" ">
<path fill="none" stroke="#63b8ff" d="M453.26,-105.24C469.77,-96.61 491.57,-84.95 510.5,-74 542.82,-55.3 579.81,-31.71 599.14,-19.2"/>
<polygon fill="#63b8ff" stroke="#63b8ff" points="451.46,-102.23 444.21,-109.95 454.7,-108.44 451.46,-102.23"/>
</a>
</g>
</g>
<!-- Node8 -->
<g id="Node000008" class="node">
<title>Node8</title>
<g id="a_Node000008"><a xlink:href="settings__dialog_8c.html" target="_top" xlink:title="Modal CAN connection&#45;settings dialog.">
<polygon fill="white" stroke="#666666" points="242,-19 125,-19 125,0 242,0 242,-19"/>
<text text-anchor="middle" x="183.5" y="-7" font-family="Helvetica,sans-Serif" font-size="10.00">gui/settings_dialog.c</text>
</a>
</g>
</g>
<!-- Node5&#45;&gt;Node8 -->
<g id="edge7_Node000005_Node000008" class="edge">
<title>Node5&#45;&gt;Node8</title>
<g id="a_edge7_Node000005_Node000008"><a xlink:title=" ">
<path fill="none" stroke="#63b8ff" d="M398.59,-105.71C348.19,-83.4 245.52,-37.95 202.81,-19.05"/>
<polygon fill="#63b8ff" stroke="#63b8ff" points="397.38,-109 407.94,-109.84 400.22,-102.6 397.38,-109"/>
</a>
</g>
</g>
<!-- Node9 -->
<g id="Node000009" class="node">
<title>Node9</title>
<g id="a_Node000009"><a xlink:href="transmit__dialog_8c.html" target="_top" xlink:title="Advanced (&quot;Transmit...&quot;) CAN/CAN FD message composer window.">
<polygon fill="white" stroke="#666666" points="807,-19 688,-19 688,0 807,0 807,-19"/>
<text text-anchor="middle" x="747.5" y="-7" font-family="Helvetica,sans-Serif" font-size="10.00">gui/transmit_dialog.c</text>
</a>
</g>
</g>
<!-- Node5&#45;&gt;Node9 -->
<g id="edge9_Node000005_Node000009" class="edge">
<title>Node5&#45;&gt;Node9</title>
<g id="a_edge9_Node000005_Node000009"><a xlink:title=" ">
<path fill="none" stroke="#63b8ff" d="M462.67,-106.63C527.7,-84.68 665.29,-38.25 722.12,-19.07"/>
<polygon fill="#63b8ff" stroke="#63b8ff" points="461.23,-103.42 452.88,-109.94 463.47,-110.05 461.23,-103.42"/>
</a>
</g>
</g>
<!-- Node10 -->
<g id="Node000010" class="node">
<title>Node10</title>
<g id="a_Node000010"><a xlink:href="gui_8h.html" target="_top" xlink:title="GTK GUI widget registry and the application&#39;s GUI/thread API.">
<polygon fill="white" stroke="#666666" points="485.5,-74 427.5,-74 427.5,-55 485.5,-55 485.5,-74"/>
<text text-anchor="middle" x="456.5" y="-62" font-family="Helvetica,sans-Serif" font-size="10.00">inc/gui.h</text>
</a>
</g>
</g>
<!-- Node5&#45;&gt;Node10 -->
<g id="edge10_Node000005_Node000010" class="edge">
<title>Node5&#45;&gt;Node10</title>
<g id="a_edge10_Node000005_Node000010"><a xlink:title=" ">
<path fill="none" stroke="#63b8ff" d="M437.18,-100.82C442.1,-91.82 447.86,-81.29 451.8,-74.09"/>
<polygon fill="#63b8ff" stroke="#63b8ff" points="434.02,-99.3 432.29,-109.75 440.16,-102.66 434.02,-99.3"/>
</a>
</g>
</g>
<!-- Node11 -->
<g id="Node000011" class="node">
<title>Node11</title>
<g id="a_Node000011"><a xlink:href="main_8c.html" target="_top" xlink:title="Entry point for PCAN&#45;View Linux — a GTK3 CAN bus monitor/analyser.">
<polygon fill="white" stroke="#666666" points="408.5,-19 358.5,-19 358.5,0 408.5,0 408.5,-19"/>
<text text-anchor="middle" x="383.5" y="-7" font-family="Helvetica,sans-Serif" font-size="10.00">main.c</text>
</a>
</g>
</g>
<!-- Node5&#45;&gt;Node11 -->
<g id="edge17_Node000005_Node000011" class="edge">
<title>Node5&#45;&gt;Node11</title>
<g id="a_edge17_Node000005_Node000011"><a xlink:title=" ">
<path fill="none" stroke="#63b8ff" d="M420.01,-100.12C410.41,-76.56 394.16,-36.66 387.03,-19.16"/>
<polygon fill="#63b8ff" stroke="#63b8ff" points="416.88,-101.72 423.9,-109.66 423.37,-99.08 416.88,-101.72"/>
</a>
</g>
</g>
<!-- Node10&#45;&gt;Node4 -->
<g id="edge14_Node000010_Node000004" class="edge">
<title>Node10&#45;&gt;Node4</title>
<g id="a_edge14_Node000010_Node000004"><a xlink:title=" ">
<path fill="none" stroke="#63b8ff" d="M421.68,-51.67C392.59,-41.79 351.8,-27.93 325.76,-19.08"/>
<polygon fill="#63b8ff" stroke="#63b8ff" points="420.84,-55.08 431.44,-54.98 423.09,-48.45 420.84,-55.08"/>
</a>
</g>
</g>
<!-- Node10&#45;&gt;Node6 -->
<g id="edge11_Node000010_Node000006" class="edge">
<title>Node10&#45;&gt;Node6</title>
<g id="a_edge11_Node000010_Node000006"><a xlink:title=" ">
<path fill="none" stroke="#63b8ff" d="M464.98,-45.53C469.19,-36.6 474.09,-26.22 477.45,-19.09"/>
<polygon fill="#63b8ff" stroke="#63b8ff" points="461.73,-44.21 460.63,-54.75 468.06,-47.2 461.73,-44.21"/>
</a>
</g>
</g>
<!-- Node10&#45;&gt;Node7 -->
<g id="edge12_Node000010_Node000007" class="edge">
<title>Node10&#45;&gt;Node7</title>
<g id="a_edge12_Node000010_Node000007"><a xlink:title=" ">
<path fill="none" stroke="#63b8ff" d="M491.32,-51.67C520.41,-41.79 561.2,-27.93 587.24,-19.08"/>
<polygon fill="#63b8ff" stroke="#63b8ff" points="489.91,-48.45 481.56,-54.98 492.16,-55.08 489.91,-48.45"/>
</a>
</g>
</g>
<!-- Node10&#45;&gt;Node8 -->
<g id="edge13_Node000010_Node000008" class="edge">
<title>Node10&#45;&gt;Node8</title>
<g id="a_edge13_Node000010_Node000008"><a xlink:title=" ">
<path fill="none" stroke="#63b8ff" d="M417.43,-55.91C367.09,-46.14 279.83,-29.2 227.3,-19"/>
<polygon fill="#63b8ff" stroke="#63b8ff" points="416.8,-59.36 427.28,-57.83 418.13,-52.49 416.8,-59.36"/>
</a>
</g>
</g>
<!-- Node10&#45;&gt;Node9 -->
<g id="edge15_Node000010_Node000009" class="edge">
<title>Node10&#45;&gt;Node9</title>
<g id="a_edge15_Node000010_Node000009"><a xlink:title=" ">
<path fill="none" stroke="#63b8ff" d="M495.79,-56.34C548.99,-46.66 643.77,-29.39 700.62,-19.04"/>
<polygon fill="#63b8ff" stroke="#63b8ff" points="494.95,-52.94 485.73,-58.18 496.2,-59.83 494.95,-52.94"/>
</a>
</g>
</g>
<!-- Node10&#45;&gt;Node11 -->
<g id="edge16_Node000010_Node000011" class="edge">
<title>Node10&#45;&gt;Node11</title>
<g id="a_edge16_Node000010_Node000011"><a xlink:title=" ">
<path fill="none" stroke="#63b8ff" d="M436.36,-48.88C423.22,-39.34 406.52,-27.21 395.44,-19.17"/>
<polygon fill="#63b8ff" stroke="#63b8ff" points="434.62,-51.94 444.77,-54.98 438.74,-46.28 434.62,-51.94"/>
</a>
</g>
</g>
<!-- Node12&#45;&gt;Node2 -->
<g id="edge19_Node000012_Node000002" class="edge">
<title>Node12&#45;&gt;Node2</title>
<g id="a_edge19_Node000012_Node000002"><a xlink:title=" ">
<path fill="none" stroke="#63b8ff" d="M106.99,-104.42C92.29,-94.81 73.28,-82.37 60.75,-74.17"/>
<polygon fill="#63b8ff" stroke="#63b8ff" points="105.2,-107.44 115.49,-109.98 109.03,-101.58 105.2,-107.44"/>
</a>
</g>
</g>
<!-- Node12&#45;&gt;Node3 -->
<g id="edge20_Node000012_Node000003" class="edge">
<title>Node12&#45;&gt;Node3</title>
<g id="a_edge20_Node000012_Node000003"><a xlink:title=" ">
<path fill="none" stroke="#63b8ff" d="M149.08,-104.15C162.81,-94.57 180.43,-82.29 192.07,-74.17"/>
<polygon fill="#63b8ff" stroke="#63b8ff" points="146.91,-101.39 140.71,-109.98 150.92,-107.14 146.91,-101.39"/>
</a>
</g>
</g>
<!-- Node12&#45;&gt;Node8 -->
<g id="edge21_Node000012_Node000008" class="edge">
<title>Node12&#45;&gt;Node8</title>
<g id="a_edge21_Node000012_Node000008"><a xlink:title=" ">
<path fill="none" stroke="#63b8ff" d="M130.04,-99.61C131.73,-86.49 135.23,-68.94 142.5,-55 149.98,-40.66 163.3,-27.47 172.72,-19.23"/>
<polygon fill="#63b8ff" stroke="#63b8ff" points="126.54,-99.49 128.98,-109.8 133.5,-100.21 126.54,-99.49"/>
</a>
</g>
</g>
</g>
</svg>
