<?xml version="1.0" encoding="UTF-8" standalone="no"?>
<!DOCTYPE svg PUBLIC "-//W3C//DTD SVG 1.1//EN"
 "http://www.w3.org/Graphics/SVG/1.1/DTD/svg11.dtd">
<!-- Generated by graphviz version 2.43.0 (0)
 -->
<!-- Title: inc/drv_can.h Pages: 1 -->
<svg width="152pt" height="137pt"
 viewBox="0.00 0.00 151.50 137.00" xmlns="http://www.w3.org/2000/svg" xmlns:xlink="http://www.w3.org/1999/xlink">
<g id="graph0" class="graph" transform="scale(1 1) rotate(0) translate(4 133)">
<title>inc/drv_can.h</title>
<!-- Node1 -->
<g id="Node000001" class="node">
<title>Node1</title>
<g id="a_Node000001"><a xlink:title="Generic CAN driver abstraction (vtable) and thin wrapper API.">
<polygon fill="#999999" stroke="#666666" points="101,-129 20,-129 20,-110 101,-110 101,-129"/>
<text text-anchor="middle" x="60.5" y="-117" font-family="Helvetica,sans-Serif" font-size="10.00">inc/drv_can.h</text>
</a>
</g>
</g>
<!-- Node2 -->
<g id="Node000002" class="node">
<title>Node2</title>
<g id="a_Node000002"><a xlink:title=" ">
<polygon fill="#e0e0e0" stroke="#999999" points="53,-19 0,-19 0,0 53,0 53,-19"/>
<text text-anchor="middle" x="26.5" y="-7" font-family="Helvetica,sans-Serif" font-size="10.00">stdint.h</text>
</a>
</g>
</g>
<!-- Node1&#45;&gt;Node2 -->
<g id="edge1_Node000001_Node000002" class="edge">
<title>Node1&#45;&gt;Node2</title>
<g id="a_edge1_Node000001_Node000002"><a xlink:title=" ">
<path fill="none" stroke="#63b8ff" d="M56.55,-109.77C52.64,-100.89 46.64,-86.68 42.5,-74 37.64,-59.12 33.38,-41.88 30.48,-29.12"/>
<polygon fill="#63b8ff" stroke="#63b8ff" points="33.87,-28.25 28.3,-19.24 27.04,-29.75 33.87,-28.25"/>
</a>
</g>
</g>
<!-- Node3 -->
<g id="Node000003" class="node">
<title>Node3</title>
<g id="a_Node000003"><a xlink:href="can__message_8h.html" target="_top" xlink:title="Hardware&#45;independent CAN/CAN FD message and statistics data types.">
<polygon fill="white" stroke="#666666" points="143.5,-74 51.5,-74 51.5,-55 143.5,-55 143.5,-74"/>
<text text-anchor="middle" x="97.5" y="-62" font-family="Helvetica,sans-Serif" font-size="10.00">can_message.h</text>
</a>
</g>
</g>
<!-- Node1&#45;&gt;Node3 -->
<g id="edge2_Node000001_Node000003" class="edge">
<title>Node1&#45;&gt;Node3</title>
<g id="a_edge2_Node000001_Node000003"><a xlink:title=" ">
<path fill="none" stroke="#63b8ff" d="M66.61,-109.75C71.78,-102.34 79.35,-91.5 85.69,-82.41"/>
<polygon fill="#63b8ff" stroke="#63b8ff" points="88.65,-84.29 91.5,-74.09 82.91,-80.29 88.65,-84.29"/>
</a>
</g>
</g>
<!-- Node3&#45;&gt;Node2 -->
<g id="edge3_Node000003_Node000002" class="edge">
<title>Node3&#45;&gt;Node2</title>
<g id="a_edge3_Node000003_Node000002"><a xlink:title=" ">
<path fill="none" stroke="#63b8ff" d="M86.09,-54.98C75.39,-47 59.16,-34.88 46.34,-25.31"/>
<polygon fill="#63b8ff" stroke="#63b8ff" points="48.22,-22.35 38.11,-19.17 44.03,-27.96 48.22,-22.35"/>
</a>
</g>
</g>
<!-- Node4 -->
<g id="Node000004" class="node">
<title>Node4</title>
<g id="a_Node000004"><a xlink:title=" ">
<polygon fill="#e0e0e0" stroke="#999999" points="121.5,-19 73.5,-19 73.5,0 121.5,0 121.5,-19"/>
<text text-anchor="middle" x="97.5" y="-7" font-family="Helvetica,sans-Serif" font-size="10.00">time.h</text>
</a>
</g>
</g>
<!-- Node3&#45;&gt;Node4 -->
<g id="edge4_Node000003_Node000004" class="edge">
<title>Node3&#45;&gt;Node4</title>
<g id="a_edge4_Node000003_Node000004"><a xlink:title=" ">
<path fill="none" stroke="#63b8ff" d="M97.5,-54.75C97.5,-47.8 97.5,-37.85 97.5,-29.13"/>
<polygon fill="#63b8ff" stroke="#63b8ff" points="101,-29.09 97.5,-19.09 94,-29.09 101,-29.09"/>
</a>
</g>
</g>
</g>
</svg>
