<?xml version="1.0" encoding="UTF-8" standalone="no"?>
<!DOCTYPE svg PUBLIC "-//W3C//DTD SVG 1.1//EN"
 "http://www.w3.org/Graphics/SVG/1.1/DTD/svg11.dtd">
<!-- Generated by graphviz version 2.43.0 (0)
 -->
<!-- Title: inc/gui.h Pages: 1 -->
<svg width="691pt" height="82pt"
 viewBox="0.00 0.00 691.00 82.00" xmlns="http://www.w3.org/2000/svg" xmlns:xlink="http://www.w3.org/1999/xlink">
<g id="graph0" class="graph" transform="scale(1 1) rotate(0) translate(4 78)">
<title>inc/gui.h</title>
<!-- Node1 -->
<g id="Node000001" class="node">
<title>Node1</title>
<g id="a_Node000001"><a xlink:title="GTK GUI widget registry and the application&#39;s GUI/thread API.">
<polygon fill="#999999" stroke="#666666" points="407,-74 349,-74 349,-55 407,-55 407,-74"/>
<text text-anchor="middle" x="378" y="-62" font-family="Helvetica,sans-Serif" font-size="10.00">inc/gui.h</text>
</a>
</g>
</g>
<!-- Node2 -->
<g id="Node000002" class="node">
<title>Node2</title>
<g id="a_Node000002"><a xlink:href="main__window_8c.html" target="_top" xlink:title="Main GTK3 window: menu bar, statistics bar, toolbar, trace, TX panel.">
<polygon fill="white" stroke="#666666" points="110,-19 0,-19 0,0 110,0 110,-19"/>
<text text-anchor="middle" x="55" y="-7" font-family="Helvetica,sans-Serif" font-size="10.00">gui/main_window.c</text>
</a>
</g>
</g>
<!-- Node1&#45;&gt;Node2 -->
<g id="edge1_Node000001_Node000002" class="edge">
<title>Node1&#45;&gt;Node2</title>
<g id="a_edge1_Node000001_Node000002"><a xlink:title=" ">
<path fill="none" stroke="#63b8ff" d="M338.87,-57.08C280.75,-47.54 171.53,-29.62 106.83,-19"/>
<polygon fill="#63b8ff" stroke="#63b8ff" points="338.33,-60.54 348.77,-58.7 339.46,-53.63 338.33,-60.54"/>
</a>
</g>
</g>
<!-- Node3 -->
<g id="Node000003" class="node">
<title>Node3</title>
<g id="a_Node000003"><a xlink:href="message__view_8c.html" target="_top" xlink:title="CAN trace GtkTreeView, value formatting, and statistics rendering.">
<polygon fill="white" stroke="#666666" points="243.5,-19 128.5,-19 128.5,0 243.5,0 243.5,-19"/>
<text text-anchor="middle" x="186" y="-7" font-family="Helvetica,sans-Serif" font-size="10.00">gui/message_view.c</text>
</a>
</g>
</g>
<!-- Node1&#45;&gt;Node3 -->
<g id="edge2_Node000001_Node000003" class="edge">
<title>Node1&#45;&gt;Node3</title>
<g id="a_edge2_Node000001_Node000003"><a xlink:title=" ">
<path fill="none" stroke="#63b8ff" d="M339.16,-52.78C303.16,-42.84 250.29,-28.25 217.03,-19.07"/>
<polygon fill="#63b8ff" stroke="#63b8ff" points="338.27,-56.16 348.84,-55.45 340.13,-49.42 338.27,-56.16"/>
</a>
</g>
</g>
<!-- Node4 -->
<g id="Node000004" class="node">
<title>Node4</title>
<g id="a_Node000004"><a xlink:href="settings__dialog_8c.html" target="_top" xlink:title="Modal CAN connection&#45;settings dialog.">
<polygon fill="white" stroke="#666666" points="378.5,-19 261.5,-19 261.5,0 378.5,0 378.5,-19"/>
<text text-anchor="middle" x="320" y="-7" font-family="Helvetica,sans-Serif" font-size="10.00">gui/settings_dialog.c</text>
</a>
</g>
</g>
<!-- Node1&#45;&gt;Node4 -->
<g id="edge3_Node000001_Node000004" class="edge">
<title>Node1&#45;&gt;Node4</title>
<g id="a_edge3_Node000001_Node000004"><a xlink:title=" ">
<path fill="none" stroke="#63b8ff" d="M361.09,-48.04C350.8,-38.64 338.03,-26.98 329.49,-19.17"/>
<polygon fill="#63b8ff" stroke="#63b8ff" points="358.94,-50.82 368.68,-54.98 363.66,-45.66 358.94,-50.82"/>
</a>
</g>
</g>
<!-- Node5 -->
<g id="Node000005" class="node">
<title>Node5</title>
<g id="a_Node000005"><a xlink:href="threads_8c.html" target="_top" xlink:title="Background worker threads, global state, and connect/disconnect logic.">
<polygon fill="white" stroke="#666666" points="477,-19 397,-19 397,0 477,0 477,-19"/>
<text text-anchor="middle" x="437" y="-7" font-family="Helvetica,sans-Serif" font-size="10.00">gui/threads.c</text>
</a>
</g>
</g>
<!-- Node1&#45;&gt;Node5 -->
<g id="edge4_Node000001_Node000005" class="edge">
<title>Node1&#45;&gt;Node5</title>
<g id="a_edge4_Node000001_Node000005"><a xlink:title=" ">
<path fill="none" stroke="#63b8ff" d="M395.2,-48.04C405.67,-38.64 418.65,-26.98 427.35,-19.17"/>
<polygon fill="#63b8ff" stroke="#63b8ff" points="392.58,-45.7 387.48,-54.98 397.26,-50.91 392.58,-45.7"/>
</a>
</g>
</g>
<!-- Node6 -->
<g id="Node000006" class="node">
<title>Node6</title>
<g id="a_Node000006"><a xlink:href="transmit__dialog_8c.html" target="_top" xlink:title="Advanced (&quot;Transmit...&quot;) CAN/CAN FD message composer window.">
<polygon fill="white" stroke="#666666" points="614.5,-19 495.5,-19 495.5,0 614.5,0 614.5,-19"/>
<text text-anchor="middle" x="555" y="-7" font-family="Helvetica,sans-Serif" font-size="10.00">gui/transmit_dialog.c</text>
</a>
</g>
</g>
<!-- Node1&#45;&gt;Node6 -->
<g id="edge5_Node000001_Node000006" class="edge">
<title>Node1&#45;&gt;Node6</title>
<g id="a_edge5_Node000001_Node000006"><a xlink:title=" ">
<path fill="none" stroke="#63b8ff" d="M416.22,-52.06C449.3,-42.15 496.41,-28.04 526.34,-19.08"/>
<polygon fill="#63b8ff" stroke="#63b8ff" points="415.01,-48.76 406.44,-54.98 417.02,-55.47 415.01,-48.76"/>
</a>
</g>
</g>
<!-- Node7 -->
<g id="Node000007" class="node">
<title>Node7</title>
<g id="a_Node000007"><a xlink:href="main_8c.html" target="_top" xlink:title="Entry point for PCAN&#45;View Linux — a GTK3 CAN bus monitor/analyser.">
<polygon fill="white" stroke="#666666" points="683,-19 633,-19 633,0 683,0 683,-19"/>
<text text-anchor="middle" x="658" y="-7" font-family="Helvetica,sans-Serif" font-size="10.00">main.c</text>
</a>
</g>
</g>
<!-- Node1&#45;&gt;Node7 -->
<g id="edge6_Node000001_Node000007" class="edge">
<title>Node1&#45;&gt;Node7</title>
<g id="a_edge6_Node000001_Node000007"><a xlink:title=" ">
<path fill="none" stroke="#63b8ff" d="M417.39,-57.2C466.1,-49.22 551.46,-34.61 624,-19 626.86,-18.39 629.83,-17.7 632.79,-17"/>
<polygon fill="#63b8ff" stroke="#63b8ff" points="416.59,-53.78 407.28,-58.85 417.71,-60.69 416.59,-53.78"/>
</a>
</g>
</g>
</g>
</svg>
