<?xml version="1.0" encoding="UTF-8" standalone="no"?>
<!DOCTYPE svg PUBLIC "-//W3C//DTD SVG 1.1//EN"
 "http://www.w3.org/Graphics/SVG/1.1/DTD/svg11.dtd">
<!-- Generated by graphviz version 2.43.0 (0)
 -->
<!-- Title: inc/gui.h Pages: 1 -->
<svg width="526pt" height="247pt"
 viewBox="0.00 0.00 526.00 247.00" xmlns="http://www.w3.org/2000/svg" xmlns:xlink="http://www.w3.org/1999/xlink">
<g id="graph0" class="graph" transform="scale(1 1) rotate(0) translate(4 243)">
<title>inc/gui.h</title>
<!-- Node1 -->
<g id="Node000001" class="node">
<title>Node1</title>
<g id="a_Node000001"><a xlink:title="GTK GUI widget registry and the application&#39;s GUI/thread API.">
<polygon fill="#999999" stroke="#666666" points="170,-239 112,-239 112,-220 170,-220 170,-239"/>
<text text-anchor="middle" x="141" y="-227" font-family="Helvetica,sans-Serif" font-size="10.00">inc/gui.h</text>
</a>
</g>
</g>
<!-- Node2 -->
<g id="Node000002" class="node">
<title>Node2</title>
<g id="a_Node000002"><a xlink:title=" ">
<polygon fill="#e0e0e0" stroke="#999999" points="60,-184 0,-184 0,-165 60,-165 60,-184"/>
<text text-anchor="middle" x="30" y="-172" font-family="Helvetica,sans-Serif" font-size="10.00">gtk/gtk.h</text>
</a>
</g>
</g>
<!-- Node1&#45;&gt;Node2 -->
<g id="edge1_Node000001_Node000002" class="edge">
<title>Node1&#45;&gt;Node2</title>
<g id="a_edge1_Node000001_Node000002"><a xlink:title=" ">
<path fill="none" stroke="#63b8ff" d="M123.17,-219.98C105.39,-211.5 77.85,-198.35 57.32,-188.54"/>
<polygon fill="#63b8ff" stroke="#63b8ff" points="58.69,-185.32 48.16,-184.17 55.67,-191.64 58.69,-185.32"/>
</a>
</g>
</g>
<!-- Node3 -->
<g id="Node000003" class="node">
<title>Node3</title>
<g id="a_Node000003"><a xlink:href="can__message_8h.html" target="_top" xlink:title="Hardware&#45;independent CAN/CAN FD message and statistics data types.">
<polygon fill="white" stroke="#666666" points="242,-74 150,-74 150,-55 242,-55 242,-74"/>
<text text-anchor="middle" x="196" y="-62" font-family="Helvetica,sans-Serif" font-size="10.00">can_message.h</text>
</a>
</g>
</g>
<!-- Node1&#45;&gt;Node3 -->
<g id="edge2_Node000001_Node000003" class="edge">
<title>Node1&#45;&gt;Node3</title>
<g id="a_edge2_Node000001_Node000003"><a xlink:title=" ">
<path fill="none" stroke="#63b8ff" d="M134.07,-219.82C118.58,-199.3 84.27,-146.78 107,-110 116.49,-94.64 133.06,-84.41 149.35,-77.68"/>
<polygon fill="#63b8ff" stroke="#63b8ff" points="150.73,-80.9 158.85,-74.1 148.26,-74.35 150.73,-80.9"/>
</a>
</g>
</g>
<!-- Node6 -->
<g id="Node000006" class="node">
<title>Node6</title>
<g id="a_Node000006"><a xlink:href="app__state_8h.html" target="_top" xlink:title="Global application state shared across the GUI and worker threads.">
<polygon fill="white" stroke="#666666" points="261,-184 187,-184 187,-165 261,-165 261,-184"/>
<text text-anchor="middle" x="224" y="-172" font-family="Helvetica,sans-Serif" font-size="10.00">app_state.h</text>
</a>
</g>
</g>
<!-- Node1&#45;&gt;Node6 -->
<g id="edge5_Node000001_Node000006" class="edge">
<title>Node1&#45;&gt;Node6</title>
<g id="a_edge5_Node000001_Node000006"><a xlink:title=" ">
<path fill="none" stroke="#63b8ff" d="M154.34,-219.98C167.09,-211.84 186.55,-199.41 201.67,-189.76"/>
<polygon fill="#63b8ff" stroke="#63b8ff" points="203.88,-192.5 210.42,-184.17 200.11,-186.6 203.88,-192.5"/>
</a>
</g>
</g>
<!-- Node10 -->
<g id="Node000010" class="node">
<title>Node10</title>
<g id="a_Node000010"><a xlink:href="dbc_8h.html" target="_top" xlink:title="Minimal CAN database (DBC) model, parser, and signal decoder.">
<polygon fill="white" stroke="#666666" points="455.5,-184 412.5,-184 412.5,-165 455.5,-165 455.5,-184"/>
<text text-anchor="middle" x="434" y="-172" font-family="Helvetica,sans-Serif" font-size="10.00">dbc.h</text>
</a>
</g>
</g>
<!-- Node1&#45;&gt;Node10 -->
<g id="edge13_Node000001_Node000010" class="edge">
<title>Node1&#45;&gt;Node10</title>
<g id="a_edge13_Node000001_Node000010"><a xlink:title=" ">
<path fill="none" stroke="#63b8ff" d="M170.17,-223.22C225.49,-213.22 345.24,-191.56 402.4,-181.22"/>
<polygon fill="#63b8ff" stroke="#63b8ff" points="403.1,-184.65 412.31,-179.42 401.85,-177.76 403.1,-184.65"/>
</a>
</g>
</g>
<!-- Node4 -->
<g id="Node000004" class="node">
<title>Node4</title>
<g id="a_Node000004"><a xlink:title=" ">
<polygon fill="#e0e0e0" stroke="#999999" points="320.5,-19 267.5,-19 267.5,0 320.5,0 320.5,-19"/>
<text text-anchor="middle" x="294" y="-7" font-family="Helvetica,sans-Serif" font-size="10.00">stdint.h</text>
</a>
</g>
</g>
<!-- Node3&#45;&gt;Node4 -->
<g id="edge3_Node000003_Node000004" class="edge">
<title>Node3&#45;&gt;Node4</title>
<g id="a_edge3_Node000003_Node000004"><a xlink:title=" ">
<path fill="none" stroke="#63b8ff" d="M211.75,-54.98C227.23,-46.61 251.09,-33.7 269.14,-23.95"/>
<polygon fill="#63b8ff" stroke="#63b8ff" points="270.84,-27.01 277.97,-19.17 267.51,-20.85 270.84,-27.01"/>
</a>
</g>
</g>
<!-- Node5 -->
<g id="Node000005" class="node">
<title>Node5</title>
<g id="a_Node000005"><a xlink:title=" ">
<polygon fill="#e0e0e0" stroke="#999999" points="220,-19 172,-19 172,0 220,0 220,-19"/>
<text text-anchor="middle" x="196" y="-7" font-family="Helvetica,sans-Serif" font-size="10.00">time.h</text>
</a>
</g>
</g>
<!-- Node3&#45;&gt;Node5 -->
<g id="edge4_Node000003_Node000005" class="edge">
<title>Node3&#45;&gt;Node5</title>
<g id="a_edge4_Node000003_Node000005"><a xlink:title=" ">
<path fill="none" stroke="#63b8ff" d="M196,-54.75C196,-47.8 196,-37.85 196,-29.13"/>
<polygon fill="#63b8ff" stroke="#63b8ff" points="199.5,-29.09 196,-19.09 192.5,-29.09 199.5,-29.09"/>
</a>
</g>
</g>
<!-- Node6&#45;&gt;Node3 -->
<g id="edge9_Node000006_Node000003" class="edge">
<title>Node6&#45;&gt;Node3</title>
<g id="a_edge9_Node000006_Node000003"><a xlink:title=" ">
<path fill="none" stroke="#63b8ff" d="M221.71,-164.66C217.15,-147.09 206.88,-107.45 200.78,-83.95"/>
<polygon fill="#63b8ff" stroke="#63b8ff" points="204.14,-82.96 198.24,-74.16 197.37,-84.72 204.14,-82.96"/>
</a>
</g>
</g>
<!-- Node6&#45;&gt;Node4 -->
<g id="edge7_Node000006_Node000004" class="edge">
<title>Node6&#45;&gt;Node4</title>
<g id="a_edge7_Node000006_Node000004"><a xlink:title=" ">
<path fill="none" stroke="#63b8ff" d="M249.51,-164.9C265.69,-157.96 285.35,-146.44 295,-129 312.45,-97.47 305.55,-53.6 299.46,-29.05"/>
<polygon fill="#63b8ff" stroke="#63b8ff" points="302.79,-27.98 296.8,-19.24 296.03,-29.81 302.79,-27.98"/>
</a>
</g>
</g>
<!-- Node7 -->
<g id="Node000007" class="node">
<title>Node7</title>
<g id="a_Node000007"><a xlink:title=" ">
<polygon fill="#e0e0e0" stroke="#999999" points="405.5,-129 342.5,-129 342.5,-110 405.5,-110 405.5,-129"/>
<text text-anchor="middle" x="374" y="-117" font-family="Helvetica,sans-Serif" font-size="10.00">pthread.h</text>
</a>
</g>
</g>
<!-- Node6&#45;&gt;Node7 -->
<g id="edge6_Node000006_Node000007" class="edge">
<title>Node6&#45;&gt;Node7</title>
<g id="a_edge6_Node000006_Node000007"><a xlink:title=" ">
<path fill="none" stroke="#63b8ff" d="M248.1,-164.98C272.88,-156.23 311.7,-142.51 339.69,-132.62"/>
<polygon fill="#63b8ff" stroke="#63b8ff" points="341.2,-135.8 349.46,-129.17 338.87,-129.2 341.2,-135.8"/>
</a>
</g>
</g>
<!-- Node8 -->
<g id="Node000008" class="node">
<title>Node8</title>
<g id="a_Node000008"><a xlink:title=" ">
<polygon fill="#e0e0e0" stroke="#999999" points="166,-129 116,-129 116,-110 166,-110 166,-129"/>
<text text-anchor="middle" x="141" y="-117" font-family="Helvetica,sans-Serif" font-size="10.00">stdio.h</text>
</a>
</g>
</g>
<!-- Node6&#45;&gt;Node8 -->
<g id="edge8_Node000006_Node000008" class="edge">
<title>Node6&#45;&gt;Node8</title>
<g id="a_edge8_Node000006_Node000008"><a xlink:title=" ">
<path fill="none" stroke="#63b8ff" d="M210.66,-164.98C197.91,-156.84 178.45,-144.41 163.33,-134.76"/>
<polygon fill="#63b8ff" stroke="#63b8ff" points="164.89,-131.6 154.58,-129.17 161.12,-137.5 164.89,-131.6"/>
</a>
</g>
</g>
<!-- Node9 -->
<g id="Node000009" class="node">
<title>Node9</title>
<g id="a_Node000009"><a xlink:href="drv__can_8h.html" target="_top" xlink:title="Generic CAN driver abstraction (vtable) and thin wrapper API.">
<polygon fill="white" stroke="#666666" points="286,-129 222,-129 222,-110 286,-110 286,-129"/>
<text text-anchor="middle" x="254" y="-117" font-family="Helvetica,sans-Serif" font-size="10.00">drv_can.h</text>
</a>
</g>
</g>
<!-- Node6&#45;&gt;Node9 -->
<g id="edge10_Node000006_Node000009" class="edge">
<title>Node6&#45;&gt;Node9</title>
<g id="a_edge10_Node000006_Node000009"><a xlink:title=" ">
<path fill="none" stroke="#63b8ff" d="M228.95,-164.75C233.06,-157.49 239.03,-146.95 244.1,-137.98"/>
<polygon fill="#63b8ff" stroke="#63b8ff" points="247.26,-139.52 249.14,-129.09 241.17,-136.07 247.26,-139.52"/>
</a>
</g>
</g>
<!-- Node9&#45;&gt;Node3 -->
<g id="edge12_Node000009_Node000003" class="edge">
<title>Node9&#45;&gt;Node3</title>
<g id="a_edge12_Node000009_Node000003"><a xlink:title=" ">
<path fill="none" stroke="#63b8ff" d="M244.68,-109.98C236.19,-102.23 223.44,-90.58 213.12,-81.14"/>
<polygon fill="#63b8ff" stroke="#63b8ff" points="215.23,-78.33 205.49,-74.17 210.51,-83.5 215.23,-78.33"/>
</a>
</g>
</g>
<!-- Node9&#45;&gt;Node4 -->
<g id="edge11_Node000009_Node000004" class="edge">
<title>Node9&#45;&gt;Node4</title>
<g id="a_edge11_Node000009_Node000004"><a xlink:title=" ">
<path fill="none" stroke="#63b8ff" d="M257.27,-109.66C263.81,-92.01 278.6,-52.09 287.28,-28.64"/>
<polygon fill="#63b8ff" stroke="#63b8ff" points="290.6,-29.75 290.79,-19.16 284.04,-27.32 290.6,-29.75"/>
</a>
</g>
</g>
<!-- Node10&#45;&gt;Node4 -->
<g id="edge15_Node000010_Node000004" class="edge">
<title>Node10&#45;&gt;Node4</title>
<g id="a_edge15_Node000010_Node000004"><a xlink:title=" ">
<path fill="none" stroke="#63b8ff" d="M432.83,-164.6C430.78,-151.65 425.61,-127.27 414,-110 388.74,-72.43 345.26,-41.47 318.15,-24.53"/>
<polygon fill="#63b8ff" stroke="#63b8ff" points="319.66,-21.35 309.3,-19.13 316.02,-27.33 319.66,-21.35"/>
</a>
</g>
</g>
<!-- Node11 -->
<g id="Node000011" class="node">
<title>Node11</title>
<g id="a_Node000011"><a xlink:title=" ">
<polygon fill="#e0e0e0" stroke="#999999" points="518,-129 462,-129 462,-110 518,-110 518,-129"/>
<text text-anchor="middle" x="490" y="-117" font-family="Helvetica,sans-Serif" font-size="10.00">stddef.h</text>
</a>
</g>
</g>
<!-- Node10&#45;&gt;Node11 -->
<g id="edge14_Node000010_Node000011" class="edge">
<title>Node10&#45;&gt;Node11</title>
<g id="a_edge14_Node000010_Node000011"><a xlink:title=" ">
<path fill="none" stroke="#63b8ff" d="M443,-164.98C451.19,-157.23 463.51,-145.58 473.47,-136.14"/>
<polygon fill="#63b8ff" stroke="#63b8ff" points="475.98,-138.59 480.84,-129.17 471.17,-133.5 475.98,-138.59"/>
</a>
</g>
</g>
</g>
</svg>
