<?xml version="1.0" encoding="UTF-8" standalone="no"?>
<!DOCTYPE svg PUBLIC "-//W3C//DTD SVG 1.1//EN"
 "http://www.w3.org/Graphics/SVG/1.1/DTD/svg11.dtd">
<!-- Generated by graphviz version 2.43.0 (0)
 -->
<!-- Title: inc/gui.h Pages: 1 -->
<svg width="267pt" height="247pt"
 viewBox="0.00 0.00 266.55 247.00" xmlns="http://www.w3.org/2000/svg" xmlns:xlink="http://www.w3.org/1999/xlink">

<svg id="main" version="1.1" xmlns="http://www.w3.org/2000/svg" xmlns:xlink="http://www.w3.org/1999/xlink" xml:space="preserve" onload="init(evt)">
<style type="text/css"><![CDATA[
.node, .edge {opacity: 0.7;}
.node.selected, .edge.selected {opacity: 1;}
.edge:hover path { stroke: red; }
.edge:hover polygon { stroke: red; fill: red; }
]]></style>
<script type="application/ecmascript" xlink:href="svg.min.js"/>
<svg id="graph" class="graph">
<g id="graph0" class="graph" transform="scale(1 1) rotate(0) translate(4 243)">
<title>inc/gui.h</title>
<!-- Node1 -->
<g id="Node000001" class="node">
<title>Node1</title>
<g id="a_Node000001"><a xlink:title="GTK GUI widget registry and the application&#39;s GUI/thread API.">
<polygon fill="#999999" stroke="#666666" points="197.93,-239 139.93,-239 139.93,-220 197.93,-220 197.93,-239"/>
<text text-anchor="middle" x="168.93" y="-227" font-family="Helvetica,sans-Serif" font-size="10.00">inc/gui.h</text>
</a>
</g>
</g>
<!-- Node2 -->
<g id="Node000002" class="node">
<title>Node2</title>
<g id="a_Node000002"><a xlink:title=" ">
<polygon fill="#e0e0e0" stroke="#999999" points="113.93,-184 53.93,-184 53.93,-165 113.93,-165 113.93,-184"/>
<text text-anchor="middle" x="83.93" y="-172" font-family="Helvetica,sans-Serif" font-size="10.00">gtk/gtk.h</text>
</a>
</g>
</g>
<!-- Node1&#45;&gt;Node2 -->
<g id="edge1_Node000001_Node000002" class="edge">
<title>Node1&#45;&gt;Node2</title>
<g id="a_edge1_Node000001_Node000002"><a xlink:title=" ">
<path fill="none" stroke="#63b8ff" d="M155.27,-219.98C142.09,-211.77 121.9,-199.18 106.36,-189.49"/>
<polygon fill="#63b8ff" stroke="#63b8ff" points="108.17,-186.49 97.83,-184.17 104.47,-192.43 108.17,-186.49"/>
</a>
</g>
</g>
<!-- Node3 -->
<g id="Node000003" class="node">
<title>Node3</title>
<g id="a_Node000003"><a xlink:href="can__message_8h.html" target="_top" xlink:title="Hardware&#45;independent CAN/CAN FD message and statistics data types.">
<polygon fill="white" stroke="#666666" points="237.93,-74 145.93,-74 145.93,-55 237.93,-55 237.93,-74"/>
<text text-anchor="middle" x="191.93" y="-62" font-family="Helvetica,sans-Serif" font-size="10.00">can_message.h</text>
</a>
</g>
</g>
<!-- Node1&#45;&gt;Node3 -->
<g id="edge2_Node000001_Node000003" class="edge">
<title>Node1&#45;&gt;Node3</title>
<g id="a_edge2_Node000001_Node000003"><a xlink:title=" ">
<path fill="none" stroke="#63b8ff" d="M181.21,-219.84C201.79,-204.41 242.34,-169.95 255.93,-129 258.59,-120.99 259.84,-117.48 255.93,-110 248.81,-96.39 235.43,-86.1 222.74,-78.87"/>
<polygon fill="#63b8ff" stroke="#63b8ff" points="224.2,-75.68 213.72,-74.13 220.95,-81.88 224.2,-75.68"/>
</a>
</g>
</g>
<!-- Node6 -->
<g id="Node000006" class="node">
<title>Node6</title>
<g id="a_Node000006"><a xlink:href="app__state_8h.html" target="_top" xlink:title="Global application state shared across the GUI and worker threads.">
<polygon fill="white" stroke="#666666" points="205.93,-184 131.93,-184 131.93,-165 205.93,-165 205.93,-184"/>
<text text-anchor="middle" x="168.93" y="-172" font-family="Helvetica,sans-Serif" font-size="10.00">app_state.h</text>
</a>
</g>
</g>
<!-- Node1&#45;&gt;Node6 -->
<g id="edge5_Node000001_Node000006" class="edge">
<title>Node1&#45;&gt;Node6</title>
<g id="a_edge5_Node000001_Node000006"><a xlink:title=" ">
<path fill="none" stroke="#63b8ff" d="M168.93,-219.75C168.93,-212.8 168.93,-202.85 168.93,-194.13"/>
<polygon fill="#63b8ff" stroke="#63b8ff" points="172.43,-194.09 168.93,-184.09 165.43,-194.09 172.43,-194.09"/>
</a>
</g>
</g>
<!-- Node4 -->
<g id="Node000004" class="node">
<title>Node4</title>
<g id="a_Node000004"><a xlink:title=" ">
<polygon fill="#e0e0e0" stroke="#999999" points="76.43,-19 23.43,-19 23.43,0 76.43,0 76.43,-19"/>
<text text-anchor="middle" x="49.93" y="-7" font-family="Helvetica,sans-Serif" font-size="10.00">stdint.h</text>
</a>
</g>
</g>
<!-- Node3&#45;&gt;Node4 -->
<g id="edge3_Node000003_Node000004" class="edge">
<title>Node3&#45;&gt;Node4</title>
<g id="a_edge3_Node000003_Node000004"><a xlink:title=" ">
<path fill="none" stroke="#63b8ff" d="M169.11,-54.98C145.75,-46.27 109.22,-32.63 82.76,-22.75"/>
<polygon fill="#63b8ff" stroke="#63b8ff" points="83.75,-19.39 73.16,-19.17 81.3,-25.95 83.75,-19.39"/>
</a>
</g>
</g>
<!-- Node5 -->
<g id="Node000005" class="node">
<title>Node5</title>
<g id="a_Node000005"><a xlink:title=" ">
<polygon fill="#e0e0e0" stroke="#999999" points="215.93,-19 167.93,-19 167.93,0 215.93,0 215.93,-19"/>
<text text-anchor="middle" x="191.93" y="-7" font-family="Helvetica,sans-Serif" font-size="10.00">time.h</text>
</a>
</g>
</g>
<!-- Node3&#45;&gt;Node5 -->
<g id="edge4_Node000003_Node000005" class="edge">
<title>Node3&#45;&gt;Node5</title>
<g id="a_edge4_Node000003_Node000005"><a xlink:title=" ">
<path fill="none" stroke="#63b8ff" d="M191.93,-54.75C191.93,-47.8 191.93,-37.85 191.93,-29.13"/>
<polygon fill="#63b8ff" stroke="#63b8ff" points="195.43,-29.09 191.93,-19.09 188.43,-29.09 195.43,-29.09"/>
</a>
</g>
</g>
<!-- Node6&#45;&gt;Node3 -->
<g id="edge9_Node000006_Node000003" class="edge">
<title>Node6&#45;&gt;Node3</title>
<g id="a_edge9_Node000006_Node000003"><a xlink:title=" ">
<path fill="none" stroke="#63b8ff" d="M194.78,-164.99C211.19,-158.09 231.12,-146.58 240.93,-129 251.03,-110.88 232.77,-92.33 215.74,-80"/>
<polygon fill="#63b8ff" stroke="#63b8ff" points="217.35,-76.86 207.1,-74.16 213.42,-82.66 217.35,-76.86"/>
</a>
</g>
</g>
<!-- Node6&#45;&gt;Node4 -->
<g id="edge7_Node000006_Node000004" class="edge">
<title>Node6&#45;&gt;Node4</title>
<g id="a_edge7_Node000006_Node000004"><a xlink:title=" ">
<path fill="none" stroke="#63b8ff" d="M131.76,-165.63C86.89,-155.76 16.47,-138.93 8.93,-129 -14.88,-97.66 15.39,-51.48 35.23,-27.06"/>
<polygon fill="#63b8ff" stroke="#63b8ff" points="38.16,-29.01 41.94,-19.11 32.82,-24.49 38.16,-29.01"/>
</a>
</g>
</g>
<!-- Node7 -->
<g id="Node000007" class="node">
<title>Node7</title>
<g id="a_Node000007"><a xlink:title=" ">
<polygon fill="#e0e0e0" stroke="#999999" points="163.43,-129 100.43,-129 100.43,-110 163.43,-110 163.43,-129"/>
<text text-anchor="middle" x="131.93" y="-117" font-family="Helvetica,sans-Serif" font-size="10.00">pthread.h</text>
</a>
</g>
</g>
<!-- Node6&#45;&gt;Node7 -->
<g id="edge6_Node000006_Node000007" class="edge">
<title>Node6&#45;&gt;Node7</title>
<g id="a_edge6_Node000006_Node000007"><a xlink:title=" ">
<path fill="none" stroke="#63b8ff" d="M162.82,-164.75C157.64,-157.34 150.08,-146.5 143.73,-137.41"/>
<polygon fill="#63b8ff" stroke="#63b8ff" points="146.52,-135.29 137.92,-129.09 140.78,-139.29 146.52,-135.29"/>
</a>
</g>
</g>
<!-- Node8 -->
<g id="Node000008" class="node">
<title>Node8</title>
<g id="a_Node000008"><a xlink:title=" ">
<polygon fill="#e0e0e0" stroke="#999999" points="231.93,-129 181.93,-129 181.93,-110 231.93,-110 231.93,-129"/>
<text text-anchor="middle" x="206.93" y="-117" font-family="Helvetica,sans-Serif" font-size="10.00">stdio.h</text>
</a>
</g>
</g>
<!-- Node6&#45;&gt;Node8 -->
<g id="edge8_Node000006_Node000008" class="edge">
<title>Node6&#45;&gt;Node8</title>
<g id="a_edge8_Node000006_Node000008"><a xlink:title=" ">
<path fill="none" stroke="#63b8ff" d="M175.2,-164.75C180.51,-157.34 188.28,-146.5 194.8,-137.41"/>
<polygon fill="#63b8ff" stroke="#63b8ff" points="197.79,-139.26 200.77,-129.09 192.1,-135.18 197.79,-139.26"/>
</a>
</g>
</g>
<!-- Node9 -->
<g id="Node000009" class="node">
<title>Node9</title>
<g id="a_Node000009"><a xlink:href="drv__can_8h.html" target="_top" xlink:title="Generic CAN driver abstraction (vtable) and thin wrapper API.">
<polygon fill="white" stroke="#666666" points="81.93,-129 17.93,-129 17.93,-110 81.93,-110 81.93,-129"/>
<text text-anchor="middle" x="49.93" y="-117" font-family="Helvetica,sans-Serif" font-size="10.00">drv_can.h</text>
</a>
</g>
</g>
<!-- Node6&#45;&gt;Node9 -->
<g id="edge10_Node000006_Node000009" class="edge">
<title>Node6&#45;&gt;Node9</title>
<g id="a_edge10_Node000006_Node000009"><a xlink:title=" ">
<path fill="none" stroke="#63b8ff" d="M149.81,-164.98C130.58,-156.42 100.69,-143.11 78.62,-133.28"/>
<polygon fill="#63b8ff" stroke="#63b8ff" points="79.95,-130.04 69.39,-129.17 77.11,-136.44 79.95,-130.04"/>
</a>
</g>
</g>
<!-- Node9&#45;&gt;Node3 -->
<g id="edge12_Node000009_Node000003" class="edge">
<title>Node9&#45;&gt;Node3</title>
<g id="a_edge12_Node000009_Node000003"><a xlink:title=" ">
<path fill="none" stroke="#63b8ff" d="M72.74,-109.98C96.1,-101.27 132.63,-87.63 159.1,-77.75"/>
<polygon fill="#63b8ff" stroke="#63b8ff" points="160.55,-80.95 168.7,-74.17 158.1,-74.39 160.55,-80.95"/>
</a>
</g>
</g>
<!-- Node9&#45;&gt;Node4 -->
<g id="edge11_Node000009_Node000004" class="edge">
<title>Node9&#45;&gt;Node4</title>
<g id="a_edge11_Node000009_Node000004"><a xlink:title=" ">
<path fill="none" stroke="#63b8ff" d="M49.93,-109.66C49.93,-92.17 49.93,-52.8 49.93,-29.27"/>
<polygon fill="#63b8ff" stroke="#63b8ff" points="53.43,-29.16 49.93,-19.16 46.43,-29.16 53.43,-29.16"/>
</a>
</g>
</g>
</g>
</svg>
</svg>

<style type='text/css'>
<![CDATA[
[data-mouse-over-selected='false'] { opacity: 0.7; }
[data-mouse-over-selected='true']  { opacity: 1.0; }
]]>
</style>
<script type="application/ecmascript"><![CDATA[
document.addEventListener('DOMContentLoaded', (event) => {
  highlightEdges();
  highlightAdjacentNodes();
});
]]></script>
</svg>
