<?xml version="1.0" encoding="UTF-8" standalone="no"?>
<!DOCTYPE svg PUBLIC "-//W3C//DTD SVG 1.1//EN"
 "http://www.w3.org/Graphics/SVG/1.1/DTD/svg11.dtd">
<!-- Generated by graphviz version 2.43.0 (0)
 -->
<!-- Title: main.c Pages: 1 -->
<svg width="562pt" height="302pt"
 viewBox="0.00 0.00 561.50 302.00" xmlns="http://www.w3.org/2000/svg" xmlns:xlink="http://www.w3.org/1999/xlink">
<g id="graph0" class="graph" transform="scale(1 1) rotate(0) translate(4 298)">
<title>main.c</title>
<!-- Node1 -->
<g id="Node000001" class="node">
<title>Node1</title>
<g id="a_Node000001"><a xlink:title="Entry point for PCAN&#45;View Linux — a GTK3 CAN bus monitor/analyser.">
<polygon fill="#999999" stroke="#666666" points="371,-294 321,-294 321,-275 371,-275 371,-294"/>
<text text-anchor="middle" x="346" y="-282" font-family="Helvetica,sans-Serif" font-size="10.00">main.c</text>
</a>
</g>
</g>
<!-- Node2 -->
<g id="Node000002" class="node">
<title>Node2</title>
<g id="a_Node000002"><a xlink:title=" ">
<polygon fill="#e0e0e0" stroke="#999999" points="50,-129 0,-129 0,-110 50,-110 50,-129"/>
<text text-anchor="middle" x="25" y="-117" font-family="Helvetica,sans-Serif" font-size="10.00">stdio.h</text>
</a>
</g>
</g>
<!-- Node1&#45;&gt;Node2 -->
<g id="edge1_Node000001_Node000002" class="edge">
<title>Node1&#45;&gt;Node2</title>
<g id="a_edge1_Node000001_Node000002"><a xlink:title=" ">
<path fill="none" stroke="#63b8ff" d="M328.58,-274.85C310.62,-265.91 281.82,-251.55 257,-239 181.92,-201.05 93.46,-155.69 50.7,-133.72"/>
<polygon fill="#63b8ff" stroke="#63b8ff" points="52.07,-130.49 41.57,-129.03 48.87,-136.71 52.07,-130.49"/>
</a>
</g>
</g>
<!-- Node3 -->
<g id="Node000003" class="node">
<title>Node3</title>
<g id="a_Node000003"><a xlink:title=" ">
<polygon fill="#e0e0e0" stroke="#999999" points="456.5,-239 403.5,-239 403.5,-220 456.5,-220 456.5,-239"/>
<text text-anchor="middle" x="430" y="-227" font-family="Helvetica,sans-Serif" font-size="10.00">string.h</text>
</a>
</g>
</g>
<!-- Node1&#45;&gt;Node3 -->
<g id="edge2_Node000001_Node000003" class="edge">
<title>Node1&#45;&gt;Node3</title>
<g id="a_edge2_Node000001_Node000003"><a xlink:title=" ">
<path fill="none" stroke="#63b8ff" d="M359.5,-274.98C372.4,-266.84 392.1,-254.41 407.4,-244.76"/>
<polygon fill="#63b8ff" stroke="#63b8ff" points="409.67,-247.47 416.26,-239.17 405.93,-241.55 409.67,-247.47"/>
</a>
</g>
</g>
<!-- Node4 -->
<g id="Node000004" class="node">
<title>Node4</title>
<g id="a_Node000004"><a xlink:title=" ">
<polygon fill="#e0e0e0" stroke="#999999" points="468,-184 408,-184 408,-165 468,-165 468,-184"/>
<text text-anchor="middle" x="438" y="-172" font-family="Helvetica,sans-Serif" font-size="10.00">gtk/gtk.h</text>
</a>
</g>
</g>
<!-- Node1&#45;&gt;Node4 -->
<g id="edge3_Node000001_Node000004" class="edge">
<title>Node1&#45;&gt;Node4</title>
<g id="a_edge3_Node000001_Node000004"><a xlink:title=" ">
<path fill="none" stroke="#63b8ff" d="M352.36,-274.63C361.43,-262.13 378.79,-238.75 395,-220 403.52,-210.14 413.61,-199.64 421.88,-191.32"/>
<polygon fill="#63b8ff" stroke="#63b8ff" points="424.52,-193.63 429.14,-184.09 419.58,-188.67 424.52,-193.63"/>
</a>
</g>
</g>
<!-- Node5 -->
<g id="Node000005" class="node">
<title>Node5</title>
<g id="a_Node000005"><a xlink:href="app__state_8h.html" target="_top" xlink:title="Global application state shared across the GUI and worker threads.">
<polygon fill="white" stroke="#666666" points="265.5,-184 174.5,-184 174.5,-165 265.5,-165 265.5,-184"/>
<text text-anchor="middle" x="220" y="-172" font-family="Helvetica,sans-Serif" font-size="10.00">inc/app_state.h</text>
</a>
</g>
</g>
<!-- Node1&#45;&gt;Node5 -->
<g id="edge4_Node000001_Node000005" class="edge">
<title>Node1&#45;&gt;Node5</title>
<g id="a_edge4_Node000001_Node000005"><a xlink:title=" ">
<path fill="none" stroke="#63b8ff" d="M331.45,-274.98C317.62,-266.59 296.55,-253.04 280,-239 262.92,-224.51 245.58,-205.61 233.97,-192.21"/>
<polygon fill="#63b8ff" stroke="#63b8ff" points="236.37,-189.64 227.22,-184.3 231.05,-194.18 236.37,-189.64"/>
</a>
</g>
</g>
<!-- Node11 -->
<g id="Node000011" class="node">
<title>Node11</title>
<g id="a_Node000011"><a xlink:href="gui_8h.html" target="_top" xlink:title="GTK GUI widget registry and the application&#39;s GUI/thread API.">
<polygon fill="white" stroke="#666666" points="347,-239 289,-239 289,-220 347,-220 347,-239"/>
<text text-anchor="middle" x="318" y="-227" font-family="Helvetica,sans-Serif" font-size="10.00">inc/gui.h</text>
</a>
</g>
</g>
<!-- Node1&#45;&gt;Node11 -->
<g id="edge14_Node000001_Node000011" class="edge">
<title>Node1&#45;&gt;Node11</title>
<g id="a_edge14_Node000001_Node000011"><a xlink:title=" ">
<path fill="none" stroke="#63b8ff" d="M341.38,-274.75C337.54,-267.49 331.98,-256.95 327.24,-247.98"/>
<polygon fill="#63b8ff" stroke="#63b8ff" points="330.3,-246.3 322.54,-239.09 324.11,-249.57 330.3,-246.3"/>
</a>
</g>
</g>
<!-- Node14 -->
<g id="Node000014" class="node">
<title>Node14</title>
<g id="a_Node000014"><a xlink:href="version_8h.html" target="_top" xlink:title="Centralised version and product&#45;identity macros for PCAN&#45;View Linux.">
<polygon fill="white" stroke="#666666" points="553.5,-239 474.5,-239 474.5,-220 553.5,-220 553.5,-239"/>
<text text-anchor="middle" x="514" y="-227" font-family="Helvetica,sans-Serif" font-size="10.00">inc/version.h</text>
</a>
</g>
</g>
<!-- Node1&#45;&gt;Node14 -->
<g id="edge21_Node000001_Node000014" class="edge">
<title>Node1&#45;&gt;Node14</title>
<g id="a_edge21_Node000001_Node000014"><a xlink:title=" ">
<path fill="none" stroke="#63b8ff" d="M371.15,-275.57C399.23,-266.71 444.95,-252.28 477.09,-242.14"/>
<polygon fill="#63b8ff" stroke="#63b8ff" points="478.52,-245.36 487,-239.02 476.42,-238.69 478.52,-245.36"/>
</a>
</g>
</g>
<!-- Node5&#45;&gt;Node2 -->
<g id="edge7_Node000005_Node000002" class="edge">
<title>Node5&#45;&gt;Node2</title>
<g id="a_edge7_Node000005_Node000002"><a xlink:title=" ">
<path fill="none" stroke="#63b8ff" d="M188.67,-164.98C153.44,-155.41 96.39,-139.9 59.8,-129.96"/>
<polygon fill="#63b8ff" stroke="#63b8ff" points="60.62,-126.55 50.05,-127.31 58.79,-133.31 60.62,-126.55"/>
</a>
</g>
</g>
<!-- Node6 -->
<g id="Node000006" class="node">
<title>Node6</title>
<g id="a_Node000006"><a xlink:title=" ">
<polygon fill="#e0e0e0" stroke="#999999" points="131.5,-129 68.5,-129 68.5,-110 131.5,-110 131.5,-129"/>
<text text-anchor="middle" x="100" y="-117" font-family="Helvetica,sans-Serif" font-size="10.00">pthread.h</text>
</a>
</g>
</g>
<!-- Node5&#45;&gt;Node6 -->
<g id="edge5_Node000005_Node000006" class="edge">
<title>Node5&#45;&gt;Node6</title>
<g id="a_edge5_Node000005_Node000006"><a xlink:title=" ">
<path fill="none" stroke="#63b8ff" d="M200.72,-164.98C181.33,-156.42 151.19,-143.11 128.93,-133.28"/>
<polygon fill="#63b8ff" stroke="#63b8ff" points="130.19,-130.01 119.63,-129.17 127.36,-136.41 130.19,-130.01"/>
</a>
</g>
</g>
<!-- Node7 -->
<g id="Node000007" class="node">
<title>Node7</title>
<g id="a_Node000007"><a xlink:title=" ">
<polygon fill="#e0e0e0" stroke="#999999" points="236.5,-19 183.5,-19 183.5,0 236.5,0 236.5,-19"/>
<text text-anchor="middle" x="210" y="-7" font-family="Helvetica,sans-Serif" font-size="10.00">stdint.h</text>
</a>
</g>
</g>
<!-- Node5&#45;&gt;Node7 -->
<g id="edge6_Node000005_Node000007" class="edge">
<title>Node5&#45;&gt;Node7</title>
<g id="a_edge6_Node000005_Node000007"><a xlink:title=" ">
<path fill="none" stroke="#63b8ff" d="M208.07,-164.8C198.17,-156.77 184.81,-143.87 179,-129 165.4,-94.16 185.12,-51.26 198.79,-27.82"/>
<polygon fill="#63b8ff" stroke="#63b8ff" points="201.93,-29.4 204.17,-19.05 195.96,-25.74 201.93,-29.4"/>
</a>
</g>
</g>
<!-- Node8 -->
<g id="Node000008" class="node">
<title>Node8</title>
<g id="a_Node000008"><a xlink:href="can__message_8h.html" target="_top" xlink:title="Hardware&#45;independent CAN/CAN FD message and statistics data types.">
<polygon fill="white" stroke="#666666" points="327,-74 235,-74 235,-55 327,-55 327,-74"/>
<text text-anchor="middle" x="281" y="-62" font-family="Helvetica,sans-Serif" font-size="10.00">can_message.h</text>
</a>
</g>
</g>
<!-- Node5&#45;&gt;Node8 -->
<g id="edge8_Node000005_Node000008" class="edge">
<title>Node5&#45;&gt;Node8</title>
<g id="a_edge8_Node000005_Node000008"><a xlink:title=" ">
<path fill="none" stroke="#63b8ff" d="M230.12,-164.93C239.36,-156.6 252.79,-143.18 261,-129 269.14,-114.93 274.38,-97.16 277.44,-84"/>
<polygon fill="#63b8ff" stroke="#63b8ff" points="280.86,-84.71 279.51,-74.21 274.02,-83.26 280.86,-84.71"/>
</a>
</g>
</g>
<!-- Node10 -->
<g id="Node000010" class="node">
<title>Node10</title>
<g id="a_Node000010"><a xlink:href="drv__can_8h.html" target="_top" xlink:title="Generic CAN driver abstraction (vtable) and thin wrapper API.">
<polygon fill="white" stroke="#666666" points="252,-129 188,-129 188,-110 252,-110 252,-129"/>
<text text-anchor="middle" x="220" y="-117" font-family="Helvetica,sans-Serif" font-size="10.00">drv_can.h</text>
</a>
</g>
</g>
<!-- Node5&#45;&gt;Node10 -->
<g id="edge11_Node000005_Node000010" class="edge">
<title>Node5&#45;&gt;Node10</title>
<g id="a_edge11_Node000005_Node000010"><a xlink:title=" ">
<path fill="none" stroke="#63b8ff" d="M220,-164.75C220,-157.8 220,-147.85 220,-139.13"/>
<polygon fill="#63b8ff" stroke="#63b8ff" points="223.5,-139.09 220,-129.09 216.5,-139.09 223.5,-139.09"/>
</a>
</g>
</g>
<!-- Node8&#45;&gt;Node7 -->
<g id="edge9_Node000008_Node000007" class="edge">
<title>Node8&#45;&gt;Node7</title>
<g id="a_edge9_Node000008_Node000007"><a xlink:title=" ">
<path fill="none" stroke="#63b8ff" d="M269.59,-54.98C258.89,-47 242.66,-34.88 229.84,-25.31"/>
<polygon fill="#63b8ff" stroke="#63b8ff" points="231.72,-22.35 221.61,-19.17 227.53,-27.96 231.72,-22.35"/>
</a>
</g>
</g>
<!-- Node9 -->
<g id="Node000009" class="node">
<title>Node9</title>
<g id="a_Node000009"><a xlink:title=" ">
<polygon fill="#e0e0e0" stroke="#999999" points="305,-19 257,-19 257,0 305,0 305,-19"/>
<text text-anchor="middle" x="281" y="-7" font-family="Helvetica,sans-Serif" font-size="10.00">time.h</text>
</a>
</g>
</g>
<!-- Node8&#45;&gt;Node9 -->
<g id="edge10_Node000008_Node000009" class="edge">
<title>Node8&#45;&gt;Node9</title>
<g id="a_edge10_Node000008_Node000009"><a xlink:title=" ">
<path fill="none" stroke="#63b8ff" d="M281,-54.75C281,-47.8 281,-37.85 281,-29.13"/>
<polygon fill="#63b8ff" stroke="#63b8ff" points="284.5,-29.09 281,-19.09 277.5,-29.09 284.5,-29.09"/>
</a>
</g>
</g>
<!-- Node10&#45;&gt;Node7 -->
<g id="edge12_Node000010_Node000007" class="edge">
<title>Node10&#45;&gt;Node7</title>
<g id="a_edge12_Node000010_Node000007"><a xlink:title=" ">
<path fill="none" stroke="#63b8ff" d="M219.18,-109.66C217.56,-92.17 213.92,-52.8 211.74,-29.27"/>
<polygon fill="#63b8ff" stroke="#63b8ff" points="215.21,-28.79 210.8,-19.16 208.24,-29.44 215.21,-28.79"/>
</a>
</g>
</g>
<!-- Node10&#45;&gt;Node8 -->
<g id="edge13_Node000010_Node000008" class="edge">
<title>Node10&#45;&gt;Node8</title>
<g id="a_edge13_Node000010_Node000008"><a xlink:title=" ">
<path fill="none" stroke="#63b8ff" d="M229.8,-109.98C238.82,-102.15 252.41,-90.34 263.32,-80.86"/>
<polygon fill="#63b8ff" stroke="#63b8ff" points="265.77,-83.37 271.02,-74.17 261.18,-78.09 265.77,-83.37"/>
</a>
</g>
</g>
<!-- Node11&#45;&gt;Node4 -->
<g id="edge15_Node000011_Node000004" class="edge">
<title>Node11&#45;&gt;Node4</title>
<g id="a_edge15_Node000011_Node000004"><a xlink:title=" ">
<path fill="none" stroke="#63b8ff" d="M337.28,-219.98C356.67,-211.42 386.81,-198.11 409.07,-188.28"/>
<polygon fill="#63b8ff" stroke="#63b8ff" points="410.64,-191.41 418.37,-184.17 407.81,-185.01 410.64,-191.41"/>
</a>
</g>
</g>
<!-- Node11&#45;&gt;Node5 -->
<g id="edge17_Node000011_Node000005" class="edge">
<title>Node11&#45;&gt;Node5</title>
<g id="a_edge17_Node000011_Node000005"><a xlink:title=" ">
<path fill="none" stroke="#63b8ff" d="M302.25,-219.98C286.77,-211.61 262.91,-198.7 244.86,-188.95"/>
<polygon fill="#63b8ff" stroke="#63b8ff" points="246.49,-185.85 236.03,-184.17 243.16,-192.01 246.49,-185.85"/>
</a>
</g>
</g>
<!-- Node11&#45;&gt;Node8 -->
<g id="edge16_Node000011_Node000008" class="edge">
<title>Node11&#45;&gt;Node8</title>
<g id="a_edge16_Node000011_Node000008"><a xlink:title=" ">
<path fill="none" stroke="#63b8ff" d="M316.01,-219.74C310.21,-194.2 293.24,-119.43 285.25,-84.23"/>
<polygon fill="#63b8ff" stroke="#63b8ff" points="288.63,-83.28 283,-74.31 281.8,-84.83 288.63,-83.28"/>
</a>
</g>
</g>
<!-- Node12 -->
<g id="Node000012" class="node">
<title>Node12</title>
<g id="a_Node000012"><a xlink:href="dbc_8h.html" target="_top" xlink:title="Minimal CAN database (DBC) model, parser, and signal decoder.">
<polygon fill="white" stroke="#666666" points="389.5,-184 346.5,-184 346.5,-165 389.5,-165 389.5,-184"/>
<text text-anchor="middle" x="368" y="-172" font-family="Helvetica,sans-Serif" font-size="10.00">dbc.h</text>
</a>
</g>
</g>
<!-- Node11&#45;&gt;Node12 -->
<g id="edge18_Node000011_Node000012" class="edge">
<title>Node11&#45;&gt;Node12</title>
<g id="a_edge18_Node000011_Node000012"><a xlink:title=" ">
<path fill="none" stroke="#63b8ff" d="M326.26,-219.75C333.46,-212.11 344.11,-200.82 352.85,-191.56"/>
<polygon fill="#63b8ff" stroke="#63b8ff" points="355.58,-193.76 359.9,-184.09 350.49,-188.96 355.58,-193.76"/>
</a>
</g>
</g>
<!-- Node12&#45;&gt;Node7 -->
<g id="edge20_Node000012_Node000007" class="edge">
<title>Node12&#45;&gt;Node7</title>
<g id="a_edge20_Node000012_Node000007"><a xlink:title=" ">
<path fill="none" stroke="#63b8ff" d="M368.23,-164.76C368.33,-143.2 365.55,-86.88 336,-55 323.6,-41.62 278.9,-27.89 246.26,-19.29"/>
<polygon fill="#63b8ff" stroke="#63b8ff" points="247.12,-15.9 236.56,-16.79 245.37,-22.67 247.12,-15.9"/>
</a>
</g>
</g>
<!-- Node13 -->
<g id="Node000013" class="node">
<title>Node13</title>
<g id="a_Node000013"><a xlink:title=" ">
<polygon fill="#e0e0e0" stroke="#999999" points="440,-129 384,-129 384,-110 440,-110 440,-129"/>
<text text-anchor="middle" x="412" y="-117" font-family="Helvetica,sans-Serif" font-size="10.00">stddef.h</text>
</a>
</g>
</g>
<!-- Node12&#45;&gt;Node13 -->
<g id="edge19_Node000012_Node000013" class="edge">
<title>Node12&#45;&gt;Node13</title>
<g id="a_edge19_Node000012_Node000013"><a xlink:title=" ">
<path fill="none" stroke="#63b8ff" d="M375.27,-164.75C381.54,-157.18 390.79,-146.05 398.43,-136.84"/>
<polygon fill="#63b8ff" stroke="#63b8ff" points="401.17,-139.02 404.87,-129.09 395.79,-134.55 401.17,-139.02"/>
</a>
</g>
</g>
</g>
</svg>
