<?xml version="1.0" encoding="UTF-8" standalone="no"?>
<!DOCTYPE svg PUBLIC "-//W3C//DTD SVG 1.1//EN"
 "http://www.w3.org/Graphics/SVG/1.1/DTD/svg11.dtd">
<!-- Generated by graphviz version 2.43.0 (0)
 -->
<!-- Title: gui/main_window.c Pages: 1 -->
<!--zoomable 302 -->

<svg id="main" version="1.1" xmlns="http://www.w3.org/2000/svg" xmlns:xlink="http://www.w3.org/1999/xlink" xml:space="preserve" onload="init(evt)">
<style type="text/css"><![CDATA[
.node, .edge {opacity: 0.7;}
.node.selected, .edge.selected {opacity: 1;}
.edge:hover path { stroke: red; }
.edge:hover polygon { stroke: red; fill: red; }
]]></style>

<defs>
  <circle id="rim" cx="0" cy="0" r="7"/>
  <circle id="rim2" cx="0" cy="0" r="3.5"/>
  <g id="zoomPlus">
    <use xlink:href="#rim" fill="#404040"><set attributeName="fill" to="#808080" begin="zoomplus.mouseover" end="zoomplus.mouseout"/></use>
    <path d="M-4,0h8M0,-4v8" fill="none" stroke="white" stroke-width="1.5" pointer-events="none"/>
  </g>
  <g id="zoomMin">
    <use xlink:href="#rim" fill="#404040"><set attributeName="fill" to="#808080" begin="zoomminus.mouseover" end="zoomminus.mouseout"/></use>
    <path d="M-4,0h8" fill="none" stroke="white" stroke-width="1.5" pointer-events="none"/>
  </g>
  <g id="arrowUp" transform="translate(30 24)">
    <use xlink:href="#rim"/>
    <path pointer-events="none" fill="none" stroke="white" stroke-width="1.5" d="M0,-3.0v7 M-2.5,-0.5L0,-3.0L2.5,-0.5"/>
  </g>
  <g id="arrowRight" transform="rotate(90) translate(36 -43)">
    <use xlink:href="#rim"/>
    <path pointer-events="none" fill="none" stroke="white" stroke-width="1.5" d="M0,-3.0v7 M-2.5,-0.5L0,-3.0L2.5,-0.5"/>
  </g>
  <g id="arrowDown" transform="rotate(180) translate(-30 -48)">
    <use xlink:href="#rim"/>
    <path pointer-events="none" fill="none" stroke="white" stroke-width="1.5" d="M0,-3.0v7 M-2.5,-0.5L0,-3.0L2.5,-0.5"/>
  </g>
  <g id="arrowLeft" transform="rotate(270) translate(-36 17)">
    <use xlink:href="#rim"/>
    <path pointer-events="none" fill="none" stroke="white" stroke-width="1.5" d="M0,-3.0v7 M-2.5,-0.5L0,-3.0L2.5,-0.5"/>
  </g>
  <g id="resetDef">
    <use xlink:href="#rim2" fill="#404040"><set attributeName="fill" to="#808080" begin="reset.mouseover" end="reset.mouseout"/></use>
  </g>
</defs>
<script type="application/ecmascript">
var viewWidth = 896;
var viewHeight = 302;
var sectionId = 'dynsection-0';
</script>
<script type="application/ecmascript" xlink:href="svg.min.js"/>
<svg id="graph" class="graph">
<g id="viewport">
<title>gui/main_window.c</title>
<!-- Node1 -->
<g id="Node000001" class="node">
<title>Node1</title>
<g id="a_Node000001"><a xlink:title="Main GTK3 window: menu bar, statistics bar, toolbar, trace, TX panel.">
<polygon fill="#999999" stroke="#666666" points="525,-294 415,-294 415,-275 525,-275 525,-294"/>
<text text-anchor="middle" x="470" y="-282" font-family="Helvetica,sans-Serif" font-size="10.00">gui/main_window.c</text>
</a>
</g>
</g>
<!-- Node2 -->
<g id="Node000002" class="node">
<title>Node2</title>
<g id="a_Node000002"><a xlink:title=" ">
<polygon fill="#e0e0e0" stroke="#999999" points="50,-129 0,-129 0,-110 50,-110 50,-129"/>
<text text-anchor="middle" x="25" y="-117" font-family="Helvetica,sans-Serif" font-size="10.00">stdio.h</text>
</a>
</g>
</g>
<!-- Node1&#45;&gt;Node2 -->
<g id="edge1_Node000001_Node000002" class="edge">
<title>Node1&#45;&gt;Node2</title>
<g id="a_edge1_Node000001_Node000002"><a xlink:title=" ">
<path fill="none" stroke="#63b8ff" d="M414.78,-277.92C366.93,-271.91 296.4,-260.22 238,-239 162.84,-211.68 82.57,-160.12 45.7,-134.99"/>
<polygon fill="#63b8ff" stroke="#63b8ff" points="47.51,-131.99 37.29,-129.21 43.54,-137.76 47.51,-131.99"/>
</a>
</g>
</g>
<!-- Node3 -->
<g id="Node000003" class="node">
<title>Node3</title>
<g id="a_Node000003"><a xlink:title=" ">
<polygon fill="#e0e0e0" stroke="#999999" points="496.5,-239 443.5,-239 443.5,-220 496.5,-220 496.5,-239"/>
<text text-anchor="middle" x="470" y="-227" font-family="Helvetica,sans-Serif" font-size="10.00">string.h</text>
</a>
</g>
</g>
<!-- Node1&#45;&gt;Node3 -->
<g id="edge2_Node000001_Node000003" class="edge">
<title>Node1&#45;&gt;Node3</title>
<g id="a_edge2_Node000001_Node000003"><a xlink:title=" ">
<path fill="none" stroke="#63b8ff" d="M470,-274.75C470,-267.8 470,-257.85 470,-249.13"/>
<polygon fill="#63b8ff" stroke="#63b8ff" points="473.5,-249.09 470,-239.09 466.5,-249.09 473.5,-249.09"/>
</a>
</g>
</g>
<!-- Node4 -->
<g id="Node000004" class="node">
<title>Node4</title>
<g id="a_Node000004"><a xlink:title=" ">
<polygon fill="#e0e0e0" stroke="#999999" points="567.5,-239 514.5,-239 514.5,-220 567.5,-220 567.5,-239"/>
<text text-anchor="middle" x="541" y="-227" font-family="Helvetica,sans-Serif" font-size="10.00">stdlib.h</text>
</a>
</g>
</g>
<!-- Node1&#45;&gt;Node4 -->
<g id="edge3_Node000001_Node000004" class="edge">
<title>Node1&#45;&gt;Node4</title>
<g id="a_edge3_Node000001_Node000004"><a xlink:title=" ">
<path fill="none" stroke="#63b8ff" d="M481.41,-274.98C492.11,-267 508.34,-254.88 521.16,-245.31"/>
<polygon fill="#63b8ff" stroke="#63b8ff" points="523.47,-247.96 529.39,-239.17 519.28,-242.35 523.47,-247.96"/>
</a>
</g>
</g>
<!-- Node5 -->
<g id="Node000005" class="node">
<title>Node5</title>
<g id="a_Node000005"><a xlink:title=" ">
<polygon fill="#e0e0e0" stroke="#999999" points="636.5,-239 585.5,-239 585.5,-220 636.5,-220 636.5,-239"/>
<text text-anchor="middle" x="611" y="-227" font-family="Helvetica,sans-Serif" font-size="10.00">errno.h</text>
</a>
</g>
</g>
<!-- Node1&#45;&gt;Node5 -->
<g id="edge4_Node000001_Node000005" class="edge">
<title>Node1&#45;&gt;Node5</title>
<g id="a_edge4_Node000001_Node000005"><a xlink:title=" ">
<path fill="none" stroke="#63b8ff" d="M492.65,-274.98C515.85,-266.27 552.12,-252.63 578.4,-242.75"/>
<polygon fill="#63b8ff" stroke="#63b8ff" points="579.8,-245.97 587.93,-239.17 577.34,-239.41 579.8,-245.97"/>
</a>
</g>
</g>
<!-- Node6 -->
<g id="Node000006" class="node">
<title>Node6</title>
<g id="a_Node000006"><a xlink:title=" ">
<polygon fill="#e0e0e0" stroke="#999999" points="707.5,-239 654.5,-239 654.5,-220 707.5,-220 707.5,-239"/>
<text text-anchor="middle" x="681" y="-227" font-family="Helvetica,sans-Serif" font-size="10.00">ctype.h</text>
</a>
</g>
</g>
<!-- Node1&#45;&gt;Node6 -->
<g id="edge5_Node000001_Node000006" class="edge">
<title>Node1&#45;&gt;Node6</title>
<g id="a_edge5_Node000001_Node000006"><a xlink:title=" ">
<path fill="none" stroke="#63b8ff" d="M503.9,-274.98C542.37,-265.32 604.9,-249.62 644.44,-239.68"/>
<polygon fill="#63b8ff" stroke="#63b8ff" points="645.37,-243.06 654.21,-237.23 643.66,-236.27 645.37,-243.06"/>
</a>
</g>
</g>
<!-- Node7 -->
<g id="Node000007" class="node">
<title>Node7</title>
<g id="a_Node000007"><a xlink:title=" ">
<polygon fill="#e0e0e0" stroke="#999999" points="782,-239 726,-239 726,-220 782,-220 782,-239"/>
<text text-anchor="middle" x="754" y="-227" font-family="Helvetica,sans-Serif" font-size="10.00">unistd.h</text>
</a>
</g>
</g>
<!-- Node1&#45;&gt;Node7 -->
<g id="edge6_Node000001_Node000007" class="edge">
<title>Node1&#45;&gt;Node7</title>
<g id="a_edge6_Node000001_Node000007"><a xlink:title=" ">
<path fill="none" stroke="#63b8ff" d="M521.7,-274.92C569.62,-266.81 643.12,-253.94 715.95,-239.14"/>
<polygon fill="#63b8ff" stroke="#63b8ff" points="716.65,-242.57 725.75,-237.14 715.25,-235.71 716.65,-242.57"/>
</a>
</g>
</g>
<!-- Node8 -->
<g id="Node000008" class="node">
<title>Node8</title>
<g id="a_Node000008"><a xlink:title=" ">
<polygon fill="#e0e0e0" stroke="#999999" points="389,-184 329,-184 329,-165 389,-165 389,-184"/>
<text text-anchor="middle" x="359" y="-172" font-family="Helvetica,sans-Serif" font-size="10.00">gtk/gtk.h</text>
</a>
</g>
</g>
<!-- Node1&#45;&gt;Node8 -->
<g id="edge7_Node000001_Node000008" class="edge">
<title>Node1&#45;&gt;Node8</title>
<g id="a_edge7_Node000001_Node000008"><a xlink:title=" ">
<path fill="none" stroke="#63b8ff" d="M452.72,-274.98C437.84,-267.06 416.41,-254.23 401,-239 387.23,-225.39 375.47,-206.57 367.93,-192.96"/>
<polygon fill="#63b8ff" stroke="#63b8ff" points="371,-191.29 363.21,-184.11 364.83,-194.58 371,-191.29"/>
</a>
</g>
</g>
<!-- Node9 -->
<g id="Node000009" class="node">
<title>Node9</title>
<g id="a_Node000009"><a xlink:href="gui_8h.html" target="_top" xlink:title="GTK GUI widget registry and the application&#39;s GUI/thread API.">
<polygon fill="white" stroke="#666666" points="336.5,-239 269.5,-239 269.5,-220 336.5,-220 336.5,-239"/>
<text text-anchor="middle" x="303" y="-227" font-family="Helvetica,sans-Serif" font-size="10.00">../inc/gui.h</text>
</a>
</g>
</g>
<!-- Node1&#45;&gt;Node9 -->
<g id="edge8_Node000001_Node000009" class="edge">
<title>Node1&#45;&gt;Node9</title>
<g id="a_edge8_Node000001_Node000009"><a xlink:title=" ">
<path fill="none" stroke="#63b8ff" d="M443.17,-274.98C415.13,-266.09 370.95,-252.07 339.7,-242.15"/>
<polygon fill="#63b8ff" stroke="#63b8ff" points="340.63,-238.77 330.04,-239.08 338.51,-245.44 340.63,-238.77"/>
</a>
</g>
</g>
<!-- Node10 -->
<g id="Node000010" class="node">
<title>Node10</title>
<g id="a_Node000010"><a xlink:href="can__message_8h.html" target="_top" xlink:title="Hardware&#45;independent CAN/CAN FD message and statistics data types.">
<polygon fill="white" stroke="#666666" points="333,-74 241,-74 241,-55 333,-55 333,-74"/>
<text text-anchor="middle" x="287" y="-62" font-family="Helvetica,sans-Serif" font-size="10.00">can_message.h</text>
</a>
</g>
</g>
<!-- Node1&#45;&gt;Node10 -->
<g id="edge22_Node000001_Node000010" class="edge">
<title>Node1&#45;&gt;Node10</title>
<g id="a_edge22_Node000001_Node000010"><a xlink:title=" ">
<path fill="none" stroke="#63b8ff" d="M462.2,-274.7C454.7,-265.99 443.32,-252.12 435,-239 415.31,-207.94 420.31,-194.23 398,-165 371.43,-130.18 331.49,-97.92 307.46,-80.05"/>
<polygon fill="#63b8ff" stroke="#63b8ff" points="309.52,-77.22 299.38,-74.14 305.38,-82.87 309.52,-77.22"/>
</a>
</g>
</g>
<!-- Node13 -->
<g id="Node000013" class="node">
<title>Node13</title>
<g id="a_Node000013"><a xlink:href="app__state_8h.html" target="_top" xlink:title="Global application state shared across the GUI and worker threads.">
<polygon fill="white" stroke="#666666" points="257,-184 183,-184 183,-165 257,-165 257,-184"/>
<text text-anchor="middle" x="220" y="-172" font-family="Helvetica,sans-Serif" font-size="10.00">app_state.h</text>
</a>
</g>
</g>
<!-- Node1&#45;&gt;Node13 -->
<g id="edge21_Node000001_Node000013" class="edge">
<title>Node1&#45;&gt;Node13</title>
<g id="a_edge21_Node000001_Node000013"><a xlink:title=" ">
<path fill="none" stroke="#63b8ff" d="M414.94,-283.35C369.65,-280.68 305.71,-270.86 260,-239 244,-227.85 233.04,-208.03 226.69,-193.49"/>
<polygon fill="#63b8ff" stroke="#63b8ff" points="229.86,-192 222.88,-184.04 223.37,-194.62 229.86,-192"/>
</a>
</g>
</g>
<!-- Node16 -->
<g id="Node000016" class="node">
<title>Node16</title>
<g id="a_Node000016"><a xlink:href="version_8h.html" target="_top" xlink:title="Centralised version and product&#45;identity macros for PCAN&#45;View Linux.">
<polygon fill="white" stroke="#666666" points="888,-239 800,-239 800,-220 888,-220 888,-239"/>
<text text-anchor="middle" x="844" y="-227" font-family="Helvetica,sans-Serif" font-size="10.00">../inc/version.h</text>
</a>
</g>
</g>
<!-- Node1&#45;&gt;Node16 -->
<g id="edge23_Node000001_Node000016" class="edge">
<title>Node1&#45;&gt;Node16</title>
<g id="a_edge23_Node000001_Node000016"><a xlink:title=" ">
<path fill="none" stroke="#63b8ff" d="M525.15,-276.22C587.01,-267.97 690.63,-253.91 789.59,-239.19"/>
<polygon fill="#63b8ff" stroke="#63b8ff" points="790.39,-242.6 799.76,-237.67 789.36,-235.68 790.39,-242.6"/>
</a>
</g>
</g>
<!-- Node9&#45;&gt;Node8 -->
<g id="edge9_Node000009_Node000008" class="edge">
<title>Node9&#45;&gt;Node8</title>
<g id="a_edge9_Node000009_Node000008"><a xlink:title=" ">
<path fill="none" stroke="#63b8ff" d="M312,-219.98C320.19,-212.23 332.51,-200.58 342.47,-191.14"/>
<polygon fill="#63b8ff" stroke="#63b8ff" points="344.98,-193.59 349.84,-184.17 340.17,-188.5 344.98,-193.59"/>
</a>
</g>
</g>
<!-- Node9&#45;&gt;Node10 -->
<g id="edge10_Node000009_Node000010" class="edge">
<title>Node9&#45;&gt;Node10</title>
<g id="a_edge10_Node000009_Node000010"><a xlink:title=" ">
<path fill="none" stroke="#63b8ff" d="M302.14,-219.74C299.64,-194.31 292.36,-120.08 288.88,-84.69"/>
<polygon fill="#63b8ff" stroke="#63b8ff" points="292.32,-83.92 287.86,-74.31 285.36,-84.6 292.32,-83.92"/>
</a>
</g>
</g>
<!-- Node9&#45;&gt;Node13 -->
<g id="edge13_Node000009_Node000013" class="edge">
<title>Node9&#45;&gt;Node13</title>
<g id="a_edge13_Node000009_Node000013"><a xlink:title=" ">
<path fill="none" stroke="#63b8ff" d="M289.66,-219.98C276.91,-211.84 257.45,-199.41 242.33,-189.76"/>
<polygon fill="#63b8ff" stroke="#63b8ff" points="243.89,-186.6 233.58,-184.17 240.12,-192.5 243.89,-186.6"/>
</a>
</g>
</g>
<!-- Node11 -->
<g id="Node000011" class="node">
<title>Node11</title>
<g id="a_Node000011"><a xlink:title=" ">
<polygon fill="#e0e0e0" stroke="#999999" points="239.5,-19 186.5,-19 186.5,0 239.5,0 239.5,-19"/>
<text text-anchor="middle" x="213" y="-7" font-family="Helvetica,sans-Serif" font-size="10.00">stdint.h</text>
</a>
</g>
</g>
<!-- Node10&#45;&gt;Node11 -->
<g id="edge11_Node000010_Node000011" class="edge">
<title>Node10&#45;&gt;Node11</title>
<g id="a_edge11_Node000010_Node000011"><a xlink:title=" ">
<path fill="none" stroke="#63b8ff" d="M275.11,-54.98C263.85,-46.92 246.71,-34.65 233.29,-25.03"/>
<polygon fill="#63b8ff" stroke="#63b8ff" points="235.27,-22.15 225.11,-19.17 231.2,-27.84 235.27,-22.15"/>
</a>
</g>
</g>
<!-- Node12 -->
<g id="Node000012" class="node">
<title>Node12</title>
<g id="a_Node000012"><a xlink:title=" ">
<polygon fill="#e0e0e0" stroke="#999999" points="311,-19 263,-19 263,0 311,0 311,-19"/>
<text text-anchor="middle" x="287" y="-7" font-family="Helvetica,sans-Serif" font-size="10.00">time.h</text>
</a>
</g>
</g>
<!-- Node10&#45;&gt;Node12 -->
<g id="edge12_Node000010_Node000012" class="edge">
<title>Node10&#45;&gt;Node12</title>
<g id="a_edge12_Node000010_Node000012"><a xlink:title=" ">
<path fill="none" stroke="#63b8ff" d="M287,-54.75C287,-47.8 287,-37.85 287,-29.13"/>
<polygon fill="#63b8ff" stroke="#63b8ff" points="290.5,-29.09 287,-19.09 283.5,-29.09 290.5,-29.09"/>
</a>
</g>
</g>
<!-- Node13&#45;&gt;Node2 -->
<g id="edge16_Node000013_Node000002" class="edge">
<title>Node13&#45;&gt;Node2</title>
<g id="a_edge16_Node000013_Node000002"><a xlink:title=" ">
<path fill="none" stroke="#63b8ff" d="M188.67,-164.98C153.44,-155.41 96.39,-139.9 59.8,-129.96"/>
<polygon fill="#63b8ff" stroke="#63b8ff" points="60.62,-126.55 50.05,-127.31 58.79,-133.31 60.62,-126.55"/>
</a>
</g>
</g>
<!-- Node13&#45;&gt;Node10 -->
<g id="edge17_Node000013_Node000010" class="edge">
<title>Node13&#45;&gt;Node10</title>
<g id="a_edge17_Node000013_Node000010"><a xlink:title=" ">
<path fill="none" stroke="#63b8ff" d="M229.85,-164.76C238.9,-156.33 252.2,-142.83 261,-129 269.99,-114.87 276.95,-97.1 281.4,-83.95"/>
<polygon fill="#63b8ff" stroke="#63b8ff" points="284.81,-84.77 284.53,-74.18 278.14,-82.64 284.81,-84.77"/>
</a>
</g>
</g>
<!-- Node13&#45;&gt;Node11 -->
<g id="edge15_Node000013_Node000011" class="edge">
<title>Node13&#45;&gt;Node11</title>
<g id="a_edge15_Node000013_Node000011"><a xlink:title=" ">
<path fill="none" stroke="#63b8ff" d="M182.81,-171.07C154.14,-167.01 116.24,-156.42 97,-129 66.72,-85.84 139.14,-43.78 182.81,-23.34"/>
<polygon fill="#63b8ff" stroke="#63b8ff" points="184.51,-26.41 192.16,-19.08 181.61,-20.04 184.51,-26.41"/>
</a>
</g>
</g>
<!-- Node14 -->
<g id="Node000014" class="node">
<title>Node14</title>
<g id="a_Node000014"><a xlink:title=" ">
<polygon fill="#e0e0e0" stroke="#999999" points="169.5,-129 106.5,-129 106.5,-110 169.5,-110 169.5,-129"/>
<text text-anchor="middle" x="138" y="-117" font-family="Helvetica,sans-Serif" font-size="10.00">pthread.h</text>
</a>
</g>
</g>
<!-- Node13&#45;&gt;Node14 -->
<g id="edge14_Node000013_Node000014" class="edge">
<title>Node13&#45;&gt;Node14</title>
<g id="a_edge14_Node000013_Node000014"><a xlink:title=" ">
<path fill="none" stroke="#63b8ff" d="M206.83,-164.98C194.23,-156.84 175,-144.41 160.06,-134.76"/>
<polygon fill="#63b8ff" stroke="#63b8ff" points="161.71,-131.66 151.41,-129.17 157.91,-137.54 161.71,-131.66"/>
</a>
</g>
</g>
<!-- Node15 -->
<g id="Node000015" class="node">
<title>Node15</title>
<g id="a_Node000015"><a xlink:href="drv__can_8h.html" target="_top" xlink:title="Generic CAN driver abstraction (vtable) and thin wrapper API.">
<polygon fill="white" stroke="#666666" points="252,-129 188,-129 188,-110 252,-110 252,-129"/>
<text text-anchor="middle" x="220" y="-117" font-family="Helvetica,sans-Serif" font-size="10.00">drv_can.h</text>
</a>
</g>
</g>
<!-- Node13&#45;&gt;Node15 -->
<g id="edge18_Node000013_Node000015" class="edge">
<title>Node13&#45;&gt;Node15</title>
<g id="a_edge18_Node000013_Node000015"><a xlink:title=" ">
<path fill="none" stroke="#63b8ff" d="M220,-164.75C220,-157.8 220,-147.85 220,-139.13"/>
<polygon fill="#63b8ff" stroke="#63b8ff" points="223.5,-139.09 220,-129.09 216.5,-139.09 223.5,-139.09"/>
</a>
</g>
</g>
<!-- Node15&#45;&gt;Node10 -->
<g id="edge20_Node000015_Node000010" class="edge">
<title>Node15&#45;&gt;Node10</title>
<g id="a_edge20_Node000015_Node000010"><a xlink:title=" ">
<path fill="none" stroke="#63b8ff" d="M230.76,-109.98C240.77,-102.07 255.89,-90.11 267.93,-80.58"/>
<polygon fill="#63b8ff" stroke="#63b8ff" points="270.37,-83.12 276.04,-74.17 266.03,-77.63 270.37,-83.12"/>
</a>
</g>
</g>
<!-- Node15&#45;&gt;Node11 -->
<g id="edge19_Node000015_Node000011" class="edge">
<title>Node15&#45;&gt;Node11</title>
<g id="a_edge19_Node000015_Node000011"><a xlink:title=" ">
<path fill="none" stroke="#63b8ff" d="M219.43,-109.66C218.29,-92.17 215.74,-52.8 214.22,-29.27"/>
<polygon fill="#63b8ff" stroke="#63b8ff" points="217.7,-28.91 213.56,-19.16 210.72,-29.36 217.7,-28.91"/>
</a>
</g>
</g>
</g>
</svg>

<g id="navigator" transform="translate(0 0)" fill="#404254">
  <rect fill="#f2f5e9" fill-opacity="0.5" stroke="#606060" stroke-width=".5" x="0" y="0" width="60" height="60"/>
  <use id="zoomplus" xlink:href="#zoomPlus" x="17" y="9" onmousedown="handleZoom(evt,'in')"/>
  <use id="zoomminus" xlink:href="#zoomMin" x="42" y="9" onmousedown="handleZoom(evt,'out')"/>
  <use id="reset" xlink:href="#resetDef" x="30" y="36" onmousedown="handleReset()"/>
   <use id="arrowup" xlink:href="#arrowUp" x="0" y="0" onmousedown="handlePan(0,-1)"/>
  <use id="arrowright" xlink:href="#arrowRight" x="0" y="0" onmousedown="handlePan(1,0)"/>
  <use id="arrowdown" xlink:href="#arrowDown" x="0" y="0" onmousedown="handlePan(0,1)"/>
  <use id="arrowleft" xlink:href="#arrowLeft" x="0" y="0" onmousedown="handlePan(-1,0)"/>
</g>
<svg viewBox="0 0 15 15" width="100%" height="30px" preserveAspectRatio="xMaxYMin meet">
 <g id="arrow_out" transform="scale(0.3 0.3)">
  <a xlink:href="main__window_8c__incl_org.svg" target="_base">
   <rect id="button" ry="5" rx="5" y="6" x="6" height="38" width="38"
        fill="#f2f5e9" fill-opacity="0.5" stroke="#606060" stroke-width="1.0"/>
   <path id="arrow"
     d="M 11.500037,31.436501 C 11.940474,20.09759 22.043105,11.32322 32.158766,21.979434 L 37.068811,17.246167 C 37.068811,17.246167 37.088388,32 37.088388,32 L 22.160133,31.978069 C 22.160133,31.978069 26.997745,27.140456 26.997745,27.140456 C 18.528582,18.264221 13.291696,25.230495 11.500037,31.436501 z"
     style="fill:#404040;"/>
  </a>
 </g>
</svg>

<style type='text/css'>
<![CDATA[
[data-mouse-over-selected='false'] { opacity: 0.7; }
[data-mouse-over-selected='true']  { opacity: 1.0; }
]]>
</style>
<script type="application/ecmascript"><![CDATA[
document.addEventListener('DOMContentLoaded', (event) => {
  highlightEdges();
  highlightAdjacentNodes();
});
]]></script>
</svg>
