<?xml version="1.0" encoding="UTF-8" standalone="no"?>
<!DOCTYPE svg PUBLIC "-//W3C//DTD SVG 1.1//EN"
 "http://www.w3.org/Graphics/SVG/1.1/DTD/svg11.dtd">
<!-- Generated by graphviz version 2.43.0 (0)
 -->
<!-- Title: gui/main_window.c Pages: 1 -->
<svg width="989pt" height="302pt"
 viewBox="0.00 0.00 989.00 302.00" xmlns="http://www.w3.org/2000/svg" xmlns:xlink="http://www.w3.org/1999/xlink">
<g id="graph0" class="graph" transform="scale(1 1) rotate(0) translate(4 298)">
<title>gui/main_window.c</title>
<!-- Node1 -->
<g id="Node000001" class="node">
<title>Node1</title>
<g id="a_Node000001"><a xlink:title="Main GTK3 window: menu bar, statistics bar, toolbar, trace, TX panel.">
<polygon fill="#999999" stroke="#666666" points="618,-294 508,-294 508,-275 618,-275 618,-294"/>
<text text-anchor="middle" x="563" y="-282" font-family="Helvetica,sans-Serif" font-size="10.00">gui/main_window.c</text>
</a>
</g>
</g>
<!-- Node2 -->
<g id="Node000002" class="node">
<title>Node2</title>
<g id="a_Node000002"><a xlink:title=" ">
<polygon fill="#e0e0e0" stroke="#999999" points="50,-129 0,-129 0,-110 50,-110 50,-129"/>
<text text-anchor="middle" x="25" y="-117" font-family="Helvetica,sans-Serif" font-size="10.00">stdio.h</text>
</a>
</g>
</g>
<!-- Node1&#45;&gt;Node2 -->
<g id="edge1_Node000001_Node000002" class="edge">
<title>Node1&#45;&gt;Node2</title>
<g id="a_edge1_Node000001_Node000002"><a xlink:title=" ">
<path fill="none" stroke="#63b8ff" d="M507.85,-277.75C454.84,-271.36 372.85,-259.18 304,-239 243.8,-221.35 231.75,-208.52 174,-184 132.61,-166.42 84.78,-146.03 54.72,-133.19"/>
<polygon fill="#63b8ff" stroke="#63b8ff" points="55.81,-129.85 45.24,-129.14 53.06,-136.29 55.81,-129.85"/>
</a>
</g>
</g>
<!-- Node3 -->
<g id="Node000003" class="node">
<title>Node3</title>
<g id="a_Node000003"><a xlink:title=" ">
<polygon fill="#e0e0e0" stroke="#999999" points="589.5,-239 536.5,-239 536.5,-220 589.5,-220 589.5,-239"/>
<text text-anchor="middle" x="563" y="-227" font-family="Helvetica,sans-Serif" font-size="10.00">string.h</text>
</a>
</g>
</g>
<!-- Node1&#45;&gt;Node3 -->
<g id="edge2_Node000001_Node000003" class="edge">
<title>Node1&#45;&gt;Node3</title>
<g id="a_edge2_Node000001_Node000003"><a xlink:title=" ">
<path fill="none" stroke="#63b8ff" d="M563,-274.75C563,-267.8 563,-257.85 563,-249.13"/>
<polygon fill="#63b8ff" stroke="#63b8ff" points="566.5,-249.09 563,-239.09 559.5,-249.09 566.5,-249.09"/>
</a>
</g>
</g>
<!-- Node4 -->
<g id="Node000004" class="node">
<title>Node4</title>
<g id="a_Node000004"><a xlink:title=" ">
<polygon fill="#e0e0e0" stroke="#999999" points="660.5,-239 607.5,-239 607.5,-220 660.5,-220 660.5,-239"/>
<text text-anchor="middle" x="634" y="-227" font-family="Helvetica,sans-Serif" font-size="10.00">stdlib.h</text>
</a>
</g>
</g>
<!-- Node1&#45;&gt;Node4 -->
<g id="edge3_Node000001_Node000004" class="edge">
<title>Node1&#45;&gt;Node4</title>
<g id="a_edge3_Node000001_Node000004"><a xlink:title=" ">
<path fill="none" stroke="#63b8ff" d="M574.41,-274.98C585.11,-267 601.34,-254.88 614.16,-245.31"/>
<polygon fill="#63b8ff" stroke="#63b8ff" points="616.47,-247.96 622.39,-239.17 612.28,-242.35 616.47,-247.96"/>
</a>
</g>
</g>
<!-- Node5 -->
<g id="Node000005" class="node">
<title>Node5</title>
<g id="a_Node000005"><a xlink:title=" ">
<polygon fill="#e0e0e0" stroke="#999999" points="729.5,-239 678.5,-239 678.5,-220 729.5,-220 729.5,-239"/>
<text text-anchor="middle" x="704" y="-227" font-family="Helvetica,sans-Serif" font-size="10.00">errno.h</text>
</a>
</g>
</g>
<!-- Node1&#45;&gt;Node5 -->
<g id="edge4_Node000001_Node000005" class="edge">
<title>Node1&#45;&gt;Node5</title>
<g id="a_edge4_Node000001_Node000005"><a xlink:title=" ">
<path fill="none" stroke="#63b8ff" d="M585.65,-274.98C608.85,-266.27 645.12,-252.63 671.4,-242.75"/>
<polygon fill="#63b8ff" stroke="#63b8ff" points="672.8,-245.97 680.93,-239.17 670.34,-239.41 672.8,-245.97"/>
</a>
</g>
</g>
<!-- Node6 -->
<g id="Node000006" class="node">
<title>Node6</title>
<g id="a_Node000006"><a xlink:title=" ">
<polygon fill="#e0e0e0" stroke="#999999" points="800.5,-239 747.5,-239 747.5,-220 800.5,-220 800.5,-239"/>
<text text-anchor="middle" x="774" y="-227" font-family="Helvetica,sans-Serif" font-size="10.00">ctype.h</text>
</a>
</g>
</g>
<!-- Node1&#45;&gt;Node6 -->
<g id="edge5_Node000001_Node000006" class="edge">
<title>Node1&#45;&gt;Node6</title>
<g id="a_edge5_Node000001_Node000006"><a xlink:title=" ">
<path fill="none" stroke="#63b8ff" d="M596.9,-274.98C635.37,-265.32 697.9,-249.62 737.44,-239.68"/>
<polygon fill="#63b8ff" stroke="#63b8ff" points="738.37,-243.06 747.21,-237.23 736.66,-236.27 738.37,-243.06"/>
</a>
</g>
</g>
<!-- Node7 -->
<g id="Node000007" class="node">
<title>Node7</title>
<g id="a_Node000007"><a xlink:title=" ">
<polygon fill="#e0e0e0" stroke="#999999" points="875,-239 819,-239 819,-220 875,-220 875,-239"/>
<text text-anchor="middle" x="847" y="-227" font-family="Helvetica,sans-Serif" font-size="10.00">unistd.h</text>
</a>
</g>
</g>
<!-- Node1&#45;&gt;Node7 -->
<g id="edge6_Node000001_Node000007" class="edge">
<title>Node1&#45;&gt;Node7</title>
<g id="a_edge6_Node000001_Node000007"><a xlink:title=" ">
<path fill="none" stroke="#63b8ff" d="M614.7,-274.92C662.62,-266.81 736.12,-253.94 808.95,-239.14"/>
<polygon fill="#63b8ff" stroke="#63b8ff" points="809.65,-242.57 818.75,-237.14 808.25,-235.71 809.65,-242.57"/>
</a>
</g>
</g>
<!-- Node8 -->
<g id="Node000008" class="node">
<title>Node8</title>
<g id="a_Node000008"><a xlink:title=" ">
<polygon fill="#e0e0e0" stroke="#999999" points="484,-184 424,-184 424,-165 484,-165 484,-184"/>
<text text-anchor="middle" x="454" y="-172" font-family="Helvetica,sans-Serif" font-size="10.00">gtk/gtk.h</text>
</a>
</g>
</g>
<!-- Node1&#45;&gt;Node8 -->
<g id="edge7_Node000001_Node000008" class="edge">
<title>Node1&#45;&gt;Node8</title>
<g id="a_edge7_Node000001_Node000008"><a xlink:title=" ">
<path fill="none" stroke="#63b8ff" d="M545.34,-274.9C530.42,-267.03 509.14,-254.3 494,-239 480.71,-225.57 469.64,-206.97 462.54,-193.38"/>
<polygon fill="#63b8ff" stroke="#63b8ff" points="465.52,-191.5 457.91,-184.12 459.25,-194.63 465.52,-191.5"/>
</a>
</g>
</g>
<!-- Node9 -->
<g id="Node000009" class="node">
<title>Node9</title>
<g id="a_Node000009"><a xlink:href="gui_8h.html" target="_top" xlink:title="GTK GUI widget registry and the application&#39;s GUI/thread API.">
<polygon fill="white" stroke="#666666" points="429.5,-239 362.5,-239 362.5,-220 429.5,-220 429.5,-239"/>
<text text-anchor="middle" x="396" y="-227" font-family="Helvetica,sans-Serif" font-size="10.00">../inc/gui.h</text>
</a>
</g>
</g>
<!-- Node1&#45;&gt;Node9 -->
<g id="edge8_Node000001_Node000009" class="edge">
<title>Node1&#45;&gt;Node9</title>
<g id="a_edge8_Node000001_Node000009"><a xlink:title=" ">
<path fill="none" stroke="#63b8ff" d="M536.17,-274.98C508.13,-266.09 463.95,-252.07 432.7,-242.15"/>
<polygon fill="#63b8ff" stroke="#63b8ff" points="433.63,-238.77 423.04,-239.08 431.51,-245.44 433.63,-238.77"/>
</a>
</g>
</g>
<!-- Node10 -->
<g id="Node000010" class="node">
<title>Node10</title>
<g id="a_Node000010"><a xlink:href="can__message_8h.html" target="_top" xlink:title="Hardware&#45;independent CAN/CAN FD message and statistics data types.">
<polygon fill="white" stroke="#666666" points="438,-74 346,-74 346,-55 438,-55 438,-74"/>
<text text-anchor="middle" x="392" y="-62" font-family="Helvetica,sans-Serif" font-size="10.00">can_message.h</text>
</a>
</g>
</g>
<!-- Node1&#45;&gt;Node10 -->
<g id="edge25_Node000001_Node000010" class="edge">
<title>Node1&#45;&gt;Node10</title>
<g id="a_edge25_Node000001_Node000010"><a xlink:title=" ">
<path fill="none" stroke="#63b8ff" d="M555.13,-274.73C547.59,-266.06 536.17,-252.21 528,-239 508.86,-208.06 514.06,-194.67 493,-165 468.97,-131.16 432.78,-98.73 410.87,-80.54"/>
<polygon fill="#63b8ff" stroke="#63b8ff" points="412.92,-77.69 402.96,-74.07 408.49,-83.11 412.92,-77.69"/>
</a>
</g>
</g>
<!-- Node13 -->
<g id="Node000013" class="node">
<title>Node13</title>
<g id="a_Node000013"><a xlink:href="app__state_8h.html" target="_top" xlink:title="Global application state shared across the GUI and worker threads.">
<polygon fill="white" stroke="#666666" points="257,-184 183,-184 183,-165 257,-165 257,-184"/>
<text text-anchor="middle" x="220" y="-172" font-family="Helvetica,sans-Serif" font-size="10.00">app_state.h</text>
</a>
</g>
</g>
<!-- Node1&#45;&gt;Node13 -->
<g id="edge24_Node000001_Node000013" class="edge">
<title>Node1&#45;&gt;Node13</title>
<g id="a_edge24_Node000001_Node000013"><a xlink:title=" ">
<path fill="none" stroke="#63b8ff" d="M507.66,-275.45C464.75,-268.33 404.17,-256.36 353,-239 313.29,-225.53 269.92,-203.28 243.85,-189.02"/>
<polygon fill="#63b8ff" stroke="#63b8ff" points="245.51,-185.94 235.06,-184.15 242.12,-192.06 245.51,-185.94"/>
</a>
</g>
</g>
<!-- Node18 -->
<g id="Node000018" class="node">
<title>Node18</title>
<g id="a_Node000018"><a xlink:href="version_8h.html" target="_top" xlink:title="Centralised version and product&#45;identity macros for PCAN&#45;View Linux.">
<polygon fill="white" stroke="#666666" points="981,-239 893,-239 893,-220 981,-220 981,-239"/>
<text text-anchor="middle" x="937" y="-227" font-family="Helvetica,sans-Serif" font-size="10.00">../inc/version.h</text>
</a>
</g>
</g>
<!-- Node1&#45;&gt;Node18 -->
<g id="edge26_Node000001_Node000018" class="edge">
<title>Node1&#45;&gt;Node18</title>
<g id="a_edge26_Node000001_Node000018"><a xlink:title=" ">
<path fill="none" stroke="#63b8ff" d="M618.15,-276.22C680.01,-267.97 783.63,-253.91 882.59,-239.19"/>
<polygon fill="#63b8ff" stroke="#63b8ff" points="883.39,-242.6 892.76,-237.67 882.36,-235.68 883.39,-242.6"/>
</a>
</g>
</g>
<!-- Node9&#45;&gt;Node8 -->
<g id="edge9_Node000009_Node000008" class="edge">
<title>Node9&#45;&gt;Node8</title>
<g id="a_edge9_Node000009_Node000008"><a xlink:title=" ">
<path fill="none" stroke="#63b8ff" d="M405.32,-219.98C413.81,-212.23 426.56,-200.58 436.88,-191.14"/>
<polygon fill="#63b8ff" stroke="#63b8ff" points="439.49,-193.5 444.51,-184.17 434.77,-188.33 439.49,-193.5"/>
</a>
</g>
</g>
<!-- Node9&#45;&gt;Node10 -->
<g id="edge10_Node000009_Node000010" class="edge">
<title>Node9&#45;&gt;Node10</title>
<g id="a_edge10_Node000009_Node000010"><a xlink:title=" ">
<path fill="none" stroke="#63b8ff" d="M399.03,-219.8C405.48,-200.1 419.31,-150.63 411,-110 409.11,-100.74 405.21,-91.03 401.43,-83.04"/>
<polygon fill="#63b8ff" stroke="#63b8ff" points="404.51,-81.37 396.88,-74.02 398.26,-84.53 404.51,-81.37"/>
</a>
</g>
</g>
<!-- Node9&#45;&gt;Node13 -->
<g id="edge13_Node000009_Node000013" class="edge">
<title>Node9&#45;&gt;Node13</title>
<g id="a_edge13_Node000009_Node000013"><a xlink:title=" ">
<path fill="none" stroke="#63b8ff" d="M367.72,-219.98C338.05,-211.05 291.21,-196.94 258.25,-187.02"/>
<polygon fill="#63b8ff" stroke="#63b8ff" points="259.08,-183.61 248.5,-184.08 257.07,-190.32 259.08,-183.61"/>
</a>
</g>
</g>
<!-- Node16 -->
<g id="Node000016" class="node">
<title>Node16</title>
<g id="a_Node000016"><a xlink:href="dbc_8h.html" target="_top" xlink:title="Minimal CAN database (DBC) model, parser, and signal decoder.">
<polygon fill="white" stroke="#666666" points="367.5,-184 324.5,-184 324.5,-165 367.5,-165 367.5,-184"/>
<text text-anchor="middle" x="346" y="-172" font-family="Helvetica,sans-Serif" font-size="10.00">dbc.h</text>
</a>
</g>
</g>
<!-- Node9&#45;&gt;Node16 -->
<g id="edge21_Node000009_Node000016" class="edge">
<title>Node9&#45;&gt;Node16</title>
<g id="a_edge21_Node000009_Node000016"><a xlink:title=" ">
<path fill="none" stroke="#63b8ff" d="M387.74,-219.75C380.54,-212.11 369.89,-200.82 361.15,-191.56"/>
<polygon fill="#63b8ff" stroke="#63b8ff" points="363.51,-188.96 354.1,-184.09 358.42,-193.76 363.51,-188.96"/>
</a>
</g>
</g>
<!-- Node11 -->
<g id="Node000011" class="node">
<title>Node11</title>
<g id="a_Node000011"><a xlink:title=" ">
<polygon fill="#e0e0e0" stroke="#999999" points="310.5,-19 257.5,-19 257.5,0 310.5,0 310.5,-19"/>
<text text-anchor="middle" x="284" y="-7" font-family="Helvetica,sans-Serif" font-size="10.00">stdint.h</text>
</a>
</g>
</g>
<!-- Node10&#45;&gt;Node11 -->
<g id="edge11_Node000010_Node000011" class="edge">
<title>Node10&#45;&gt;Node11</title>
<g id="a_edge11_Node000010_Node000011"><a xlink:title=" ">
<path fill="none" stroke="#63b8ff" d="M374.65,-54.98C357.43,-46.54 330.8,-33.47 310.85,-23.68"/>
<polygon fill="#63b8ff" stroke="#63b8ff" points="312.19,-20.43 301.67,-19.17 309.1,-26.72 312.19,-20.43"/>
</a>
</g>
</g>
<!-- Node12 -->
<g id="Node000012" class="node">
<title>Node12</title>
<g id="a_Node000012"><a xlink:title=" ">
<polygon fill="#e0e0e0" stroke="#999999" points="416,-19 368,-19 368,0 416,0 416,-19"/>
<text text-anchor="middle" x="392" y="-7" font-family="Helvetica,sans-Serif" font-size="10.00">time.h</text>
</a>
</g>
</g>
<!-- Node10&#45;&gt;Node12 -->
<g id="edge12_Node000010_Node000012" class="edge">
<title>Node10&#45;&gt;Node12</title>
<g id="a_edge12_Node000010_Node000012"><a xlink:title=" ">
<path fill="none" stroke="#63b8ff" d="M392,-54.75C392,-47.8 392,-37.85 392,-29.13"/>
<polygon fill="#63b8ff" stroke="#63b8ff" points="395.5,-29.09 392,-19.09 388.5,-29.09 395.5,-29.09"/>
</a>
</g>
</g>
<!-- Node13&#45;&gt;Node2 -->
<g id="edge16_Node000013_Node000002" class="edge">
<title>Node13&#45;&gt;Node2</title>
<g id="a_edge16_Node000013_Node000002"><a xlink:title=" ">
<path fill="none" stroke="#63b8ff" d="M188.67,-164.98C153.44,-155.41 96.39,-139.9 59.8,-129.96"/>
<polygon fill="#63b8ff" stroke="#63b8ff" points="60.62,-126.55 50.05,-127.31 58.79,-133.31 60.62,-126.55"/>
</a>
</g>
</g>
<!-- Node13&#45;&gt;Node10 -->
<g id="edge17_Node000013_Node000010" class="edge">
<title>Node13&#45;&gt;Node10</title>
<g id="a_edge17_Node000013_Node000010"><a xlink:title=" ">
<path fill="none" stroke="#63b8ff" d="M233.78,-164.84C263.35,-146.28 333.09,-102.49 369.3,-79.75"/>
<polygon fill="#63b8ff" stroke="#63b8ff" points="371.54,-82.48 378.15,-74.2 367.82,-76.55 371.54,-82.48"/>
</a>
</g>
</g>
<!-- Node13&#45;&gt;Node11 -->
<g id="edge15_Node000013_Node000011" class="edge">
<title>Node13&#45;&gt;Node11</title>
<g id="a_edge15_Node000013_Node000011"><a xlink:title=" ">
<path fill="none" stroke="#63b8ff" d="M207.82,-164.99C192.68,-153.27 169.88,-131.22 179,-110 195.44,-71.78 234.57,-41.36 260.14,-24.65"/>
<polygon fill="#63b8ff" stroke="#63b8ff" points="262.3,-27.43 268.88,-19.12 258.56,-21.51 262.3,-27.43"/>
</a>
</g>
</g>
<!-- Node14 -->
<g id="Node000014" class="node">
<title>Node14</title>
<g id="a_Node000014"><a xlink:title=" ">
<polygon fill="#e0e0e0" stroke="#999999" points="131.5,-129 68.5,-129 68.5,-110 131.5,-110 131.5,-129"/>
<text text-anchor="middle" x="100" y="-117" font-family="Helvetica,sans-Serif" font-size="10.00">pthread.h</text>
</a>
</g>
</g>
<!-- Node13&#45;&gt;Node14 -->
<g id="edge14_Node000013_Node000014" class="edge">
<title>Node13&#45;&gt;Node14</title>
<g id="a_edge14_Node000013_Node000014"><a xlink:title=" ">
<path fill="none" stroke="#63b8ff" d="M200.72,-164.98C181.33,-156.42 151.19,-143.11 128.93,-133.28"/>
<polygon fill="#63b8ff" stroke="#63b8ff" points="130.19,-130.01 119.63,-129.17 127.36,-136.41 130.19,-130.01"/>
</a>
</g>
</g>
<!-- Node15 -->
<g id="Node000015" class="node">
<title>Node15</title>
<g id="a_Node000015"><a xlink:href="drv__can_8h.html" target="_top" xlink:title="Generic CAN driver abstraction (vtable) and thin wrapper API.">
<polygon fill="white" stroke="#666666" points="252,-129 188,-129 188,-110 252,-110 252,-129"/>
<text text-anchor="middle" x="220" y="-117" font-family="Helvetica,sans-Serif" font-size="10.00">drv_can.h</text>
</a>
</g>
</g>
<!-- Node13&#45;&gt;Node15 -->
<g id="edge18_Node000013_Node000015" class="edge">
<title>Node13&#45;&gt;Node15</title>
<g id="a_edge18_Node000013_Node000015"><a xlink:title=" ">
<path fill="none" stroke="#63b8ff" d="M220,-164.75C220,-157.8 220,-147.85 220,-139.13"/>
<polygon fill="#63b8ff" stroke="#63b8ff" points="223.5,-139.09 220,-129.09 216.5,-139.09 223.5,-139.09"/>
</a>
</g>
</g>
<!-- Node15&#45;&gt;Node10 -->
<g id="edge20_Node000015_Node000010" class="edge">
<title>Node15&#45;&gt;Node10</title>
<g id="a_edge20_Node000015_Node000010"><a xlink:title=" ">
<path fill="none" stroke="#63b8ff" d="M247.63,-109.98C276.51,-101.09 322.01,-87.07 354.2,-77.15"/>
<polygon fill="#63b8ff" stroke="#63b8ff" points="355.62,-80.37 364.15,-74.08 353.56,-73.68 355.62,-80.37"/>
</a>
</g>
</g>
<!-- Node15&#45;&gt;Node11 -->
<g id="edge19_Node000015_Node000011" class="edge">
<title>Node15&#45;&gt;Node11</title>
<g id="a_edge19_Node000015_Node000011"><a xlink:title=" ">
<path fill="none" stroke="#63b8ff" d="M225.24,-109.66C235.79,-91.85 259.78,-51.37 273.63,-28.01"/>
<polygon fill="#63b8ff" stroke="#63b8ff" points="276.78,-29.55 278.87,-19.16 270.76,-25.98 276.78,-29.55"/>
</a>
</g>
</g>
<!-- Node16&#45;&gt;Node11 -->
<g id="edge23_Node000016_Node000011" class="edge">
<title>Node16&#45;&gt;Node11</title>
<g id="a_edge23_Node000016_Node000011"><a xlink:title=" ">
<path fill="none" stroke="#63b8ff" d="M342.67,-164.74C332.91,-139.09 304.27,-63.78 290.95,-28.78"/>
<polygon fill="#63b8ff" stroke="#63b8ff" points="294.18,-27.41 287.35,-19.31 287.63,-29.9 294.18,-27.41"/>
</a>
</g>
</g>
<!-- Node17 -->
<g id="Node000017" class="node">
<title>Node17</title>
<g id="a_Node000017"><a xlink:title=" ">
<polygon fill="#e0e0e0" stroke="#999999" points="402,-129 346,-129 346,-110 402,-110 402,-129"/>
<text text-anchor="middle" x="374" y="-117" font-family="Helvetica,sans-Serif" font-size="10.00">stddef.h</text>
</a>
</g>
</g>
<!-- Node16&#45;&gt;Node17 -->
<g id="edge22_Node000016_Node000017" class="edge">
<title>Node16&#45;&gt;Node17</title>
<g id="a_edge22_Node000016_Node000017"><a xlink:title=" ">
<path fill="none" stroke="#63b8ff" d="M350.62,-164.75C354.46,-157.49 360.02,-146.95 364.76,-137.98"/>
<polygon fill="#63b8ff" stroke="#63b8ff" points="367.89,-139.57 369.46,-129.09 361.7,-136.3 367.89,-139.57"/>
</a>
</g>
</g>
</g>
</svg>
