<?xml version="1.0" encoding="UTF-8" standalone="no"?>
<!DOCTYPE svg PUBLIC "-//W3C//DTD SVG 1.1//EN"
 "http://www.w3.org/Graphics/SVG/1.1/DTD/svg11.dtd">
<!-- Generated by graphviz version 2.43.0 (0)
 -->
<!-- Title: gui/message_view.c Pages: 1 -->
<svg width="555pt" height="302pt"
 viewBox="0.00 0.00 554.50 302.00" xmlns="http://www.w3.org/2000/svg" xmlns:xlink="http://www.w3.org/1999/xlink">
<g id="graph0" class="graph" transform="scale(1 1) rotate(0) translate(4 298)">
<title>gui/message_view.c</title>
<!-- Node1 -->
<g id="Node000001" class="node">
<title>Node1</title>
<g id="a_Node000001"><a xlink:title="CAN trace GtkTreeView, value formatting, and statistics rendering.">
<polygon fill="#999999" stroke="#666666" points="314.5,-294 199.5,-294 199.5,-275 314.5,-275 314.5,-294"/>
<text text-anchor="middle" x="257" y="-282" font-family="Helvetica,sans-Serif" font-size="10.00">gui/message_view.c</text>
</a>
</g>
</g>
<!-- Node2 -->
<g id="Node000002" class="node">
<title>Node2</title>
<g id="a_Node000002"><a xlink:title=" ">
<polygon fill="#e0e0e0" stroke="#999999" points="116,-129 66,-129 66,-110 116,-110 116,-129"/>
<text text-anchor="middle" x="91" y="-117" font-family="Helvetica,sans-Serif" font-size="10.00">stdio.h</text>
</a>
</g>
</g>
<!-- Node1&#45;&gt;Node2 -->
<g id="edge1_Node000001_Node000002" class="edge">
<title>Node1&#45;&gt;Node2</title>
<g id="a_edge1_Node000001_Node000002"><a xlink:title=" ">
<path fill="none" stroke="#63b8ff" d="M247.09,-274.79C237.09,-265.93 221.27,-251.73 208,-239 170.67,-203.2 128.37,-159.56 106.29,-136.53"/>
<polygon fill="#63b8ff" stroke="#63b8ff" points="108.8,-134.09 99.36,-129.28 103.74,-138.93 108.8,-134.09"/>
</a>
</g>
</g>
<!-- Node3 -->
<g id="Node000003" class="node">
<title>Node3</title>
<g id="a_Node000003"><a xlink:title=" ">
<polygon fill="#e0e0e0" stroke="#999999" points="400.5,-239 347.5,-239 347.5,-220 400.5,-220 400.5,-239"/>
<text text-anchor="middle" x="374" y="-227" font-family="Helvetica,sans-Serif" font-size="10.00">string.h</text>
</a>
</g>
</g>
<!-- Node1&#45;&gt;Node3 -->
<g id="edge2_Node000001_Node000003" class="edge">
<title>Node1&#45;&gt;Node3</title>
<g id="a_edge2_Node000001_Node000003"><a xlink:title=" ">
<path fill="none" stroke="#63b8ff" d="M275.8,-274.98C294.62,-266.46 323.82,-253.23 345.5,-243.41"/>
<polygon fill="#63b8ff" stroke="#63b8ff" points="347.2,-246.48 354.86,-239.17 344.31,-240.11 347.2,-246.48"/>
</a>
</g>
</g>
<!-- Node4 -->
<g id="Node000004" class="node">
<title>Node4</title>
<g id="a_Node000004"><a xlink:title=" ">
<polygon fill="#e0e0e0" stroke="#999999" points="475,-239 419,-239 419,-220 475,-220 475,-239"/>
<text text-anchor="middle" x="447" y="-227" font-family="Helvetica,sans-Serif" font-size="10.00">stdarg.h</text>
</a>
</g>
</g>
<!-- Node1&#45;&gt;Node4 -->
<g id="edge3_Node000001_Node000004" class="edge">
<title>Node1&#45;&gt;Node4</title>
<g id="a_edge3_Node000001_Node000004"><a xlink:title=" ">
<path fill="none" stroke="#63b8ff" d="M287.53,-274.98C320.47,-265.8 372.98,-251.15 408.68,-241.19"/>
<polygon fill="#63b8ff" stroke="#63b8ff" points="410.03,-244.45 418.72,-238.39 408.15,-237.7 410.03,-244.45"/>
</a>
</g>
</g>
<!-- Node5 -->
<g id="Node000005" class="node">
<title>Node5</title>
<g id="a_Node000005"><a xlink:title=" ">
<polygon fill="#e0e0e0" stroke="#999999" points="137,-19 89,-19 89,0 137,0 137,-19"/>
<text text-anchor="middle" x="113" y="-7" font-family="Helvetica,sans-Serif" font-size="10.00">time.h</text>
</a>
</g>
</g>
<!-- Node1&#45;&gt;Node5 -->
<g id="edge4_Node000001_Node000005" class="edge">
<title>Node1&#45;&gt;Node5</title>
<g id="a_edge4_Node000001_Node000005"><a xlink:title=" ">
<path fill="none" stroke="#63b8ff" d="M199.32,-283.5C123.55,-280.11 0,-261.41 0,-175.5 0,-175.5 0,-175.5 0,-118.5 0,-72.68 49.15,-40.32 82.62,-23.6"/>
<polygon fill="#63b8ff" stroke="#63b8ff" points="84.5,-26.58 92.01,-19.11 81.48,-20.27 84.5,-26.58"/>
</a>
</g>
</g>
<!-- Node6 -->
<g id="Node000006" class="node">
<title>Node6</title>
<g id="a_Node000006"><a xlink:title=" ">
<polygon fill="#e0e0e0" stroke="#999999" points="546.5,-239 493.5,-239 493.5,-220 546.5,-220 546.5,-239"/>
<text text-anchor="middle" x="520" y="-227" font-family="Helvetica,sans-Serif" font-size="10.00">ctype.h</text>
</a>
</g>
</g>
<!-- Node1&#45;&gt;Node6 -->
<g id="edge5_Node000001_Node000006" class="edge">
<title>Node1&#45;&gt;Node6</title>
<g id="a_edge5_Node000001_Node000006"><a xlink:title=" ">
<path fill="none" stroke="#63b8ff" d="M303.19,-274.98C346.98,-266.79 414.85,-253.77 483.2,-239.1"/>
<polygon fill="#63b8ff" stroke="#63b8ff" points="484.25,-242.46 493.29,-236.93 482.78,-235.61 484.25,-242.46"/>
</a>
</g>
</g>
<!-- Node7 -->
<g id="Node000007" class="node">
<title>Node7</title>
<g id="a_Node000007"><a xlink:title=" ">
<polygon fill="#e0e0e0" stroke="#999999" points="472,-184 412,-184 412,-165 472,-165 472,-184"/>
<text text-anchor="middle" x="442" y="-172" font-family="Helvetica,sans-Serif" font-size="10.00">gtk/gtk.h</text>
</a>
</g>
</g>
<!-- Node1&#45;&gt;Node7 -->
<g id="edge6_Node000001_Node000007" class="edge">
<title>Node1&#45;&gt;Node7</title>
<g id="a_edge6_Node000001_Node000007"><a xlink:title=" ">
<path fill="none" stroke="#63b8ff" d="M266.52,-274.83C281.24,-261.73 310.78,-236.66 339,-220 360.91,-207.06 387.28,-195.74 407.85,-187.76"/>
<polygon fill="#63b8ff" stroke="#63b8ff" points="409.33,-190.94 417.44,-184.11 406.85,-184.39 409.33,-190.94"/>
</a>
</g>
</g>
<!-- Node8 -->
<g id="Node000008" class="node">
<title>Node8</title>
<g id="a_Node000008"><a xlink:href="gui_8h.html" target="_top" xlink:title="GTK GUI widget registry and the application&#39;s GUI/thread API.">
<polygon fill="white" stroke="#666666" points="290.5,-239 223.5,-239 223.5,-220 290.5,-220 290.5,-239"/>
<text text-anchor="middle" x="257" y="-227" font-family="Helvetica,sans-Serif" font-size="10.00">../inc/gui.h</text>
</a>
</g>
</g>
<!-- Node1&#45;&gt;Node8 -->
<g id="edge7_Node000001_Node000008" class="edge">
<title>Node1&#45;&gt;Node8</title>
<g id="a_edge7_Node000001_Node000008"><a xlink:title=" ">
<path fill="none" stroke="#63b8ff" d="M257,-274.75C257,-267.8 257,-257.85 257,-249.13"/>
<polygon fill="#63b8ff" stroke="#63b8ff" points="260.5,-249.09 257,-239.09 253.5,-249.09 260.5,-249.09"/>
</a>
</g>
</g>
<!-- Node9 -->
<g id="Node000009" class="node">
<title>Node9</title>
<g id="a_Node000009"><a xlink:href="can__message_8h.html" target="_top" xlink:title="Hardware&#45;independent CAN/CAN FD message and statistics data types.">
<polygon fill="white" stroke="#666666" points="272,-74 180,-74 180,-55 272,-55 272,-74"/>
<text text-anchor="middle" x="226" y="-62" font-family="Helvetica,sans-Serif" font-size="10.00">can_message.h</text>
</a>
</g>
</g>
<!-- Node1&#45;&gt;Node9 -->
<g id="edge21_Node000001_Node000009" class="edge">
<title>Node1&#45;&gt;Node9</title>
<g id="a_edge21_Node000001_Node000009"><a xlink:title=" ">
<path fill="none" stroke="#63b8ff" d="M235.13,-274.89C191.13,-256.17 93.03,-207.08 57,-129 35.26,-81.88 112.32,-69.15 169.48,-66.03"/>
<polygon fill="#63b8ff" stroke="#63b8ff" points="169.71,-69.53 179.54,-65.57 169.39,-62.54 169.71,-69.53"/>
</a>
</g>
</g>
<!-- Node11 -->
<g id="Node000011" class="node">
<title>Node11</title>
<g id="a_Node000011"><a xlink:href="app__state_8h.html" target="_top" xlink:title="Global application state shared across the GUI and worker threads.">
<polygon fill="white" stroke="#666666" points="263,-184 189,-184 189,-165 263,-165 263,-184"/>
<text text-anchor="middle" x="226" y="-172" font-family="Helvetica,sans-Serif" font-size="10.00">app_state.h</text>
</a>
</g>
</g>
<!-- Node1&#45;&gt;Node11 -->
<g id="edge20_Node000001_Node000011" class="edge">
<title>Node1&#45;&gt;Node11</title>
<g id="a_edge20_Node000001_Node000011"><a xlink:title=" ">
<path fill="none" stroke="#63b8ff" d="M244.51,-274.93C234.13,-266.99 220.12,-254.14 214,-239 208.03,-224.23 212.38,-206.3 217.43,-193.27"/>
<polygon fill="#63b8ff" stroke="#63b8ff" points="220.68,-194.58 221.45,-184.02 214.26,-191.79 220.68,-194.58"/>
</a>
</g>
</g>
<!-- Node8&#45;&gt;Node7 -->
<g id="edge8_Node000008_Node000007" class="edge">
<title>Node8&#45;&gt;Node7</title>
<g id="a_edge8_Node000008_Node000007"><a xlink:title=" ">
<path fill="none" stroke="#63b8ff" d="M286.72,-219.98C318.05,-211.01 367.57,-196.82 402.24,-186.89"/>
<polygon fill="#63b8ff" stroke="#63b8ff" points="403.39,-190.2 412.04,-184.08 401.47,-183.47 403.39,-190.2"/>
</a>
</g>
</g>
<!-- Node8&#45;&gt;Node9 -->
<g id="edge9_Node000008_Node000009" class="edge">
<title>Node8&#45;&gt;Node9</title>
<g id="a_edge9_Node000008_Node000009"><a xlink:title=" ">
<path fill="none" stroke="#63b8ff" d="M269.33,-219.72C295.7,-199.84 353.11,-150.03 327,-110 316.67,-94.16 299.28,-83.91 281.83,-77.31"/>
<polygon fill="#63b8ff" stroke="#63b8ff" points="282.76,-73.93 272.16,-74 280.49,-80.55 282.76,-73.93"/>
</a>
</g>
</g>
<!-- Node8&#45;&gt;Node11 -->
<g id="edge12_Node000008_Node000011" class="edge">
<title>Node8&#45;&gt;Node11</title>
<g id="a_edge12_Node000008_Node000011"><a xlink:title=" ">
<path fill="none" stroke="#63b8ff" d="M251.88,-219.75C247.64,-212.49 241.47,-201.95 236.22,-192.98"/>
<polygon fill="#63b8ff" stroke="#63b8ff" points="239.09,-190.95 231.02,-184.09 233.05,-194.49 239.09,-190.95"/>
</a>
</g>
</g>
<!-- Node9&#45;&gt;Node5 -->
<g id="edge11_Node000009_Node000005" class="edge">
<title>Node9&#45;&gt;Node5</title>
<g id="a_edge11_Node000009_Node000005"><a xlink:title=" ">
<path fill="none" stroke="#63b8ff" d="M207.84,-54.98C189.75,-46.5 161.72,-33.35 140.81,-23.54"/>
<polygon fill="#63b8ff" stroke="#63b8ff" points="142.03,-20.25 131.49,-19.17 139.05,-26.59 142.03,-20.25"/>
</a>
</g>
</g>
<!-- Node10 -->
<g id="Node000010" class="node">
<title>Node10</title>
<g id="a_Node000010"><a xlink:title=" ">
<polygon fill="#e0e0e0" stroke="#999999" points="326.5,-19 273.5,-19 273.5,0 326.5,0 326.5,-19"/>
<text text-anchor="middle" x="300" y="-7" font-family="Helvetica,sans-Serif" font-size="10.00">stdint.h</text>
</a>
</g>
</g>
<!-- Node9&#45;&gt;Node10 -->
<g id="edge10_Node000009_Node000010" class="edge">
<title>Node9&#45;&gt;Node10</title>
<g id="a_edge10_Node000009_Node000010"><a xlink:title=" ">
<path fill="none" stroke="#63b8ff" d="M237.89,-54.98C249.15,-46.92 266.29,-34.65 279.71,-25.03"/>
<polygon fill="#63b8ff" stroke="#63b8ff" points="281.8,-27.84 287.89,-19.17 277.73,-22.15 281.8,-27.84"/>
</a>
</g>
</g>
<!-- Node11&#45;&gt;Node2 -->
<g id="edge15_Node000011_Node000002" class="edge">
<title>Node11&#45;&gt;Node2</title>
<g id="a_edge15_Node000011_Node000002"><a xlink:title=" ">
<path fill="none" stroke="#63b8ff" d="M204.31,-164.98C182.2,-156.3 147.68,-142.75 122.55,-132.88"/>
<polygon fill="#63b8ff" stroke="#63b8ff" points="123.67,-129.57 113.08,-129.17 121.11,-136.08 123.67,-129.57"/>
</a>
</g>
</g>
<!-- Node11&#45;&gt;Node9 -->
<g id="edge16_Node000011_Node000009" class="edge">
<title>Node11&#45;&gt;Node9</title>
<g id="a_edge16_Node000011_Node000009"><a xlink:title=" ">
<path fill="none" stroke="#63b8ff" d="M226,-164.66C226,-147.17 226,-107.8 226,-84.27"/>
<polygon fill="#63b8ff" stroke="#63b8ff" points="229.5,-84.16 226,-74.16 222.5,-84.16 229.5,-84.16"/>
</a>
</g>
</g>
<!-- Node11&#45;&gt;Node10 -->
<g id="edge14_Node000011_Node000010" class="edge">
<title>Node11&#45;&gt;Node10</title>
<g id="a_edge14_Node000011_Node000010"><a xlink:title=" ">
<path fill="none" stroke="#63b8ff" d="M263.14,-167.53C285.76,-161.77 312.92,-150.59 327,-129 347.66,-97.33 326.16,-51.93 311.41,-27.54"/>
<polygon fill="#63b8ff" stroke="#63b8ff" points="314.31,-25.59 306,-19.02 308.4,-29.34 314.31,-25.59"/>
</a>
</g>
</g>
<!-- Node12 -->
<g id="Node000012" class="node">
<title>Node12</title>
<g id="a_Node000012"><a xlink:title=" ">
<polygon fill="#e0e0e0" stroke="#999999" points="197.5,-129 134.5,-129 134.5,-110 197.5,-110 197.5,-129"/>
<text text-anchor="middle" x="166" y="-117" font-family="Helvetica,sans-Serif" font-size="10.00">pthread.h</text>
</a>
</g>
</g>
<!-- Node11&#45;&gt;Node12 -->
<g id="edge13_Node000011_Node000012" class="edge">
<title>Node11&#45;&gt;Node12</title>
<g id="a_edge13_Node000011_Node000012"><a xlink:title=" ">
<path fill="none" stroke="#63b8ff" d="M216.36,-164.98C207.49,-157.15 194.13,-145.34 183.39,-135.86"/>
<polygon fill="#63b8ff" stroke="#63b8ff" points="185.63,-133.17 175.82,-129.17 180.99,-138.41 185.63,-133.17"/>
</a>
</g>
</g>
<!-- Node13 -->
<g id="Node000013" class="node">
<title>Node13</title>
<g id="a_Node000013"><a xlink:href="drv__can_8h.html" target="_top" xlink:title="Generic CAN driver abstraction (vtable) and thin wrapper API.">
<polygon fill="white" stroke="#666666" points="318,-129 254,-129 254,-110 318,-110 318,-129"/>
<text text-anchor="middle" x="286" y="-117" font-family="Helvetica,sans-Serif" font-size="10.00">drv_can.h</text>
</a>
</g>
</g>
<!-- Node11&#45;&gt;Node13 -->
<g id="edge17_Node000011_Node000013" class="edge">
<title>Node11&#45;&gt;Node13</title>
<g id="a_edge17_Node000011_Node000013"><a xlink:title=" ">
<path fill="none" stroke="#63b8ff" d="M235.64,-164.98C244.51,-157.15 257.87,-145.34 268.61,-135.86"/>
<polygon fill="#63b8ff" stroke="#63b8ff" points="271.01,-138.41 276.18,-129.17 266.37,-133.17 271.01,-138.41"/>
</a>
</g>
</g>
<!-- Node13&#45;&gt;Node9 -->
<g id="edge19_Node000013_Node000009" class="edge">
<title>Node13&#45;&gt;Node9</title>
<g id="a_edge19_Node000013_Node000009"><a xlink:title=" ">
<path fill="none" stroke="#63b8ff" d="M276.36,-109.98C267.49,-102.15 254.13,-90.34 243.39,-80.86"/>
<polygon fill="#63b8ff" stroke="#63b8ff" points="245.63,-78.17 235.82,-74.17 240.99,-83.41 245.63,-78.17"/>
</a>
</g>
</g>
<!-- Node13&#45;&gt;Node10 -->
<g id="edge18_Node000013_Node000010" class="edge">
<title>Node13&#45;&gt;Node10</title>
<g id="a_edge18_Node000013_Node000010"><a xlink:title=" ">
<path fill="none" stroke="#63b8ff" d="M287.15,-109.66C289.41,-92.17 294.52,-52.8 297.57,-29.27"/>
<polygon fill="#63b8ff" stroke="#63b8ff" points="301.06,-29.53 298.88,-19.16 294.12,-28.63 301.06,-29.53"/>
</a>
</g>
</g>
</g>
</svg>
