<?xml version="1.0" encoding="UTF-8" standalone="no"?>
<!DOCTYPE svg PUBLIC "-//W3C//DTD SVG 1.1//EN"
 "http://www.w3.org/Graphics/SVG/1.1/DTD/svg11.dtd">
<!-- Generated by graphviz version 2.43.0 (0)
 -->
<!-- Title: gui/settings_dialog.c Pages: 1 -->
<svg width="574pt" height="302pt"
 viewBox="0.00 0.00 574.00 302.00" xmlns="http://www.w3.org/2000/svg" xmlns:xlink="http://www.w3.org/1999/xlink">
<g id="graph0" class="graph" transform="scale(1 1) rotate(0) translate(4 298)">
<title>gui/settings_dialog.c</title>
<!-- Node1 -->
<g id="Node000001" class="node">
<title>Node1</title>
<g id="a_Node000001"><a xlink:title="Modal CAN connection&#45;settings dialog.">
<polygon fill="#999999" stroke="#666666" points="408.5,-294 291.5,-294 291.5,-275 408.5,-275 408.5,-294"/>
<text text-anchor="middle" x="350" y="-282" font-family="Helvetica,sans-Serif" font-size="10.00">gui/settings_dialog.c</text>
</a>
</g>
</g>
<!-- Node2 -->
<g id="Node000002" class="node">
<title>Node2</title>
<g id="a_Node000002"><a xlink:title=" ">
<polygon fill="#e0e0e0" stroke="#999999" points="50,-129 0,-129 0,-110 50,-110 50,-129"/>
<text text-anchor="middle" x="25" y="-117" font-family="Helvetica,sans-Serif" font-size="10.00">stdio.h</text>
</a>
</g>
</g>
<!-- Node1&#45;&gt;Node2 -->
<g id="edge1_Node000001_Node000002" class="edge">
<title>Node1&#45;&gt;Node2</title>
<g id="a_edge1_Node000001_Node000002"><a xlink:title=" ">
<path fill="none" stroke="#63b8ff" d="M329.62,-274.94C308.61,-266.07 274.93,-251.76 246,-239 191.95,-215.16 176.95,-212.12 125,-184 96.61,-168.63 65.44,-148.24 45.57,-134.76"/>
<polygon fill="#63b8ff" stroke="#63b8ff" points="47.52,-131.85 37.29,-129.09 43.57,-137.63 47.52,-131.85"/>
</a>
</g>
</g>
<!-- Node3 -->
<g id="Node000003" class="node">
<title>Node3</title>
<g id="a_Node000003"><a xlink:title=" ">
<polygon fill="#e0e0e0" stroke="#999999" points="493.5,-239 440.5,-239 440.5,-220 493.5,-220 493.5,-239"/>
<text text-anchor="middle" x="467" y="-227" font-family="Helvetica,sans-Serif" font-size="10.00">string.h</text>
</a>
</g>
</g>
<!-- Node1&#45;&gt;Node3 -->
<g id="edge2_Node000001_Node000003" class="edge">
<title>Node1&#45;&gt;Node3</title>
<g id="a_edge2_Node000001_Node000003"><a xlink:title=" ">
<path fill="none" stroke="#63b8ff" d="M368.8,-274.98C387.62,-266.46 416.82,-253.23 438.5,-243.41"/>
<polygon fill="#63b8ff" stroke="#63b8ff" points="440.2,-246.48 447.86,-239.17 437.31,-240.11 440.2,-246.48"/>
</a>
</g>
</g>
<!-- Node4 -->
<g id="Node000004" class="node">
<title>Node4</title>
<g id="a_Node000004"><a xlink:title=" ">
<polygon fill="#e0e0e0" stroke="#999999" points="566,-239 512,-239 512,-220 566,-220 566,-239"/>
<text text-anchor="middle" x="539" y="-227" font-family="Helvetica,sans-Serif" font-size="10.00">dirent.h</text>
</a>
</g>
</g>
<!-- Node1&#45;&gt;Node4 -->
<g id="edge3_Node000001_Node000004" class="edge">
<title>Node1&#45;&gt;Node4</title>
<g id="a_edge3_Node000001_Node000004"><a xlink:title=" ">
<path fill="none" stroke="#63b8ff" d="M380.37,-274.98C413.42,-265.72 466.28,-250.89 501.8,-240.93"/>
<polygon fill="#63b8ff" stroke="#63b8ff" points="503.09,-244.2 511.78,-238.13 501.2,-237.46 503.09,-244.2"/>
</a>
</g>
</g>
<!-- Node5 -->
<g id="Node000005" class="node">
<title>Node5</title>
<g id="a_Node000005"><a xlink:title=" ">
<polygon fill="#e0e0e0" stroke="#999999" points="505,-184 445,-184 445,-165 505,-165 505,-184"/>
<text text-anchor="middle" x="475" y="-172" font-family="Helvetica,sans-Serif" font-size="10.00">gtk/gtk.h</text>
</a>
</g>
</g>
<!-- Node1&#45;&gt;Node5 -->
<g id="edge4_Node000001_Node000005" class="edge">
<title>Node1&#45;&gt;Node5</title>
<g id="a_edge4_Node000001_Node000005"><a xlink:title=" ">
<path fill="none" stroke="#63b8ff" d="M360.23,-274.66C381.49,-256.3 430.66,-213.81 457.21,-190.87"/>
<polygon fill="#63b8ff" stroke="#63b8ff" points="459.7,-193.34 464.98,-184.16 455.12,-188.05 459.7,-193.34"/>
</a>
</g>
</g>
<!-- Node6 -->
<g id="Node000006" class="node">
<title>Node6</title>
<g id="a_Node000006"><a xlink:href="gui_8h.html" target="_top" xlink:title="GTK GUI widget registry and the application&#39;s GUI/thread API.">
<polygon fill="white" stroke="#666666" points="383.5,-239 316.5,-239 316.5,-220 383.5,-220 383.5,-239"/>
<text text-anchor="middle" x="350" y="-227" font-family="Helvetica,sans-Serif" font-size="10.00">../inc/gui.h</text>
</a>
</g>
</g>
<!-- Node1&#45;&gt;Node6 -->
<g id="edge5_Node000001_Node000006" class="edge">
<title>Node1&#45;&gt;Node6</title>
<g id="a_edge5_Node000001_Node000006"><a xlink:title=" ">
<path fill="none" stroke="#63b8ff" d="M350,-274.75C350,-267.8 350,-257.85 350,-249.13"/>
<polygon fill="#63b8ff" stroke="#63b8ff" points="353.5,-249.09 350,-239.09 346.5,-249.09 353.5,-249.09"/>
</a>
</g>
</g>
<!-- Node10 -->
<g id="Node000010" class="node">
<title>Node10</title>
<g id="a_Node000010"><a xlink:href="app__state_8h.html" target="_top" xlink:title="Global application state shared across the GUI and worker threads.">
<polygon fill="white" stroke="#666666" points="208,-184 134,-184 134,-165 208,-165 208,-184"/>
<text text-anchor="middle" x="171" y="-172" font-family="Helvetica,sans-Serif" font-size="10.00">app_state.h</text>
</a>
</g>
</g>
<!-- Node1&#45;&gt;Node10 -->
<g id="edge21_Node000001_Node000010" class="edge">
<title>Node1&#45;&gt;Node10</title>
<g id="a_edge21_Node000001_Node000010"><a xlink:title=" ">
<path fill="none" stroke="#63b8ff" d="M335.65,-274.84C304.76,-256.2 231.69,-212.11 194.15,-189.46"/>
<polygon fill="#63b8ff" stroke="#63b8ff" points="195.78,-186.37 185.41,-184.2 192.17,-192.36 195.78,-186.37"/>
</a>
</g>
</g>
<!-- Node15 -->
<g id="Node000015" class="node">
<title>Node15</title>
<g id="a_Node000015"><a xlink:href="socketcan_8h.html" target="_top" xlink:title="SocketCAN back&#45;end interface (Linux PF_CAN / SOCK_RAW).">
<polygon fill="white" stroke="#666666" points="365.5,-184 264.5,-184 264.5,-165 365.5,-165 365.5,-184"/>
<text text-anchor="middle" x="315" y="-172" font-family="Helvetica,sans-Serif" font-size="10.00">../inc/socketcan.h</text>
</a>
</g>
</g>
<!-- Node1&#45;&gt;Node15 -->
<g id="edge22_Node000001_Node000015" class="edge">
<title>Node1&#45;&gt;Node15</title>
<g id="a_edge22_Node000001_Node000015"><a xlink:title=" ">
<path fill="none" stroke="#63b8ff" d="M337.79,-274.86C327.65,-266.88 313.96,-254.01 308,-239 302.24,-224.51 304.92,-206.77 308.51,-193.74"/>
<polygon fill="#63b8ff" stroke="#63b8ff" points="311.89,-194.65 311.57,-184.06 305.21,-192.54 311.89,-194.65"/>
</a>
</g>
</g>
<!-- Node6&#45;&gt;Node5 -->
<g id="edge6_Node000006_Node000005" class="edge">
<title>Node6&#45;&gt;Node5</title>
<g id="a_edge6_Node000006_Node000005"><a xlink:title=" ">
<path fill="none" stroke="#63b8ff" d="M370.08,-219.98C390.37,-211.38 421.96,-197.99 445.17,-188.15"/>
<polygon fill="#63b8ff" stroke="#63b8ff" points="446.71,-191.3 454.55,-184.17 443.98,-184.85 446.71,-191.3"/>
</a>
</g>
</g>
<!-- Node7 -->
<g id="Node000007" class="node">
<title>Node7</title>
<g id="a_Node000007"><a xlink:href="can__message_8h.html" target="_top" xlink:title="Hardware&#45;independent CAN/CAN FD message and statistics data types.">
<polygon fill="white" stroke="#666666" points="313,-74 221,-74 221,-55 313,-55 313,-74"/>
<text text-anchor="middle" x="267" y="-62" font-family="Helvetica,sans-Serif" font-size="10.00">can_message.h</text>
</a>
</g>
</g>
<!-- Node6&#45;&gt;Node7 -->
<g id="edge7_Node000006_Node000007" class="edge">
<title>Node6&#45;&gt;Node7</title>
<g id="a_edge7_Node000006_Node000007"><a xlink:title=" ">
<path fill="none" stroke="#63b8ff" d="M316.18,-222.24C294.65,-216.32 268.39,-205.06 255,-184 235.29,-153.01 248.71,-107.97 258.77,-83.3"/>
<polygon fill="#63b8ff" stroke="#63b8ff" points="262.01,-84.65 262.77,-74.08 255.58,-81.86 262.01,-84.65"/>
</a>
</g>
</g>
<!-- Node6&#45;&gt;Node10 -->
<g id="edge10_Node000006_Node000010" class="edge">
<title>Node6&#45;&gt;Node10</title>
<g id="a_edge10_Node000006_Node000010"><a xlink:title=" ">
<path fill="none" stroke="#63b8ff" d="M321.24,-219.98C291.06,-211.05 243.43,-196.94 209.9,-187.02"/>
<polygon fill="#63b8ff" stroke="#63b8ff" points="210.57,-183.57 199.98,-184.08 208.58,-190.28 210.57,-183.57"/>
</a>
</g>
</g>
<!-- Node13 -->
<g id="Node000013" class="node">
<title>Node13</title>
<g id="a_Node000013"><a xlink:href="dbc_8h.html" target="_top" xlink:title="Minimal CAN database (DBC) model, parser, and signal decoder.">
<polygon fill="white" stroke="#666666" points="426.5,-184 383.5,-184 383.5,-165 426.5,-165 426.5,-184"/>
<text text-anchor="middle" x="405" y="-172" font-family="Helvetica,sans-Serif" font-size="10.00">dbc.h</text>
</a>
</g>
</g>
<!-- Node6&#45;&gt;Node13 -->
<g id="edge18_Node000006_Node000013" class="edge">
<title>Node6&#45;&gt;Node13</title>
<g id="a_edge18_Node000006_Node000013"><a xlink:title=" ">
<path fill="none" stroke="#63b8ff" d="M359.08,-219.75C367.09,-212.03 378.96,-200.6 388.62,-191.28"/>
<polygon fill="#63b8ff" stroke="#63b8ff" points="391.31,-193.55 396.09,-184.09 386.46,-188.51 391.31,-193.55"/>
</a>
</g>
</g>
<!-- Node8 -->
<g id="Node000008" class="node">
<title>Node8</title>
<g id="a_Node000008"><a xlink:title=" ">
<polygon fill="#e0e0e0" stroke="#999999" points="367.5,-19 314.5,-19 314.5,0 367.5,0 367.5,-19"/>
<text text-anchor="middle" x="341" y="-7" font-family="Helvetica,sans-Serif" font-size="10.00">stdint.h</text>
</a>
</g>
</g>
<!-- Node7&#45;&gt;Node8 -->
<g id="edge8_Node000007_Node000008" class="edge">
<title>Node7&#45;&gt;Node8</title>
<g id="a_edge8_Node000007_Node000008"><a xlink:title=" ">
<path fill="none" stroke="#63b8ff" d="M278.89,-54.98C290.15,-46.92 307.29,-34.65 320.71,-25.03"/>
<polygon fill="#63b8ff" stroke="#63b8ff" points="322.8,-27.84 328.89,-19.17 318.73,-22.15 322.8,-27.84"/>
</a>
</g>
</g>
<!-- Node9 -->
<g id="Node000009" class="node">
<title>Node9</title>
<g id="a_Node000009"><a xlink:title=" ">
<polygon fill="#e0e0e0" stroke="#999999" points="291,-19 243,-19 243,0 291,0 291,-19"/>
<text text-anchor="middle" x="267" y="-7" font-family="Helvetica,sans-Serif" font-size="10.00">time.h</text>
</a>
</g>
</g>
<!-- Node7&#45;&gt;Node9 -->
<g id="edge9_Node000007_Node000009" class="edge">
<title>Node7&#45;&gt;Node9</title>
<g id="a_edge9_Node000007_Node000009"><a xlink:title=" ">
<path fill="none" stroke="#63b8ff" d="M267,-54.75C267,-47.8 267,-37.85 267,-29.13"/>
<polygon fill="#63b8ff" stroke="#63b8ff" points="270.5,-29.09 267,-19.09 263.5,-29.09 270.5,-29.09"/>
</a>
</g>
</g>
<!-- Node10&#45;&gt;Node2 -->
<g id="edge13_Node000010_Node000002" class="edge">
<title>Node10&#45;&gt;Node2</title>
<g id="a_edge13_Node000010_Node000002"><a xlink:title=" ">
<path fill="none" stroke="#63b8ff" d="M147.54,-164.98C123.42,-156.23 85.63,-142.51 58.4,-132.62"/>
<polygon fill="#63b8ff" stroke="#63b8ff" points="59.48,-129.29 48.88,-129.17 57.09,-135.87 59.48,-129.29"/>
</a>
</g>
</g>
<!-- Node10&#45;&gt;Node7 -->
<g id="edge14_Node000010_Node000007" class="edge">
<title>Node10&#45;&gt;Node7</title>
<g id="a_edge14_Node000010_Node000007"><a xlink:title=" ">
<path fill="none" stroke="#63b8ff" d="M177.62,-164.61C187.07,-152.09 205.14,-128.69 222,-110 231.01,-100 241.71,-89.39 250.4,-81.03"/>
<polygon fill="#63b8ff" stroke="#63b8ff" points="252.89,-83.5 257.73,-74.07 248.07,-78.42 252.89,-83.5"/>
</a>
</g>
</g>
<!-- Node10&#45;&gt;Node8 -->
<g id="edge12_Node000010_Node000008" class="edge">
<title>Node10&#45;&gt;Node8</title>
<g id="a_edge12_Node000010_Node000008"><a xlink:title=" ">
<path fill="none" stroke="#63b8ff" d="M171.5,-164.7C173.2,-143 180.58,-86.39 212,-55 225.21,-41.8 271.09,-27.98 304.38,-19.31"/>
<polygon fill="#63b8ff" stroke="#63b8ff" points="305.44,-22.65 314.26,-16.79 303.71,-15.87 305.44,-22.65"/>
</a>
</g>
</g>
<!-- Node11 -->
<g id="Node000011" class="node">
<title>Node11</title>
<g id="a_Node000011"><a xlink:title=" ">
<polygon fill="#e0e0e0" stroke="#999999" points="131.5,-129 68.5,-129 68.5,-110 131.5,-110 131.5,-129"/>
<text text-anchor="middle" x="100" y="-117" font-family="Helvetica,sans-Serif" font-size="10.00">pthread.h</text>
</a>
</g>
</g>
<!-- Node10&#45;&gt;Node11 -->
<g id="edge11_Node000010_Node000011" class="edge">
<title>Node10&#45;&gt;Node11</title>
<g id="a_edge11_Node000010_Node000011"><a xlink:title=" ">
<path fill="none" stroke="#63b8ff" d="M159.59,-164.98C148.89,-157 132.66,-144.88 119.84,-135.31"/>
<polygon fill="#63b8ff" stroke="#63b8ff" points="121.72,-132.35 111.61,-129.17 117.53,-137.96 121.72,-132.35"/>
</a>
</g>
</g>
<!-- Node12 -->
<g id="Node000012" class="node">
<title>Node12</title>
<g id="a_Node000012"><a xlink:href="drv__can_8h.html" target="_top" xlink:title="Generic CAN driver abstraction (vtable) and thin wrapper API.">
<polygon fill="white" stroke="#666666" points="366,-129 302,-129 302,-110 366,-110 366,-129"/>
<text text-anchor="middle" x="334" y="-117" font-family="Helvetica,sans-Serif" font-size="10.00">drv_can.h</text>
</a>
</g>
</g>
<!-- Node10&#45;&gt;Node12 -->
<g id="edge15_Node000010_Node000012" class="edge">
<title>Node10&#45;&gt;Node12</title>
<g id="a_edge15_Node000010_Node000012"><a xlink:title=" ">
<path fill="none" stroke="#63b8ff" d="M197.19,-164.98C224.44,-156.13 267.3,-142.19 297.78,-132.28"/>
<polygon fill="#63b8ff" stroke="#63b8ff" points="299.18,-135.5 307.61,-129.08 297.01,-128.85 299.18,-135.5"/>
</a>
</g>
</g>
<!-- Node12&#45;&gt;Node7 -->
<g id="edge17_Node000012_Node000007" class="edge">
<title>Node12&#45;&gt;Node7</title>
<g id="a_edge17_Node000012_Node000007"><a xlink:title=" ">
<path fill="none" stroke="#63b8ff" d="M323.24,-109.98C313.23,-102.07 298.11,-90.11 286.07,-80.58"/>
<polygon fill="#63b8ff" stroke="#63b8ff" points="287.97,-77.63 277.96,-74.17 283.63,-83.12 287.97,-77.63"/>
</a>
</g>
</g>
<!-- Node12&#45;&gt;Node8 -->
<g id="edge16_Node000012_Node000008" class="edge">
<title>Node12&#45;&gt;Node8</title>
<g id="a_edge16_Node000012_Node000008"><a xlink:title=" ">
<path fill="none" stroke="#63b8ff" d="M334.57,-109.66C335.71,-92.17 338.26,-52.8 339.78,-29.27"/>
<polygon fill="#63b8ff" stroke="#63b8ff" points="343.28,-29.36 340.44,-19.16 336.3,-28.91 343.28,-29.36"/>
</a>
</g>
</g>
<!-- Node13&#45;&gt;Node8 -->
<g id="edge20_Node000013_Node000008" class="edge">
<title>Node13&#45;&gt;Node8</title>
<g id="a_edge20_Node000013_Node000008"><a xlink:title=" ">
<path fill="none" stroke="#63b8ff" d="M426.88,-167.45C455.97,-158.19 502.06,-138.49 487,-110 463.61,-65.75 410.73,-37.49 375.45,-22.81"/>
<polygon fill="#63b8ff" stroke="#63b8ff" points="376.59,-19.5 366,-19.03 373.99,-25.99 376.59,-19.5"/>
</a>
</g>
</g>
<!-- Node14 -->
<g id="Node000014" class="node">
<title>Node14</title>
<g id="a_Node000014"><a xlink:title=" ">
<polygon fill="#e0e0e0" stroke="#999999" points="478,-129 422,-129 422,-110 478,-110 478,-129"/>
<text text-anchor="middle" x="450" y="-117" font-family="Helvetica,sans-Serif" font-size="10.00">stddef.h</text>
</a>
</g>
</g>
<!-- Node13&#45;&gt;Node14 -->
<g id="edge19_Node000013_Node000014" class="edge">
<title>Node13&#45;&gt;Node14</title>
<g id="a_edge19_Node000013_Node000014"><a xlink:title=" ">
<path fill="none" stroke="#63b8ff" d="M412.43,-164.75C418.85,-157.18 428.31,-146.05 436.12,-136.84"/>
<polygon fill="#63b8ff" stroke="#63b8ff" points="438.9,-138.98 442.71,-129.09 433.57,-134.45 438.9,-138.98"/>
</a>
</g>
</g>
<!-- Node15&#45;&gt;Node7 -->
<g id="edge24_Node000015_Node000007" class="edge">
<title>Node15&#45;&gt;Node7</title>
<g id="a_edge24_Node000015_Node000007"><a xlink:title=" ">
<path fill="none" stroke="#63b8ff" d="M310.43,-164.72C305.85,-155.81 298.67,-141.57 293,-129 286.19,-113.9 279.1,-96.47 274.05,-83.69"/>
<polygon fill="#63b8ff" stroke="#63b8ff" points="277.25,-82.25 270.34,-74.21 270.73,-84.8 277.25,-82.25"/>
</a>
</g>
</g>
<!-- Node15&#45;&gt;Node8 -->
<g id="edge23_Node000015_Node000008" class="edge">
<title>Node15&#45;&gt;Node8</title>
<g id="a_edge23_Node000015_Node000008"><a xlink:title=" ">
<path fill="none" stroke="#63b8ff" d="M334.58,-164.98C348.67,-157.68 366.6,-145.68 375,-129 392.08,-95.08 369.14,-51.25 353.46,-27.54"/>
<polygon fill="#63b8ff" stroke="#63b8ff" points="356.28,-25.47 347.71,-19.24 350.53,-29.45 356.28,-25.47"/>
</a>
</g>
</g>
<!-- Node15&#45;&gt;Node12 -->
<g id="edge25_Node000015_Node000012" class="edge">
<title>Node15&#45;&gt;Node12</title>
<g id="a_edge25_Node000015_Node000012"><a xlink:title=" ">
<path fill="none" stroke="#63b8ff" d="M318.14,-164.75C320.68,-157.65 324.36,-147.4 327.53,-138.56"/>
<polygon fill="#63b8ff" stroke="#63b8ff" points="330.84,-139.68 330.92,-129.09 324.25,-137.32 330.84,-139.68"/>
</a>
</g>
</g>
</g>
</svg>
