<?xml version="1.0" encoding="UTF-8" standalone="no"?>
<!DOCTYPE svg PUBLIC "-//W3C//DTD SVG 1.1//EN"
 "http://www.w3.org/Graphics/SVG/1.1/DTD/svg11.dtd">
<!-- Generated by graphviz version 2.43.0 (0)
 -->
<!-- Title: gui/settings_dialog.c Pages: 1 -->
<svg width="494pt" height="302pt"
 viewBox="0.00 0.00 494.00 302.00" xmlns="http://www.w3.org/2000/svg" xmlns:xlink="http://www.w3.org/1999/xlink">

<svg id="main" version="1.1" xmlns="http://www.w3.org/2000/svg" xmlns:xlink="http://www.w3.org/1999/xlink" xml:space="preserve" onload="init(evt)">
<style type="text/css"><![CDATA[
.node, .edge {opacity: 0.7;}
.node.selected, .edge.selected {opacity: 1;}
.edge:hover path { stroke: red; }
.edge:hover polygon { stroke: red; fill: red; }
]]></style>
<script type="application/ecmascript" xlink:href="svg.min.js"/>
<svg id="graph" class="graph">
<g id="graph0" class="graph" transform="scale(1 1) rotate(0) translate(4 298)">
<title>gui/settings_dialog.c</title>
<!-- Node1 -->
<g id="Node000001" class="node">
<title>Node1</title>
<g id="a_Node000001"><a xlink:title="Modal CAN connection&#45;settings dialog.">
<polygon fill="#999999" stroke="#666666" points="352.5,-294 235.5,-294 235.5,-275 352.5,-275 352.5,-294"/>
<text text-anchor="middle" x="294" y="-282" font-family="Helvetica,sans-Serif" font-size="10.00">gui/settings_dialog.c</text>
</a>
</g>
</g>
<!-- Node2 -->
<g id="Node000002" class="node">
<title>Node2</title>
<g id="a_Node000002"><a xlink:title=" ">
<polygon fill="#e0e0e0" stroke="#999999" points="50,-129 0,-129 0,-110 50,-110 50,-129"/>
<text text-anchor="middle" x="25" y="-117" font-family="Helvetica,sans-Serif" font-size="10.00">stdio.h</text>
</a>
</g>
</g>
<!-- Node1&#45;&gt;Node2 -->
<g id="edge1_Node000001_Node000002" class="edge">
<title>Node1&#45;&gt;Node2</title>
<g id="a_edge1_Node000001_Node000002"><a xlink:title=" ">
<path fill="none" stroke="#63b8ff" d="M263.52,-274.98C238.77,-267.4 203.44,-255.03 175,-239 121.78,-209 67.54,-160.88 41.26,-136.2"/>
<polygon fill="#63b8ff" stroke="#63b8ff" points="43.41,-133.42 33.75,-129.07 38.59,-138.49 43.41,-133.42"/>
</a>
</g>
</g>
<!-- Node3 -->
<g id="Node000003" class="node">
<title>Node3</title>
<g id="a_Node000003"><a xlink:title=" ">
<polygon fill="#e0e0e0" stroke="#999999" points="413.5,-239 360.5,-239 360.5,-220 413.5,-220 413.5,-239"/>
<text text-anchor="middle" x="387" y="-227" font-family="Helvetica,sans-Serif" font-size="10.00">string.h</text>
</a>
</g>
</g>
<!-- Node1&#45;&gt;Node3 -->
<g id="edge2_Node000001_Node000003" class="edge">
<title>Node1&#45;&gt;Node3</title>
<g id="a_edge2_Node000001_Node000003"><a xlink:title=" ">
<path fill="none" stroke="#63b8ff" d="M308.94,-274.98C323.5,-266.69 345.87,-253.94 362.93,-244.22"/>
<polygon fill="#63b8ff" stroke="#63b8ff" points="364.83,-247.16 371.79,-239.17 361.36,-241.08 364.83,-247.16"/>
</a>
</g>
</g>
<!-- Node4 -->
<g id="Node000004" class="node">
<title>Node4</title>
<g id="a_Node000004"><a xlink:title=" ">
<polygon fill="#e0e0e0" stroke="#999999" points="486,-239 432,-239 432,-220 486,-220 486,-239"/>
<text text-anchor="middle" x="459" y="-227" font-family="Helvetica,sans-Serif" font-size="10.00">dirent.h</text>
</a>
</g>
</g>
<!-- Node1&#45;&gt;Node4 -->
<g id="edge3_Node000001_Node000004" class="edge">
<title>Node1&#45;&gt;Node4</title>
<g id="a_edge3_Node000001_Node000004"><a xlink:title=" ">
<path fill="none" stroke="#63b8ff" d="M320.51,-274.98C348.21,-266.09 391.86,-252.07 422.74,-242.15"/>
<polygon fill="#63b8ff" stroke="#63b8ff" points="423.83,-245.47 432.28,-239.08 421.69,-238.81 423.83,-245.47"/>
</a>
</g>
</g>
<!-- Node5 -->
<g id="Node000005" class="node">
<title>Node5</title>
<g id="a_Node000005"><a xlink:title=" ">
<polygon fill="#e0e0e0" stroke="#999999" points="324,-184 264,-184 264,-165 324,-165 324,-184"/>
<text text-anchor="middle" x="294" y="-172" font-family="Helvetica,sans-Serif" font-size="10.00">gtk/gtk.h</text>
</a>
</g>
</g>
<!-- Node1&#45;&gt;Node5 -->
<g id="edge4_Node000001_Node000005" class="edge">
<title>Node1&#45;&gt;Node5</title>
<g id="a_edge4_Node000001_Node000005"><a xlink:title=" ">
<path fill="none" stroke="#63b8ff" d="M294,-274.66C294,-257.17 294,-217.8 294,-194.27"/>
<polygon fill="#63b8ff" stroke="#63b8ff" points="297.5,-194.16 294,-184.16 290.5,-194.16 297.5,-194.16"/>
</a>
</g>
</g>
<!-- Node6 -->
<g id="Node000006" class="node">
<title>Node6</title>
<g id="a_Node000006"><a xlink:href="gui_8h.html" target="_top" xlink:title="GTK GUI widget registry and the application&#39;s GUI/thread API.">
<polygon fill="white" stroke="#666666" points="265.5,-239 198.5,-239 198.5,-220 265.5,-220 265.5,-239"/>
<text text-anchor="middle" x="232" y="-227" font-family="Helvetica,sans-Serif" font-size="10.00">../inc/gui.h</text>
</a>
</g>
</g>
<!-- Node1&#45;&gt;Node6 -->
<g id="edge5_Node000001_Node000006" class="edge">
<title>Node1&#45;&gt;Node6</title>
<g id="a_edge5_Node000001_Node000006"><a xlink:title=" ">
<path fill="none" stroke="#63b8ff" d="M284.04,-274.98C274.87,-267.15 261.06,-255.34 249.97,-245.86"/>
<polygon fill="#63b8ff" stroke="#63b8ff" points="252.02,-243.01 242.14,-239.17 247.47,-248.33 252.02,-243.01"/>
</a>
</g>
</g>
<!-- Node10 -->
<g id="Node000010" class="node">
<title>Node10</title>
<g id="a_Node000010"><a xlink:href="app__state_8h.html" target="_top" xlink:title="Global application state shared across the GUI and worker threads.">
<polygon fill="white" stroke="#666666" points="207,-184 133,-184 133,-165 207,-165 207,-184"/>
<text text-anchor="middle" x="170" y="-172" font-family="Helvetica,sans-Serif" font-size="10.00">app_state.h</text>
</a>
</g>
</g>
<!-- Node1&#45;&gt;Node10 -->
<g id="edge18_Node000001_Node000010" class="edge">
<title>Node1&#45;&gt;Node10</title>
<g id="a_edge18_Node000001_Node000010"><a xlink:title=" ">
<path fill="none" stroke="#63b8ff" d="M252.62,-274.95C230.93,-268.48 205.51,-257.44 189,-239 177.96,-226.68 173.33,-208.17 171.39,-194.31"/>
<polygon fill="#63b8ff" stroke="#63b8ff" points="174.83,-193.58 170.31,-184 167.87,-194.31 174.83,-193.58"/>
</a>
</g>
</g>
<!-- Node13 -->
<g id="Node000013" class="node">
<title>Node13</title>
<g id="a_Node000013"><a xlink:href="socketcan_8h.html" target="_top" xlink:title="SocketCAN back&#45;end interface (Linux PF_CAN / SOCK_RAW).">
<polygon fill="white" stroke="#666666" points="443.5,-184 342.5,-184 342.5,-165 443.5,-165 443.5,-184"/>
<text text-anchor="middle" x="393" y="-172" font-family="Helvetica,sans-Serif" font-size="10.00">../inc/socketcan.h</text>
</a>
</g>
</g>
<!-- Node1&#45;&gt;Node13 -->
<g id="edge19_Node000001_Node000013" class="edge">
<title>Node1&#45;&gt;Node13</title>
<g id="a_edge19_Node000001_Node000013"><a xlink:title=" ">
<path fill="none" stroke="#63b8ff" d="M301.87,-274.86C313.01,-262.63 334.03,-239.58 352,-220 360.72,-210.5 370.5,-199.87 378.33,-191.39"/>
<polygon fill="#63b8ff" stroke="#63b8ff" points="380.92,-193.74 385.13,-184.02 375.78,-189 380.92,-193.74"/>
</a>
</g>
</g>
<!-- Node6&#45;&gt;Node5 -->
<g id="edge6_Node000006_Node000005" class="edge">
<title>Node6&#45;&gt;Node5</title>
<g id="a_edge6_Node000006_Node000005"><a xlink:title=" ">
<path fill="none" stroke="#63b8ff" d="M241.96,-219.98C251.13,-212.15 264.94,-200.34 276.03,-190.86"/>
<polygon fill="#63b8ff" stroke="#63b8ff" points="278.53,-193.33 283.86,-184.17 273.98,-188.01 278.53,-193.33"/>
</a>
</g>
</g>
<!-- Node7 -->
<g id="Node000007" class="node">
<title>Node7</title>
<g id="a_Node000007"><a xlink:href="can__message_8h.html" target="_top" xlink:title="Hardware&#45;independent CAN/CAN FD message and statistics data types.">
<polygon fill="white" stroke="#666666" points="282,-74 190,-74 190,-55 282,-55 282,-74"/>
<text text-anchor="middle" x="236" y="-62" font-family="Helvetica,sans-Serif" font-size="10.00">can_message.h</text>
</a>
</g>
</g>
<!-- Node6&#45;&gt;Node7 -->
<g id="edge7_Node000006_Node000007" class="edge">
<title>Node6&#45;&gt;Node7</title>
<g id="a_edge7_Node000006_Node000007"><a xlink:title=" ">
<path fill="none" stroke="#63b8ff" d="M232.22,-219.74C232.84,-194.31 234.66,-120.08 235.53,-84.69"/>
<polygon fill="#63b8ff" stroke="#63b8ff" points="239.04,-84.39 235.78,-74.31 232.04,-84.22 239.04,-84.39"/>
</a>
</g>
</g>
<!-- Node6&#45;&gt;Node10 -->
<g id="edge10_Node000006_Node000010" class="edge">
<title>Node6&#45;&gt;Node10</title>
<g id="a_edge10_Node000006_Node000010"><a xlink:title=" ">
<path fill="none" stroke="#63b8ff" d="M222.04,-219.98C212.87,-212.15 199.06,-200.34 187.97,-190.86"/>
<polygon fill="#63b8ff" stroke="#63b8ff" points="190.02,-188.01 180.14,-184.17 185.47,-193.33 190.02,-188.01"/>
</a>
</g>
</g>
<!-- Node8 -->
<g id="Node000008" class="node">
<title>Node8</title>
<g id="a_Node000008"><a xlink:title=" ">
<polygon fill="#e0e0e0" stroke="#999999" points="333.5,-19 280.5,-19 280.5,0 333.5,0 333.5,-19"/>
<text text-anchor="middle" x="307" y="-7" font-family="Helvetica,sans-Serif" font-size="10.00">stdint.h</text>
</a>
</g>
</g>
<!-- Node7&#45;&gt;Node8 -->
<g id="edge8_Node000007_Node000008" class="edge">
<title>Node7&#45;&gt;Node8</title>
<g id="a_edge8_Node000007_Node000008"><a xlink:title=" ">
<path fill="none" stroke="#63b8ff" d="M247.41,-54.98C258.11,-47 274.34,-34.88 287.16,-25.31"/>
<polygon fill="#63b8ff" stroke="#63b8ff" points="289.47,-27.96 295.39,-19.17 285.28,-22.35 289.47,-27.96"/>
</a>
</g>
</g>
<!-- Node9 -->
<g id="Node000009" class="node">
<title>Node9</title>
<g id="a_Node000009"><a xlink:title=" ">
<polygon fill="#e0e0e0" stroke="#999999" points="260,-19 212,-19 212,0 260,0 260,-19"/>
<text text-anchor="middle" x="236" y="-7" font-family="Helvetica,sans-Serif" font-size="10.00">time.h</text>
</a>
</g>
</g>
<!-- Node7&#45;&gt;Node9 -->
<g id="edge9_Node000007_Node000009" class="edge">
<title>Node7&#45;&gt;Node9</title>
<g id="a_edge9_Node000007_Node000009"><a xlink:title=" ">
<path fill="none" stroke="#63b8ff" d="M236,-54.75C236,-47.8 236,-37.85 236,-29.13"/>
<polygon fill="#63b8ff" stroke="#63b8ff" points="239.5,-29.09 236,-19.09 232.5,-29.09 239.5,-29.09"/>
</a>
</g>
</g>
<!-- Node10&#45;&gt;Node2 -->
<g id="edge13_Node000010_Node000002" class="edge">
<title>Node10&#45;&gt;Node2</title>
<g id="a_edge13_Node000010_Node000002"><a xlink:title=" ">
<path fill="none" stroke="#63b8ff" d="M146.7,-164.98C122.75,-156.23 85.22,-142.51 58.17,-132.62"/>
<polygon fill="#63b8ff" stroke="#63b8ff" points="59.31,-129.32 48.72,-129.17 56.91,-135.89 59.31,-129.32"/>
</a>
</g>
</g>
<!-- Node10&#45;&gt;Node7 -->
<g id="edge14_Node000010_Node000007" class="edge">
<title>Node10&#45;&gt;Node7</title>
<g id="a_edge14_Node000010_Node000007"><a xlink:title=" ">
<path fill="none" stroke="#63b8ff" d="M158.82,-164.63C144.46,-152.14 122.76,-128.77 135,-110 145.33,-94.16 162.72,-83.91 180.17,-77.31"/>
<polygon fill="#63b8ff" stroke="#63b8ff" points="181.51,-80.55 189.84,-74 179.24,-73.93 181.51,-80.55"/>
</a>
</g>
</g>
<!-- Node10&#45;&gt;Node8 -->
<g id="edge12_Node000010_Node000008" class="edge">
<title>Node10&#45;&gt;Node8</title>
<g id="a_edge12_Node000010_Node000008"><a xlink:title=" ">
<path fill="none" stroke="#63b8ff" d="M157.45,-164.89C142.15,-153.25 119.35,-131.45 128,-110 140.7,-78.52 152.45,-73.37 181,-55 196.1,-45.29 238.98,-31.06 270.55,-21.32"/>
<polygon fill="#63b8ff" stroke="#63b8ff" points="271.81,-24.59 280.35,-18.33 269.76,-17.9 271.81,-24.59"/>
</a>
</g>
</g>
<!-- Node11 -->
<g id="Node000011" class="node">
<title>Node11</title>
<g id="a_Node000011"><a xlink:title=" ">
<polygon fill="#e0e0e0" stroke="#999999" points="207.5,-129 144.5,-129 144.5,-110 207.5,-110 207.5,-129"/>
<text text-anchor="middle" x="176" y="-117" font-family="Helvetica,sans-Serif" font-size="10.00">pthread.h</text>
</a>
</g>
</g>
<!-- Node10&#45;&gt;Node11 -->
<g id="edge11_Node000010_Node000011" class="edge">
<title>Node10&#45;&gt;Node11</title>
<g id="a_edge11_Node000010_Node000011"><a xlink:title=" ">
<path fill="none" stroke="#63b8ff" d="M170.99,-164.75C171.78,-157.8 172.9,-147.85 173.89,-139.13"/>
<polygon fill="#63b8ff" stroke="#63b8ff" points="177.38,-139.42 175.03,-129.09 170.42,-138.63 177.38,-139.42"/>
</a>
</g>
</g>
<!-- Node12 -->
<g id="Node000012" class="node">
<title>Node12</title>
<g id="a_Node000012"><a xlink:href="drv__can_8h.html" target="_top" xlink:title="Generic CAN driver abstraction (vtable) and thin wrapper API.">
<polygon fill="white" stroke="#666666" points="328,-129 264,-129 264,-110 328,-110 328,-129"/>
<text text-anchor="middle" x="296" y="-117" font-family="Helvetica,sans-Serif" font-size="10.00">drv_can.h</text>
</a>
</g>
</g>
<!-- Node10&#45;&gt;Node12 -->
<g id="edge15_Node000010_Node000012" class="edge">
<title>Node10&#45;&gt;Node12</title>
<g id="a_edge15_Node000010_Node000012"><a xlink:title=" ">
<path fill="none" stroke="#63b8ff" d="M190.24,-164.98C210.7,-156.38 242.53,-142.99 265.93,-133.15"/>
<polygon fill="#63b8ff" stroke="#63b8ff" points="267.53,-136.27 275.39,-129.17 264.81,-129.82 267.53,-136.27"/>
</a>
</g>
</g>
<!-- Node12&#45;&gt;Node7 -->
<g id="edge17_Node000012_Node000007" class="edge">
<title>Node12&#45;&gt;Node7</title>
<g id="a_edge17_Node000012_Node000007"><a xlink:title=" ">
<path fill="none" stroke="#63b8ff" d="M286.36,-109.98C277.49,-102.15 264.13,-90.34 253.39,-80.86"/>
<polygon fill="#63b8ff" stroke="#63b8ff" points="255.63,-78.17 245.82,-74.17 250.99,-83.41 255.63,-78.17"/>
</a>
</g>
</g>
<!-- Node12&#45;&gt;Node8 -->
<g id="edge16_Node000012_Node000008" class="edge">
<title>Node12&#45;&gt;Node8</title>
<g id="a_edge16_Node000012_Node000008"><a xlink:title=" ">
<path fill="none" stroke="#63b8ff" d="M296.9,-109.66C298.68,-92.17 302.69,-52.8 305.09,-29.27"/>
<polygon fill="#63b8ff" stroke="#63b8ff" points="308.59,-29.46 306.12,-19.16 301.62,-28.75 308.59,-29.46"/>
</a>
</g>
</g>
<!-- Node13&#45;&gt;Node7 -->
<g id="edge21_Node000013_Node000007" class="edge">
<title>Node13&#45;&gt;Node7</title>
<g id="a_edge21_Node000013_Node000007"><a xlink:title=" ">
<path fill="none" stroke="#63b8ff" d="M387.08,-164.61C377.79,-151.23 358.59,-125.79 337,-110 317.73,-95.9 293.29,-84.99 273.28,-77.49"/>
<polygon fill="#63b8ff" stroke="#63b8ff" points="274.45,-74.19 263.85,-74.09 272.07,-80.78 274.45,-74.19"/>
</a>
</g>
</g>
<!-- Node13&#45;&gt;Node8 -->
<g id="edge20_Node000013_Node000008" class="edge">
<title>Node13&#45;&gt;Node8</title>
<g id="a_edge20_Node000013_Node000008"><a xlink:title=" ">
<path fill="none" stroke="#63b8ff" d="M388.74,-164.83C382.68,-152.56 371.19,-129.47 361,-110 345.88,-81.1 327.67,-47.85 316.73,-28.04"/>
<polygon fill="#63b8ff" stroke="#63b8ff" points="319.76,-26.29 311.86,-19.24 313.64,-29.68 319.76,-26.29"/>
</a>
</g>
</g>
<!-- Node13&#45;&gt;Node12 -->
<g id="edge22_Node000013_Node000012" class="edge">
<title>Node13&#45;&gt;Node12</title>
<g id="a_edge22_Node000013_Node000012"><a xlink:title=" ">
<path fill="none" stroke="#63b8ff" d="M377.42,-164.98C362.23,-156.69 338.9,-143.94 321.1,-134.22"/>
<polygon fill="#63b8ff" stroke="#63b8ff" points="322.32,-130.89 311.87,-129.17 318.97,-137.04 322.32,-130.89"/>
</a>
</g>
</g>
</g>
</svg>
</svg>

<style type='text/css'>
<![CDATA[
[data-mouse-over-selected='false'] { opacity: 0.7; }
[data-mouse-over-selected='true']  { opacity: 1.0; }
]]>
</style>
<script type="application/ecmascript"><![CDATA[
document.addEventListener('DOMContentLoaded', (event) => {
  highlightEdges();
  highlightAdjacentNodes();
});
]]></script>
</svg>
