<?xml version="1.0" encoding="UTF-8" standalone="no"?>
<!DOCTYPE svg PUBLIC "-//W3C//DTD SVG 1.1//EN"
 "http://www.w3.org/Graphics/SVG/1.1/DTD/svg11.dtd">
<!-- Generated by graphviz version 2.43.0 (0)
 -->
<!-- Title: gui/signal_view.c Pages: 1 -->
<svg width="579pt" height="302pt"
 viewBox="0.00 0.00 578.82 302.00" xmlns="http://www.w3.org/2000/svg" xmlns:xlink="http://www.w3.org/1999/xlink">
<g id="graph0" class="graph" transform="scale(1 1) rotate(0) translate(4 298)">
<title>gui/signal_view.c</title>
<!-- Node1 -->
<g id="Node000001" class="node">
<title>Node1</title>
<g id="a_Node000001"><a xlink:title="Signal Analysis tab — live DBC&#45;decoded individual&#45;signal table.">
<polygon fill="#999999" stroke="#666666" points="395.82,-294 295.82,-294 295.82,-275 395.82,-275 395.82,-294"/>
<text text-anchor="middle" x="345.82" y="-282" font-family="Helvetica,sans-Serif" font-size="10.00">gui/signal_view.c</text>
</a>
</g>
</g>
<!-- Node2 -->
<g id="Node000002" class="node">
<title>Node2</title>
<g id="a_Node000002"><a xlink:title=" ">
<polygon fill="#e0e0e0" stroke="#999999" points="64.82,-129 14.82,-129 14.82,-110 64.82,-110 64.82,-129"/>
<text text-anchor="middle" x="39.82" y="-117" font-family="Helvetica,sans-Serif" font-size="10.00">stdio.h</text>
</a>
</g>
</g>
<!-- Node1&#45;&gt;Node2 -->
<g id="edge1_Node000001_Node000002" class="edge">
<title>Node1&#45;&gt;Node2</title>
<g id="a_edge1_Node000001_Node000002"><a xlink:title=" ">
<path fill="none" stroke="#63b8ff" d="M327.13,-274.97C308.23,-266.24 278.26,-252.15 252.82,-239 182.99,-202.91 102.35,-156.8 63.36,-134.22"/>
<polygon fill="#63b8ff" stroke="#63b8ff" points="64.78,-131 54.37,-129 61.26,-137.05 64.78,-131"/>
</a>
</g>
</g>
<!-- Node3 -->
<g id="Node000003" class="node">
<title>Node3</title>
<g id="a_Node000003"><a xlink:title=" ">
<polygon fill="#e0e0e0" stroke="#999999" points="496.32,-239 443.32,-239 443.32,-220 496.32,-220 496.32,-239"/>
<text text-anchor="middle" x="469.82" y="-227" font-family="Helvetica,sans-Serif" font-size="10.00">string.h</text>
</a>
</g>
</g>
<!-- Node1&#45;&gt;Node3 -->
<g id="edge2_Node000001_Node000003" class="edge">
<title>Node1&#45;&gt;Node3</title>
<g id="a_edge2_Node000001_Node000003"><a xlink:title=" ">
<path fill="none" stroke="#63b8ff" d="M365.74,-274.98C385.87,-266.38 417.2,-252.99 440.23,-243.15"/>
<polygon fill="#63b8ff" stroke="#63b8ff" points="441.72,-246.32 449.54,-239.17 438.96,-239.88 441.72,-246.32"/>
</a>
</g>
</g>
<!-- Node4 -->
<g id="Node000004" class="node">
<title>Node4</title>
<g id="a_Node000004"><a xlink:title=" ">
<polygon fill="#e0e0e0" stroke="#999999" points="570.82,-239 514.82,-239 514.82,-220 570.82,-220 570.82,-239"/>
<text text-anchor="middle" x="542.82" y="-227" font-family="Helvetica,sans-Serif" font-size="10.00">unistd.h</text>
</a>
</g>
</g>
<!-- Node1&#45;&gt;Node4 -->
<g id="edge3_Node000001_Node000004" class="edge">
<title>Node1&#45;&gt;Node4</title>
<g id="a_edge3_Node000001_Node000004"><a xlink:title=" ">
<path fill="none" stroke="#63b8ff" d="M377.47,-274.98C412.17,-265.65 467.82,-250.68 504.84,-240.72"/>
<polygon fill="#63b8ff" stroke="#63b8ff" points="506.01,-244.03 514.76,-238.05 504.19,-237.27 506.01,-244.03"/>
</a>
</g>
</g>
<!-- Node5 -->
<g id="Node000005" class="node">
<title>Node5</title>
<g id="a_Node000005"><a xlink:title=" ">
<polygon fill="#e0e0e0" stroke="#999999" points="476.82,-184 416.82,-184 416.82,-165 476.82,-165 476.82,-184"/>
<text text-anchor="middle" x="446.82" y="-172" font-family="Helvetica,sans-Serif" font-size="10.00">gtk/gtk.h</text>
</a>
</g>
</g>
<!-- Node1&#45;&gt;Node5 -->
<g id="edge4_Node000001_Node000005" class="edge">
<title>Node1&#45;&gt;Node5</title>
<g id="a_edge4_Node000001_Node000005"><a xlink:title=" ">
<path fill="none" stroke="#63b8ff" d="M354.09,-274.66C371.11,-256.46 410.3,-214.55 431.89,-191.47"/>
<polygon fill="#63b8ff" stroke="#63b8ff" points="434.45,-193.85 438.72,-184.16 429.34,-189.07 434.45,-193.85"/>
</a>
</g>
</g>
<!-- Node6 -->
<g id="Node000006" class="node">
<title>Node6</title>
<g id="a_Node000006"><a xlink:href="gui_8h.html" target="_top" xlink:title="GTK GUI widget registry and the application&#39;s GUI/thread API.">
<polygon fill="white" stroke="#666666" points="348.32,-239 281.32,-239 281.32,-220 348.32,-220 348.32,-239"/>
<text text-anchor="middle" x="314.82" y="-227" font-family="Helvetica,sans-Serif" font-size="10.00">../inc/gui.h</text>
</a>
</g>
</g>
<!-- Node1&#45;&gt;Node6 -->
<g id="edge5_Node000001_Node000006" class="edge">
<title>Node1&#45;&gt;Node6</title>
<g id="a_edge5_Node000001_Node000006"><a xlink:title=" ">
<path fill="none" stroke="#63b8ff" d="M340.7,-274.75C336.46,-267.49 330.29,-256.95 325.05,-247.98"/>
<polygon fill="#63b8ff" stroke="#63b8ff" points="327.91,-245.95 319.84,-239.09 321.87,-249.49 327.91,-245.95"/>
</a>
</g>
</g>
<!-- Node7 -->
<g id="Node000007" class="node">
<title>Node7</title>
<g id="a_Node000007"><a xlink:href="can__message_8h.html" target="_top" xlink:title="Hardware&#45;independent CAN/CAN FD message and statistics data types.">
<polygon fill="white" stroke="#666666" points="228.82,-74 136.82,-74 136.82,-55 228.82,-55 228.82,-74"/>
<text text-anchor="middle" x="182.82" y="-62" font-family="Helvetica,sans-Serif" font-size="10.00">can_message.h</text>
</a>
</g>
</g>
<!-- Node1&#45;&gt;Node7 -->
<g id="edge22_Node000001_Node000007" class="edge">
<title>Node1&#45;&gt;Node7</title>
<g id="a_edge22_Node000001_Node000007"><a xlink:title=" ">
<path fill="none" stroke="#63b8ff" d="M295.54,-278.04C216.96,-266.45 67.65,-231.41 5.82,-129 -22.87,-81.48 64.64,-69.07 126.64,-66.1"/>
<polygon fill="#63b8ff" stroke="#63b8ff" points="126.89,-69.59 136.74,-65.68 126.6,-62.6 126.89,-69.59"/>
</a>
</g>
</g>
<!-- Node10 -->
<g id="Node000010" class="node">
<title>Node10</title>
<g id="a_Node000010"><a xlink:href="app__state_8h.html" target="_top" xlink:title="Global application state shared across the GUI and worker threads.">
<polygon fill="white" stroke="#666666" points="271.82,-184 197.82,-184 197.82,-165 271.82,-165 271.82,-184"/>
<text text-anchor="middle" x="234.82" y="-172" font-family="Helvetica,sans-Serif" font-size="10.00">app_state.h</text>
</a>
</g>
</g>
<!-- Node1&#45;&gt;Node10 -->
<g id="edge21_Node000001_Node000010" class="edge">
<title>Node1&#45;&gt;Node10</title>
<g id="a_edge21_Node000001_Node000010"><a xlink:title=" ">
<path fill="none" stroke="#63b8ff" d="M326.38,-274.91C310.57,-267.2 288.39,-254.7 272.82,-239 259.7,-225.77 249.25,-207.15 242.65,-193.49"/>
<polygon fill="#63b8ff" stroke="#63b8ff" points="245.74,-191.82 238.38,-184.19 239.37,-194.74 245.74,-191.82"/>
</a>
</g>
</g>
<!-- Node13 -->
<g id="Node000013" class="node">
<title>Node13</title>
<g id="a_Node000013"><a xlink:href="dbc_8h.html" target="_top" xlink:title="Minimal CAN database (DBC) model, parser, and signal decoder.">
<polygon fill="white" stroke="#666666" points="398.32,-184 355.32,-184 355.32,-165 398.32,-165 398.32,-184"/>
<text text-anchor="middle" x="376.82" y="-172" font-family="Helvetica,sans-Serif" font-size="10.00">dbc.h</text>
</a>
</g>
</g>
<!-- Node1&#45;&gt;Node13 -->
<g id="edge23_Node000001_Node000013" class="edge">
<title>Node1&#45;&gt;Node13</title>
<g id="a_edge23_Node000001_Node000013"><a xlink:title=" ">
<path fill="none" stroke="#63b8ff" d="M348.36,-274.66C353.4,-257.09 364.78,-217.45 371.52,-193.95"/>
<polygon fill="#63b8ff" stroke="#63b8ff" points="374.94,-194.74 374.34,-184.16 368.21,-192.8 374.94,-194.74"/>
</a>
</g>
</g>
<!-- Node6&#45;&gt;Node5 -->
<g id="edge6_Node000006_Node000005" class="edge">
<title>Node6&#45;&gt;Node5</title>
<g id="a_edge6_Node000006_Node000005"><a xlink:title=" ">
<path fill="none" stroke="#63b8ff" d="M336.03,-219.98C357.55,-211.34 391.1,-197.87 415.65,-188.02"/>
<polygon fill="#63b8ff" stroke="#63b8ff" points="417.25,-191.14 425.23,-184.17 414.64,-184.65 417.25,-191.14"/>
</a>
</g>
</g>
<!-- Node6&#45;&gt;Node7 -->
<g id="edge7_Node000006_Node000007" class="edge">
<title>Node6&#45;&gt;Node7</title>
<g id="a_edge7_Node000006_Node000007"><a xlink:title=" ">
<path fill="none" stroke="#63b8ff" d="M314.26,-219.93C312.44,-198.73 305,-143.18 275.82,-110 262.56,-94.92 243.05,-84.5 225.33,-77.57"/>
<polygon fill="#63b8ff" stroke="#63b8ff" points="226.31,-74.2 215.71,-74.07 223.91,-80.78 226.31,-74.2"/>
</a>
</g>
</g>
<!-- Node6&#45;&gt;Node10 -->
<g id="edge10_Node000006_Node000010" class="edge">
<title>Node6&#45;&gt;Node10</title>
<g id="a_edge10_Node000006_Node000010"><a xlink:title=" ">
<path fill="none" stroke="#63b8ff" d="M301.97,-219.98C289.68,-211.84 270.91,-199.41 256.34,-189.76"/>
<polygon fill="#63b8ff" stroke="#63b8ff" points="258.18,-186.78 247.91,-184.17 254.31,-192.61 258.18,-186.78"/>
</a>
</g>
</g>
<!-- Node6&#45;&gt;Node13 -->
<g id="edge18_Node000006_Node000013" class="edge">
<title>Node6&#45;&gt;Node13</title>
<g id="a_edge18_Node000006_Node000013"><a xlink:title=" ">
<path fill="none" stroke="#63b8ff" d="M324.78,-219.98C333.95,-212.15 347.76,-200.34 358.85,-190.86"/>
<polygon fill="#63b8ff" stroke="#63b8ff" points="361.35,-193.33 366.68,-184.17 356.8,-188.01 361.35,-193.33"/>
</a>
</g>
</g>
<!-- Node8 -->
<g id="Node000008" class="node">
<title>Node8</title>
<g id="a_Node000008"><a xlink:title=" ">
<polygon fill="#e0e0e0" stroke="#999999" points="302.32,-19 249.32,-19 249.32,0 302.32,0 302.32,-19"/>
<text text-anchor="middle" x="275.82" y="-7" font-family="Helvetica,sans-Serif" font-size="10.00">stdint.h</text>
</a>
</g>
</g>
<!-- Node7&#45;&gt;Node8 -->
<g id="edge8_Node000007_Node000008" class="edge">
<title>Node7&#45;&gt;Node8</title>
<g id="a_edge8_Node000007_Node000008"><a xlink:title=" ">
<path fill="none" stroke="#63b8ff" d="M197.76,-54.98C212.32,-46.69 234.69,-33.94 251.75,-24.22"/>
<polygon fill="#63b8ff" stroke="#63b8ff" points="253.65,-27.16 260.61,-19.17 250.19,-21.08 253.65,-27.16"/>
</a>
</g>
</g>
<!-- Node9 -->
<g id="Node000009" class="node">
<title>Node9</title>
<g id="a_Node000009"><a xlink:title=" ">
<polygon fill="#e0e0e0" stroke="#999999" points="206.82,-19 158.82,-19 158.82,0 206.82,0 206.82,-19"/>
<text text-anchor="middle" x="182.82" y="-7" font-family="Helvetica,sans-Serif" font-size="10.00">time.h</text>
</a>
</g>
</g>
<!-- Node7&#45;&gt;Node9 -->
<g id="edge9_Node000007_Node000009" class="edge">
<title>Node7&#45;&gt;Node9</title>
<g id="a_edge9_Node000007_Node000009"><a xlink:title=" ">
<path fill="none" stroke="#63b8ff" d="M182.82,-54.75C182.82,-47.8 182.82,-37.85 182.82,-29.13"/>
<polygon fill="#63b8ff" stroke="#63b8ff" points="186.32,-29.09 182.82,-19.09 179.32,-29.09 186.32,-29.09"/>
</a>
</g>
</g>
<!-- Node10&#45;&gt;Node2 -->
<g id="edge13_Node000010_Node000002" class="edge">
<title>Node10&#45;&gt;Node2</title>
<g id="a_edge13_Node000010_Node000002"><a xlink:title=" ">
<path fill="none" stroke="#63b8ff" d="M203.49,-164.98C168.26,-155.41 111.21,-139.9 74.62,-129.96"/>
<polygon fill="#63b8ff" stroke="#63b8ff" points="75.44,-126.55 64.87,-127.31 73.61,-133.31 75.44,-126.55"/>
</a>
</g>
</g>
<!-- Node10&#45;&gt;Node7 -->
<g id="edge14_Node000010_Node000007" class="edge">
<title>Node10&#45;&gt;Node7</title>
<g id="a_edge14_Node000010_Node000007"><a xlink:title=" ">
<path fill="none" stroke="#63b8ff" d="M223.89,-164.85C214.36,-156.67 200.97,-143.51 193.82,-129 186.93,-115.03 184.28,-97.47 183.3,-84.36"/>
<polygon fill="#63b8ff" stroke="#63b8ff" points="186.79,-84.01 182.8,-74.19 179.8,-84.35 186.79,-84.01"/>
</a>
</g>
</g>
<!-- Node10&#45;&gt;Node8 -->
<g id="edge12_Node000010_Node000008" class="edge">
<title>Node10&#45;&gt;Node8</title>
<g id="a_edge12_Node000010_Node000008"><a xlink:title=" ">
<path fill="none" stroke="#63b8ff" d="M246.75,-164.8C256.65,-156.77 270.01,-143.87 275.82,-129 288.8,-95.75 284.19,-53.13 279.86,-29.12"/>
<polygon fill="#63b8ff" stroke="#63b8ff" points="283.28,-28.35 277.9,-19.22 276.41,-29.71 283.28,-28.35"/>
</a>
</g>
</g>
<!-- Node11 -->
<g id="Node000011" class="node">
<title>Node11</title>
<g id="a_Node000011"><a xlink:title=" ">
<polygon fill="#e0e0e0" stroke="#999999" points="146.32,-129 83.32,-129 83.32,-110 146.32,-110 146.32,-129"/>
<text text-anchor="middle" x="114.82" y="-117" font-family="Helvetica,sans-Serif" font-size="10.00">pthread.h</text>
</a>
</g>
</g>
<!-- Node10&#45;&gt;Node11 -->
<g id="edge11_Node000010_Node000011" class="edge">
<title>Node10&#45;&gt;Node11</title>
<g id="a_edge11_Node000010_Node000011"><a xlink:title=" ">
<path fill="none" stroke="#63b8ff" d="M215.54,-164.98C196.15,-156.42 166.01,-143.11 143.76,-133.28"/>
<polygon fill="#63b8ff" stroke="#63b8ff" points="145.01,-130.01 134.45,-129.17 142.19,-136.41 145.01,-130.01"/>
</a>
</g>
</g>
<!-- Node12 -->
<g id="Node000012" class="node">
<title>Node12</title>
<g id="a_Node000012"><a xlink:href="drv__can_8h.html" target="_top" xlink:title="Generic CAN driver abstraction (vtable) and thin wrapper API.">
<polygon fill="white" stroke="#666666" points="266.82,-129 202.82,-129 202.82,-110 266.82,-110 266.82,-129"/>
<text text-anchor="middle" x="234.82" y="-117" font-family="Helvetica,sans-Serif" font-size="10.00">drv_can.h</text>
</a>
</g>
</g>
<!-- Node10&#45;&gt;Node12 -->
<g id="edge15_Node000010_Node000012" class="edge">
<title>Node10&#45;&gt;Node12</title>
<g id="a_edge15_Node000010_Node000012"><a xlink:title=" ">
<path fill="none" stroke="#63b8ff" d="M234.82,-164.75C234.82,-157.8 234.82,-147.85 234.82,-139.13"/>
<polygon fill="#63b8ff" stroke="#63b8ff" points="238.32,-139.09 234.82,-129.09 231.32,-139.09 238.32,-139.09"/>
</a>
</g>
</g>
<!-- Node12&#45;&gt;Node7 -->
<g id="edge17_Node000012_Node000007" class="edge">
<title>Node12&#45;&gt;Node7</title>
<g id="a_edge17_Node000012_Node000007"><a xlink:title=" ">
<path fill="none" stroke="#63b8ff" d="M226.23,-109.75C218.66,-102.03 207.44,-90.6 198.31,-81.28"/>
<polygon fill="#63b8ff" stroke="#63b8ff" points="200.75,-78.78 191.25,-74.09 195.75,-83.68 200.75,-78.78"/>
</a>
</g>
</g>
<!-- Node12&#45;&gt;Node8 -->
<g id="edge16_Node000012_Node000008" class="edge">
<title>Node12&#45;&gt;Node8</title>
<g id="a_edge16_Node000012_Node000008"><a xlink:title=" ">
<path fill="none" stroke="#63b8ff" d="M238.18,-109.66C244.88,-92.01 260.03,-52.09 268.94,-28.64"/>
<polygon fill="#63b8ff" stroke="#63b8ff" points="272.26,-29.75 272.53,-19.16 265.71,-27.27 272.26,-29.75"/>
</a>
</g>
</g>
<!-- Node13&#45;&gt;Node8 -->
<g id="edge20_Node000013_Node000008" class="edge">
<title>Node13&#45;&gt;Node8</title>
<g id="a_edge20_Node000013_Node000008"><a xlink:title=" ">
<path fill="none" stroke="#63b8ff" d="M373.22,-164.62C368.02,-152.11 357.8,-128.72 346.82,-110 328.93,-79.5 304.25,-46.56 289.2,-27.27"/>
<polygon fill="#63b8ff" stroke="#63b8ff" points="291.78,-24.88 282.84,-19.19 286.28,-29.21 291.78,-24.88"/>
</a>
</g>
</g>
<!-- Node14 -->
<g id="Node000014" class="node">
<title>Node14</title>
<g id="a_Node000014"><a xlink:title=" ">
<polygon fill="#e0e0e0" stroke="#999999" points="454.82,-129 398.82,-129 398.82,-110 454.82,-110 454.82,-129"/>
<text text-anchor="middle" x="426.82" y="-117" font-family="Helvetica,sans-Serif" font-size="10.00">stddef.h</text>
</a>
</g>
</g>
<!-- Node13&#45;&gt;Node14 -->
<g id="edge19_Node000013_Node000014" class="edge">
<title>Node13&#45;&gt;Node14</title>
<g id="a_edge19_Node000013_Node000014"><a xlink:title=" ">
<path fill="none" stroke="#63b8ff" d="M385.08,-164.75C392.29,-157.11 402.93,-145.82 411.67,-136.56"/>
<polygon fill="#63b8ff" stroke="#63b8ff" points="414.4,-138.76 418.72,-129.09 409.31,-133.96 414.4,-138.76"/>
</a>
</g>
</g>
</g>
</svg>
