<?xml version="1.0" encoding="UTF-8" standalone="no"?>
<!DOCTYPE svg PUBLIC "-//W3C//DTD SVG 1.1//EN"
 "http://www.w3.org/Graphics/SVG/1.1/DTD/svg11.dtd">
<!-- Generated by graphviz version 2.43.0 (0)
 -->
<!-- Title: gui/signal_plot.c Pages: 1 -->
<svg width="488pt" height="302pt"
 viewBox="0.00 0.00 487.50 302.00" xmlns="http://www.w3.org/2000/svg" xmlns:xlink="http://www.w3.org/1999/xlink">
<g id="graph0" class="graph" transform="scale(1 1) rotate(0) translate(4 298)">
<title>gui/signal_plot.c</title>
<!-- Node1 -->
<g id="Node000001" class="node">
<title>Node1</title>
<g id="a_Node000001"><a xlink:title="Signal Analysis Viewer — multi&#45;signal value&#45;over&#45;time graph (Cairo).">
<polygon fill="#999999" stroke="#666666" points="295.5,-294 199.5,-294 199.5,-275 295.5,-275 295.5,-294"/>
<text text-anchor="middle" x="247.5" y="-282" font-family="Helvetica,sans-Serif" font-size="10.00">gui/signal_plot.c</text>
</a>
</g>
</g>
<!-- Node2 -->
<g id="Node000002" class="node">
<title>Node2</title>
<g id="a_Node000002"><a xlink:title=" ">
<polygon fill="#e0e0e0" stroke="#999999" points="51,-239 0,-239 0,-220 51,-220 51,-239"/>
<text text-anchor="middle" x="25.5" y="-227" font-family="Helvetica,sans-Serif" font-size="10.00">math.h</text>
</a>
</g>
</g>
<!-- Node1&#45;&gt;Node2 -->
<g id="edge1_Node000001_Node000002" class="edge">
<title>Node1&#45;&gt;Node2</title>
<g id="a_edge1_Node000001_Node000002"><a xlink:title=" ">
<path fill="none" stroke="#63b8ff" d="M211.83,-274.98C170.36,-265.08 102.34,-248.84 60.96,-238.97"/>
<polygon fill="#63b8ff" stroke="#63b8ff" points="61.59,-235.52 51.05,-236.6 59.96,-242.33 61.59,-235.52"/>
</a>
</g>
</g>
<!-- Node3 -->
<g id="Node000003" class="node">
<title>Node3</title>
<g id="a_Node000003"><a xlink:title=" ">
<polygon fill="#e0e0e0" stroke="#999999" points="89.5,-129 39.5,-129 39.5,-110 89.5,-110 89.5,-129"/>
<text text-anchor="middle" x="64.5" y="-117" font-family="Helvetica,sans-Serif" font-size="10.00">stdio.h</text>
</a>
</g>
</g>
<!-- Node1&#45;&gt;Node3 -->
<g id="edge2_Node000001_Node000003" class="edge">
<title>Node1&#45;&gt;Node3</title>
<g id="a_edge2_Node000001_Node000003"><a xlink:title=" ">
<path fill="none" stroke="#63b8ff" d="M230.7,-274.98C215.32,-266.8 192.32,-253.56 174.5,-239 135.39,-207.05 96.93,-161.48 77.51,-137.22"/>
<polygon fill="#63b8ff" stroke="#63b8ff" points="80.2,-134.98 71.26,-129.3 74.71,-139.32 80.2,-134.98"/>
</a>
</g>
</g>
<!-- Node4 -->
<g id="Node000004" class="node">
<title>Node4</title>
<g id="a_Node000004"><a xlink:title=" ">
<polygon fill="#e0e0e0" stroke="#999999" points="398,-239 345,-239 345,-220 398,-220 398,-239"/>
<text text-anchor="middle" x="371.5" y="-227" font-family="Helvetica,sans-Serif" font-size="10.00">string.h</text>
</a>
</g>
</g>
<!-- Node1&#45;&gt;Node4 -->
<g id="edge3_Node000001_Node000004" class="edge">
<title>Node1&#45;&gt;Node4</title>
<g id="a_edge3_Node000001_Node000004"><a xlink:title=" ">
<path fill="none" stroke="#63b8ff" d="M267.42,-274.98C287.55,-266.38 318.88,-252.99 341.91,-243.15"/>
<polygon fill="#63b8ff" stroke="#63b8ff" points="343.4,-246.32 351.21,-239.17 340.64,-239.88 343.4,-246.32"/>
</a>
</g>
</g>
<!-- Node5 -->
<g id="Node000005" class="node">
<title>Node5</title>
<g id="a_Node000005"><a xlink:title=" ">
<polygon fill="#e0e0e0" stroke="#999999" points="386.5,-184 326.5,-184 326.5,-165 386.5,-165 386.5,-184"/>
<text text-anchor="middle" x="356.5" y="-172" font-family="Helvetica,sans-Serif" font-size="10.00">gtk/gtk.h</text>
</a>
</g>
</g>
<!-- Node1&#45;&gt;Node5 -->
<g id="edge4_Node000001_Node000005" class="edge">
<title>Node1&#45;&gt;Node5</title>
<g id="a_edge4_Node000001_Node000005"><a xlink:title=" ">
<path fill="none" stroke="#63b8ff" d="M256.42,-274.66C274.79,-256.46 317.09,-214.55 340.38,-191.47"/>
<polygon fill="#63b8ff" stroke="#63b8ff" points="343.12,-193.68 347.76,-184.16 338.19,-188.71 343.12,-193.68"/>
</a>
</g>
</g>
<!-- Node6 -->
<g id="Node000006" class="node">
<title>Node6</title>
<g id="a_Node000006"><a xlink:href="gui_8h.html" target="_top" xlink:title="GTK GUI widget registry and the application&#39;s GUI/thread API.">
<polygon fill="white" stroke="#666666" points="250,-239 183,-239 183,-220 250,-220 250,-239"/>
<text text-anchor="middle" x="216.5" y="-227" font-family="Helvetica,sans-Serif" font-size="10.00">../inc/gui.h</text>
</a>
</g>
</g>
<!-- Node1&#45;&gt;Node6 -->
<g id="edge5_Node000001_Node000006" class="edge">
<title>Node1&#45;&gt;Node6</title>
<g id="a_edge5_Node000001_Node000006"><a xlink:title=" ">
<path fill="none" stroke="#63b8ff" d="M242.38,-274.75C238.14,-267.49 231.97,-256.95 226.72,-247.98"/>
<polygon fill="#63b8ff" stroke="#63b8ff" points="229.59,-245.95 221.52,-239.09 223.55,-249.49 229.59,-245.95"/>
</a>
</g>
</g>
<!-- Node13 -->
<g id="Node000013" class="node">
<title>Node13</title>
<g id="a_Node000013"><a xlink:href="dbc_8h.html" target="_top" xlink:title="Minimal CAN database (DBC) model, parser, and signal decoder.">
<polygon fill="white" stroke="#666666" points="308,-184 265,-184 265,-165 308,-165 308,-184"/>
<text text-anchor="middle" x="286.5" y="-172" font-family="Helvetica,sans-Serif" font-size="10.00">dbc.h</text>
</a>
</g>
</g>
<!-- Node1&#45;&gt;Node13 -->
<g id="edge21_Node000001_Node000013" class="edge">
<title>Node1&#45;&gt;Node13</title>
<g id="a_edge21_Node000001_Node000013"><a xlink:title=" ">
<path fill="none" stroke="#63b8ff" d="M250.69,-274.66C257.07,-257.01 271.48,-217.09 279.95,-193.64"/>
<polygon fill="#63b8ff" stroke="#63b8ff" points="283.27,-194.75 283.37,-184.16 276.68,-192.38 283.27,-194.75"/>
</a>
</g>
</g>
<!-- Node6&#45;&gt;Node5 -->
<g id="edge6_Node000006_Node000005" class="edge">
<title>Node6&#45;&gt;Node5</title>
<g id="a_edge6_Node000006_Node000005"><a xlink:title=" ">
<path fill="none" stroke="#63b8ff" d="M238.99,-219.98C262.02,-211.27 298.04,-197.63 324.13,-187.75"/>
<polygon fill="#63b8ff" stroke="#63b8ff" points="325.48,-190.98 333.6,-184.17 323.01,-184.44 325.48,-190.98"/>
</a>
</g>
</g>
<!-- Node7 -->
<g id="Node000007" class="node">
<title>Node7</title>
<g id="a_Node000007"><a xlink:href="can__message_8h.html" target="_top" xlink:title="Hardware&#45;independent CAN/CAN FD message and statistics data types.">
<polygon fill="white" stroke="#666666" points="285.5,-74 193.5,-74 193.5,-55 285.5,-55 285.5,-74"/>
<text text-anchor="middle" x="239.5" y="-62" font-family="Helvetica,sans-Serif" font-size="10.00">can_message.h</text>
</a>
</g>
</g>
<!-- Node6&#45;&gt;Node7 -->
<g id="edge7_Node000006_Node000007" class="edge">
<title>Node6&#45;&gt;Node7</title>
<g id="a_edge7_Node000006_Node000007"><a xlink:title=" ">
<path fill="none" stroke="#63b8ff" d="M202.92,-219.91C173.87,-200.43 110.41,-151.37 137.5,-110 148.04,-93.91 165.81,-83.6 183.59,-77.01"/>
<polygon fill="#63b8ff" stroke="#63b8ff" points="185.05,-80.22 193.42,-73.72 182.83,-73.58 185.05,-80.22"/>
</a>
</g>
</g>
<!-- Node10 -->
<g id="Node000010" class="node">
<title>Node10</title>
<g id="a_Node000010"><a xlink:href="app__state_8h.html" target="_top" xlink:title="Global application state shared across the GUI and worker threads.">
<polygon fill="white" stroke="#666666" points="246.5,-184 172.5,-184 172.5,-165 246.5,-165 246.5,-184"/>
<text text-anchor="middle" x="209.5" y="-172" font-family="Helvetica,sans-Serif" font-size="10.00">app_state.h</text>
</a>
</g>
</g>
<!-- Node6&#45;&gt;Node10 -->
<g id="edge10_Node000006_Node000010" class="edge">
<title>Node6&#45;&gt;Node10</title>
<g id="a_edge10_Node000006_Node000010"><a xlink:title=" ">
<path fill="none" stroke="#63b8ff" d="M215.34,-219.75C214.43,-212.8 213.11,-202.85 211.96,-194.13"/>
<polygon fill="#63b8ff" stroke="#63b8ff" points="215.41,-193.54 210.63,-184.09 208.47,-194.46 215.41,-193.54"/>
</a>
</g>
</g>
<!-- Node6&#45;&gt;Node13 -->
<g id="edge18_Node000006_Node000013" class="edge">
<title>Node6&#45;&gt;Node13</title>
<g id="a_edge18_Node000006_Node000013"><a xlink:title=" ">
<path fill="none" stroke="#63b8ff" d="M227.75,-219.98C238.3,-212 254.3,-199.88 266.94,-190.31"/>
<polygon fill="#63b8ff" stroke="#63b8ff" points="269.19,-193 275.05,-184.17 264.96,-187.42 269.19,-193"/>
</a>
</g>
</g>
<!-- Node8 -->
<g id="Node000008" class="node">
<title>Node8</title>
<g id="a_Node000008"><a xlink:title=" ">
<polygon fill="#e0e0e0" stroke="#999999" points="364,-19 311,-19 311,0 364,0 364,-19"/>
<text text-anchor="middle" x="337.5" y="-7" font-family="Helvetica,sans-Serif" font-size="10.00">stdint.h</text>
</a>
</g>
</g>
<!-- Node7&#45;&gt;Node8 -->
<g id="edge8_Node000007_Node000008" class="edge">
<title>Node7&#45;&gt;Node8</title>
<g id="a_edge8_Node000007_Node000008"><a xlink:title=" ">
<path fill="none" stroke="#63b8ff" d="M255.25,-54.98C270.73,-46.61 294.59,-33.7 312.64,-23.95"/>
<polygon fill="#63b8ff" stroke="#63b8ff" points="314.34,-27.01 321.47,-19.17 311.01,-20.85 314.34,-27.01"/>
</a>
</g>
</g>
<!-- Node9 -->
<g id="Node000009" class="node">
<title>Node9</title>
<g id="a_Node000009"><a xlink:title=" ">
<polygon fill="#e0e0e0" stroke="#999999" points="263.5,-19 215.5,-19 215.5,0 263.5,0 263.5,-19"/>
<text text-anchor="middle" x="239.5" y="-7" font-family="Helvetica,sans-Serif" font-size="10.00">time.h</text>
</a>
</g>
</g>
<!-- Node7&#45;&gt;Node9 -->
<g id="edge9_Node000007_Node000009" class="edge">
<title>Node7&#45;&gt;Node9</title>
<g id="a_edge9_Node000007_Node000009"><a xlink:title=" ">
<path fill="none" stroke="#63b8ff" d="M239.5,-54.75C239.5,-47.8 239.5,-37.85 239.5,-29.13"/>
<polygon fill="#63b8ff" stroke="#63b8ff" points="243,-29.09 239.5,-19.09 236,-29.09 243,-29.09"/>
</a>
</g>
</g>
<!-- Node10&#45;&gt;Node3 -->
<g id="edge13_Node000010_Node000003" class="edge">
<title>Node10&#45;&gt;Node3</title>
<g id="a_edge13_Node000010_Node000003"><a xlink:title=" ">
<path fill="none" stroke="#63b8ff" d="M186.2,-164.98C162.25,-156.23 124.72,-142.51 97.67,-132.62"/>
<polygon fill="#63b8ff" stroke="#63b8ff" points="98.81,-129.32 88.22,-129.17 96.41,-135.89 98.81,-129.32"/>
</a>
</g>
</g>
<!-- Node10&#45;&gt;Node7 -->
<g id="edge14_Node000010_Node000007" class="edge">
<title>Node10&#45;&gt;Node7</title>
<g id="a_edge14_Node000010_Node000007"><a xlink:title=" ">
<path fill="none" stroke="#63b8ff" d="M211.96,-164.66C216.84,-147.09 227.85,-107.45 234.37,-83.95"/>
<polygon fill="#63b8ff" stroke="#63b8ff" points="237.79,-84.73 237.09,-74.16 231.05,-82.86 237.79,-84.73"/>
</a>
</g>
</g>
<!-- Node10&#45;&gt;Node8 -->
<g id="edge12_Node000010_Node000008" class="edge">
<title>Node10&#45;&gt;Node8</title>
<g id="a_edge12_Node000010_Node000008"><a xlink:title=" ">
<path fill="none" stroke="#63b8ff" d="M246.64,-165.7C280.75,-157.7 327.6,-144.29 338.5,-129 359.62,-99.38 351.08,-54.14 343.79,-28.99"/>
<polygon fill="#63b8ff" stroke="#63b8ff" points="347.07,-27.75 340.73,-19.26 340.39,-29.85 347.07,-27.75"/>
</a>
</g>
</g>
<!-- Node11 -->
<g id="Node000011" class="node">
<title>Node11</title>
<g id="a_Node000011"><a xlink:title=" ">
<polygon fill="#e0e0e0" stroke="#999999" points="209,-129 146,-129 146,-110 209,-110 209,-129"/>
<text text-anchor="middle" x="177.5" y="-117" font-family="Helvetica,sans-Serif" font-size="10.00">pthread.h</text>
</a>
</g>
</g>
<!-- Node10&#45;&gt;Node11 -->
<g id="edge11_Node000010_Node000011" class="edge">
<title>Node10&#45;&gt;Node11</title>
<g id="a_edge11_Node000010_Node000011"><a xlink:title=" ">
<path fill="none" stroke="#63b8ff" d="M204.22,-164.75C199.79,-157.42 193.34,-146.73 187.88,-137.7"/>
<polygon fill="#63b8ff" stroke="#63b8ff" points="190.85,-135.84 182.69,-129.09 184.86,-139.46 190.85,-135.84"/>
</a>
</g>
</g>
<!-- Node12 -->
<g id="Node000012" class="node">
<title>Node12</title>
<g id="a_Node000012"><a xlink:href="drv__can_8h.html" target="_top" xlink:title="Generic CAN driver abstraction (vtable) and thin wrapper API.">
<polygon fill="white" stroke="#666666" points="329.5,-129 265.5,-129 265.5,-110 329.5,-110 329.5,-129"/>
<text text-anchor="middle" x="297.5" y="-117" font-family="Helvetica,sans-Serif" font-size="10.00">drv_can.h</text>
</a>
</g>
</g>
<!-- Node10&#45;&gt;Node12 -->
<g id="edge15_Node000010_Node000012" class="edge">
<title>Node10&#45;&gt;Node12</title>
<g id="a_edge15_Node000010_Node000012"><a xlink:title=" ">
<path fill="none" stroke="#63b8ff" d="M223.64,-164.98C237.29,-156.77 258.19,-144.18 274.28,-134.49"/>
<polygon fill="#63b8ff" stroke="#63b8ff" points="276.34,-137.33 283.1,-129.17 272.73,-131.33 276.34,-137.33"/>
</a>
</g>
</g>
<!-- Node12&#45;&gt;Node7 -->
<g id="edge17_Node000012_Node000007" class="edge">
<title>Node12&#45;&gt;Node7</title>
<g id="a_edge17_Node000012_Node000007"><a xlink:title=" ">
<path fill="none" stroke="#63b8ff" d="M288.18,-109.98C279.69,-102.23 266.94,-90.58 256.62,-81.14"/>
<polygon fill="#63b8ff" stroke="#63b8ff" points="258.73,-78.33 248.99,-74.17 254.01,-83.5 258.73,-78.33"/>
</a>
</g>
</g>
<!-- Node12&#45;&gt;Node8 -->
<g id="edge16_Node000012_Node000008" class="edge">
<title>Node12&#45;&gt;Node8</title>
<g id="a_edge16_Node000012_Node000008"><a xlink:title=" ">
<path fill="none" stroke="#63b8ff" d="M300.77,-109.66C307.31,-92.01 322.1,-52.09 330.78,-28.64"/>
<polygon fill="#63b8ff" stroke="#63b8ff" points="334.1,-29.75 334.29,-19.16 327.54,-27.32 334.1,-29.75"/>
</a>
</g>
</g>
<!-- Node13&#45;&gt;Node8 -->
<g id="edge20_Node000013_Node000008" class="edge">
<title>Node13&#45;&gt;Node8</title>
<g id="a_edge20_Node000013_Node000008"><a xlink:title=" ">
<path fill="none" stroke="#63b8ff" d="M308.39,-165.09C331.13,-155.84 364.38,-140.76 371.5,-129 388.53,-100.86 382.04,-86.15 371.5,-55 367.94,-44.47 360.78,-34.48 353.95,-26.63"/>
<polygon fill="#63b8ff" stroke="#63b8ff" points="356.49,-24.23 347.11,-19.31 351.37,-29.01 356.49,-24.23"/>
</a>
</g>
</g>
<!-- Node14 -->
<g id="Node000014" class="node">
<title>Node14</title>
<g id="a_Node000014"><a xlink:title=" ">
<polygon fill="#e0e0e0" stroke="#999999" points="479.5,-129 423.5,-129 423.5,-110 479.5,-110 479.5,-129"/>
<text text-anchor="middle" x="451.5" y="-117" font-family="Helvetica,sans-Serif" font-size="10.00">stddef.h</text>
</a>
</g>
</g>
<!-- Node13&#45;&gt;Node14 -->
<g id="edge19_Node000013_Node000014" class="edge">
<title>Node13&#45;&gt;Node14</title>
<g id="a_edge19_Node000013_Node000014"><a xlink:title=" ">
<path fill="none" stroke="#63b8ff" d="M308.07,-166.57C335.3,-157.82 382.55,-142.65 415.34,-132.12"/>
<polygon fill="#63b8ff" stroke="#63b8ff" points="416.56,-135.4 425.01,-129.01 414.42,-128.73 416.56,-135.4"/>
</a>
</g>
</g>
</g>
</svg>
