<?xml version="1.0" encoding="UTF-8" standalone="no"?>
<!DOCTYPE svg PUBLIC "-//W3C//DTD SVG 1.1//EN"
 "http://www.w3.org/Graphics/SVG/1.1/DTD/svg11.dtd">
<!-- Generated by graphviz version 2.43.0 (0)
 -->
<!-- Title: inc/socketcan.h Pages: 1 -->
<svg width="156pt" height="192pt"
 viewBox="0.00 0.00 156.32 192.00" xmlns="http://www.w3.org/2000/svg" xmlns:xlink="http://www.w3.org/1999/xlink">

<svg id="main" version="1.1" xmlns="http://www.w3.org/2000/svg" xmlns:xlink="http://www.w3.org/1999/xlink" xml:space="preserve" onload="init(evt)">
<style type="text/css"><![CDATA[
.node, .edge {opacity: 0.7;}
.node.selected, .edge.selected {opacity: 1;}
.edge:hover path { stroke: red; }
.edge:hover polygon { stroke: red; fill: red; }
]]></style>
<script type="application/ecmascript" xlink:href="svg.min.js"/>
<svg id="graph" class="graph">
<g id="graph0" class="graph" transform="scale(1 1) rotate(0) translate(4 188)">
<title>inc/socketcan.h</title>
<!-- Node1 -->
<g id="Node000001" class="node">
<title>Node1</title>
<g id="a_Node000001"><a xlink:title="SocketCAN back&#45;end interface (Linux PF_CAN / SOCK_RAW).">
<polygon fill="#999999" stroke="#666666" points="92.32,-184 0.32,-184 0.32,-165 92.32,-165 92.32,-184"/>
<text text-anchor="middle" x="46.32" y="-172" font-family="Helvetica,sans-Serif" font-size="10.00">inc/socketcan.h</text>
</a>
</g>
</g>
<!-- Node2 -->
<g id="Node000002" class="node">
<title>Node2</title>
<g id="a_Node000002"><a xlink:title=" ">
<polygon fill="#e0e0e0" stroke="#999999" points="54.82,-19 1.82,-19 1.82,0 54.82,0 54.82,-19"/>
<text text-anchor="middle" x="28.32" y="-7" font-family="Helvetica,sans-Serif" font-size="10.00">stdint.h</text>
</a>
</g>
</g>
<!-- Node1&#45;&gt;Node2 -->
<g id="edge1_Node000001_Node000002" class="edge">
<title>Node1&#45;&gt;Node2</title>
<g id="a_edge1_Node000001_Node000002"><a xlink:title=" ">
<path fill="none" stroke="#63b8ff" d="M34.4,-164.8C24.5,-156.77 11.13,-143.87 5.32,-129 -8.02,-94.82 7.65,-51.96 18.88,-28.29"/>
<polygon fill="#63b8ff" stroke="#63b8ff" points="22.12,-29.63 23.47,-19.13 15.87,-26.5 22.12,-29.63"/>
</a>
</g>
</g>
<!-- Node3 -->
<g id="Node000003" class="node">
<title>Node3</title>
<g id="a_Node000003"><a xlink:href="can__message_8h.html" target="_top" xlink:title="Hardware&#45;independent CAN/CAN FD message and statistics data types.">
<polygon fill="white" stroke="#666666" points="148.32,-74 56.32,-74 56.32,-55 148.32,-55 148.32,-74"/>
<text text-anchor="middle" x="102.32" y="-62" font-family="Helvetica,sans-Serif" font-size="10.00">can_message.h</text>
</a>
</g>
</g>
<!-- Node1&#45;&gt;Node3 -->
<g id="edge2_Node000001_Node000003" class="edge">
<title>Node1&#45;&gt;Node3</title>
<g id="a_edge2_Node000001_Node000003"><a xlink:title=" ">
<path fill="none" stroke="#63b8ff" d="M57.05,-164.74C66.44,-156.49 79.74,-143.29 87.32,-129 94.72,-115.07 98.51,-97.51 100.43,-84.39"/>
<polygon fill="#63b8ff" stroke="#63b8ff" points="103.93,-84.56 101.67,-74.21 96.98,-83.71 103.93,-84.56"/>
</a>
</g>
</g>
<!-- Node5 -->
<g id="Node000005" class="node">
<title>Node5</title>
<g id="a_Node000005"><a xlink:href="drv__can_8h.html" target="_top" xlink:title="Generic CAN driver abstraction (vtable) and thin wrapper API.">
<polygon fill="white" stroke="#666666" points="78.32,-129 14.32,-129 14.32,-110 78.32,-110 78.32,-129"/>
<text text-anchor="middle" x="46.32" y="-117" font-family="Helvetica,sans-Serif" font-size="10.00">drv_can.h</text>
</a>
</g>
</g>
<!-- Node1&#45;&gt;Node5 -->
<g id="edge5_Node000001_Node000005" class="edge">
<title>Node1&#45;&gt;Node5</title>
<g id="a_edge5_Node000001_Node000005"><a xlink:title=" ">
<path fill="none" stroke="#63b8ff" d="M46.32,-164.75C46.32,-157.8 46.32,-147.85 46.32,-139.13"/>
<polygon fill="#63b8ff" stroke="#63b8ff" points="49.82,-139.09 46.32,-129.09 42.82,-139.09 49.82,-139.09"/>
</a>
</g>
</g>
<!-- Node3&#45;&gt;Node2 -->
<g id="edge3_Node000003_Node000002" class="edge">
<title>Node3&#45;&gt;Node2</title>
<g id="a_edge3_Node000003_Node000002"><a xlink:title=" ">
<path fill="none" stroke="#63b8ff" d="M90.43,-54.98C79.17,-46.92 62.04,-34.65 48.61,-25.03"/>
<polygon fill="#63b8ff" stroke="#63b8ff" points="50.6,-22.15 40.43,-19.17 46.52,-27.84 50.6,-22.15"/>
</a>
</g>
</g>
<!-- Node4 -->
<g id="Node000004" class="node">
<title>Node4</title>
<g id="a_Node000004"><a xlink:title=" ">
<polygon fill="#e0e0e0" stroke="#999999" points="126.32,-19 78.32,-19 78.32,0 126.32,0 126.32,-19"/>
<text text-anchor="middle" x="102.32" y="-7" font-family="Helvetica,sans-Serif" font-size="10.00">time.h</text>
</a>
</g>
</g>
<!-- Node3&#45;&gt;Node4 -->
<g id="edge4_Node000003_Node000004" class="edge">
<title>Node3&#45;&gt;Node4</title>
<g id="a_edge4_Node000003_Node000004"><a xlink:title=" ">
<path fill="none" stroke="#63b8ff" d="M102.32,-54.75C102.32,-47.8 102.32,-37.85 102.32,-29.13"/>
<polygon fill="#63b8ff" stroke="#63b8ff" points="105.82,-29.09 102.32,-19.09 98.82,-29.09 105.82,-29.09"/>
</a>
</g>
</g>
<!-- Node5&#45;&gt;Node2 -->
<g id="edge6_Node000005_Node000002" class="edge">
<title>Node5&#45;&gt;Node2</title>
<g id="a_edge6_Node000005_Node000002"><a xlink:title=" ">
<path fill="none" stroke="#63b8ff" d="M44.85,-109.66C41.94,-92.17 35.37,-52.8 31.45,-29.27"/>
<polygon fill="#63b8ff" stroke="#63b8ff" points="34.86,-28.45 29.77,-19.16 27.96,-29.6 34.86,-28.45"/>
</a>
</g>
</g>
<!-- Node5&#45;&gt;Node3 -->
<g id="edge7_Node000005_Node000003" class="edge">
<title>Node5&#45;&gt;Node3</title>
<g id="a_edge7_Node000005_Node000003"><a xlink:title=" ">
<path fill="none" stroke="#63b8ff" d="M55.32,-109.98C63.52,-102.23 75.83,-90.58 85.8,-81.14"/>
<polygon fill="#63b8ff" stroke="#63b8ff" points="88.31,-83.59 93.16,-74.17 83.49,-78.5 88.31,-83.59"/>
</a>
</g>
</g>
</g>
</svg>
</svg>

<style type='text/css'>
<![CDATA[
[data-mouse-over-selected='false'] { opacity: 0.7; }
[data-mouse-over-selected='true']  { opacity: 1.0; }
]]>
</style>
<script type="application/ecmascript"><![CDATA[
document.addEventListener('DOMContentLoaded', (event) => {
  highlightEdges();
  highlightAdjacentNodes();
});
]]></script>
</svg>
