<?xml version="1.0" encoding="UTF-8" standalone="no"?>
<!DOCTYPE svg PUBLIC "-//W3C//DTD SVG 1.1//EN"
 "http://www.w3.org/Graphics/SVG/1.1/DTD/svg11.dtd">
<!-- Generated by graphviz version 2.43.0 (0)
 -->
<!-- Title: app_state_t Pages: 1 -->
<svg width="280pt" height="93pt"
 viewBox="0.00 0.00 280.00 93.00" xmlns="http://www.w3.org/2000/svg" xmlns:xlink="http://www.w3.org/1999/xlink">
<g id="graph0" class="graph" transform="scale(1 1) rotate(0) translate(4 89)">
<title>app_state_t</title>
<!-- Node1 -->
<g id="Node000001" class="node">
<title>Node1</title>
<g id="a_Node000001"><a xlink:title="Process&#45;wide application state singleton (see g_app).">
<polygon fill="#999999" stroke="#666666" points="188,-19 114,-19 114,0 188,0 188,-19"/>
<text text-anchor="middle" x="151" y="-7" font-family="Helvetica,sans-Serif" font-size="10.00">app_state_t</text>
</a>
</g>
</g>
<!-- Node2 -->
<g id="Node000002" class="node">
<title>Node2</title>
<g id="a_Node000002"><a xlink:href="structcan__bit__timing__t.html" target="_top" xlink:title="Optional manual CAN bit&#45;timing parameters.">
<polygon fill="white" stroke="#666666" points="98,-85 0,-85 0,-66 98,-66 98,-85"/>
<text text-anchor="middle" x="49" y="-73" font-family="Helvetica,sans-Serif" font-size="10.00">can_bit_timing_t</text>
</a>
</g>
</g>
<!-- Node2&#45;&gt;Node1 -->
<g id="edge1_Node000001_Node000002" class="edge">
<title>Node2&#45;&gt;Node1</title>
<g id="a_edge1_Node000001_Node000002"><a xlink:title=" ">
<path fill="none" stroke="#9a32cd" stroke-dasharray="5,2" d="M65.76,-58.75C73.9,-51.58 84.06,-43.3 94,-37 105.06,-29.99 118.28,-23.73 129.2,-19.05"/>
<polygon fill="#9a32cd" stroke="#9a32cd" points="63.16,-56.38 58.1,-65.69 67.86,-61.57 63.16,-56.38"/>
</a>
</g>
<text text-anchor="middle" x="120.5" y="-40" font-family="Helvetica,sans-Serif" font-size="10.00" fill="grey"> bit_timing</text>
</g>
<!-- Node3 -->
<g id="Node000003" class="node">
<title>Node3</title>
<g id="a_Node000003"><a xlink:href="structcan__msg__t.html" target="_top" xlink:title="A single CAN or CAN FD frame as handled by the application.">
<polygon fill="white" stroke="#666666" points="185.5,-85 116.5,-85 116.5,-66 185.5,-66 185.5,-85"/>
<text text-anchor="middle" x="151" y="-73" font-family="Helvetica,sans-Serif" font-size="10.00">can_msg_t</text>
</a>
</g>
</g>
<!-- Node3&#45;&gt;Node1 -->
<g id="edge2_Node000001_Node000003" class="edge">
<title>Node3&#45;&gt;Node1</title>
<g id="a_edge2_Node000001_Node000003"><a xlink:title=" ">
<path fill="none" stroke="#9a32cd" stroke-dasharray="5,2" d="M151,-55.58C151,-43.63 151,-28.72 151,-19.41"/>
<polygon fill="#9a32cd" stroke="#9a32cd" points="147.5,-55.87 151,-65.87 154.5,-55.87 147.5,-55.87"/>
</a>
</g>
<text text-anchor="middle" x="175.5" y="-40" font-family="Helvetica,sans-Serif" font-size="10.00" fill="grey"> trace_buf</text>
</g>
<!-- Node4 -->
<g id="Node000004" class="node">
<title>Node4</title>
<g id="a_Node000004"><a xlink:href="structcan__driver.html" target="_top" xlink:title="CAN driver vtable — implemented by each concrete back&#45;end.">
<polygon fill="white" stroke="#666666" points="272,-85 204,-85 204,-66 272,-66 272,-85"/>
<text text-anchor="middle" x="238" y="-73" font-family="Helvetica,sans-Serif" font-size="10.00">can_driver</text>
</a>
</g>
</g>
<!-- Node4&#45;&gt;Node1 -->
<g id="edge3_Node000001_Node000004" class="edge">
<title>Node4&#45;&gt;Node1</title>
<g id="a_edge3_Node000001_Node000004"><a xlink:title=" ">
<path fill="none" stroke="#9a32cd" stroke-dasharray="5,2" d="M225.13,-57.73C219.21,-50.74 211.78,-42.9 204,-37 194.41,-29.73 182.52,-23.57 172.43,-19.02"/>
<polygon fill="#9a32cd" stroke="#9a32cd" points="222.73,-60.33 231.73,-65.91 228.17,-55.93 222.73,-60.33"/>
</a>
</g>
<text text-anchor="middle" x="231" y="-40" font-family="Helvetica,sans-Serif" font-size="10.00" fill="grey"> driver</text>
</g>
</g>
</svg>
