<?xml version="1.0" encoding="UTF-8" standalone="no"?>
<!DOCTYPE svg PUBLIC "-//W3C//DTD SVG 1.1//EN"
 "http://www.w3.org/Graphics/SVG/1.1/DTD/svg11.dtd">
<!-- Generated by graphviz version 2.43.0 (0)
 -->
<!-- Title: dbc_db_t Pages: 1 -->
<svg width="107pt" height="159pt"
 viewBox="0.00 0.00 107.00 159.00" xmlns="http://www.w3.org/2000/svg" xmlns:xlink="http://www.w3.org/1999/xlink">
<g id="graph0" class="graph" transform="scale(1 1) rotate(0) translate(4 155)">
<title>dbc_db_t</title>
<!-- Node1 -->
<g id="Node000001" class="node">
<title>Node1</title>
<g id="a_Node000001"><a xlink:title="A parsed CAN database (collection of messages).">
<polygon fill="#999999" stroke="#666666" points="76,-19 16,-19 16,0 76,0 76,-19"/>
<text text-anchor="middle" x="46" y="-7" font-family="Helvetica,sans-Serif" font-size="10.00">dbc_db_t</text>
</a>
</g>
</g>
<!-- Node2 -->
<g id="Node000002" class="node">
<title>Node2</title>
<g id="a_Node000002"><a xlink:href="structdbc__message__t.html" target="_top" xlink:title="A CAN message definition with its signals.">
<polygon fill="white" stroke="#666666" points="92,-85 0,-85 0,-66 92,-66 92,-85"/>
<text text-anchor="middle" x="46" y="-73" font-family="Helvetica,sans-Serif" font-size="10.00">dbc_message_t</text>
</a>
</g>
</g>
<!-- Node2&#45;&gt;Node1 -->
<g id="edge1_Node000001_Node000002" class="edge">
<title>Node2&#45;&gt;Node1</title>
<g id="a_edge1_Node000001_Node000002"><a xlink:title=" ">
<path fill="none" stroke="#9a32cd" stroke-dasharray="5,2" d="M46,-55.58C46,-43.63 46,-28.72 46,-19.41"/>
<polygon fill="#9a32cd" stroke="#9a32cd" points="42.5,-55.87 46,-65.87 49.5,-55.87 42.5,-55.87"/>
</a>
</g>
<text text-anchor="middle" x="72.5" y="-40" font-family="Helvetica,sans-Serif" font-size="10.00" fill="grey"> messages</text>
</g>
<!-- Node3 -->
<g id="Node000003" class="node">
<title>Node3</title>
<g id="a_Node000003"><a xlink:href="structdbc__signal__t.html" target="_top" xlink:title="A single decoded&#45;able signal within a message.">
<polygon fill="white" stroke="#666666" points="84.5,-151 7.5,-151 7.5,-132 84.5,-132 84.5,-151"/>
<text text-anchor="middle" x="46" y="-139" font-family="Helvetica,sans-Serif" font-size="10.00">dbc_signal_t</text>
</a>
</g>
</g>
<!-- Node3&#45;&gt;Node2 -->
<g id="edge2_Node000002_Node000003" class="edge">
<title>Node3&#45;&gt;Node2</title>
<g id="a_edge2_Node000002_Node000003"><a xlink:title=" ">
<path fill="none" stroke="#9a32cd" stroke-dasharray="5,2" d="M46,-121.58C46,-109.63 46,-94.72 46,-85.41"/>
<polygon fill="#9a32cd" stroke="#9a32cd" points="42.5,-121.87 46,-131.87 49.5,-121.87 42.5,-121.87"/>
</a>
</g>
<text text-anchor="middle" x="65" y="-106" font-family="Helvetica,sans-Serif" font-size="10.00" fill="grey"> signals</text>
</g>
</g>
</svg>
