<?xml version="1.0" encoding="UTF-8" standalone="no"?>
<!DOCTYPE svg PUBLIC "-//W3C//DTD SVG 1.1//EN"
 "http://www.w3.org/Graphics/SVG/1.1/DTD/svg11.dtd">
<!-- Generated by graphviz version 2.43.0 (0)
 -->
<!-- Title: gui/threads.c Pages: 1 -->
<svg width="742pt" height="302pt"
 viewBox="0.00 0.00 742.00 302.00" xmlns="http://www.w3.org/2000/svg" xmlns:xlink="http://www.w3.org/1999/xlink">
<g id="graph0" class="graph" transform="scale(1 1) rotate(0) translate(4 298)">
<title>gui/threads.c</title>
<!-- Node1 -->
<g id="Node000001" class="node">
<title>Node1</title>
<g id="a_Node000001"><a xlink:title="Background worker threads, global state, and connect/disconnect logic.">
<polygon fill="#999999" stroke="#666666" points="465,-294 385,-294 385,-275 465,-275 465,-294"/>
<text text-anchor="middle" x="425" y="-282" font-family="Helvetica,sans-Serif" font-size="10.00">gui/threads.c</text>
</a>
</g>
</g>
<!-- Node2 -->
<g id="Node000002" class="node">
<title>Node2</title>
<g id="a_Node000002"><a xlink:title=" ">
<polygon fill="#e0e0e0" stroke="#999999" points="50,-129 0,-129 0,-110 50,-110 50,-129"/>
<text text-anchor="middle" x="25" y="-117" font-family="Helvetica,sans-Serif" font-size="10.00">stdio.h</text>
</a>
</g>
</g>
<!-- Node1&#45;&gt;Node2 -->
<g id="edge1_Node000001_Node000002" class="edge">
<title>Node1&#45;&gt;Node2</title>
<g id="a_edge1_Node000001_Node000002"><a xlink:title=" ">
<path fill="none" stroke="#63b8ff" d="M384.71,-282.72C332.83,-280.34 240.91,-271.43 170,-239 115.04,-213.86 63.45,-162.75 39.31,-136.64"/>
<polygon fill="#63b8ff" stroke="#63b8ff" points="41.78,-134.16 32.46,-129.11 36.6,-138.86 41.78,-134.16"/>
</a>
</g>
</g>
<!-- Node3 -->
<g id="Node000003" class="node">
<title>Node3</title>
<g id="a_Node000003"><a xlink:title=" ">
<polygon fill="#e0e0e0" stroke="#999999" points="600.5,-239 547.5,-239 547.5,-220 600.5,-220 600.5,-239"/>
<text text-anchor="middle" x="574" y="-227" font-family="Helvetica,sans-Serif" font-size="10.00">stdlib.h</text>
</a>
</g>
</g>
<!-- Node1&#45;&gt;Node3 -->
<g id="edge2_Node000001_Node000003" class="edge">
<title>Node1&#45;&gt;Node3</title>
<g id="a_edge2_Node000001_Node000003"><a xlink:title=" ">
<path fill="none" stroke="#63b8ff" d="M448.94,-274.98C473.56,-266.23 512.12,-252.51 539.92,-242.62"/>
<polygon fill="#63b8ff" stroke="#63b8ff" points="541.38,-245.82 549.62,-239.17 539.03,-239.22 541.38,-245.82"/>
</a>
</g>
</g>
<!-- Node4 -->
<g id="Node000004" class="node">
<title>Node4</title>
<g id="a_Node000004"><a xlink:title=" ">
<polygon fill="#e0e0e0" stroke="#999999" points="671.5,-239 618.5,-239 618.5,-220 671.5,-220 671.5,-239"/>
<text text-anchor="middle" x="645" y="-227" font-family="Helvetica,sans-Serif" font-size="10.00">string.h</text>
</a>
</g>
</g>
<!-- Node1&#45;&gt;Node4 -->
<g id="edge3_Node000001_Node000004" class="edge">
<title>Node1&#45;&gt;Node4</title>
<g id="a_edge3_Node000001_Node000004"><a xlink:title=" ">
<path fill="none" stroke="#63b8ff" d="M460.47,-274.99C495.68,-266.54 551.46,-253.14 608.36,-239.39"/>
<polygon fill="#63b8ff" stroke="#63b8ff" points="609.35,-242.75 618.25,-237 607.71,-235.95 609.35,-242.75"/>
</a>
</g>
</g>
<!-- Node5 -->
<g id="Node000005" class="node">
<title>Node5</title>
<g id="a_Node000005"><a xlink:title=" ">
<polygon fill="#e0e0e0" stroke="#999999" points="489,-19 441,-19 441,0 489,0 489,-19"/>
<text text-anchor="middle" x="465" y="-7" font-family="Helvetica,sans-Serif" font-size="10.00">time.h</text>
</a>
</g>
</g>
<!-- Node1&#45;&gt;Node5 -->
<g id="edge4_Node000001_Node000005" class="edge">
<title>Node1&#45;&gt;Node5</title>
<g id="a_edge4_Node000001_Node000005"><a xlink:title=" ">
<path fill="none" stroke="#63b8ff" d="M440.95,-274.83C467.76,-258.96 519,-222.48 519,-175.5 519,-175.5 519,-175.5 519,-118.5 519,-82.89 495.23,-46.99 479.23,-26.86"/>
<polygon fill="#63b8ff" stroke="#63b8ff" points="481.81,-24.49 472.74,-19.01 476.41,-28.95 481.81,-24.49"/>
</a>
</g>
</g>
<!-- Node6 -->
<g id="Node000006" class="node">
<title>Node6</title>
<g id="a_Node000006"><a xlink:title=" ">
<polygon fill="#e0e0e0" stroke="#999999" points="131.5,-129 68.5,-129 68.5,-110 131.5,-110 131.5,-129"/>
<text text-anchor="middle" x="100" y="-117" font-family="Helvetica,sans-Serif" font-size="10.00">pthread.h</text>
</a>
</g>
</g>
<!-- Node1&#45;&gt;Node6 -->
<g id="edge5_Node000001_Node000006" class="edge">
<title>Node1&#45;&gt;Node6</title>
<g id="a_edge5_Node000001_Node000006"><a xlink:title=" ">
<path fill="none" stroke="#63b8ff" d="M384.84,-278.38C343.3,-272.23 277.05,-260.02 223,-239 177.53,-221.32 160.56,-220.33 128,-184 116.45,-171.11 109.05,-152.7 104.77,-139.02"/>
<polygon fill="#63b8ff" stroke="#63b8ff" points="108.1,-137.92 102,-129.26 101.37,-139.83 108.1,-137.92"/>
</a>
</g>
</g>
<!-- Node7 -->
<g id="Node000007" class="node">
<title>Node7</title>
<g id="a_Node000007"><a xlink:title=" ">
<polygon fill="#e0e0e0" stroke="#999999" points="734,-239 690,-239 690,-220 734,-220 734,-239"/>
<text text-anchor="middle" x="712" y="-227" font-family="Helvetica,sans-Serif" font-size="10.00">glib.h</text>
</a>
</g>
</g>
<!-- Node1&#45;&gt;Node7 -->
<g id="edge6_Node000001_Node000007" class="edge">
<title>Node1&#45;&gt;Node7</title>
<g id="a_edge6_Node000001_Node000007"><a xlink:title=" ">
<path fill="none" stroke="#63b8ff" d="M465.14,-277.74C513.77,-270.49 598.34,-257.03 679.8,-239.09"/>
<polygon fill="#63b8ff" stroke="#63b8ff" points="680.71,-242.48 689.71,-236.88 679.19,-235.64 680.71,-242.48"/>
</a>
</g>
</g>
<!-- Node8 -->
<g id="Node000008" class="node">
<title>Node8</title>
<g id="a_Node000008"><a xlink:title=" ">
<polygon fill="#e0e0e0" stroke="#999999" points="453,-184 393,-184 393,-165 453,-165 453,-184"/>
<text text-anchor="middle" x="423" y="-172" font-family="Helvetica,sans-Serif" font-size="10.00">gtk/gtk.h</text>
</a>
</g>
</g>
<!-- Node1&#45;&gt;Node8 -->
<g id="edge7_Node000001_Node000008" class="edge">
<title>Node1&#45;&gt;Node8</title>
<g id="a_edge7_Node000001_Node000008"><a xlink:title=" ">
<path fill="none" stroke="#63b8ff" d="M424.84,-274.66C424.51,-257.17 423.78,-217.8 423.35,-194.27"/>
<polygon fill="#63b8ff" stroke="#63b8ff" points="426.84,-194.09 423.16,-184.16 419.85,-194.22 426.84,-194.09"/>
</a>
</g>
</g>
<!-- Node9 -->
<g id="Node000009" class="node">
<title>Node9</title>
<g id="a_Node000009"><a xlink:href="app__state_8h.html" target="_top" xlink:title="Global application state shared across the GUI and worker threads.">
<polygon fill="white" stroke="#666666" points="237,-184 137,-184 137,-165 237,-165 237,-184"/>
<text text-anchor="middle" x="187" y="-172" font-family="Helvetica,sans-Serif" font-size="10.00">../inc/app_state.h</text>
</a>
</g>
</g>
<!-- Node1&#45;&gt;Node9 -->
<g id="edge8_Node000001_Node000009" class="edge">
<title>Node1&#45;&gt;Node9</title>
<g id="a_edge8_Node000001_Node000009"><a xlink:title=" ">
<path fill="none" stroke="#63b8ff" d="M384.75,-279.32C347.96,-274.13 293.04,-262.84 251,-239 230.25,-227.23 211.53,-206.98 199.77,-192.51"/>
<polygon fill="#63b8ff" stroke="#63b8ff" points="202.32,-190.08 193.4,-184.37 196.81,-194.4 202.32,-190.08"/>
</a>
</g>
</g>
<!-- Node11 -->
<g id="Node000011" class="node">
<title>Node11</title>
<g id="a_Node000011"><a xlink:href="can__message_8h.html" target="_top" xlink:title="Hardware&#45;independent CAN/CAN FD message and statistics data types.">
<polygon fill="white" stroke="#666666" points="457,-74 365,-74 365,-55 457,-55 457,-74"/>
<text text-anchor="middle" x="411" y="-62" font-family="Helvetica,sans-Serif" font-size="10.00">can_message.h</text>
</a>
</g>
</g>
<!-- Node1&#45;&gt;Node11 -->
<g id="edge26_Node000001_Node000011" class="edge">
<title>Node1&#45;&gt;Node11</title>
<g id="a_edge26_Node000001_Node000011"><a xlink:title=" ">
<path fill="none" stroke="#63b8ff" d="M430.99,-274.98C443.84,-255.66 472.11,-206.9 462,-165 454.52,-134.01 435.64,-101.82 423.07,-82.74"/>
<polygon fill="#63b8ff" stroke="#63b8ff" points="425.83,-80.57 417.33,-74.25 420.04,-84.5 425.83,-80.57"/>
</a>
</g>
</g>
<!-- Node12 -->
<g id="Node000012" class="node">
<title>Node12</title>
<g id="a_Node000012"><a xlink:href="drv__can_8h.html" target="_top" xlink:title="Generic CAN driver abstraction (vtable) and thin wrapper API.">
<polygon fill="white" stroke="#666666" points="252,-129 188,-129 188,-110 252,-110 252,-129"/>
<text text-anchor="middle" x="220" y="-117" font-family="Helvetica,sans-Serif" font-size="10.00">drv_can.h</text>
</a>
</g>
</g>
<!-- Node1&#45;&gt;Node12 -->
<g id="edge18_Node000001_Node000012" class="edge">
<title>Node1&#45;&gt;Node12</title>
<g id="a_edge18_Node000001_Node000012"><a xlink:title=" ">
<path fill="none" stroke="#63b8ff" d="M395.32,-274.88C373.42,-267.58 343.62,-255.65 321,-239 281.62,-210.01 247.47,-162.82 230.81,-137.63"/>
<polygon fill="#63b8ff" stroke="#63b8ff" points="233.68,-135.63 225.31,-129.13 227.81,-139.43 233.68,-135.63"/>
</a>
</g>
</g>
<!-- Node13 -->
<g id="Node000013" class="node">
<title>Node13</title>
<g id="a_Node000013"><a xlink:href="gui_8h.html" target="_top" xlink:title="GTK GUI widget registry and the application&#39;s GUI/thread API.">
<polygon fill="white" stroke="#666666" points="396.5,-239 329.5,-239 329.5,-220 396.5,-220 396.5,-239"/>
<text text-anchor="middle" x="363" y="-227" font-family="Helvetica,sans-Serif" font-size="10.00">../inc/gui.h</text>
</a>
</g>
</g>
<!-- Node1&#45;&gt;Node13 -->
<g id="edge19_Node000001_Node000013" class="edge">
<title>Node1&#45;&gt;Node13</title>
<g id="a_edge19_Node000001_Node000013"><a xlink:title=" ">
<path fill="none" stroke="#63b8ff" d="M415.04,-274.98C405.87,-267.15 392.06,-255.34 380.97,-245.86"/>
<polygon fill="#63b8ff" stroke="#63b8ff" points="383.02,-243.01 373.14,-239.17 378.47,-248.33 383.02,-243.01"/>
</a>
</g>
</g>
<!-- Node9&#45;&gt;Node2 -->
<g id="edge11_Node000009_Node000002" class="edge">
<title>Node9&#45;&gt;Node2</title>
<g id="a_edge11_Node000009_Node000002"><a xlink:title=" ">
<path fill="none" stroke="#63b8ff" d="M160.97,-164.98C133.57,-156.02 90.28,-141.86 59.92,-131.92"/>
<polygon fill="#63b8ff" stroke="#63b8ff" points="60.76,-128.52 50.16,-128.73 58.58,-135.17 60.76,-128.52"/>
</a>
</g>
</g>
<!-- Node9&#45;&gt;Node6 -->
<g id="edge9_Node000009_Node000006" class="edge">
<title>Node9&#45;&gt;Node6</title>
<g id="a_edge9_Node000009_Node000006"><a xlink:title=" ">
<path fill="none" stroke="#63b8ff" d="M173.02,-164.98C159.53,-156.77 138.87,-144.18 122.96,-134.49"/>
<polygon fill="#63b8ff" stroke="#63b8ff" points="124.59,-131.38 114.23,-129.17 120.95,-137.36 124.59,-131.38"/>
</a>
</g>
</g>
<!-- Node10 -->
<g id="Node000010" class="node">
<title>Node10</title>
<g id="a_Node000010"><a xlink:title=" ">
<polygon fill="#e0e0e0" stroke="#999999" points="295.5,-19 242.5,-19 242.5,0 295.5,0 295.5,-19"/>
<text text-anchor="middle" x="269" y="-7" font-family="Helvetica,sans-Serif" font-size="10.00">stdint.h</text>
</a>
</g>
</g>
<!-- Node9&#45;&gt;Node10 -->
<g id="edge10_Node000009_Node000010" class="edge">
<title>Node9&#45;&gt;Node10</title>
<g id="a_edge10_Node000009_Node000010"><a xlink:title=" ">
<path fill="none" stroke="#63b8ff" d="M183.4,-164.97C178.69,-152.48 171.81,-128.66 179,-110 192.89,-73.93 226.6,-42.8 248.59,-25.38"/>
<polygon fill="#63b8ff" stroke="#63b8ff" points="250.86,-28.05 256.65,-19.18 246.59,-22.5 250.86,-28.05"/>
</a>
</g>
</g>
<!-- Node9&#45;&gt;Node11 -->
<g id="edge12_Node000009_Node000011" class="edge">
<title>Node9&#45;&gt;Node11</title>
<g id="a_edge12_Node000009_Node000011"><a xlink:title=" ">
<path fill="none" stroke="#63b8ff" d="M204.95,-164.84C244.21,-145.92 337.85,-100.77 384.15,-78.45"/>
<polygon fill="#63b8ff" stroke="#63b8ff" points="385.79,-81.54 393.27,-74.05 382.75,-75.24 385.79,-81.54"/>
</a>
</g>
</g>
<!-- Node9&#45;&gt;Node12 -->
<g id="edge15_Node000009_Node000012" class="edge">
<title>Node9&#45;&gt;Node12</title>
<g id="a_edge15_Node000009_Node000012"><a xlink:title=" ">
<path fill="none" stroke="#63b8ff" d="M192.45,-164.75C197.01,-157.42 203.67,-146.73 209.29,-137.7"/>
<polygon fill="#63b8ff" stroke="#63b8ff" points="212.34,-139.43 214.65,-129.09 206.4,-135.73 212.34,-139.43"/>
</a>
</g>
</g>
<!-- Node11&#45;&gt;Node5 -->
<g id="edge14_Node000011_Node000005" class="edge">
<title>Node11&#45;&gt;Node5</title>
<g id="a_edge14_Node000011_Node000005"><a xlink:title=" ">
<path fill="none" stroke="#63b8ff" d="M419.92,-54.75C427.78,-47.03 439.43,-35.6 448.92,-26.28"/>
<polygon fill="#63b8ff" stroke="#63b8ff" points="451.56,-28.59 456.25,-19.09 446.66,-23.6 451.56,-28.59"/>
</a>
</g>
</g>
<!-- Node11&#45;&gt;Node10 -->
<g id="edge13_Node000011_Node000010" class="edge">
<title>Node11&#45;&gt;Node10</title>
<g id="a_edge13_Node000011_Node000010"><a xlink:title=" ">
<path fill="none" stroke="#63b8ff" d="M388.19,-54.98C364.83,-46.27 328.3,-32.63 301.83,-22.75"/>
<polygon fill="#63b8ff" stroke="#63b8ff" points="302.82,-19.39 292.23,-19.17 300.37,-25.95 302.82,-19.39"/>
</a>
</g>
</g>
<!-- Node12&#45;&gt;Node10 -->
<g id="edge16_Node000012_Node000010" class="edge">
<title>Node12&#45;&gt;Node10</title>
<g id="a_edge16_Node000012_Node000010"><a xlink:title=" ">
<path fill="none" stroke="#63b8ff" d="M224.01,-109.66C232.05,-91.93 250.3,-51.73 260.92,-28.32"/>
<polygon fill="#63b8ff" stroke="#63b8ff" points="264.13,-29.71 265.07,-19.16 257.75,-26.82 264.13,-29.71"/>
</a>
</g>
</g>
<!-- Node12&#45;&gt;Node11 -->
<g id="edge17_Node000012_Node000011" class="edge">
<title>Node12&#45;&gt;Node11</title>
<g id="a_edge17_Node000012_Node000011"><a xlink:title=" ">
<path fill="none" stroke="#63b8ff" d="M250.69,-109.98C283.17,-100.97 334.6,-86.7 370.41,-76.76"/>
<polygon fill="#63b8ff" stroke="#63b8ff" points="371.37,-80.13 380.07,-74.08 369.5,-73.38 371.37,-80.13"/>
</a>
</g>
</g>
<!-- Node13&#45;&gt;Node8 -->
<g id="edge20_Node000013_Node000008" class="edge">
<title>Node13&#45;&gt;Node8</title>
<g id="a_edge20_Node000013_Node000008"><a xlink:title=" ">
<path fill="none" stroke="#63b8ff" d="M372.64,-219.98C381.51,-212.15 394.87,-200.34 405.61,-190.86"/>
<polygon fill="#63b8ff" stroke="#63b8ff" points="408.01,-193.41 413.18,-184.17 403.37,-188.17 408.01,-193.41"/>
</a>
</g>
</g>
<!-- Node13&#45;&gt;Node9 -->
<g id="edge22_Node000013_Node000009" class="edge">
<title>Node13&#45;&gt;Node9</title>
<g id="a_edge22_Node000013_Node000009"><a xlink:title=" ">
<path fill="none" stroke="#63b8ff" d="M334.72,-219.98C305.05,-211.05 258.21,-196.94 225.25,-187.02"/>
<polygon fill="#63b8ff" stroke="#63b8ff" points="226.08,-183.61 215.5,-184.08 224.07,-190.32 226.08,-183.61"/>
</a>
</g>
</g>
<!-- Node13&#45;&gt;Node11 -->
<g id="edge21_Node000013_Node000011" class="edge">
<title>Node13&#45;&gt;Node11</title>
<g id="a_edge21_Node000013_Node000011"><a xlink:title=" ">
<path fill="none" stroke="#63b8ff" d="M364.89,-219.93C367.87,-207.39 374.32,-183.52 384,-165 393.26,-147.27 404.68,-147.97 411,-129 415.8,-114.6 415.44,-97.32 414.08,-84.43"/>
<polygon fill="#63b8ff" stroke="#63b8ff" points="417.53,-83.85 412.73,-74.41 410.59,-84.79 417.53,-83.85"/>
</a>
</g>
</g>
<!-- Node14 -->
<g id="Node000014" class="node">
<title>Node14</title>
<g id="a_Node000014"><a xlink:href="dbc_8h.html" target="_top" xlink:title="Minimal CAN database (DBC) model, parser, and signal decoder.">
<polygon fill="white" stroke="#666666" points="336.5,-184 293.5,-184 293.5,-165 336.5,-165 336.5,-184"/>
<text text-anchor="middle" x="315" y="-172" font-family="Helvetica,sans-Serif" font-size="10.00">dbc.h</text>
</a>
</g>
</g>
<!-- Node13&#45;&gt;Node14 -->
<g id="edge23_Node000013_Node000014" class="edge">
<title>Node13&#45;&gt;Node14</title>
<g id="a_edge23_Node000013_Node000014"><a xlink:title=" ">
<path fill="none" stroke="#63b8ff" d="M355.07,-219.75C348.15,-212.11 337.93,-200.82 329.55,-191.56"/>
<polygon fill="#63b8ff" stroke="#63b8ff" points="332.09,-189.15 322.78,-184.09 326.9,-193.85 332.09,-189.15"/>
</a>
</g>
</g>
<!-- Node14&#45;&gt;Node10 -->
<g id="edge25_Node000014_Node000010" class="edge">
<title>Node14&#45;&gt;Node10</title>
<g id="a_edge25_Node000014_Node000010"><a xlink:title=" ">
<path fill="none" stroke="#63b8ff" d="M312.53,-164.74C305.32,-139.2 284.22,-64.43 274.29,-29.23"/>
<polygon fill="#63b8ff" stroke="#63b8ff" points="277.57,-27.98 271.49,-19.31 270.83,-29.88 277.57,-27.98"/>
</a>
</g>
</g>
<!-- Node15 -->
<g id="Node000015" class="node">
<title>Node15</title>
<g id="a_Node000015"><a xlink:title=" ">
<polygon fill="#e0e0e0" stroke="#999999" points="402,-129 346,-129 346,-110 402,-110 402,-129"/>
<text text-anchor="middle" x="374" y="-117" font-family="Helvetica,sans-Serif" font-size="10.00">stddef.h</text>
</a>
</g>
</g>
<!-- Node14&#45;&gt;Node15 -->
<g id="edge24_Node000014_Node000015" class="edge">
<title>Node14&#45;&gt;Node15</title>
<g id="a_edge24_Node000014_Node000015"><a xlink:title=" ">
<path fill="none" stroke="#63b8ff" d="M324.48,-164.98C333.2,-157.15 346.34,-145.34 356.9,-135.86"/>
<polygon fill="#63b8ff" stroke="#63b8ff" points="359.25,-138.46 364.35,-129.17 354.57,-133.25 359.25,-138.46"/>
</a>
</g>
</g>
</g>
</svg>
