<?xml version="1.0" encoding="UTF-8" standalone="no"?>
<!DOCTYPE svg PUBLIC "-//W3C//DTD SVG 1.1//EN"
 "http://www.w3.org/Graphics/SVG/1.1/DTD/svg11.dtd">
<!-- Generated by graphviz version 2.43.0 (0)
 -->
<!-- Title: gui/transmit_dialog.c Pages: 1 -->
<!--zoomable 302 -->

<svg id="main" version="1.1" xmlns="http://www.w3.org/2000/svg" xmlns:xlink="http://www.w3.org/1999/xlink" xml:space="preserve" onload="init(evt)">
<style type="text/css"><![CDATA[
.node, .edge {opacity: 0.7;}
.node.selected, .edge.selected {opacity: 1;}
.edge:hover path { stroke: red; }
.edge:hover polygon { stroke: red; fill: red; }
]]></style>

<defs>
  <circle id="rim" cx="0" cy="0" r="7"/>
  <circle id="rim2" cx="0" cy="0" r="3.5"/>
  <g id="zoomPlus">
    <use xlink:href="#rim" fill="#404040"><set attributeName="fill" to="#808080" begin="zoomplus.mouseover" end="zoomplus.mouseout"/></use>
    <path d="M-4,0h8M0,-4v8" fill="none" stroke="white" stroke-width="1.5" pointer-events="none"/>
  </g>
  <g id="zoomMin">
    <use xlink:href="#rim" fill="#404040"><set attributeName="fill" to="#808080" begin="zoomminus.mouseover" end="zoomminus.mouseout"/></use>
    <path d="M-4,0h8" fill="none" stroke="white" stroke-width="1.5" pointer-events="none"/>
  </g>
  <g id="arrowUp" transform="translate(30 24)">
    <use xlink:href="#rim"/>
    <path pointer-events="none" fill="none" stroke="white" stroke-width="1.5" d="M0,-3.0v7 M-2.5,-0.5L0,-3.0L2.5,-0.5"/>
  </g>
  <g id="arrowRight" transform="rotate(90) translate(36 -43)">
    <use xlink:href="#rim"/>
    <path pointer-events="none" fill="none" stroke="white" stroke-width="1.5" d="M0,-3.0v7 M-2.5,-0.5L0,-3.0L2.5,-0.5"/>
  </g>
  <g id="arrowDown" transform="rotate(180) translate(-30 -48)">
    <use xlink:href="#rim"/>
    <path pointer-events="none" fill="none" stroke="white" stroke-width="1.5" d="M0,-3.0v7 M-2.5,-0.5L0,-3.0L2.5,-0.5"/>
  </g>
  <g id="arrowLeft" transform="rotate(270) translate(-36 17)">
    <use xlink:href="#rim"/>
    <path pointer-events="none" fill="none" stroke="white" stroke-width="1.5" d="M0,-3.0v7 M-2.5,-0.5L0,-3.0L2.5,-0.5"/>
  </g>
  <g id="resetDef">
    <use xlink:href="#rim2" fill="#404040"><set attributeName="fill" to="#808080" begin="reset.mouseover" end="reset.mouseout"/></use>
  </g>
</defs>
<script type="application/ecmascript">
var viewWidth = 809;
var viewHeight = 302;
var sectionId = 'dynsection-0';
</script>
<script type="application/ecmascript" xlink:href="svg.min.js"/>
<svg id="graph" class="graph">
<g id="viewport">
<title>gui/transmit_dialog.c</title>
<!-- Node1 -->
<g id="Node000001" class="node">
<title>Node1</title>
<g id="a_Node000001"><a xlink:title="Advanced (&quot;Transmit...&quot;) CAN/CAN FD message composer window.">
<polygon fill="#999999" stroke="#666666" points="567.5,-294 448.5,-294 448.5,-275 567.5,-275 567.5,-294"/>
<text text-anchor="middle" x="508" y="-282" font-family="Helvetica,sans-Serif" font-size="10.00">gui/transmit_dialog.c</text>
</a>
</g>
</g>
<!-- Node2 -->
<g id="Node000002" class="node">
<title>Node2</title>
<g id="a_Node000002"><a xlink:title=" ">
<polygon fill="#e0e0e0" stroke="#999999" points="50,-129 0,-129 0,-110 50,-110 50,-129"/>
<text text-anchor="middle" x="25" y="-117" font-family="Helvetica,sans-Serif" font-size="10.00">stdio.h</text>
</a>
</g>
</g>
<!-- Node1&#45;&gt;Node2 -->
<g id="edge1_Node000001_Node000002" class="edge">
<title>Node1&#45;&gt;Node2</title>
<g id="a_edge1_Node000001_Node000002"><a xlink:title=" ">
<path fill="none" stroke="#63b8ff" d="M456.86,-274.95C415.4,-267.39 355.74,-255.06 305,-239 244.8,-219.94 232.16,-208.6 174,-184 132.58,-166.48 84.77,-146.07 54.71,-133.22"/>
<polygon fill="#63b8ff" stroke="#63b8ff" points="55.8,-129.88 45.23,-129.16 53.05,-136.31 55.8,-129.88"/>
</a>
</g>
</g>
<!-- Node3 -->
<g id="Node000003" class="node">
<title>Node3</title>
<g id="a_Node000003"><a xlink:title=" ">
<polygon fill="#e0e0e0" stroke="#999999" points="589.5,-239 536.5,-239 536.5,-220 589.5,-220 589.5,-239"/>
<text text-anchor="middle" x="563" y="-227" font-family="Helvetica,sans-Serif" font-size="10.00">stdlib.h</text>
</a>
</g>
</g>
<!-- Node1&#45;&gt;Node3 -->
<g id="edge2_Node000001_Node000003" class="edge">
<title>Node1&#45;&gt;Node3</title>
<g id="a_edge2_Node000001_Node000003"><a xlink:title=" ">
<path fill="none" stroke="#63b8ff" d="M517.08,-274.75C525.09,-267.03 536.96,-255.6 546.62,-246.28"/>
<polygon fill="#63b8ff" stroke="#63b8ff" points="549.31,-248.55 554.09,-239.09 544.46,-243.51 549.31,-248.55"/>
</a>
</g>
</g>
<!-- Node4 -->
<g id="Node000004" class="node">
<title>Node4</title>
<g id="a_Node000004"><a xlink:title=" ">
<polygon fill="#e0e0e0" stroke="#999999" points="660.5,-239 607.5,-239 607.5,-220 660.5,-220 660.5,-239"/>
<text text-anchor="middle" x="634" y="-227" font-family="Helvetica,sans-Serif" font-size="10.00">string.h</text>
</a>
</g>
</g>
<!-- Node1&#45;&gt;Node4 -->
<g id="edge3_Node000001_Node000004" class="edge">
<title>Node1&#45;&gt;Node4</title>
<g id="a_edge3_Node000001_Node000004"><a xlink:title=" ">
<path fill="none" stroke="#63b8ff" d="M528.24,-274.98C548.7,-266.38 580.53,-252.99 603.93,-243.15"/>
<polygon fill="#63b8ff" stroke="#63b8ff" points="605.53,-246.27 613.39,-239.17 602.81,-239.82 605.53,-246.27"/>
</a>
</g>
</g>
<!-- Node5 -->
<g id="Node000005" class="node">
<title>Node5</title>
<g id="a_Node000005"><a xlink:title=" ">
<polygon fill="#e0e0e0" stroke="#999999" points="731.5,-239 678.5,-239 678.5,-220 731.5,-220 731.5,-239"/>
<text text-anchor="middle" x="705" y="-227" font-family="Helvetica,sans-Serif" font-size="10.00">ctype.h</text>
</a>
</g>
</g>
<!-- Node1&#45;&gt;Node5 -->
<g id="edge4_Node000001_Node000005" class="edge">
<title>Node1&#45;&gt;Node5</title>
<g id="a_edge4_Node000001_Node000005"><a xlink:title=" ">
<path fill="none" stroke="#63b8ff" d="M539.65,-274.98C574.85,-265.52 631.6,-250.25 668.6,-240.29"/>
<polygon fill="#63b8ff" stroke="#63b8ff" points="669.73,-243.61 678.48,-237.63 667.91,-236.85 669.73,-243.61"/>
</a>
</g>
</g>
<!-- Node6 -->
<g id="Node000006" class="node">
<title>Node6</title>
<g id="a_Node000006"><a xlink:title=" ">
<polygon fill="#e0e0e0" stroke="#999999" points="800.5,-239 749.5,-239 749.5,-220 800.5,-220 800.5,-239"/>
<text text-anchor="middle" x="775" y="-227" font-family="Helvetica,sans-Serif" font-size="10.00">errno.h</text>
</a>
</g>
</g>
<!-- Node1&#45;&gt;Node6 -->
<g id="edge5_Node000001_Node000006" class="edge">
<title>Node1&#45;&gt;Node6</title>
<g id="a_edge5_Node000001_Node000006"><a xlink:title=" ">
<path fill="none" stroke="#63b8ff" d="M557.26,-274.92C602.31,-266.89 671.04,-254.17 739.34,-239.27"/>
<polygon fill="#63b8ff" stroke="#63b8ff" points="740.4,-242.62 749.42,-237.06 738.9,-235.79 740.4,-242.62"/>
</a>
</g>
</g>
<!-- Node7 -->
<g id="Node000007" class="node">
<title>Node7</title>
<g id="a_Node000007"><a xlink:title=" ">
<polygon fill="#e0e0e0" stroke="#999999" points="484,-184 424,-184 424,-165 484,-165 484,-184"/>
<text text-anchor="middle" x="454" y="-172" font-family="Helvetica,sans-Serif" font-size="10.00">gtk/gtk.h</text>
</a>
</g>
</g>
<!-- Node1&#45;&gt;Node7 -->
<g id="edge6_Node000001_Node000007" class="edge">
<title>Node1&#45;&gt;Node7</title>
<g id="a_edge6_Node000001_Node000007"><a xlink:title=" ">
<path fill="none" stroke="#63b8ff" d="M503.58,-274.66C494.72,-256.93 474.61,-216.73 462.91,-193.32"/>
<polygon fill="#63b8ff" stroke="#63b8ff" points="465.93,-191.54 458.33,-184.16 459.67,-194.67 465.93,-191.54"/>
</a>
</g>
</g>
<!-- Node8 -->
<g id="Node000008" class="node">
<title>Node8</title>
<g id="a_Node000008"><a xlink:href="gui_8h.html" target="_top" xlink:title="GTK GUI widget registry and the application&#39;s GUI/thread API.">
<polygon fill="white" stroke="#666666" points="429.5,-239 362.5,-239 362.5,-220 429.5,-220 429.5,-239"/>
<text text-anchor="middle" x="396" y="-227" font-family="Helvetica,sans-Serif" font-size="10.00">../inc/gui.h</text>
</a>
</g>
</g>
<!-- Node1&#45;&gt;Node8 -->
<g id="edge7_Node000001_Node000008" class="edge">
<title>Node1&#45;&gt;Node8</title>
<g id="a_edge7_Node000001_Node000008"><a xlink:title=" ">
<path fill="none" stroke="#63b8ff" d="M490.01,-274.98C472.07,-266.5 444.28,-253.35 423.57,-243.54"/>
<polygon fill="#63b8ff" stroke="#63b8ff" points="424.86,-240.28 414.32,-239.17 421.86,-246.61 424.86,-240.28"/>
</a>
</g>
</g>
<!-- Node9 -->
<g id="Node000009" class="node">
<title>Node9</title>
<g id="a_Node000009"><a xlink:href="can__message_8h.html" target="_top" xlink:title="Hardware&#45;independent CAN/CAN FD message and statistics data types.">
<polygon fill="white" stroke="#666666" points="438,-74 346,-74 346,-55 438,-55 438,-74"/>
<text text-anchor="middle" x="392" y="-62" font-family="Helvetica,sans-Serif" font-size="10.00">can_message.h</text>
</a>
</g>
</g>
<!-- Node1&#45;&gt;Node9 -->
<g id="edge24_Node000001_Node000009" class="edge">
<title>Node1&#45;&gt;Node9</title>
<g id="a_edge24_Node000001_Node000009"><a xlink:title=" ">
<path fill="none" stroke="#63b8ff" d="M508.76,-274.92C510.18,-254.62 511.57,-202.55 493,-165 474.81,-128.22 437.48,-97.15 413.65,-79.95"/>
<polygon fill="#63b8ff" stroke="#63b8ff" points="415.45,-76.93 405.25,-74.05 411.42,-82.66 415.45,-76.93"/>
</a>
</g>
</g>
<!-- Node12 -->
<g id="Node000012" class="node">
<title>Node12</title>
<g id="a_Node000012"><a xlink:href="app__state_8h.html" target="_top" xlink:title="Global application state shared across the GUI and worker threads.">
<polygon fill="white" stroke="#666666" points="257,-184 183,-184 183,-165 257,-165 257,-184"/>
<text text-anchor="middle" x="220" y="-172" font-family="Helvetica,sans-Serif" font-size="10.00">app_state.h</text>
</a>
</g>
</g>
<!-- Node1&#45;&gt;Node12 -->
<g id="edge23_Node000001_Node000012" class="edge">
<title>Node1&#45;&gt;Node12</title>
<g id="a_edge23_Node000001_Node000012"><a xlink:title=" ">
<path fill="none" stroke="#63b8ff" d="M472.05,-274.98C440.28,-267.03 392.92,-254.14 353,-239 314.22,-224.29 271.23,-202.75 244.9,-188.93"/>
<polygon fill="#63b8ff" stroke="#63b8ff" points="246.47,-185.8 236,-184.21 243.2,-191.98 246.47,-185.8"/>
</a>
</g>
</g>
<!-- Node8&#45;&gt;Node7 -->
<g id="edge8_Node000008_Node000007" class="edge">
<title>Node8&#45;&gt;Node7</title>
<g id="a_edge8_Node000008_Node000007"><a xlink:title=" ">
<path fill="none" stroke="#63b8ff" d="M405.32,-219.98C413.81,-212.23 426.56,-200.58 436.88,-191.14"/>
<polygon fill="#63b8ff" stroke="#63b8ff" points="439.49,-193.5 444.51,-184.17 434.77,-188.33 439.49,-193.5"/>
</a>
</g>
</g>
<!-- Node8&#45;&gt;Node9 -->
<g id="edge9_Node000008_Node000009" class="edge">
<title>Node8&#45;&gt;Node9</title>
<g id="a_edge9_Node000008_Node000009"><a xlink:title=" ">
<path fill="none" stroke="#63b8ff" d="M399.03,-219.8C405.48,-200.1 419.31,-150.63 411,-110 409.11,-100.74 405.21,-91.03 401.43,-83.04"/>
<polygon fill="#63b8ff" stroke="#63b8ff" points="404.51,-81.37 396.88,-74.02 398.26,-84.53 404.51,-81.37"/>
</a>
</g>
</g>
<!-- Node8&#45;&gt;Node12 -->
<g id="edge12_Node000008_Node000012" class="edge">
<title>Node8&#45;&gt;Node12</title>
<g id="a_edge12_Node000008_Node000012"><a xlink:title=" ">
<path fill="none" stroke="#63b8ff" d="M367.72,-219.98C338.05,-211.05 291.21,-196.94 258.25,-187.02"/>
<polygon fill="#63b8ff" stroke="#63b8ff" points="259.08,-183.61 248.5,-184.08 257.07,-190.32 259.08,-183.61"/>
</a>
</g>
</g>
<!-- Node15 -->
<g id="Node000015" class="node">
<title>Node15</title>
<g id="a_Node000015"><a xlink:href="dbc_8h.html" target="_top" xlink:title="Minimal CAN database (DBC) model, parser, and signal decoder.">
<polygon fill="white" stroke="#666666" points="367.5,-184 324.5,-184 324.5,-165 367.5,-165 367.5,-184"/>
<text text-anchor="middle" x="346" y="-172" font-family="Helvetica,sans-Serif" font-size="10.00">dbc.h</text>
</a>
</g>
</g>
<!-- Node8&#45;&gt;Node15 -->
<g id="edge20_Node000008_Node000015" class="edge">
<title>Node8&#45;&gt;Node15</title>
<g id="a_edge20_Node000008_Node000015"><a xlink:title=" ">
<path fill="none" stroke="#63b8ff" d="M387.74,-219.75C380.54,-212.11 369.89,-200.82 361.15,-191.56"/>
<polygon fill="#63b8ff" stroke="#63b8ff" points="363.51,-188.96 354.1,-184.09 358.42,-193.76 363.51,-188.96"/>
</a>
</g>
</g>
<!-- Node10 -->
<g id="Node000010" class="node">
<title>Node10</title>
<g id="a_Node000010"><a xlink:title=" ">
<polygon fill="#e0e0e0" stroke="#999999" points="310.5,-19 257.5,-19 257.5,0 310.5,0 310.5,-19"/>
<text text-anchor="middle" x="284" y="-7" font-family="Helvetica,sans-Serif" font-size="10.00">stdint.h</text>
</a>
</g>
</g>
<!-- Node9&#45;&gt;Node10 -->
<g id="edge10_Node000009_Node000010" class="edge">
<title>Node9&#45;&gt;Node10</title>
<g id="a_edge10_Node000009_Node000010"><a xlink:title=" ">
<path fill="none" stroke="#63b8ff" d="M374.65,-54.98C357.43,-46.54 330.8,-33.47 310.85,-23.68"/>
<polygon fill="#63b8ff" stroke="#63b8ff" points="312.19,-20.43 301.67,-19.17 309.1,-26.72 312.19,-20.43"/>
</a>
</g>
</g>
<!-- Node11 -->
<g id="Node000011" class="node">
<title>Node11</title>
<g id="a_Node000011"><a xlink:title=" ">
<polygon fill="#e0e0e0" stroke="#999999" points="416,-19 368,-19 368,0 416,0 416,-19"/>
<text text-anchor="middle" x="392" y="-7" font-family="Helvetica,sans-Serif" font-size="10.00">time.h</text>
</a>
</g>
</g>
<!-- Node9&#45;&gt;Node11 -->
<g id="edge11_Node000009_Node000011" class="edge">
<title>Node9&#45;&gt;Node11</title>
<g id="a_edge11_Node000009_Node000011"><a xlink:title=" ">
<path fill="none" stroke="#63b8ff" d="M392,-54.75C392,-47.8 392,-37.85 392,-29.13"/>
<polygon fill="#63b8ff" stroke="#63b8ff" points="395.5,-29.09 392,-19.09 388.5,-29.09 395.5,-29.09"/>
</a>
</g>
</g>
<!-- Node12&#45;&gt;Node2 -->
<g id="edge15_Node000012_Node000002" class="edge">
<title>Node12&#45;&gt;Node2</title>
<g id="a_edge15_Node000012_Node000002"><a xlink:title=" ">
<path fill="none" stroke="#63b8ff" d="M188.67,-164.98C153.44,-155.41 96.39,-139.9 59.8,-129.96"/>
<polygon fill="#63b8ff" stroke="#63b8ff" points="60.62,-126.55 50.05,-127.31 58.79,-133.31 60.62,-126.55"/>
</a>
</g>
</g>
<!-- Node12&#45;&gt;Node9 -->
<g id="edge16_Node000012_Node000009" class="edge">
<title>Node12&#45;&gt;Node9</title>
<g id="a_edge16_Node000012_Node000009"><a xlink:title=" ">
<path fill="none" stroke="#63b8ff" d="M233.78,-164.84C263.35,-146.28 333.09,-102.49 369.3,-79.75"/>
<polygon fill="#63b8ff" stroke="#63b8ff" points="371.54,-82.48 378.15,-74.2 367.82,-76.55 371.54,-82.48"/>
</a>
</g>
</g>
<!-- Node12&#45;&gt;Node10 -->
<g id="edge14_Node000012_Node000010" class="edge">
<title>Node12&#45;&gt;Node10</title>
<g id="a_edge14_Node000012_Node000010"><a xlink:title=" ">
<path fill="none" stroke="#63b8ff" d="M207.82,-164.99C192.68,-153.27 169.88,-131.22 179,-110 195.44,-71.78 234.57,-41.36 260.14,-24.65"/>
<polygon fill="#63b8ff" stroke="#63b8ff" points="262.3,-27.43 268.88,-19.12 258.56,-21.51 262.3,-27.43"/>
</a>
</g>
</g>
<!-- Node13 -->
<g id="Node000013" class="node">
<title>Node13</title>
<g id="a_Node000013"><a xlink:title=" ">
<polygon fill="#e0e0e0" stroke="#999999" points="131.5,-129 68.5,-129 68.5,-110 131.5,-110 131.5,-129"/>
<text text-anchor="middle" x="100" y="-117" font-family="Helvetica,sans-Serif" font-size="10.00">pthread.h</text>
</a>
</g>
</g>
<!-- Node12&#45;&gt;Node13 -->
<g id="edge13_Node000012_Node000013" class="edge">
<title>Node12&#45;&gt;Node13</title>
<g id="a_edge13_Node000012_Node000013"><a xlink:title=" ">
<path fill="none" stroke="#63b8ff" d="M200.72,-164.98C181.33,-156.42 151.19,-143.11 128.93,-133.28"/>
<polygon fill="#63b8ff" stroke="#63b8ff" points="130.19,-130.01 119.63,-129.17 127.36,-136.41 130.19,-130.01"/>
</a>
</g>
</g>
<!-- Node14 -->
<g id="Node000014" class="node">
<title>Node14</title>
<g id="a_Node000014"><a xlink:href="drv__can_8h.html" target="_top" xlink:title="Generic CAN driver abstraction (vtable) and thin wrapper API.">
<polygon fill="white" stroke="#666666" points="252,-129 188,-129 188,-110 252,-110 252,-129"/>
<text text-anchor="middle" x="220" y="-117" font-family="Helvetica,sans-Serif" font-size="10.00">drv_can.h</text>
</a>
</g>
</g>
<!-- Node12&#45;&gt;Node14 -->
<g id="edge17_Node000012_Node000014" class="edge">
<title>Node12&#45;&gt;Node14</title>
<g id="a_edge17_Node000012_Node000014"><a xlink:title=" ">
<path fill="none" stroke="#63b8ff" d="M220,-164.75C220,-157.8 220,-147.85 220,-139.13"/>
<polygon fill="#63b8ff" stroke="#63b8ff" points="223.5,-139.09 220,-129.09 216.5,-139.09 223.5,-139.09"/>
</a>
</g>
</g>
<!-- Node14&#45;&gt;Node9 -->
<g id="edge19_Node000014_Node000009" class="edge">
<title>Node14&#45;&gt;Node9</title>
<g id="a_edge19_Node000014_Node000009"><a xlink:title=" ">
<path fill="none" stroke="#63b8ff" d="M247.63,-109.98C276.51,-101.09 322.01,-87.07 354.2,-77.15"/>
<polygon fill="#63b8ff" stroke="#63b8ff" points="355.62,-80.37 364.15,-74.08 353.56,-73.68 355.62,-80.37"/>
</a>
</g>
</g>
<!-- Node14&#45;&gt;Node10 -->
<g id="edge18_Node000014_Node000010" class="edge">
<title>Node14&#45;&gt;Node10</title>
<g id="a_edge18_Node000014_Node000010"><a xlink:title=" ">
<path fill="none" stroke="#63b8ff" d="M225.24,-109.66C235.79,-91.85 259.78,-51.37 273.63,-28.01"/>
<polygon fill="#63b8ff" stroke="#63b8ff" points="276.78,-29.55 278.87,-19.16 270.76,-25.98 276.78,-29.55"/>
</a>
</g>
</g>
<!-- Node15&#45;&gt;Node10 -->
<g id="edge22_Node000015_Node000010" class="edge">
<title>Node15&#45;&gt;Node10</title>
<g id="a_edge22_Node000015_Node000010"><a xlink:title=" ">
<path fill="none" stroke="#63b8ff" d="M342.67,-164.74C332.91,-139.09 304.27,-63.78 290.95,-28.78"/>
<polygon fill="#63b8ff" stroke="#63b8ff" points="294.18,-27.41 287.35,-19.31 287.63,-29.9 294.18,-27.41"/>
</a>
</g>
</g>
<!-- Node16 -->
<g id="Node000016" class="node">
<title>Node16</title>
<g id="a_Node000016"><a xlink:title=" ">
<polygon fill="#e0e0e0" stroke="#999999" points="402,-129 346,-129 346,-110 402,-110 402,-129"/>
<text text-anchor="middle" x="374" y="-117" font-family="Helvetica,sans-Serif" font-size="10.00">stddef.h</text>
</a>
</g>
</g>
<!-- Node15&#45;&gt;Node16 -->
<g id="edge21_Node000015_Node000016" class="edge">
<title>Node15&#45;&gt;Node16</title>
<g id="a_edge21_Node000015_Node000016"><a xlink:title=" ">
<path fill="none" stroke="#63b8ff" d="M350.62,-164.75C354.46,-157.49 360.02,-146.95 364.76,-137.98"/>
<polygon fill="#63b8ff" stroke="#63b8ff" points="367.89,-139.57 369.46,-129.09 361.7,-136.3 367.89,-139.57"/>
</a>
</g>
</g>
</g>
</svg>

<g id="navigator" transform="translate(0 0)" fill="#404254">
  <rect fill="#f2f5e9" fill-opacity="0.5" stroke="#606060" stroke-width=".5" x="0" y="0" width="60" height="60"/>
  <use id="zoomplus" xlink:href="#zoomPlus" x="17" y="9" onmousedown="handleZoom(evt,'in')"/>
  <use id="zoomminus" xlink:href="#zoomMin" x="42" y="9" onmousedown="handleZoom(evt,'out')"/>
  <use id="reset" xlink:href="#resetDef" x="30" y="36" onmousedown="handleReset()"/>
   <use id="arrowup" xlink:href="#arrowUp" x="0" y="0" onmousedown="handlePan(0,-1)"/>
  <use id="arrowright" xlink:href="#arrowRight" x="0" y="0" onmousedown="handlePan(1,0)"/>
  <use id="arrowdown" xlink:href="#arrowDown" x="0" y="0" onmousedown="handlePan(0,1)"/>
  <use id="arrowleft" xlink:href="#arrowLeft" x="0" y="0" onmousedown="handlePan(-1,0)"/>
</g>
<svg viewBox="0 0 15 15" width="100%" height="30px" preserveAspectRatio="xMaxYMin meet">
 <g id="arrow_out" transform="scale(0.3 0.3)">
  <a xlink:href="transmit__dialog_8c__incl_org.svg" target="_base">
   <rect id="button" ry="5" rx="5" y="6" x="6" height="38" width="38"
        fill="#f2f5e9" fill-opacity="0.5" stroke="#606060" stroke-width="1.0"/>
   <path id="arrow"
     d="M 11.500037,31.436501 C 11.940474,20.09759 22.043105,11.32322 32.158766,21.979434 L 37.068811,17.246167 C 37.068811,17.246167 37.088388,32 37.088388,32 L 22.160133,31.978069 C 22.160133,31.978069 26.997745,27.140456 26.997745,27.140456 C 18.528582,18.264221 13.291696,25.230495 11.500037,31.436501 z"
     style="fill:#404040;"/>
  </a>
 </g>
</svg>

<style type='text/css'>
<![CDATA[
[data-mouse-over-selected='false'] { opacity: 0.7; }
[data-mouse-over-selected='true']  { opacity: 1.0; }
]]>
</style>
<script type="application/ecmascript"><![CDATA[
document.addEventListener('DOMContentLoaded', (event) => {
  highlightEdges();
  highlightAdjacentNodes();
});
]]></script>
</svg>
